<svg id="christmas-icon-accessory" data-name="Christmas Icon Accessory" xmlns="http://www.w3.org/2000/svg" viewBox="0 0 180 180">
  <title>christmas-icon-accessory</title>
  <g>
    <g>
      <path d="M110.82,88.7H64.91A34.38,34.38,0,0,1,99.29,54.33h25C115.26,64.18,110.52,75.56,110.82,88.7Z" style="fill: #f73c4f"/>
      <circle cx="122.54" cy="56.11" r="6.12" style="fill: #f2f2f2"/>
      <path d="M110.82,91.71H64.91a3,3,0,0,1,0-6h45.91a3,3,0,1,1,0,6Z" style="fill: #f2f2f2"/>
    </g>
    <g>
      <path d="M77.91,94.05c-.11,1.92-.75,9-.46,10.53a4.51,4.51,0,0,0,1.14,2.29l-9,5.8a69.13,69.13,0,0,0-7.25-6.59c-2.62-2-6.9-7.82-9.15-11.22-.23-.34-.44-.66-.62-1a11.29,11.29,0,0,1-.85-1.5,2.43,2.43,0,0,1-.06-.31c0-.22-.09-.54-.13-.92-.29-2.76-.45-9.06,2.12-10.41s7.83,1.09,10.13,2.52a7.53,7.53,0,0,1,.77.53c.11.08.18.15.24.2a15.19,15.19,0,0,1,1,1.34l.63.88c1.63,2.27,3.88,5.45,4.84,5.86,1.41.61.06-5.57,3-5.61S78,92.14,77.91,94.05Z"/>
      <path d="M69.87,114.46l10.26-6.58a.57.57,0,0,0,.11-.79l-1.17-1.81a.56.56,0,0,0-.75-.23l-10.27,6.59a.56.56,0,0,0-.11.78l1.17,1.82A.56.56,0,0,0,69.87,114.46Z" style="fill: #f2f2f2"/>
    </g>
    <g>
      <path d="M116.27,108.25c-2.8,3.28-8.07,8.87-11.08,10.61a75.46,75.46,0,0,0-8.48,6L88,117.59a4.72,4.72,0,0,0,1.49-2.26c.5-1.54.76-9.1.89-11.14s1.71-7.91,4.79-7.49.88,6.76,2.43,6.3c1.07-.31,3.85-3.36,5.86-5.54l.77-.84a14.16,14.16,0,0,1,1.28-1.27,1.91,1.91,0,0,1,.28-.19q.33-.19.87-.45c2.6-1.21,8.45-3.11,11-1.34s1.55,8.36.88,11.23c-.09.39-.18.72-.25,1s-.08.24-.11.31a10.94,10.94,0,0,1-1.09,1.47h0Z"/>
      <path d="M85.9,118.59l9.94,8.26a.6.6,0,0,0,.83-.14L98.12,125a.6.6,0,0,0,0-.84l-9.94-8.25a.59.59,0,0,0-.83.14l-1.46,1.75A.59.59,0,0,0,85.9,118.59Z" style="fill: #f2f2f2"/>
    </g>
  </g>
</svg>
