<svg xmlns="http://www.w3.org/2000/svg" xmlns:xlink="http://www.w3.org/1999/xlink" viewBox="0 0 180 180">
  <defs>
    <radialGradient id="radial-gradient" cx="69.34" cy="-4010.34" r="8.62" gradientTransform="translate(0 6629.82) scale(1 1.62)" gradientUnits="userSpaceOnUse">
      <stop offset="0" stop-color="#cc6942"/>
      <stop offset="0.05" stop-color="#bd6441"/>
      <stop offset="0.19" stop-color="#95573f"/>
      <stop offset="0.34" stop-color="#744d3d"/>
      <stop offset="0.49" stop-color="#5b443c"/>
      <stop offset="0.65" stop-color="#483f3b"/>
      <stop offset="0.81" stop-color="#3e3b3a"/>
      <stop offset="1" stop-color="#3a3a3a"/>
    </radialGradient>
  </defs>
  <title>christmas-icon-background</title>
  <g style="isolation: isolate">
    <g id="christmas-background" data-name="Christmas Background">
      <g>
        <path d="M139.69,126c0,.14-1.15.27-3.25.4-7.14.41-25.24.71-46.44.71s-39.3-.3-46.44-.71c-2.1-.13-3.25-.26-3.25-.4s1.08-.26,3.06-.38c7-.42,25.23-.72,46.63-.72s39.64.3,46.63.72C138.61,125.78,139.69,125.91,139.69,126Z" style="fill: #d6b292"/>
        <g>
          <g>
            <g>
              <rect x="54.57" y="78.38" width="0.76" height="4.52" style="fill: #ffd151"/>
              <rect x="59.7" y="78.38" width="0.76" height="4.52" style="fill: #ffd151"/>
              <rect x="57.14" y="77.21" width="0.76" height="4.52" style="fill: #ffd151"/>
              <rect x="54.39" y="82.9" width="1.15" height="0.36" style="fill: #666"/>
              <rect x="54.69" y="83.26" width="0.54" height="0.36" style="fill: #666"/>
              <path d="M57.32,86.12a2.47,2.47,0,0,1-1.91-.72,2.64,2.64,0,0,1-.63-1.83l.36,0-.18,0,.18,0a2.36,2.36,0,0,0,.53,1.56,2.17,2.17,0,0,0,1.65.6Z" style="fill: #666"/>
              <rect x="59.54" y="82.9" width="1.15" height="0.36" transform="translate(120.22 166.17) rotate(180)" style="fill: #666"/>
              <rect x="59.84" y="83.26" width="0.54" height="0.36" transform="translate(120.22 166.89) rotate(180)" style="fill: #666"/>
              <rect x="56.95" y="81.73" width="1.15" height="0.36" transform="translate(115.04 163.83) rotate(180)" style="fill: #666"/>
              <rect x="57.25" y="82.1" width="0.54" height="0.36" transform="translate(115.04 164.55) rotate(180)" style="fill: #666"/>
              <path d="M57.75,86.12v-.36a2.15,2.15,0,0,0,1.65-.6,2.3,2.3,0,0,0,.53-1.56l.36,0a2.66,2.66,0,0,1-.62,1.83A2.5,2.5,0,0,1,57.75,86.12Z" style="fill: #666"/>
              <rect x="57.34" y="82.46" width="0.36" height="6.18" style="fill: #666"/>
              <path d="M57.9,85.94a.38.38,0,1,1-.38-.38A.38.38,0,0,1,57.9,85.94Z" style="fill: #666"/>
              <rect x="57.28" y="88.64" width="0.47" height="0.17" style="fill: #666"/>
              <path d="M59.44,89.15H55.6a.34.34,0,0,1,.34-.34H59.1a.34.34,0,0,1,.34.34Z" style="fill: #666"/>
              <rect x="55.25" y="89.15" width="4.55" height="0.34" style="fill: #666"/>
            </g>
            <g style="opacity: 0.5">
              <rect x="55.1" y="78.63" width="0.18" height="3.84" rx="0.06" ry="0.06" style="fill: #fff"/>
            </g>
            <g style="opacity: 0.5">
              <path d="M57.73,81.45h0a.09.09,0,0,1-.09-.09V77.7a.09.09,0,0,1,.09-.09h0a.09.09,0,0,1,.08.09v3.66A.09.09,0,0,1,57.73,81.45Z" style="fill: #fff"/>
            </g>
            <g style="opacity: 0.5">
              <path d="M60.31,82.48h0a.09.09,0,0,1-.08-.09V78.72a.09.09,0,0,1,.08-.09h0a.09.09,0,0,1,.09.09v3.67A.09.09,0,0,1,60.31,82.48Z" style="fill: #fff"/>
            </g>
          </g>
          <g>
            <rect x="75.59" y="79.65" width="7.38" height="10.02" style="fill: #f9f5f2"/>
            <polygon points="80.36 80.37 76.31 84.42 76.31 83.1 79.03 80.37 80.36 80.37" style="fill: #fff"/>
            <polygon points="82.25 80.37 82.25 81.94 76.31 87.89 76.31 84.99 80.93 80.37 82.25 80.37" style="fill: #fff"/>
            <rect x="76.31" y="80.37" width="5.94" height="8.58" style="fill: none;stroke: #444;stroke-miterlimit: 10;stroke-width: 0.8718800000000001px"/>
            <polygon points="86.2 89.67 78.74 89.67 79.39 83.9 86.2 83.9 86.2 89.67" style="fill: #e2dcd7;mix-blend-mode: multiply"/>
            <rect x="79.39" y="83.9" width="7.15" height="5.77" style="fill: #f9f5f2"/>
            <polygon points="84.25 84.76 80.2 88.81 80.2 87.49 82.93 84.76 84.25 84.76" style="fill: #fff"/>
            <polygon points="85.83 84.69 85.83 86.7 83.57 88.95 80.63 88.95 84.89 84.69 85.83 84.69" style="fill: #fff"/>
            <rect x="80.11" y="84.62" width="5.72" height="4.33" style="fill: none;stroke: #444;stroke-miterlimit: 10;stroke-width: 0.8718800000000001px"/>
          </g>
          <g>
            <rect x="49.6" y="89.07" width="38.96" height="33.69" style="fill: #f4f4f4"/>
            <path d="M48.12,92.25H90a0,0,0,0,1,0,0v.86a2.33,2.33,0,0,1-2.33,2.33H50.44a2.33,2.33,0,0,1-2.33-2.33v-.86A0,0,0,0,1,48.12,92.25Z" style="fill: #f4f4f4"/>
            <path d="M92.15,89.43v1.85a1,1,0,0,1-.21.6,1,1,0,0,1-.77.38H47a1,1,0,0,1-1-1V89.43a.37.37,0,0,1,.37-.36h45.4A.37.37,0,0,1,92.15,89.43Z" style="fill: #f4f4f4"/>
            <rect x="57.17" y="99.25" width="23.81" height="24.97" style="fill: #666"/>
            <rect x="58.2" y="100.28" width="21.72" height="22.87" style="fill: #3a3a3a"/>
            <rect x="48.12" y="92.26" width="41.92" height="0.53" style="fill: #666;opacity: 0.25"/>
            <rect x="49.6" y="95.44" width="38.96" height="0.53" style="fill: #666;opacity: 0.25"/>
            <polygon points="92.14 123.6 92.14 125.4 46.17 125.4 46.17 123.62 46.18 123.61 47.03 122.76 91.3 122.76 92.14 123.6" style="fill: #f4f4f4"/>
          </g>
          <polygon points="55.91 99.08 51.31 99.08 51.31 99.78 52.29 99.78 52.29 122.76 52.98 122.76 52.98 99.78 54.15 99.78 54.15 122.76 54.84 122.76 54.84 99.78 55.91 99.78 55.91 99.08" style="fill: #666;opacity: 0.25"/>
          <polygon points="86.85 99.08 82.25 99.08 82.25 99.78 83.27 99.78 83.27 122.76 83.97 122.76 83.97 99.78 85.13 99.78 85.13 122.76 85.82 122.76 85.82 99.78 86.85 99.78 86.85 99.08" style="fill: #666;opacity: 0.25"/>
          <path d="M92.15,89.43v.51H46v-.51a.37.37,0,0,1,.37-.36h45.4A.37.37,0,0,1,92.15,89.43Z" style="fill: #f7f7f7"/>
          <g>
            <path d="M68.46,87.65a2.17,2.17,0,0,0,.79,2,2.16,2.16,0,0,0,3.46-1.34,2.15,2.15,0,0,0-3.88-1.6A2.27,2.27,0,0,0,68.46,87.65Z" style="fill: #ef6461"/>
            <path d="M72.17,88.91a2.34,2.34,0,0,0-1.93-2.7l-.27,0a1.82,1.82,0,0,1,.93-.07,1.91,1.91,0,0,1,1.21,3.07A1.07,1.07,0,0,0,72.17,88.91Z" style="fill: #fff;opacity: 0.5"/>
            <path d="M68.46,87.65a1.86,1.86,0,0,0,.64,1.92c.36-.25.77-.5.85-1a1.55,1.55,0,0,0-1.23-1.68A1.45,1.45,0,0,0,68.46,87.65Z" style="fill: #898989;opacity: 0.5;mix-blend-mode: multiply"/>
            <path d="M66.88,88.09a1.46,1.46,0,0,0,2.88.48,1.46,1.46,0,1,0-2.88-.48Z" style="fill: #ef6461"/>
            <path d="M69.39,89a1.58,1.58,0,0,0-1.31-1.83l-.18,0a1.21,1.21,0,0,1,.63,0,1.3,1.3,0,0,1,1.07,1.5,1.17,1.17,0,0,1-.25.58A1.16,1.16,0,0,0,69.39,89Z" style="fill: #fff;opacity: 0.5"/>
          </g>
          <path d="M79.66,119.14c0,4.83-4.75,3.34-10.6,3.34S58.45,124,58.45,119.14s4.42-16.75,10.28-16.75S79.66,114.31,79.66,119.14Z" style="fill: url(#radial-gradient)"/>
          <g>
            <path d="M67.32,121.9a4.45,4.45,0,0,1-2.72-2.24c-.93-2.54.25-4.45.84-6s1.34-4.85,1.21-3.72c-.25,2.26,1.84,6.35,2.07,2.79,0-.54-.39-.89.19-5.24a15.73,15.73,0,0,0,3.82,6.62c2.14,2.1,1.93,7.18-2.34,7.75H67.32Z" style="fill: #f06543"/>
            <path d="M69.42,121.91a3.37,3.37,0,0,1-2.65-1.85c-1.1-2-.8-3-.36-5.67a6.61,6.61,0,0,0,2.16,3.72c.31,0,.25-2.62.08-2.81,0,0,1.28,1.53,1.57,1.15s-.38-3.12-.19-3.78c.89,2.06,2,2.57,2.66,4.43a4.13,4.13,0,0,1-3.27,4.81Z" style="fill: #ffd151"/>
            <path d="M69.26,120.45c-.45.92-.49-1.9-.49-1.9-.23,1.41-.58,1.34-.54,1.71.14,1.35.61,1.65,1.09,1.64h0s.46.23,1.15-1.08c.51-1-.52-.73-.54-2.7Z" style="fill: #ffd151"/>
          </g>
          <path d="M67.19,106.36a5.56,5.56,0,0,0,0,.81c.07.14.26.39.31.37S67.19,106.36,67.19,106.36Z" style="fill: #cc6942"/>
          <path d="M68.23,100.7a1.92,1.92,0,0,1-.13.41c-.09.17,0-.94-.19.29,0,.15.08.48.12.45A.89.89,0,0,0,68.23,100.7Z" style="fill: #cc6942"/>
          <path d="M69.29,104.16a4.82,4.82,0,0,1-.22.68c-.16.28,0-1.58-.34.49,0,.24.12.8.19.75A1.48,1.48,0,0,0,69.29,104.16Z" style="fill: #cc6942"/>
          <path d="M92.41,89.53a.69.69,0,0,0-.1-.19.8.8,0,0,0-.78-.75.77.77,0,0,0-.61.3.61.61,0,0,0-.35-.11.59.59,0,0,0-.37.13.53.53,0,0,0-.12,0,.67.67,0,0,0-.28-.06h-.08a.72.72,0,0,0-.51-.21.87.87,0,0,0-.28,0,.73.73,0,0,0-.3-.07.69.69,0,0,0-.24,0,.8.8,0,0,0-.6.33.7.7,0,0,0-.25,0,.49.49,0,0,0-.21,0l-.16,0a.64.64,0,0,0-.28.07h-.1a.76.76,0,0,0-.21,0,.78.78,0,0,0-.53-.2.81.81,0,0,0-.6.26,5.75,5.75,0,0,1-.81-.5h-.16a.83.83,0,0,0-1.13.3h0a.4.4,0,0,0-.34.2l0,0a.76.76,0,0,0-.59-.31h0a.83.83,0,0,0-.51-.18.77.77,0,0,0-.43.12.64.64,0,0,0-.33-.1.59.59,0,0,0-.23.05l0,0a.65.65,0,0,0-.49-.23h-.19a.53.53,0,0,0-.52.41.27.27,0,0,0-.14.07.8.8,0,0,0-1.49-.08.82.82,0,0,0-.55-.22.81.81,0,0,0-.62.3.8.8,0,0,0-.56-.22.83.83,0,0,0-.75.48l0,0a.7.7,0,0,0-.53-.24.71.71,0,0,0-.59.33.59.59,0,0,0-.42-.17l-.17,0a.82.82,0,0,0-.41-.12.74.74,0,0,0-.39.11.45.45,0,0,0-.16,0,.41.41,0,0,0-.4.29h0a.53.53,0,0,0-.18,0,.64.64,0,0,0-.15-.13.45.45,0,0,0-.3-.33.77.77,0,0,0-.63-.33.78.78,0,0,0-.31.07l-.13,0a.58.58,0,0,0-.26.06h0a.74.74,0,0,0-.67-.43.76.76,0,0,0-.54.23h-.1a.67.67,0,0,0-.28.06.76.76,0,0,0-.51-.19.79.79,0,0,0-.66.37.81.81,0,0,0-.28.24.69.69,0,0,0-.24,0,.46.46,0,0,0-.23-.06.45.45,0,0,0-.26.08l-.17.06h-.1a.76.76,0,0,0-.21,0,.78.78,0,0,0-.54-.2.83.83,0,0,0-.6.26.56.56,0,0,0-.17-.09.68.68,0,0,0-.64-.41H64a.85.85,0,0,0-.42-.11.82.82,0,0,0-.71.41h0a.4.4,0,0,0-.34.2l0,0a.73.73,0,0,0-.59-.31h0a.84.84,0,0,0-.52-.18.76.76,0,0,0-.42.12.64.64,0,0,0-.33-.1.59.59,0,0,0-.23.05l-.05,0a.62.62,0,0,0-.48-.23h-.19a.53.53,0,0,0-.52.41.27.27,0,0,0-.14.07.8.8,0,0,0-1.49-.08.82.82,0,0,0-.55-.22.79.79,0,0,0-.62.3.82.82,0,0,0-.56-.22.83.83,0,0,0-.75.48l0,0a.7.7,0,0,0-.53-.24.68.68,0,0,0-.59.33.59.59,0,0,0-.42-.17l-.17,0a.82.82,0,0,0-.41-.12.71.71,0,0,0-.39.11.47.47,0,0,0-.17,0,.41.41,0,0,0-.39.29h0a.58.58,0,0,0-.19,0,.58.58,0,0,0-.14-.13.47.47,0,0,0-.45-.36l-.1,0a.63.63,0,0,0-.47-.2h-.07a.68.68,0,0,0-.28-.07.55.55,0,0,0-.26.06h0a.74.74,0,0,0-.67-.43.73.73,0,0,0-.54.23h-.1a.64.64,0,0,0-.28.06.78.78,0,0,0-.51-.19A.8.8,0,0,0,47,89h0a.46.46,0,0,0-.21,0,.46.46,0,0,0-.38-.2.46.46,0,0,0-.46.4.44.44,0,0,0-.3.43.46.46,0,0,1,0,.62.46.46,0,0,0,.45.46h0a.53.53,0,0,0,.17,0,.42.42,0,0,0,.42-.39.43.43,0,0,0,.27.1.46.46,0,0,0,.21-.05.38.38,0,0,0,.19.05h0a.8.8,0,0,0,.38.1.77.77,0,0,0,.34-.08.78.78,0,0,0,.45.15.88.88,0,0,0,.32-.07.81.81,0,0,0,.46.14.85.85,0,0,0,.35-.08.71.71,0,0,0,.56.29.67.67,0,0,0,.47-.19.6.6,0,0,0,.46.22.55.55,0,0,0,.35-.12l.07,0a.46.46,0,0,0,.23.06.48.48,0,0,0,.32-.13.75.75,0,0,0,1.16.15h.06a.59.59,0,0,0,.29-.07.34.34,0,0,0,.16.13.53.53,0,0,0,.4.17.55.55,0,0,0,.46-.24l.12-.07a.55.55,0,0,0,.34.11h0a.7.7,0,0,0,.35.09.8.8,0,0,0,.38-.1.64.64,0,0,0,.2,0,.61.61,0,0,0,.46-.21.87.87,0,0,0,.32.06.7.7,0,0,0,.38-.1.48.48,0,0,0,.24.06h.17a.68.68,0,0,0,.49-.2h.1l.11,0a.49.49,0,0,0,.43-.26.58.58,0,0,0,.94.09h.08a.41.41,0,0,0,.18,0,.61.61,0,0,0,.41.19.83.83,0,0,0,.74.49.73.73,0,0,1,.56.06.72.72,0,0,0,.43-.15h.08a.7.7,0,0,0,.62.37.71.71,0,0,0,.38-.12.83.83,0,0,0,.22,0,.78.78,0,0,0,.22,0l.12,0h.08a.79.79,0,0,0,.68.4.81.81,0,0,0,.59-.26.78.78,0,0,0,.35.08.84.84,0,0,0,.49-.16.73.73,0,0,0,.33.08.72.72,0,0,0,.54-.24.64.64,0,0,0,.2,0,.72.72,0,0,0,.56-.28.77.77,0,0,0,.34.08.83.83,0,0,0,.66-.34h.11l.12,0a.71.71,0,0,0,.45.16.74.74,0,0,0,.34-.08l.18,0a.78.78,0,0,0,.35-.08.71.71,0,0,0,.56.29.69.69,0,0,0,.42-.15l.15,0a.57.57,0,0,0,.36.13.55.55,0,0,0,.35-.12l.07,0a.46.46,0,0,0,.55-.07.75.75,0,0,0,1.16.15h.06a.57.57,0,0,0,.29-.07.4.4,0,0,0,.16.13.53.53,0,0,0,.4.17.55.55,0,0,0,.46-.24l.12-.07a.58.58,0,0,0,.34.11h0A.74.74,0,0,0,76,91a.79.79,0,0,0,.37-.1.64.64,0,0,0,.2,0,.59.59,0,0,0,.46-.21.87.87,0,0,0,.32.06.7.7,0,0,0,.38-.1.48.48,0,0,0,.24.06h.17a.68.68,0,0,0,.49-.2h.1l.12,0a.49.49,0,0,0,.42-.26.59.59,0,0,0,.51.29.57.57,0,0,0,.43-.2h.08a.35.35,0,0,0,.18,0,.63.63,0,0,0,.42.19.82.82,0,0,0,.74.49.76.76,0,0,0,.21,0,.78.78,0,0,0,.34.09.7.7,0,0,0,.43-.15h.08a.7.7,0,0,0,.62.37.71.71,0,0,0,.38-.12.85.85,0,0,0,.23,0,.76.76,0,0,0,.21,0l.12,0h.08a.8.8,0,0,0,.69.4.79.79,0,0,0,.58-.26.85.85,0,0,0,.35.08.82.82,0,0,0,.49-.16.73.73,0,0,0,.33.08.7.7,0,0,0,.54-.24.69.69,0,0,0,.2,0,.7.7,0,0,0,.56-.28.78.78,0,0,0,.35.08.8.8,0,0,0,.65-.34h.17a.8.8,0,0,0,.52.2.77.77,0,0,0,.6-.3.82.82,0,0,0,.47.15.67.67,0,0,0,.24,0,.72.72,0,0,0,.47.18h0a.74.74,0,0,0,1.08-.67A.76.76,0,0,0,92.41,89.53Z" style="fill: #666;opacity: 0.4"/>
          <path d="M92.69,89.68a.73.73,0,0,1-1.08.67h0a.71.71,0,0,1-.47-.17,1,1,0,0,1-.24,0,.82.82,0,0,1-.47-.14.76.76,0,0,1-.6.29.75.75,0,0,1-.52-.2H89.1a.77.77,0,0,1-.65.34.78.78,0,0,1-.35-.08.7.7,0,0,1-.56.28.69.69,0,0,1-.2,0,.7.7,0,0,1-.54.24.62.62,0,0,1-.33-.08A.83.83,0,0,1,86,91a.86.86,0,0,1-.35-.09.79.79,0,0,1-.58.26.8.8,0,0,1-.69-.4h-.2a1.52,1.52,0,0,1-.21,0,.85.85,0,0,1-.23,0,.1.1,0,0,1,0,0h0a.66.66,0,0,1-.32.08.7.7,0,0,1-.62-.37h-.08a.64.64,0,0,1-.43.15.67.67,0,0,1-.34-.09.76.76,0,0,1-.21,0h-.13a.81.81,0,0,1-.61-.48.55.55,0,0,1-.42-.19.35.35,0,0,1-.18,0h-.08a.55.55,0,0,1-.43.2.58.58,0,0,1-.51-.29.47.47,0,0,1-.42.26h-.22a.69.69,0,0,1-.49.21H78a.48.48,0,0,1-.24-.06.8.8,0,0,1-.38.1.88.88,0,0,1-.32-.07.6.6,0,0,1-.46.22.45.45,0,0,1-.2,0,.69.69,0,0,1-.37.1.74.74,0,0,1-.36-.09h0a.55.55,0,0,1-.34-.11l-.12.06a.56.56,0,0,1-.46.25.57.57,0,0,1-.4-.17.43.43,0,0,1-.16-.14.57.57,0,0,1-.29.08h-.05a.77.77,0,0,1-.42.21h-.11a.76.76,0,0,1-.64-.36.44.44,0,0,1-.32.13.48.48,0,0,1-.23-.07l-.07,0a.61.61,0,0,1-.35.11.53.53,0,0,1-.35-.12h0a.94.94,0,0,1-.15-.06.64.64,0,0,1-.42.15.68.68,0,0,1-.56-.29.68.68,0,0,1-.35.09.57.57,0,0,1-.18,0,.63.63,0,0,1-.34.08.78.78,0,0,1-.45-.15l-.12,0h-.11a.81.81,0,0,1-.66.34.77.77,0,0,1-.34-.08.72.72,0,0,1-.57.28.63.63,0,0,1-.19,0,.72.72,0,0,1-.54.24.62.62,0,0,1-.33-.08.85.85,0,0,1-.49.17.79.79,0,0,1-.35-.09.81.81,0,0,1-.59.26.79.79,0,0,1-.68-.4h-.2a1.46,1.46,0,0,1-.22,0,.85.85,0,0,1-.22,0,.64.64,0,0,1-.38.12h-.07a.7.7,0,0,1-.55-.37h-.08a.69.69,0,0,1-.77.06.76.76,0,0,1-.21,0,.78.78,0,0,1-.37-.09.82.82,0,0,1-.38-.4.53.53,0,0,1-.41-.19.41.41,0,0,1-.18,0h-.08a.56.56,0,0,1-.44.2.57.57,0,0,1-.5-.29.47.47,0,0,1-.42.26H58.2a.69.69,0,0,1-.49.21h-.17a.48.48,0,0,1-.24-.06.8.8,0,0,1-.38.1.83.83,0,0,1-.32-.07.6.6,0,0,1-.46.22.45.45,0,0,1-.2,0,.75.75,0,0,1-.73,0h0a.55.55,0,0,1-.34-.11l-.12.06a.56.56,0,0,1-.46.25.57.57,0,0,1-.4-.17.36.36,0,0,1-.16-.14.6.6,0,0,1-.29.08h-.06a.71.71,0,0,1-.52.22.58.58,0,0,1-.19,0,.72.72,0,0,1-.45-.33.48.48,0,0,1-.32.13.45.45,0,0,1-.23-.07l-.07,0a.61.61,0,0,1-.35.11.57.57,0,0,1-.46-.22.74.74,0,0,1-.27.16.64.64,0,0,1-.2,0,.68.68,0,0,1-.56-.29.7.7,0,0,1-.35.09.81.81,0,0,1-.46-.15.71.71,0,0,1-.32.07.77.77,0,0,1-.45-.14.77.77,0,0,1-.34.07.79.79,0,0,1-.38-.09h0a.38.38,0,0,1-.19,0,.37.37,0,0,1-.21.06.43.43,0,0,1-.27-.1.42.42,0,0,1-.42.38.51.51,0,0,1-.17,0h0a.46.46,0,0,1-.45-.46.46.46,0,0,0,0-.62.44.44,0,0,1,.3-.43.47.47,0,0,1,.46-.4.46.46,0,0,1,.38.21.39.39,0,0,1,.21-.06h0a.8.8,0,0,1,.78-.64.78.78,0,0,1,.5.18.93.93,0,0,1,.29,0h.1a.73.73,0,0,1,.54-.23.76.76,0,0,1,.67.43h0a.75.75,0,0,1,.26-.05.55.55,0,0,1,.28.07h.07a.67.67,0,0,1,.47.2h.1a.46.46,0,0,1,.45.36.44.44,0,0,1,.14.13.41.41,0,0,1,.19,0h0a.42.42,0,0,1,.39-.3h.08l.09,0a.72.72,0,0,1,.39-.12.74.74,0,0,1,.41.13.47.47,0,0,1,.17,0,.6.6,0,0,1,.42.18.68.68,0,0,1,.59-.33.66.66,0,0,1,.32.08.8.8,0,0,1,.21.15h0a.83.83,0,0,1,.75-.49.87.87,0,0,1,.56.22.78.78,0,0,1,1.17-.07.8.8,0,0,1,1.49.07.2.2,0,0,1,.14-.06.54.54,0,0,1,.52-.42h.19a.6.6,0,0,1,.48.24h.05a.59.59,0,0,1,.23,0,.63.63,0,0,1,.33.09.86.86,0,0,1,.42-.12.79.79,0,0,1,.52.19h0a.7.7,0,0,1,.59.31l0,0a.41.41,0,0,1,.34-.19h0a.81.81,0,0,1,.31-.3h0a.8.8,0,0,1,.4-.11.86.86,0,0,1,.42.12l.15,0a.73.73,0,0,1,.65.41.7.7,0,0,1,.16.1.87.87,0,0,1,.22-.17h0a.75.75,0,0,1,.38-.1.83.83,0,0,1,.54.2.76.76,0,0,1,.21,0h.1a.49.49,0,0,1,.17-.06.45.45,0,0,1,.26-.09.48.48,0,0,1,.23.07.67.67,0,0,1,.24,0,.81.81,0,0,1,.28-.24.79.79,0,0,1,.66-.36.83.83,0,0,1,.51.18.87.87,0,0,1,.28,0h.1a.75.75,0,0,1,.54-.23.76.76,0,0,1,.67.43h0a.75.75,0,0,1,.26-.05h.13a.78.78,0,0,1,.31-.06.76.76,0,0,1,.63.32.45.45,0,0,1,.3.34.47.47,0,0,1,.15.13.37.37,0,0,1,.18,0h0a.42.42,0,0,1,.4-.3.32.32,0,0,1,.16,0,.68.68,0,0,1,.31-.11h.08a.74.74,0,0,1,.41.13.51.51,0,0,1,.17,0,.6.6,0,0,1,.42.18.71.71,0,0,1,.59-.33.72.72,0,0,1,.51.21h0s0,0,0,0h0a.86.86,0,0,1,.13-.2l.08-.08a.79.79,0,0,1,.54-.21.85.85,0,0,1,.56.22.81.81,0,0,1,.62-.3.79.79,0,0,1,.55.23.8.8,0,0,1,1.49.07.2.2,0,0,1,.14-.06.54.54,0,0,1,.52-.42h.19a.63.63,0,0,1,.49.24h0a.51.51,0,0,1,.22,0,.63.63,0,0,1,.33.09.86.86,0,0,1,.42-.12.79.79,0,0,1,.52.19h0a.7.7,0,0,1,.58.31l0,0a.41.41,0,0,1,.34-.19h0a.85.85,0,0,1,.71-.41h0a.89.89,0,0,1,.4.12l.16,0a.72.72,0,0,1,.64.41.75.75,0,0,1,.17.1.79.79,0,0,1,.6-.27h0a.8.8,0,0,1,.51.2.76.76,0,0,1,.21,0h.1a.53.53,0,0,1,.28-.07l.16,0a.71.71,0,0,1,.21,0,.69.69,0,0,1,.25,0,.86.86,0,0,1,.6-.33.93.93,0,0,1,.24,0,.6.6,0,0,1,.3.07.67.67,0,0,1,.28-.06.73.73,0,0,1,.51.22h.08a.66.66,0,0,1,.28,0l.12,0a.55.55,0,0,1,.37-.14.62.62,0,0,1,.35.12.74.74,0,0,1,.61-.3.79.79,0,0,1,.78.74.75.75,0,0,1,.1.2A.74.74,0,0,1,92.69,89.68Z" style="fill: #006454"/>
          <path d="M54.74,88.56l-.87.87h0l-.88.89-.28.27-.06.06a.72.72,0,0,1-.45-.33.48.48,0,0,1-.32.13.45.45,0,0,1-.23-.07l-.07,0a.61.61,0,0,1-.35.11.57.57,0,0,1-.46-.22.74.74,0,0,1-.27.16l.69-.69.1-.1.8-.8.27-.27.09,0,.08-.05a.82.82,0,0,1,.31-.07.74.74,0,0,1,.41.13.47.47,0,0,1,.17,0,.6.6,0,0,1,.42.18.68.68,0,0,1,.59-.33A.66.66,0,0,1,54.74,88.56Z" style="fill: #db504a"/>
          <path d="M65.2,88.49l-2.39,2.39a.7.7,0,0,1-.55-.37h-.08a.69.69,0,0,1-.77.06.76.76,0,0,1-.21,0,.78.78,0,0,1-.37-.09l2.37-2.36h0a.8.8,0,0,1,.4-.11.86.86,0,0,1,.42.12l.15,0a.73.73,0,0,1,.65.41.7.7,0,0,1,.16.1A.87.87,0,0,1,65.2,88.49Z" style="fill: #db504a"/>
          <path d="M75.39,88.69l-2,2h-.11a.76.76,0,0,1-.64-.36.44.44,0,0,1-.32.13.48.48,0,0,1-.23-.07l-.07,0a.61.61,0,0,1-.35.11.53.53,0,0,1-.35-.12l1.88-1.88h.08a.74.74,0,0,1,.41.13.51.51,0,0,1,.17,0,.6.6,0,0,1,.42.18.71.71,0,0,1,.59-.33A.72.72,0,0,1,75.39,88.69Z" style="fill: #db504a"/>
          <path d="M86.07,88.39l-2.4,2.41h0a.66.66,0,0,1-.32.08.7.7,0,0,1-.62-.37h-.08a.64.64,0,0,1-.43.15.67.67,0,0,1-.34-.09.76.76,0,0,1-.21,0h-.13l2.55-2.55a.89.89,0,0,1,.4.12l.16,0a.72.72,0,0,1,.64.41.75.75,0,0,1,.17.1.79.79,0,0,1,.6-.27Z" style="fill: #db504a"/>
          <circle cx="49.23" cy="88.48" r="0.37" style="fill: #a1ddff"/>
          <circle cx="54.28" cy="90.15" r="0.37" style="fill: #c366ff"/>
          <circle cx="66.9" cy="89.84" r="0.37" style="fill: #c366ff"/>
          <circle cx="82.25" cy="88.85" r="0.37" style="fill: #c366ff"/>
          <circle cx="87.65" cy="90.15" r="0.37" style="fill: #c366ff"/>
          <circle cx="50.29" cy="89.84" r="0.37" style="fill: #f2f7f7"/>
          <circle cx="57.5" cy="89.78" r="0.37" style="fill: #f2f7f7"/>
          <circle cx="68.26" cy="88.64" r="0.37" style="fill: #f2f7f7"/>
          <circle cx="77.42" cy="89.78" r="0.37" style="fill: #f2f7f7"/>
          <circle cx="85.8" cy="89.84" r="0.37" style="fill: #f2f7f7"/>
          <circle cx="59.54" cy="89.47" r="0.37" style="fill: #a1ddff"/>
          <circle cx="71.17" cy="88.69" r="0.37" style="fill: #a1ddff"/>
          <circle cx="79.83" cy="89.67" r="0.37" style="fill: #a1ddff"/>
          <circle cx="89.9" cy="88.88" r="0.37" style="fill: #a1ddff"/>
          <circle cx="91.97" cy="89.94" r="0.37" style="fill: #ffd151"/>
          <circle cx="76.21" cy="88.69" r="0.37" style="fill: #ffd151"/>
          <circle cx="64.89" cy="90.07" r="0.37" style="fill: #ffd151"/>
          <circle cx="55.73" cy="88.85" r="0.37" style="fill: #ffd151"/>
          <circle cx="46.22" cy="89.67" r="0.37" style="fill: #ffd151"/>
          <g style="opacity: 0.5">
            <path d="M52.09,92.87a.6.6,0,0,1-.35,0l.63,1.85-.5.17a1.22,1.22,0,1,0,.79,2.3l1.27-.44a1.67,1.67,0,0,1,1-2.12l-.88-2.55a.7.7,0,0,1-.28.19Z" style="fill: #666"/>
            <path d="M55.15,95.22h0l0-.14L55.06,95l-.1-.3a1.67,1.67,0,0,0-1,2.12l.43-.14A1.22,1.22,0,0,0,55.15,95.22Z" style="fill: #666"/>
            <g>
              <path d="M54.87,94.79l0,0s0,0,0,0l.06,0s0,0,0,0a0,0,0,0,1,0,0l-.05,0Z" style="fill: #666"/>
              <path d="M53.94,96.52h0s0,0,0,0a.49.49,0,0,1,0-.12s0,0,0,0,0,0,0,0a.37.37,0,0,0,0,.11A0,0,0,0,1,53.94,96.52Zm0-.23h0a0,0,0,0,1,0,0,.49.49,0,0,0,0-.12s0,0,0,0,0,0,0,0a.37.37,0,0,1,0,.11S53.94,96.29,53.93,96.29Zm0-.23h0s0,0,0,0a.5.5,0,0,1,0-.12s0,0,0,0,0,0,0,0A.52.52,0,0,0,54,96Zm.06-.23h0s0,0,0,0a.56.56,0,0,1,0-.12h0l0,0a.36.36,0,0,0,0,.11A0,0,0,0,1,54,95.83Zm.08-.22h0s0,0,0,0a1.17,1.17,0,0,1,0-.11s0,0,0,0,0,0,0,0a.47.47,0,0,0,0,.1A0,0,0,0,1,54.09,95.61Zm.1-.21h0s0,0,0,0l.06-.1h0a0,0,0,0,1,0,0l-.06.1Zm.13-.19h0a0,0,0,0,1,0,0l.08-.09s0,0,0,0a0,0,0,0,1,0,0,.6.6,0,0,0-.08.08Zm.16-.17s0,0,0,0,0,0,0,0l.09-.08a0,0,0,0,1,0,0,0,0,0,0,1,0,0l-.08.07Zm.18-.15a0,0,0,0,1,0,0s0,0,0,0l.11-.06s0,0,0,0,0,0,0,0l-.09.06Z" style="fill: #666"/>
              <path d="M54,96.7s0,0,0,0,0,0,0-.06,0,0,0,0,0,0,0,0,0,0,0,.06A0,0,0,0,1,54,96.7Z" style="fill: #666"/>
            </g>
            <path d="M54,91.25l.15.45a.4.4,0,0,1-.09.4.7.7,0,0,1-.28.19l-1.71.58a.6.6,0,0,1-.35,0,.39.39,0,0,1-.3-.25l-.16-.45a.51.51,0,0,1,.38-.59l1.7-.58A.51.51,0,0,1,54,91.25Z" style="fill: #666"/>
            <path d="M52.09,92.87a.6.6,0,0,1-.35,0l0,.14a.64.64,0,0,0,.36,0l1.7-.59a.59.59,0,0,0,.29-.19l-.05-.13a.7.7,0,0,1-.28.19Z" style="fill: #666"/>
          </g>
          <g style="opacity: 0.5">
            <path d="M63.07,92.87a.6.6,0,0,1-.35,0l.63,1.85-.5.17a1.22,1.22,0,1,0,.79,2.3l1.27-.44a1.67,1.67,0,0,1,1-2.12l-.88-2.55a.7.7,0,0,1-.28.19Z" style="fill: #666"/>
            <path d="M66.13,95.22h0a.74.74,0,0,0,0-.14A.5.5,0,0,0,66,95l-.1-.3a1.67,1.67,0,0,0-1,2.12l.43-.14A1.22,1.22,0,0,0,66.13,95.22Z" style="fill: #666"/>
            <g>
              <path d="M65.85,94.79l0,0s0,0,0,0l.06,0s0,0,0,0a0,0,0,0,1,0,0l-.05,0Z" style="fill: #666"/>
              <path d="M64.92,96.52h0s0,0,0,0a.49.49,0,0,1,0-.12s0,0,0,0,0,0,0,0a.37.37,0,0,0,0,.11A0,0,0,0,1,64.92,96.52Zm0-.23h0a0,0,0,0,1,0,0s0-.08,0-.12,0,0,0,0a0,0,0,0,1,0,0,.37.37,0,0,1,0,.11S64.92,96.29,64.91,96.29Zm0-.23h0s0,0,0,0a.5.5,0,0,1,0-.12s0,0,0,0,0,0,0,0A.52.52,0,0,0,65,96Zm.06-.23h0s0,0,0,0a.56.56,0,0,1,0-.12h0s0,0,0,0l0,.11A0,0,0,0,1,65,95.83Zm.08-.22h0s0,0,0,0a1.17,1.17,0,0,1,0-.11s0,0,0,0,0,0,0,0l0,.1A0,0,0,0,1,65.07,95.61Zm.1-.21h0s0,0,0,0l.06-.1h0a0,0,0,0,1,0,0l-.06.1Zm.13-.19h0a0,0,0,0,1,0,0l.07-.09s0,0,0,0a0,0,0,0,1,0,0l-.07.08Zm.16-.17s0,0,0,0,0,0,0,0l.09-.08a0,0,0,0,1,0,0,0,0,0,0,1,0,0l-.08.07Zm.18-.15a0,0,0,0,1,0,0s0,0,0,0l.11-.06s0,0,0,0,0,0,0,0l-.09.06Z" style="fill: #666"/>
              <path d="M65,96.7l0,0s0,0,0-.06,0,0,0,0,0,0,0,0,0,0,0,.06S65,96.69,65,96.7Z" style="fill: #666"/>
            </g>
            <path d="M65,91.25l.15.45a.4.4,0,0,1-.09.4.7.7,0,0,1-.28.19l-1.71.58a.6.6,0,0,1-.35,0,.37.37,0,0,1-.3-.25l-.16-.45a.5.5,0,0,1,.38-.59l1.7-.58A.51.51,0,0,1,65,91.25Z" style="fill: #666"/>
            <path d="M63.07,92.87a.6.6,0,0,1-.35,0l0,.14a.64.64,0,0,0,.36,0l1.7-.59a.59.59,0,0,0,.29-.19l0-.13a.7.7,0,0,1-.28.19Z" style="fill: #666"/>
          </g>
          <g style="opacity: 0.5">
            <path d="M74.05,92.87a.61.61,0,0,1-.35,0l.63,1.85-.5.17a1.21,1.21,0,1,0,.78,2.3l1.28-.44a1.67,1.67,0,0,1,1-2.12L76,92.1a.67.67,0,0,1-.29.19Z" style="fill: #666"/>
            <path d="M77.11,95.22h0a.74.74,0,0,0,0-.14A.5.5,0,0,0,77,95l-.1-.3a1.67,1.67,0,0,0-1,2.12l.43-.14A1.22,1.22,0,0,0,77.11,95.22Z" style="fill: #666"/>
            <g>
              <path d="M76.83,94.79s0,0,0,0,0,0,0,0l.06,0s0,0,0,0a0,0,0,0,1,0,0l0,0Z" style="fill: #666"/>
              <path d="M75.9,96.52h0s0,0,0,0,0-.08,0-.12a0,0,0,0,1,0,0,0,0,0,0,1,0,0s0,.08,0,.11A0,0,0,0,1,75.9,96.52Zm0-.23h0a0,0,0,0,1,0,0s0-.08,0-.12,0,0,0,0a0,0,0,0,1,0,0s0,.08,0,.11S75.9,96.29,75.89,96.29Zm0-.23h0s0,0,0,0a.5.5,0,0,1,0-.12s0,0,0,0a0,0,0,0,1,0,0,.52.52,0,0,0,0,.11Zm.06-.23h0s0,0,0,0a.56.56,0,0,1,0-.12h0s0,0,0,0l0,.11A0,0,0,0,1,76,95.83Zm.07-.22h0s0,0,0,0a1.17,1.17,0,0,1,0-.11,0,0,0,0,1,0,0s0,0,0,0a.47.47,0,0,0,0,.1Zm.11-.21h0s0,0,0,0l.06-.1h0a0,0,0,0,1,0,0l-.06.1Zm.13-.19h0a0,0,0,0,1,0,0l.07-.09a0,0,0,0,1,0,0,0,0,0,0,1,0,0l-.07.08Zm.16-.17s0,0,0,0,0,0,0,0l.09-.08s0,0,0,0a0,0,0,0,1,0,0l-.09.07Zm.18-.15a0,0,0,0,1,0,0s0,0,0,0l.1-.06a0,0,0,0,1,0,0s0,0,0,0l-.1.06Z" style="fill: #666"/>
              <path d="M75.94,96.7l0,0s0,0,0-.06,0,0,0,0,0,0,0,0a.14.14,0,0,0,0,.06S76,96.69,75.94,96.7Z" style="fill: #666"/>
            </g>
            <path d="M76,91.25l.15.45a.4.4,0,0,1-.09.4.67.67,0,0,1-.29.19l-1.7.58a.61.61,0,0,1-.35,0,.37.37,0,0,1-.3-.25l-.16-.45a.5.5,0,0,1,.38-.59l1.7-.58A.51.51,0,0,1,76,91.25Z" style="fill: #666"/>
            <path d="M74.05,92.87a.61.61,0,0,1-.35,0l0,.14a.64.64,0,0,0,.36,0l1.7-.59a.59.59,0,0,0,.29-.19l0-.13a.67.67,0,0,1-.29.19Z" style="fill: #666"/>
          </g>
          <g style="opacity: 0.5">
            <path d="M85,92.87a.61.61,0,0,1-.35,0l.63,1.85-.51.17a1.22,1.22,0,0,0,.79,2.3l1.28-.44a1.67,1.67,0,0,1,1-2.12L87,92.1a.67.67,0,0,1-.29.19Z" style="fill: #666"/>
            <path d="M88.09,95.22h0a.74.74,0,0,0,0-.14A.5.5,0,0,0,88,95l-.1-.3a1.67,1.67,0,0,0-1,2.12l.43-.14A1.22,1.22,0,0,0,88.09,95.22Z" style="fill: #666"/>
            <g>
              <path d="M87.81,94.79s0,0,0,0,0,0,0,0l.06,0s0,0,0,0,0,0,0,0l0,0Z" style="fill: #666"/>
              <path d="M86.88,96.52h0s0,0,0,0,0-.08,0-.12a0,0,0,0,1,0,0,0,0,0,0,1,0,0s0,.08,0,.11A0,0,0,0,1,86.88,96.52Zm0-.23h0a0,0,0,0,1,0,0s0-.08,0-.12,0,0,0,0l0,0s0,.08,0,.11S86.88,96.29,86.87,96.29Zm0-.23h0s0,0,0,0a.5.5,0,0,1,0-.12s0,0,0,0a0,0,0,0,1,0,0,.52.52,0,0,0,0,.11S86.9,96.06,86.89,96.06Zm0-.23h0s0,0,0,0a.56.56,0,0,1,0-.12h0s0,0,0,0l0,.11S87,95.83,86.94,95.83Zm.08-.22h0s0,0,0,0a.37.37,0,0,1,0-.11,0,0,0,0,1,0,0s0,0,0,0l0,.1Zm.11-.21h0s0,0,0,0l.06-.1h0a0,0,0,0,1,0,0l-.06.1Zm.13-.19h0a0,0,0,0,1,0,0l.07-.09a0,0,0,0,1,0,0,0,0,0,0,1,0,0l-.07.08Zm.16-.17s0,0,0,0,0,0,0,0l.09-.08s0,0,0,0a0,0,0,0,1,0,0l-.09.07Zm.18-.15a0,0,0,0,1,0,0s0,0,0,0l.1-.06a0,0,0,0,1,0,0s0,0,0,0l-.1.06Z" style="fill: #666"/>
              <path d="M86.92,96.7a0,0,0,0,1,0,0s0,0,0-.06,0,0,0,0,0,0,0,0a.14.14,0,0,0,0,.06S86.93,96.69,86.92,96.7Z" style="fill: #666"/>
            </g>
            <path d="M87,91.25l.15.45a.4.4,0,0,1-.09.4.67.67,0,0,1-.29.19l-1.7.58a.61.61,0,0,1-.35,0,.37.37,0,0,1-.3-.25l-.16-.45a.5.5,0,0,1,.38-.59L86.3,91A.51.51,0,0,1,87,91.25Z" style="fill: #666"/>
            <path d="M85,92.87a.61.61,0,0,1-.35,0l0,.14a.64.64,0,0,0,.36,0l1.7-.59a.59.59,0,0,0,.29-.19l0-.13a.67.67,0,0,1-.29.19Z" style="fill: #666"/>
          </g>
          <rect x="61.59" y="121.63" width="15.76" height="1.04" style="fill: #72643d"/>
          <polygon points="92.14 123.6 92.14 123.61 46.18 123.61 47.03 122.76 91.3 122.76 92.14 123.6" style="fill: #fff;opacity: 0.8"/>
          <polygon points="53.87 89.43 53.86 89.44 52.98 90.33 51.18 89.79 51.28 89.69 52.08 88.89 53.87 89.43" style="fill: #fff;opacity: 0.15"/>
          <polygon points="64.57 89.12 64.56 89.13 63.68 90.01 61.88 89.48 61.98 89.38 62.78 88.58 64.57 89.12" style="fill: #fff;opacity: 0.15"/>
          <polygon points="74.44 89.64 74.42 89.65 73.54 90.53 71.75 90 71.84 89.9 72.64 89.1 74.44 89.64" style="fill: #fff;opacity: 0.15"/>
          <polygon points="85.62 88.85 85.6 88.86 84.72 89.75 82.93 89.21 83.02 89.12 83.83 88.31 85.62 88.85" style="fill: #fff;opacity: 0.15"/>
          <g>
            <path d="M52.09,92.51a.61.61,0,0,1-.35,0l.63,1.84-.5.17a1.22,1.22,0,1,0,.79,2.3l1.27-.43a1.67,1.67,0,0,1,1-2.12l-.88-2.56a.7.7,0,0,1-.28.19Z" style="fill: #db504a"/>
            <path d="M55.15,94.86h0l0-.14-.06-.13L55,94.3a1.67,1.67,0,0,0-1,2.12l.43-.15A1.21,1.21,0,0,0,55.15,94.86Z" style="fill: #ffd151"/>
            <g>
              <path d="M54.87,94.43h0a0,0,0,0,1,0,0l.06,0s0,0,0,0,0,0,0,0l-.05,0Z" style="fill: #bc3c3c"/>
              <path d="M53.94,96.17h0a0,0,0,0,1,0,0,.49.49,0,0,1,0-.12s0,0,0,0,0,0,0,0a.37.37,0,0,0,0,.11S54,96.16,53.94,96.17Zm0-.24h0s0,0,0,0a.37.37,0,0,0,0-.11l0,0s0,0,0,0a.49.49,0,0,1,0,.12A0,0,0,0,1,53.93,95.93Zm0-.23h0s0,0,0,0a.5.5,0,0,1,0-.12s0,0,0,0,0,0,0,0a.5.5,0,0,0,0,.12Zm.06-.22h0a0,0,0,0,1,0,0,.49.49,0,0,1,0-.11s0,0,0,0l0,0a.49.49,0,0,0,0,.11S54,95.47,54,95.48Zm.08-.22h0a0,0,0,0,1,0,0l0-.11h0a0,0,0,0,1,0,0,.47.47,0,0,0,0,.1S54.09,95.25,54.09,95.26Zm.1-.21h0a0,0,0,0,1,0,0l.06-.1h0a0,0,0,0,1,0,0l-.06.1Zm.13-.2s0,0,0,0a0,0,0,0,1,0,0l.08-.09s0,0,0,0a0,0,0,0,1,0,0l-.08.09Zm.16-.17h0a0,0,0,0,1,0,0l.09-.08h0s0,0,0,0a.6.6,0,0,0-.08.08Zm.18-.14s0,0,0,0a0,0,0,0,1,0,0l.11-.06s0,0,0,0,0,0,0,0a.24.24,0,0,0-.09.06Z" style="fill: #bc3c3c"/>
              <path d="M54,96.34s0,0,0,0,0,0,0-.06,0,0,0,0a0,0,0,0,1,0,0s0,0,0,0S54,96.34,54,96.34Z" style="fill: #bc3c3c"/>
            </g>
            <path d="M54,90.89l.15.46a.39.39,0,0,1-.09.39.7.7,0,0,1-.28.19l-1.71.58a.61.61,0,0,1-.35,0,.43.43,0,0,1-.3-.25l-.16-.46a.5.5,0,0,1,.38-.58l1.7-.59A.51.51,0,0,1,54,90.89Z" style="fill: #ffd151"/>
            <path d="M52.09,92.51a.61.61,0,0,1-.35,0l0,.13a.64.64,0,0,0,.36,0l1.7-.58a.67.67,0,0,0,.29-.19l-.05-.14a.7.7,0,0,1-.28.19Z" style="fill: #bc3c3c"/>
          </g>
          <g>
            <path d="M63.07,92.51a.61.61,0,0,1-.35,0l.63,1.84-.5.17a1.22,1.22,0,1,0,.79,2.3l1.27-.43a1.67,1.67,0,0,1,1-2.12l-.88-2.56a.7.7,0,0,1-.28.19Z" style="fill: #db504a"/>
            <path d="M66.13,94.86h0a1,1,0,0,0,0-.14.69.69,0,0,0,0-.13l-.1-.29a1.67,1.67,0,0,0-1,2.12l.43-.15A1.21,1.21,0,0,0,66.13,94.86Z" style="fill: #ffd151"/>
            <g>
              <path d="M65.85,94.43h0a0,0,0,0,1,0,0l.06,0s0,0,0,0,0,0,0,0l-.05,0Z" style="fill: #bc3c3c"/>
              <path d="M64.92,96.17h0a0,0,0,0,1,0,0,.49.49,0,0,1,0-.12s0,0,0,0,0,0,0,0a.37.37,0,0,0,0,.11S64.93,96.16,64.92,96.17Zm0-.24h0s0,0,0,0,0-.07,0-.11l0,0,0,0a.49.49,0,0,1,0,.12A0,0,0,0,1,64.91,95.93Zm0-.23h0s0,0,0,0a.5.5,0,0,1,0-.12s0,0,0,0,0,0,0,0a.5.5,0,0,0,0,.12Zm.06-.22h0a0,0,0,0,1,0,0,.49.49,0,0,1,0-.11s0,0,0,0,0,0,0,0l0,.11S65,95.47,65,95.48Zm.08-.22h0a0,0,0,0,1,0,0l0-.11h0a0,0,0,0,1,0,0l0,.1S65.07,95.25,65.07,95.26Zm.1-.21h0a0,0,0,0,1,0,0l.06-.1h0a0,0,0,0,1,0,0l-.06.1Zm.13-.2s0,0,0,0a0,0,0,0,1,0,0l.07-.09s0,0,0,0a0,0,0,0,1,0,0l-.07.09Zm.16-.17h0a0,0,0,0,1,0,0l.09-.08h0s0,0,0,0a.6.6,0,0,0-.08.08Zm.18-.14s0,0,0,0a0,0,0,0,1,0,0l.11-.06s0,0,0,0,0,0,0,0a.24.24,0,0,0-.09.06Z" style="fill: #bc3c3c"/>
              <path d="M65,96.34s0,0,0,0,0,0,0-.06,0,0,0,0a0,0,0,0,1,0,0s0,0,0,0S65,96.34,65,96.34Z" style="fill: #bc3c3c"/>
            </g>
            <path d="M65,90.89l.15.46a.39.39,0,0,1-.09.39.7.7,0,0,1-.28.19l-1.71.58a.61.61,0,0,1-.35,0,.41.41,0,0,1-.3-.25l-.16-.46a.49.49,0,0,1,.38-.58l1.7-.59A.51.51,0,0,1,65,90.89Z" style="fill: #ffd151"/>
            <path d="M63.07,92.51a.61.61,0,0,1-.35,0l0,.13a.64.64,0,0,0,.36,0l1.7-.58a.67.67,0,0,0,.29-.19l0-.14a.7.7,0,0,1-.28.19Z" style="fill: #bc3c3c"/>
          </g>
          <g>
            <path d="M74.05,92.51a.62.62,0,0,1-.35,0l.63,1.84-.5.17a1.21,1.21,0,1,0,.78,2.3l1.28-.43a1.67,1.67,0,0,1,1-2.12L76,91.74a.67.67,0,0,1-.29.19Z" style="fill: #db504a"/>
            <path d="M77.11,94.86h0a1,1,0,0,0,0-.14.69.69,0,0,0,0-.13l-.1-.29a1.67,1.67,0,0,0-1,2.12l.43-.15A1.21,1.21,0,0,0,77.11,94.86Z" style="fill: #ffd151"/>
            <g>
              <path d="M76.83,94.43s0,0,0,0a0,0,0,0,1,0,0l.06,0s0,0,0,0,0,0,0,0l0,0Z" style="fill: #bc3c3c"/>
              <path d="M75.9,96.17h0a0,0,0,0,1,0,0s0-.08,0-.12a0,0,0,0,1,0,0,0,0,0,0,1,0,0s0,.08,0,.11S75.91,96.16,75.9,96.17Zm0-.24h0s0,0,0,0,0-.07,0-.11a0,0,0,0,1,0,0,0,0,0,0,1,0,0s0,.08,0,.12A0,0,0,0,1,75.89,95.93Zm0-.23h0s0,0,0,0a.5.5,0,0,1,0-.12s0,0,0,0l0,0a.5.5,0,0,0,0,.12Zm.06-.22h0a0,0,0,0,1,0,0,.49.49,0,0,1,0-.11s0,0,0,0,0,0,0,0l0,.11S76,95.47,76,95.48Zm.07-.22h0a0,0,0,0,1,0,0l0-.11s0,0,0,0a0,0,0,0,1,0,0,.47.47,0,0,0,0,.1Zm.11-.21h0a0,0,0,0,1,0,0l.06-.1s0,0,0,0a0,0,0,0,1,0,0l-.06.1Zm.13-.2s0,0,0,0a0,0,0,0,1,0,0l.07-.09a0,0,0,0,1,0,0,0,0,0,0,1,0,0l-.07.09Zm.16-.17h0a0,0,0,0,1,0,0l.09-.08h0s0,0,0,0l-.09.08Zm.18-.14s0,0,0,0a0,0,0,0,1,0,0l.1-.06s0,0,0,0,0,0,0,0l-.1.06Z" style="fill: #bc3c3c"/>
              <path d="M75.94,96.34s0,0,0,0,0,0,0-.06a0,0,0,0,1,0,0s0,0,0,0a.08.08,0,0,0,0,0S76,96.34,75.94,96.34Z" style="fill: #bc3c3c"/>
            </g>
            <path d="M76,90.89l.15.46a.39.39,0,0,1-.09.39.67.67,0,0,1-.29.19l-1.7.58a.62.62,0,0,1-.35,0,.41.41,0,0,1-.3-.25l-.16-.46a.49.49,0,0,1,.38-.58l1.7-.59A.51.51,0,0,1,76,90.89Z" style="fill: #ffd151"/>
            <path d="M74.05,92.51a.62.62,0,0,1-.35,0l0,.13a.64.64,0,0,0,.36,0l1.7-.58a.67.67,0,0,0,.29-.19l0-.14a.67.67,0,0,1-.29.19Z" style="fill: #bc3c3c"/>
          </g>
          <g>
            <path d="M85,92.51a.62.62,0,0,1-.35,0l.63,1.84-.51.17a1.22,1.22,0,0,0,.79,2.3l1.28-.43a1.67,1.67,0,0,1,1-2.12L87,91.74a.67.67,0,0,1-.29.19Z" style="fill: #db504a"/>
            <path d="M88.09,94.86h0a1,1,0,0,0,0-.14.69.69,0,0,0,0-.13l-.1-.29a1.67,1.67,0,0,0-1,2.12l.43-.15A1.21,1.21,0,0,0,88.09,94.86Z" style="fill: #ffd151"/>
            <g>
              <path d="M87.81,94.43s0,0,0,0a0,0,0,0,1,0,0l.06,0s0,0,0,0,0,0,0,0l0,0Z" style="fill: #bc3c3c"/>
              <path d="M86.88,96.17h0l0,0s0-.08,0-.12a0,0,0,0,1,0,0,0,0,0,0,1,0,0s0,.08,0,.11S86.89,96.16,86.88,96.17Zm0-.24h0s0,0,0,0,0-.07,0-.11l0,0,0,0s0,.08,0,.12A0,0,0,0,1,86.87,95.93Zm0-.23h0s0,0,0,0a.5.5,0,0,1,0-.12s0,0,0,0a0,0,0,0,1,0,0,.5.5,0,0,0,0,.12Zm0-.22h0a0,0,0,0,1,0,0,.49.49,0,0,1,0-.11s0,0,0,0,0,0,0,0l0,.11S87,95.47,86.94,95.48Zm.08-.22h0s0,0,0,0a.54.54,0,0,1,0-.11s0,0,0,0a0,0,0,0,1,0,0l0,.1Zm.11-.21h0a0,0,0,0,1,0,0l.06-.1s0,0,0,0a0,0,0,0,1,0,0l-.06.1Zm.13-.2s0,0,0,0a0,0,0,0,1,0,0l.07-.09a0,0,0,0,1,0,0,0,0,0,0,1,0,0l-.07.09Zm.16-.17h0a0,0,0,0,1,0,0l.09-.08h0s0,0,0,0l-.09.08Zm.18-.14s0,0,0,0a0,0,0,0,1,0,0l.1-.06s0,0,0,0,0,0,0,0l-.1.06Z" style="fill: #bc3c3c"/>
              <path d="M86.92,96.34s0,0,0,0,0,0,0-.06a0,0,0,0,1,0,0s0,0,0,0a.08.08,0,0,0,0,0S86.93,96.34,86.92,96.34Z" style="fill: #bc3c3c"/>
            </g>
            <path d="M87,90.89l.15.46a.39.39,0,0,1-.09.39.67.67,0,0,1-.29.19l-1.7.58a.62.62,0,0,1-.35,0,.41.41,0,0,1-.3-.25l-.16-.46a.49.49,0,0,1,.38-.58l1.7-.59A.51.51,0,0,1,87,90.89Z" style="fill: #ffd151"/>
            <path d="M85,92.51a.62.62,0,0,1-.35,0l0,.13a.64.64,0,0,0,.36,0l1.7-.58a.67.67,0,0,0,.29-.19l0-.14a.67.67,0,0,1-.29.19Z" style="fill: #bc3c3c"/>
          </g>
        </g>
        <g>
          <path d="M128.45,121.9v3.73a0,0,0,0,1,0,0h-1.82s0,0,0,0l-.68-2.93-.07-.3-.12-.5s0,0,0,0h2.69A0,0,0,0,1,128.45,121.9Z" style="fill: #946846"/>
          <path d="M126,123.4l-.23-1-.12-.5s0,0,0,0h2.73Z" style="fill: #424242;opacity: 0.2;mix-blend-mode: multiply"/>
          <path d="M103.24,121.91l-.12.5-.07.3-.68,2.93,0,0h-1.82a0,0,0,0,1,0,0V121.9a0,0,0,0,1,0,0h2.69S103.24,121.88,103.24,121.91Z" style="fill: #946846"/>
          <path d="M100.47,123.47v-1.61h2.73a0,0,0,0,1,0,0Z" style="fill: #424242;opacity: 0.2;mix-blend-mode: multiply"/>
          <path d="M131.89,107.11a4.18,4.18,0,0,0,3.23-3.8c0-2.24-2.22-4.06-5-4.06H130a6.36,6.36,0,0,0-1.47.22h0a6.18,6.18,0,0,0-1.15.37c1.94-8.82,2.94-18.76-12.53-18.76h-.44c-15.47,0-14.47,9.94-12.53,18.76a6,6,0,0,0-1.15-.37h0a6.28,6.28,0,0,0-1.47-.22H99.1c-2.73,0-5,1.82-5,4.06a4.19,4.19,0,0,0,3.23,3.8l.14,0a1.61,1.61,0,0,0,.29.09v.08a30.8,30.8,0,0,0-.3,5.7A20.14,20.14,0,0,0,99.2,121a1.18,1.18,0,0,0,.19.32h0l0,.06,0,.06a.8.8,0,0,0,.13.13l.06.06.09.07,0,0,.07,0,.08,0,.06,0h0l.15.06.06,0H129l.06,0h0l.05,0,.06,0,0,0a1.86,1.86,0,0,0,.47-.32.23.23,0,0,0,.07-.07.12.12,0,0,0,.05,0l0,0,.06-.07a.35.35,0,0,0,0-.08h0l0-.07a1.3,1.3,0,0,0,.11-.19,20.43,20.43,0,0,0,1.7-7.94,30.8,30.8,0,0,0-.3-5.7.22.22,0,0,1,0-.08,1.4,1.4,0,0,0,.29-.09Zm-3-7.69h0Zm.59-.06h0Zm-.29,0h0Zm-28.69.05h0Zm-.28,0h0Zm-.28,0h0Z" style="fill: #f73c4f"/>
          <path d="M105.14,113.76h19v0h-19Z" style="fill: none"/>
          <path d="M124.92,103.81h0a11.29,11.29,0,0,1,.51-1.65v0s0,0,0,0a.53.53,0,0,0,.06-.14l0-.06v0s0,0,0,0h0a4.16,4.16,0,0,1,1.3-1.45c2.1-8.73,3.21-18.41-12.06-18.41h-.44c-15.27,0-14.15,9.68-12.06,18.41a4.16,4.16,0,0,1,1.3,1.45h0l0,0v0l0,0,0,.06a.53.53,0,0,0,.06.14s0,0,0,0v0a11.29,11.29,0,0,1,.51,1.65h0a27.88,27.88,0,0,1,.85,7.87c0,.71,0,1.4,0,2h19c0-.65-.05-1.34-.05-2A27.88,27.88,0,0,1,124.92,103.81Z" style="fill: none"/>
          <g>
            <g style="opacity: 0.5;mix-blend-mode: multiply">
              <path d="M107.33,93.16c-.54-.54-.93-1-.87-1.09s.54.34,1.08.88.94,1,.88,1.08S107.87,93.7,107.33,93.16Z" style="fill: #a5a5a5"/>
              <path d="M107.54,93.16c-.54.54-1,.93-1.08.87s.33-.54.87-1.08,1-.94,1.09-.88S108.09,92.62,107.54,93.16Z" style="fill: #a5a5a5"/>
            </g>
            <g style="opacity: 0.5;mix-blend-mode: multiply">
              <path d="M114.42,93.16c-.54-.54-.93-1-.87-1.09s.54.34,1.08.88.94,1,.88,1.08S115,93.7,114.42,93.16Z" style="fill: #a5a5a5"/>
              <path d="M114.63,93.16c-.54.54-1,.93-1.08.87s.33-.54.87-1.08,1-.94,1.09-.88S115.17,92.62,114.63,93.16Z" style="fill: #a5a5a5"/>
            </g>
            <g style="opacity: 0.5;mix-blend-mode: multiply">
              <path d="M111,98.8c-.54-.54-.93-1-.87-1.08s.54.33,1.08.87.94,1,.88,1.09S111.52,99.35,111,98.8Z" style="fill: #a5a5a5"/>
              <path d="M111.18,98.8c-.54.55-1,.94-1.08.88s.33-.54.87-1.09,1-.93,1.09-.87S111.73,98.26,111.18,98.8Z" style="fill: #a5a5a5"/>
            </g>
            <g style="opacity: 0.5;mix-blend-mode: multiply">
              <path d="M118.06,98.8c-.54-.54-.93-1-.87-1.08s.54.33,1.08.87.94,1,.88,1.09S118.6,99.35,118.06,98.8Z" style="fill: #a5a5a5"/>
              <path d="M118.27,98.8c-.54.55-1,.94-1.08.88s.33-.54.87-1.09,1-.93,1.09-.87S118.81,98.26,118.27,98.8Z" style="fill: #a5a5a5"/>
            </g>
            <g style="opacity: 0.5;mix-blend-mode: multiply">
              <path d="M111,88c-.54-.55-.93-1-.87-1.09s.54.33,1.08.87.94,1,.88,1.09S111.52,88.49,111,88Z" style="fill: #a5a5a5"/>
              <path d="M111.18,88c-.54.54-1,.93-1.08.87s.33-.54.87-1.09,1-.93,1.09-.87S111.73,87.4,111.18,88Z" style="fill: #a5a5a5"/>
            </g>
            <g style="opacity: 0.5;mix-blend-mode: multiply">
              <path d="M118.06,88c-.54-.55-.93-1-.87-1.09s.54.33,1.08.87.94,1,.88,1.09S118.6,88.49,118.06,88Z" style="fill: #a5a5a5"/>
              <path d="M118.27,88c-.54.54-1,.93-1.08.87s.33-.54.87-1.09,1-.93,1.09-.87S118.81,87.4,118.27,88Z" style="fill: #a5a5a5"/>
            </g>
            <g style="opacity: 0.5;mix-blend-mode: multiply">
              <path d="M121.51,93.16c-.54-.54-.93-1-.88-1.09s.55.34,1.09.88A3.7,3.7,0,0,1,122.6,94C122.54,94.09,122.05,93.7,121.51,93.16Z" style="fill: #a5a5a5"/>
              <path d="M121.72,93.16c-.54.54-1,.93-1.09.87a3.7,3.7,0,0,1,.88-1.08c.54-.54,1-.94,1.09-.88S122.26,92.62,121.72,93.16Z" style="fill: #a5a5a5"/>
            </g>
            <g style="opacity: 0.5;mix-blend-mode: multiply">
              <path d="M130.16,103.3c-.55-.55-.94-1-.88-1.09s.54.33,1.09.88.93,1,.87,1.08S130.7,103.84,130.16,103.3Z" style="fill: #a5a5a5"/>
              <path d="M130.37,103.3c-.55.54-1,.93-1.09.87s.33-.54.88-1.08,1-.94,1.08-.88S130.91,102.75,130.37,103.3Z" style="fill: #a5a5a5"/>
            </g>
            <g style="opacity: 0.5;mix-blend-mode: multiply">
              <path d="M98.9,103.3c-.55-.55-.94-1-.88-1.09s.54.33,1.09.88.93,1,.87,1.08S99.44,103.84,98.9,103.3Z" style="fill: #a5a5a5"/>
              <path d="M99.11,103.3c-.55.54-1,.93-1.09.87s.33-.54.88-1.08,1-.94,1.08-.88S99.65,102.75,99.11,103.3Z" style="fill: #a5a5a5"/>
            </g>
            <path d="M130,121.17l0,.06h0a.35.35,0,0,1,0,.08l-.06.07,0,0a.12.12,0,0,1-.05,0,.23.23,0,0,1-.07.07,1.86,1.86,0,0,1-.47.32l0,0-.06,0-.05,0h0l-.06,0h-28.7l-.06,0-.15-.06h0l-.06,0-.08,0-.07,0,0,0-.09-.07-.06-.06a.8.8,0,0,1-.13-.13l0-.06,0-.06.1.07h0c.52.27,2.44.3,5.06.26l2.32-.05h0l3.18-.07,3.71,0h2.83l3.75.07,2.06,0h0l2.29,0c2.69,0,4.66,0,5.17-.34A.38.38,0,0,0,130,121.17Z" style="fill: #a5a5a5;opacity: 0.5;mix-blend-mode: multiply"/>
            <g style="opacity: 0.5;mix-blend-mode: multiply">
              <path d="M101.93,100.07l.42.27a4.17,4.17,0,0,1,.67.58l.08.09.08.09.08.09.08.1,0,.08,0,.06.06.1.07.11,0,.07,0,.08h0l0,0s0,0,0,0l0,0h0l0,.06.06.13,0,0v0a11.29,11.29,0,0,1,.51,1.65h0c0,.1.06.21.08.31h0c.06.24.12.48.17.73l0,.14,0,.15a3.4,3.4,0,0,1,.07.34v0l.06.33c0,.3.1.62.15,1,0,0,0,.08,0,.12l0,.24c0,.11,0,.23,0,.34v.2s0,.1,0,.16h0l.35-.22c-.43-4.41-1.31-5.87-1.31-5.87h0a5.08,5.08,0,0,0-4.54-2.43H99.4A5.61,5.61,0,0,1,101.93,100.07Z" style="fill: #a5a5a5"/>
            </g>
            <g style="opacity: 0.5;mix-blend-mode: multiply">
              <path d="M124.23,107.64l0-.15,0-.28c0-.24,0-.46.08-.67a.51.51,0,0,0,0-.13c0-.2.06-.4.1-.59l0-.11,0-.19s0,0,0-.07l0-.16.09-.44,0-.14,0-.12c0-.08,0-.16,0-.23l.06-.24h0c0-.1,0-.21.08-.31h0a11.29,11.29,0,0,1,.51-1.65v0l0,0,.06-.13,0-.06h0v0s0,0,0,0,0,0,0,0h0l.09-.16a.25.25,0,0,1,0-.07.56.56,0,0,0,.05-.08l.06-.09,0,0a3.17,3.17,0,0,1,.21-.27l.08-.09a4.38,4.38,0,0,1,.75-.67l.42-.27a5.65,5.65,0,0,1,2.53-.71h-.13a5.09,5.09,0,0,0-4.55,2.43h0s-.88,1.46-1.31,5.85l.35.16C124.22,107.74,124.23,107.69,124.23,107.64Z" style="fill: #a5a5a5"/>
            </g>
            <path d="M123.22,115.2H106a1.11,1.11,0,0,1-.94-.58.9.9,0,0,0,.9.88s-.14.16,8.21.16,9.17-.16,9.17-.16a.9.9,0,0,0,.9-.86A1.16,1.16,0,0,1,123.22,115.2Z" style="fill: #a5a5a5;opacity: 0.5;mix-blend-mode: multiply"/>
          </g>
          <g style="opacity: 0.2;mix-blend-mode: screen">
            <path d="M114.63,107.21c8.29,0,9.55.57,9.59.59h0s-1.21-1.26-9.63-1.26-9.54,1.34-9.54,1.34h0C105.16,107.8,106.59,107.21,114.63,107.21Z" style="fill: #fff"/>
            <path d="M94.57,103.41c0-2.24,2.23-4,5-4a6.58,6.58,0,0,1,1.19.11,6.28,6.28,0,0,0-1.47-.22H99.1c-2.73,0-5,1.82-5,4.06a4.22,4.22,0,0,0,3.36,3.84h0l.29.08.1,0A4.22,4.22,0,0,1,94.57,103.41Z" style="fill: #fff"/>
            <path d="M134.69,103.41c0-2.24-2.22-4-5-4a6.61,6.61,0,0,0-1.2.11,6.36,6.36,0,0,1,1.47-.22h.16c2.74,0,5,1.82,5,4.06a4.22,4.22,0,0,1-3.36,3.84h0l-.29.08-.1,0A4.22,4.22,0,0,0,134.69,103.41Z" style="fill: #fff"/>
            <path d="M127.38,99.84l-.4.19c2-8.65,3-18.1-12.13-18.1h-.44c-5.27,0-8.59,1.15-10.59,3C100.1,88.43,101,94.4,102.28,100l-.4-.19A37.74,37.74,0,0,1,100.81,92h0A11.62,11.62,0,0,1,102.17,86a7.87,7.87,0,0,1,1.29-1.67c2-2,5.45-3.27,11-3.27h.44C130.32,81.08,129.32,91,127.38,99.84Z" style="fill: #fff"/>
          </g>
        </g>
        <ellipse cx="115.33" cy="82.3" rx="5.55" ry="0.36" style="fill: #878787;opacity: 0.5;mix-blend-mode: multiply"/>
        <g>
          <path d="M120.94,82.22a67.51,67.51,0,0,1-10.16,0,2.6,2.6,0,0,1-.26-.32,2.06,2.06,0,0,1-.35-.84h0a2.1,2.1,0,0,1,.06-.93v0a.14.14,0,0,1,0-.06.56.56,0,0,1,0-.12,3.63,3.63,0,0,1,.92-1.3,7.75,7.75,0,0,1,2.1-1.39c.28-.12.57-.24.87-.35l.49-.16.69-.19.49-.11.52-.1.46-.06a4.4,4.4,0,0,1,.51,0,7.62,7.62,0,0,1,.94,0l.49,0a4.68,4.68,0,0,1,1.29.33,2,2,0,0,1,.36.18,2.93,2.93,0,0,1,1,.93l.15.26a3.91,3.91,0,0,1,.39,1.21A3.19,3.19,0,0,1,120.94,82.22Z" style="fill: #424b54"/>
          <g>
            <path d="M107.79,77.43a1.55,1.55,0,0,0-.21.35s0,0,0,.08a4.51,4.51,0,0,0-2.27.29.14.14,0,0,0-.06.19A4.37,4.37,0,0,0,107.32,80c0,.21,0,.42,0,.62a1.66,1.66,0,0,0,0,.44.92.92,0,0,0,.45.64,2.87,2.87,0,0,0,.76.27,3.64,3.64,0,0,0,1.08.17,2.87,2.87,0,0,0,.71-.13l.28-.13a9.72,9.72,0,0,0,2-1.24l.15-.17a3.58,3.58,0,0,0,.69-1,4,4,0,0,0,.19-1.08,2.68,2.68,0,0,0,0-.8,1,1,0,0,0-.16-.37.72.72,0,0,0-.3-.27,2,2,0,0,0-.42-.11,4.21,4.21,0,0,1-.48-.12,4.4,4.4,0,0,0-.8-2.55.13.13,0,0,0-.2,0,4.38,4.38,0,0,0-1.1,2l-.23,0a2,2,0,0,0-.24,0l-.28.1a.91.91,0,0,0-.16.11l-.2.19-.44.32c-.13.07-.26.12-.38.2l-.07,0Zm-.47,1.77v.62a4.1,4.1,0,0,1-1.75-1.25c0-.06,0-.13,0-.15a2.87,2.87,0,0,1,1.79,0A5.67,5.67,0,0,0,107.32,79.2Zm3.93-4.65a.1.1,0,0,1,.15,0,4,4,0,0,1,.53,2.08c-.24-.08-.48-.17-.72-.24a4.77,4.77,0,0,0-.65-.17A2.89,2.89,0,0,1,111.25,74.55Z" style="fill: #424b54"/>
            <path d="M105.6,78.42c-.06,0-.07.09,0,.15a4.1,4.1,0,0,0,1.75,1.25V79.2a5.67,5.67,0,0,1,.07-.82A2.87,2.87,0,0,0,105.6,78.42Z" style="fill: #dddddf"/>
            <path d="M111.25,74.55a2.89,2.89,0,0,0-.69,1.7,4.77,4.77,0,0,1,.65.17c.24.07.48.16.72.24a4,4,0,0,0-.53-2.08A.1.1,0,0,0,111.25,74.55Z" style="fill: #dddddf"/>
            <path d="M108.91,76.64a3,3,0,0,1-.34.26.53.53,0,0,1-.1.06l1,1.44Z" style="fill: #1e1e1e;opacity: 0.25;mix-blend-mode: multiply"/>
            <path d="M114.74,77.77l-.55-.91.49-.16Z" style="fill: #1e1e1e;opacity: 0.25;mix-blend-mode: multiply"/>
            <path d="M115.86,76.4l0,1.41-.53-1.3Z" style="fill: #1e1e1e;opacity: 0.25;mix-blend-mode: multiply"/>
            <path d="M117.35,76.19l-.19,1.41-.32-1.36A4.4,4.4,0,0,1,117.35,76.19Z" style="fill: #1e1e1e;opacity: 0.25;mix-blend-mode: multiply"/>
            <path d="M118.78,76.2l-.43,1.26-.06-1.3Z" style="fill: #1e1e1e;opacity: 0.25;mix-blend-mode: multiply"/>
            <path d="M120.43,76.71l-.79,1.09.43-1.27A2,2,0,0,1,120.43,76.71Z" style="fill: #1e1e1e;opacity: 0.25;mix-blend-mode: multiply"/>
            <path d="M121.59,77.9l-.82.53.67-.79Z" style="fill: #1e1e1e;opacity: 0.25;mix-blend-mode: multiply"/>
            <path d="M108,77.21a1.61,1.61,0,0,0-.23.22l.56.79Z" style="fill: #1e1e1e;opacity: 0.25;mix-blend-mode: multiply"/>
            <path d="M109.55,76.24l-.28.1.59.83Z" style="fill: #1e1e1e;opacity: 0.25;mix-blend-mode: multiply"/>
            <g>
              <g>
                <path d="M108.61,79.21c-.26.08-.42.29-.35.48a.08.08,0,0,0,0,0c0-.18.12-.37.36-.44a.52.52,0,0,1,.59.16s0,0,0,0A.49.49,0,0,0,108.61,79.21Z" style="fill: #202528"/>
                <path d="M108.24,79.22a.28.28,0,0,0,0,.2.31.31,0,0,1-.25,0c.08,0,.12.14.26.14s.08-.16.16-.22C108.31,79.35,108.3,79.26,108.24,79.22Z" style="fill: #202528"/>
              </g>
              <g>
                <path d="M110.67,78a.49.49,0,0,0-.13.63l0,0a.52.52,0,0,1,.15-.59.44.44,0,0,1,.57-.1l0,0C111.13,77.75,110.87,77.78,110.67,78Z" style="fill: #202528"/>
                <path d="M111,77.77a.3.3,0,0,0-.17-.12c0,.07.08.13,0,.23a.35.35,0,0,1,.28,0c.06-.12,0-.2,0-.3A.34.34,0,0,1,111,77.77Z" style="fill: #202528"/>
              </g>
              <path d="M110,79.72c.26.28.14.82-.27,1.21s-1,.47-1.23.19-.15-.83.27-1.22S109.72,79.43,110,79.72Z" style="fill: #dddddf"/>
              <path d="M110.07,79.9c.18.35.72.4,1.22.13s.74-.79.56-1.13-.72-.41-1.21-.13S109.89,79.55,110.07,79.9Z" style="fill: #dddddf"/>
              <path d="M111.07,80c.17.23.05.63-.29.89s-.76.29-.93.06,0-.63.28-.89S110.89,79.72,111.07,80Z" style="fill: #dddddf"/>
              <path d="M110,81h.3l.06,0,0,0,.11,0,.11-.06.1-.06.09-.08,0,0,0,0,.06-.07,0,0,0,0,0-.06,0,0a.32.32,0,0,0,0,.06.14.14,0,0,1,0,.06v0l0,0s0,0,0,.05l0,0-.08.09-.09.08-.11.08-.11.06-.12,0h-.37Z" style="fill: #202528"/>
              <path d="M108.35,81.37h0l0,0,0-.08a.53.53,0,0,1,0-.13.17.17,0,0,1,0-.07s0,0,0-.08l0-.07,0-.06a1,1,0,0,1,.08-.11s0,0,.06-.06l0,0,0,0,0,.08,0,.11a.14.14,0,0,0,0,.06l0,.06s0,0,0,.07a.13.13,0,0,0,0,.06.57.57,0,0,0,0,.12.26.26,0,0,0,0,.09Z" style="fill: #202528"/>
              <path d="M111.87,78.92a1.09,1.09,0,0,1,0,.17.37.37,0,0,1,0,.18.84.84,0,0,1,0,.17.8.8,0,0,1-.08.16,1.93,1.93,0,0,1-.22.28,1.58,1.58,0,0,1-.29.22l-.16.07-.17.06a1.15,1.15,0,0,1-.37,0,.85.85,0,0,1-.17-.06l-.16-.08a.79.79,0,0,1-.15-.12.49.49,0,0,1-.1-.15l.07,0a1.15,1.15,0,0,1,.06.17,1.1,1.1,0,0,1,0,.18.47.47,0,0,1,0,.17.29.29,0,0,1,0,.09v0l0,0a1.11,1.11,0,0,1-.17.3,1.34,1.34,0,0,1-.11.14l-.06.06,0,0,0,0a1.14,1.14,0,0,1-.3.18.77.77,0,0,1-.34.08h-.17l-.17,0a.42.42,0,0,1-.14-.09.37.37,0,0,1-.12-.13.68.68,0,0,0,.12.12.55.55,0,0,0,.15.08,1.23,1.23,0,0,0,.33,0,1.16,1.16,0,0,0,.32-.08,1.07,1.07,0,0,0,.28-.19l0,0,0,0a.18.18,0,0,1,0-.07.69.69,0,0,0,.11-.13,1,1,0,0,0,.16-.28v-.08a.24.24,0,0,0,0-.08.44.44,0,0,0,0-.16.55.55,0,0,0-.07-.31l.07,0a.51.51,0,0,0,.22.24,1.07,1.07,0,0,0,.31.13h.16l.17,0,.17,0,.16-.07a1.05,1.05,0,0,0,.27-.2,1.86,1.86,0,0,0,.23-.26,1.09,1.09,0,0,0,.08-.15.52.52,0,0,0,.06-.16.37.37,0,0,0,0-.18A1.22,1.22,0,0,0,111.87,78.92Z" style="fill: #202528"/>
              <path d="M112.2,79h0l-.08,0-.11,0-.06,0h-.21a.48.48,0,0,0-.12,0h-.12l0,0,.09,0,.12,0h.15l.07,0,.07,0a.29.29,0,0,1,.11.06.46.46,0,0,1,.07.07,0,0,0,0,1,0,0Z" style="fill: #202528"/>
              <path d="M110.33,79.44c-.27.17-.15.38-.3.45s-.28-.15-.52-.11.1-.29.32-.38S110.42,79.38,110.33,79.44Z" style="fill: #fc8990"/>
            </g>
          </g>
          <g>
            <path d="M111.41,81.32c-.48,0-.86.25-.86.55s.38.56.86.56.85-.25.85-.56S111.88,81.32,111.41,81.32Zm-.2,1.07s0,0,0,0l0,0,0,0,0-.05s0,0,0-.06a274953912059.56,274953912059.56,0,0,1,0-.12V82s0,0,0-.06,0,0,0,0,0,0,0,0l0,0v0s0,0,0,0v0a.09.09,0,0,0,0,0v.11a.43.43,0,0,0,0,0s0,0,0,.06,0,0,0,.06l0,0a327811032229.36,327811032229.36,0,0,1,0,.08s0,0,0,0l0,0Zm.51-.33a.13.13,0,0,1,0,.06s0,0,0,.06a.14.14,0,0,0,0,.06l0,.05,0,0,0,0s0,0,0,0l0,0,0,0s0,0,0,0a314698590945.17,314698590945.17,0,0,0,0-.08s0,0,0,0,0,0,0-.06,0,0,0-.06a.43.43,0,0,0,0,0V82s0,0,0,0v0a0,0,0,0,1,0,0v0l0,0,0,0s0,0,0,0,0,0,0,0a.13.13,0,0,0,0,.06Z" style="fill: #dddddf"/>
            <path d="M111.21,82.36a327811032229.36,327811032229.36,0,0,0,0-.08l0,0s0,0,0-.06,0,0,0-.06a.43.43,0,0,1,0,0V82a.09.09,0,0,1,0,0v0s0,0,0,0v0l0,0s0,0,0,0,0,0,0,0,0,0,0,.06v.06a274953912059.56,274953912059.56,0,0,0,0,.12s0,0,0,.06l0,.05,0,0,0,0s0,0,0,0l0,0,0,0S111.21,82.37,111.21,82.36Z" style="fill: #202528"/>
            <path d="M111.71,81.94s0,0,0,0,0,0,0,0l0,0,0,0v0a0,0,0,0,0,0,0v0s0,0,0,0v.11a.43.43,0,0,1,0,0s0,0,0,.06,0,0,0,.06,0,0,0,0a314698590945.17,314698590945.17,0,0,1,0,.08s0,0,0,0l0,0,0,0s0,0,0,0l0,0,0,0,0-.05a.14.14,0,0,1,0-.06s0,0,0-.06a.13.13,0,0,0,0-.06V82A.13.13,0,0,1,111.71,81.94Z" style="fill: #202528"/>
          </g>
          <g>
            <path d="M109.69,81.32c-.47,0-.86.25-.86.55s.39.56.86.56.86-.25.86-.56S110.16,81.32,109.69,81.32Zm-.19,1.07,0,0,0,0,0,0,0-.05a.14.14,0,0,0,0-.06s0,0,0-.06,0,0,0-.06V82a.13.13,0,0,0,0-.06s0,0,0,0a.05.05,0,0,1,0,0s0,0,0,0l0,0v.06a.06.06,0,0,0,0,0,.09.09,0,0,1,0,0v.11a.11.11,0,0,1,0,0,.13.13,0,0,1,0,.06s0,0,0,.06,0,0,0,0,0,0,0,0,0,0,0,0,0,0,0,0l0,0Zm.5-.33v.06s0,0,0,.06a.14.14,0,0,1,0,.06l0,.05,0,0,0,0,0,0,0,0,0,0s0,0,0,0a.08.08,0,0,1,0,0l0,0a.43.43,0,0,1,0,0,.14.14,0,0,0,0-.06.13.13,0,0,0,0-.06.07.07,0,0,0,0,0V81.9a.06.06,0,0,1,0,0,0,0,0,0,0,0,0v0l0,0s0,0,0,0v0a.13.13,0,0,1,0,.06Z" style="fill: #dddddf"/>
            <path d="M109.49,82.36s0,0,0,0,0,0,0,0,0,0,0,0,0,0,0-.06a.13.13,0,0,0,0-.06.11.11,0,0,0,0,0V82a.09.09,0,0,0,0,0,.06.06,0,0,1,0,0V81.8l0,0s0,0,0,0a.05.05,0,0,0,0,0s0,0,0,0a.13.13,0,0,1,0,.06v.06s0,0,0,.06,0,0,0,.06a.14.14,0,0,1,0,.06l0,.05,0,0,0,0,0,0,0,0,0,0S109.49,82.37,109.49,82.36Z" style="fill: #202528"/>
            <path d="M110,81.94v0s0,0,0,0l0,0v0a0,0,0,0,1,0,0,.06.06,0,0,0,0,0v.16a.07.07,0,0,1,0,0,.13.13,0,0,1,0,.06.14.14,0,0,1,0,.06.43.43,0,0,0,0,0l0,0a.08.08,0,0,0,0,0s0,0,0,0l0,0,0,0,0,0,0,0,0,0,0-.05a.14.14,0,0,0,0-.06s0,0,0-.06V82A.13.13,0,0,0,110,81.94Z" style="fill: #202528"/>
          </g>
          <g style="opacity: 0.25;mix-blend-mode: multiply">
            <path d="M113.17,77.06l.07.16c0,.11.08.26.12.44a2.87,2.87,0,0,1,0,.31c0,.11,0,.22,0,.34s0,.25,0,.37,0,.26-.07.38,0,.13,0,.19,0,.12-.07.18a1.22,1.22,0,0,1-.07.17l-.09.16s-.06.11-.09.15a.71.71,0,0,1-.1.14.64.64,0,0,1-.1.13l-.1.11a2.24,2.24,0,0,1-.34.31l-.14.1.13-.12s.08-.09.14-.14l.08-.09.08-.1.18-.25.09-.14a.43.43,0,0,0,0-.07l0-.08a.8.8,0,0,0,.08-.16,1.11,1.11,0,0,0,.07-.16l.06-.18c0-.06,0-.12,0-.18s0-.24.07-.36l0-.36c0-.11,0-.23,0-.33a3,3,0,0,0,0-.31c0-.18-.06-.34-.08-.44a.45.45,0,0,1,0-.13Z" style="fill: #1e1e1e"/>
          </g>
          <g style="opacity: 0.25;mix-blend-mode: multiply">
            <path d="M112.92,82.15v-.06a.59.59,0,0,1,0-.17.83.83,0,0,1,.11-.24,1.1,1.1,0,0,1,.23-.26,2,2,0,0,1,.78-.37,4.1,4.1,0,0,1,.48-.1l.49,0,.48-.06c.16,0,.32,0,.46-.09a2.2,2.2,0,0,0,.41-.12,1.69,1.69,0,0,0,.33-.19,1.79,1.79,0,0,0,.24-.23,1.4,1.4,0,0,0,.17-.2l.14-.17,0,0-.08.15-.14.22a1.72,1.72,0,0,1-.23.26,1.45,1.45,0,0,1-.34.23,1.82,1.82,0,0,1-.43.16l-.47.11-.49.06-.49,0a3.4,3.4,0,0,0-.46.08,2.77,2.77,0,0,0-.41.12,2.15,2.15,0,0,0-.34.17,1.31,1.31,0,0,0-.24.22.86.86,0,0,0-.13.21.47.47,0,0,0,0,.16A.28.28,0,0,0,112.92,82.15Z" style="fill: #1e1e1e"/>
          </g>
        </g>
        <g>
          <path d="M80.26,60.69a1.37,1.37,0,0,0-.43-1.44,1.48,1.48,0,0,0-.46-.25,2,2,0,0,0-.24-.26l-.15-.1a1.32,1.32,0,0,0-.44-1.37,1.11,1.11,0,0,0-.24-.16h0a.58.58,0,0,0,0-.18.46.46,0,0,0-.13-.18.37.37,0,0,0-.12-.07l0-.09a1.13,1.13,0,0,0-.33-1.27l-.15-.1a.8.8,0,0,0-.27-.41.56.56,0,0,0-.15-.1.14.14,0,0,0,0-.06,1.41,1.41,0,0,0-.41-.57,1.45,1.45,0,0,0-.26-.17,1.28,1.28,0,0,0-.1-.47.41.41,0,0,0-.07-.11h0l-.06-.1A.77.77,0,0,0,76,53a1.07,1.07,0,0,0-.62-.26,1.21,1.21,0,0,0-.53.09.37.37,0,0,0,0-.11,6.21,6.21,0,0,0,.81-.42l.13-.09,0,0v-.09l-.86-3A.52.52,0,0,0,74.8,49h0l0-.06,0,0a.3.3,0,0,0-.19-.1,3.83,3.83,0,0,0-1.3,0,5.47,5.47,0,0,0-1.6.56,5.55,5.55,0,0,0-1.49,1.14,1.09,1.09,0,0,0-.47-.08,1.18,1.18,0,0,0-.83.21,1,1,0,0,0-.21.2.21.21,0,0,0,0,.06,1,1,0,0,0-.42.11l0,0,0,0L68,50.84l-.11-.07a1,1,0,0,0-.27-.13,6.24,6.24,0,0,0-3.16-2.24,4,4,0,0,0-1.29-.17.31.31,0,0,0-.22.09l0,.06a.36.36,0,0,0-.08.15L61.71,51.6l.17.13a4.83,4.83,0,0,0,.77.5,1.41,1.41,0,0,0-.73.45h0l-.2.06a1.47,1.47,0,0,0-1.16.54.59.59,0,0,0-.13.18l-.06.11a1.54,1.54,0,0,0-.08.19h0l-.15.07-.07,0-.18.12h0l-.17.15,0,.05a1.29,1.29,0,0,0-.22.37,1.35,1.35,0,0,0-.19.49.93.93,0,0,0-.14.14,1.12,1.12,0,0,0-.24.52h0a1,1,0,0,0-.15.8v0a.65.65,0,0,0-.18.15.3.3,0,0,0-.08.08,1.1,1.1,0,0,0-.25.56h0v0a.71.71,0,0,0-.1.14h0a1.14,1.14,0,0,0-.16.15,1.75,1.75,0,0,0-.18.29h0a1.17,1.17,0,0,0-.37.3,1.28,1.28,0,0,0-.3.86l-.06.07a1.44,1.44,0,0,0-.16,1.61.14.14,0,0,0,0,.06h0a.78.78,0,0,0,0,.21,1.23,1.23,0,0,0,.07.6l.06.13s0,0,0,0,0,.12,0,.18,0,0,0,.07a.64.64,0,0,0,0,.07,1.42,1.42,0,0,0,.14,1,1.45,1.45,0,0,0,.14,1,1.19,1.19,0,0,0,.08,1,1.24,1.24,0,0,0,.09.38,1.45,1.45,0,0,0,.43,1.64,1.52,1.52,0,0,0,.33.21,1.29,1.29,0,0,0,.48.9l.13.1h0l.11.06a1.25,1.25,0,0,0,.08.32A1.14,1.14,0,0,0,59,69a.7.7,0,0,0,.13.17l.1.1,0,0a1.38,1.38,0,0,0,.75.31s0,.08,0,.12h0a1.26,1.26,0,0,0,.44,1.06,1.21,1.21,0,0,0,.54.25.87.87,0,0,0,.32,0,1.15,1.15,0,0,0,.37.06.93.93,0,0,0,.22.27,1,1,0,0,0,.78.22l0,0a.61.61,0,0,0,.38.15,1.39,1.39,0,0,0,.5.87,1.3,1.3,0,0,0,.53.28l.12.12A1.24,1.24,0,0,0,66,73a.93.93,0,0,0,.82.15.66.66,0,0,0,.75,0,.57.57,0,0,0,.24.08h0a.76.76,0,0,0,.68.12,1,1,0,0,0,.37.1h0a1.16,1.16,0,0,0,.61-.09,1.13,1.13,0,0,0,.93-.28,1,1,0,0,0,1.18-.24,1.31,1.31,0,0,0,1.65-.32l.06-.07a1.39,1.39,0,0,0,1.85-.27,1.88,1.88,0,0,0,.16-.23,1.41,1.41,0,0,0,.57-.41c.06-.09.12-.18.17-.27l.11-.12a1.24,1.24,0,0,0,.29-.64h0l.15-.09h0l.18,0h0a1.27,1.27,0,0,0,.32-.13,1,1,0,0,0,.17-.1l.1-.09a.8.8,0,0,0,.13-.13l.06-.08.08-.13a1.34,1.34,0,0,0,.08-1.17,1.25,1.25,0,0,0,.44-.32l0-.06a1.26,1.26,0,0,0,.45-.25.85.85,0,0,0,.17-.16.91.91,0,0,0,.11-.16h0a1.42,1.42,0,0,0,.41-.33,1.4,1.4,0,0,0,.23-1.41,1.07,1.07,0,0,0,.18-.19,1.44,1.44,0,0,0,0-1.91,1.71,1.71,0,0,0,.25-.22,1.31,1.31,0,0,0,.21-1.3h0a.89.89,0,0,0-.08-.17A.36.36,0,0,0,80,62a.28.28,0,0,0,0-.09,1.18,1.18,0,0,0,0-.2,1.54,1.54,0,0,0,.26-.51v0h0A1.26,1.26,0,0,0,80.26,60.69Zm-2.78,1a1.28,1.28,0,0,0-.14.21.7.7,0,0,0-.09.17h0a1.42,1.42,0,0,0,.22,1.4l0,0a1.32,1.32,0,0,0-.29,1,1.17,1.17,0,0,0-.34.29,1.29,1.29,0,0,0-.17,1.39.36.36,0,0,0,0,.11,1.59,1.59,0,0,0-.3.06,1.23,1.23,0,0,0-.46.33,1.18,1.18,0,0,0-.25.86h0l0,.12h0l0,.12,0,0a.79.79,0,0,0-.15.12,1.35,1.35,0,0,0-.61.18h0a1.17,1.17,0,0,0-.4.13,1.37,1.37,0,0,0-.45.35,1.45,1.45,0,0,0-.28.57,1.2,1.2,0,0,0-.67.4,1.23,1.23,0,0,0-.26.65,1.05,1.05,0,0,0-1.07.29l-.22.11a.5.5,0,0,0-.12.08,1,1,0,0,0-.36.11,1.17,1.17,0,0,0-.24.09,1.22,1.22,0,0,0-.64-.16,1.36,1.36,0,0,0-1.24-.08,1.31,1.31,0,0,0-.5.38l-.06.08a1.17,1.17,0,0,0-.41-.19,1.12,1.12,0,0,0-.74.11l-.1-.1a1,1,0,0,0-.4-.21,1.07,1.07,0,0,0-1-.08h0a1.21,1.21,0,0,0-.16-.16l-.18-.12a.6.6,0,0,0-.08-.08.76.76,0,0,0-.19-.12l0,0a1.25,1.25,0,0,0-.87-.3h0a1.1,1.1,0,0,0-.06-.26,1.43,1.43,0,0,0-.46-.68,1.4,1.4,0,0,0-.7-.32h0a1.46,1.46,0,0,0-.35-.22,1.4,1.4,0,0,0-.33-.68l-.1-.1h0l-.05,0-.14-.1a1.85,1.85,0,0,0-.44-.18h-.07a.74.74,0,0,0,0-.14.61.61,0,0,0-.05-.12.92.92,0,0,0-.16-.27,1.19,1.19,0,0,0-.42-.62,1.23,1.23,0,0,0-.61-.29.94.94,0,0,0,0-.16.88.88,0,0,0-.22-.93,1.44,1.44,0,0,0,0-.62,1.46,1.46,0,0,0,0-.55l-.06-.22a1.34,1.34,0,0,0-.15-.48,2,2,0,0,0,.12-.31,1.44,1.44,0,0,0-.2-1.22,1.17,1.17,0,0,0-.09-.69,1.28,1.28,0,0,0,.45-.35l0-.06h0a1.28,1.28,0,0,0,.13-1.3,1.26,1.26,0,0,0,0-.33,1,1,0,0,0,0-.35.82.82,0,0,0,.12-.2h0l0,0a.88.88,0,0,0,.22-.59h0l.05-.06a1.57,1.57,0,0,0,.18-.31.79.79,0,0,0,.34-.15l.13,0a1.3,1.3,0,0,0,.32-.14h0a1.44,1.44,0,0,0,.38-.32h0v0a1.45,1.45,0,0,0,.36-.25.52.52,0,0,0,.1-.11h0a1.25,1.25,0,0,0,.27-.57,1.44,1.44,0,0,0,1.32-.49,1.4,1.4,0,0,0,.32-1,1.1,1.1,0,0,0,1-.1,1.18,1.18,0,0,0,.47-.27l.17,0a1.41,1.41,0,0,0,1,0l.19-.05a19.6,19.6,0,0,0-1.22,3.6c-.07.3-.12.58-.15.81l.86-1.06.35,1.35a18.38,18.38,0,0,1,1.57-5h0a.74.74,0,0,0,.24.11c0,.12.09.26.14.41a18.29,18.29,0,0,1,.43,5.57l.65-1.23.6,1.23c0-.23,0-.51,0-.83a15.94,15.94,0,0,0-.67-4.91,1.29,1.29,0,0,0,.5-.14,1.4,1.4,0,0,0,1.51.09l0,0a1.15,1.15,0,0,0,.42.23,1.11,1.11,0,0,0,.32.4,1.26,1.26,0,0,0,.5.26l0,0a.6.6,0,0,0,.47.14,1,1,0,0,0,.08.3h0a1.22,1.22,0,0,0,.42.72l.06.05a.59.59,0,0,0,0,.08l0,.06.06.11a1.69,1.69,0,0,0,.26.28l.17.12a1.36,1.36,0,0,0,.33.14,1.29,1.29,0,0,0,.29,1.06l0,0,.11.11a1.37,1.37,0,0,0,.51.26,1.12,1.12,0,0,0,0,.13,1.35,1.35,0,0,0,.46,1.24l.12.08a1.37,1.37,0,0,0,.36,1.38,1.64,1.64,0,0,0,0,.22h0a1.47,1.47,0,0,0,.14.45,1,1,0,0,0,.08.14S77.49,61.64,77.48,61.66Z" style="fill: #666;opacity: 0.4"/>
          <g>
            <path d="M80.9,59.89a1.36,1.36,0,0,0-.43-1.43,1.3,1.3,0,0,0-.46-.25,1.2,1.2,0,0,0-.24-.26l-.15-.11a1.33,1.33,0,0,0-.44-1.37,1.25,1.25,0,0,0-.24-.16h0a.58.58,0,0,0,0-.19.46.46,0,0,0-.13-.18l-.12-.07a.32.32,0,0,0,0-.09,1.11,1.11,0,0,0-.33-1.26.83.83,0,0,0-.15-.11.78.78,0,0,0-.27-.41.71.71,0,0,0-.14-.1l0,0a1.21,1.21,0,0,0-.41-.57A1.51,1.51,0,0,0,77,53.1a1.1,1.1,0,0,0-.1-.47l-.06-.11a1.61,1.61,0,0,0-.24-.28A1.12,1.12,0,0,0,76,52a1.21,1.21,0,0,0-.53.09,1.2,1.2,0,0,0-.37-.55,1.38,1.38,0,0,0-.5-.25h0a1.18,1.18,0,0,0-.27-.32,1.15,1.15,0,0,0-.76-.28.93.93,0,0,0-.4-.09L73,50.43a1.42,1.42,0,0,0-.82-.32l-.05,0a1.32,1.32,0,0,0-1.1-.29l-.16,0a1.3,1.3,0,0,0-.55-.12,1.26,1.26,0,0,0-.84.21,1,1,0,0,0-.21.21,1,1,0,0,0-.2.34L69,50.31a.68.68,0,0,0-.27-.13.8.8,0,0,0-.13-.13l-.1-.08a1.14,1.14,0,0,0-1.18,0h-.14a1.45,1.45,0,0,0-1.44.48l-.12.18a1.22,1.22,0,0,0-.73.31,1,1,0,0,0-1.06.3,1.19,1.19,0,0,0-.52.21,1.39,1.39,0,0,0-.74.46h0a.76.76,0,0,0-.2.06,1.46,1.46,0,0,0-1.16.53l-.13.18a1.23,1.23,0,0,0-.14.31h0a.88.88,0,0,0-.22.1,1.35,1.35,0,0,0-.36.28l0,0a1.63,1.63,0,0,0-.22.38,1.3,1.3,0,0,0-.19.48l-.14.14a1.11,1.11,0,0,0-.24.53h0a1,1,0,0,0-.15.8v0a.65.65,0,0,0-.18.15L59.1,56a1.13,1.13,0,0,0-.25.56h0v0a.71.71,0,0,0-.1.14h0a1.14,1.14,0,0,0-.15.16,1.32,1.32,0,0,0-.19.29h0a1.53,1.53,0,0,0-.37.31,1.26,1.26,0,0,0-.3.86l-.06.06A1.45,1.45,0,0,0,57.51,60a.64.64,0,0,0,0,.07,1.2,1.2,0,0,0,.09.93c0,.1,0,.19-.07.29s0,.05,0,.07a1.36,1.36,0,0,0,.13,1,1.51,1.51,0,0,0,.15,1,1.22,1.22,0,0,0,.07,1,1.25,1.25,0,0,0,.09.37,1.48,1.48,0,0,0,.43,1.65,1.94,1.94,0,0,0,.33.2,1.33,1.33,0,0,0,.48.91l.13.09a.3.3,0,0,0,.11.06,1.43,1.43,0,0,0,.36.79l.1.1,0,0a1.39,1.39,0,0,0,.75.32s0,.08,0,.12h0A1.24,1.24,0,0,0,61.12,70a1.25,1.25,0,0,0,.53.26,1.73,1.73,0,0,0,.32,0,1.5,1.5,0,0,0,.37,0,1,1,0,0,0,.23.27,1,1,0,0,0,.77.23l0,0a.59.59,0,0,0,.38.14,1.46,1.46,0,0,0,.5.88,1.59,1.59,0,0,0,.53.28l.12.11a1.24,1.24,0,0,0,1.7-.1.93.93,0,0,0,.82.14.65.65,0,0,0,.75.05.55.55,0,0,0,.25.07s0,0,0,0a.76.76,0,0,0,.68.12,1.2,1.2,0,0,0,.37.1h0a1.16,1.16,0,0,0,.61-.1A1.1,1.1,0,0,0,71,72.3a1,1,0,0,0,1.18-.23,1.35,1.35,0,0,0,1.66-.32.18.18,0,0,1,0-.07,1.41,1.41,0,0,0,1.85-.27l.16-.24a1.41,1.41,0,0,0,.57-.41,1.24,1.24,0,0,0,.17-.27.68.68,0,0,0,.12-.12,1.32,1.32,0,0,0,.28-.63h0s0,0,0,0a.6.6,0,0,0,.15-.09h0a.57.57,0,0,0,.18,0,1.3,1.3,0,0,0,.49-.23,1.19,1.19,0,0,0,.23-.22,1.31,1.31,0,0,0,.22-1.38,1,1,0,0,0,.44-.32l0-.06a1.31,1.31,0,0,0,.45-.24,1.37,1.37,0,0,0,.17-.17l.11-.15h0a1.42,1.42,0,0,0,.41-.33,1.4,1.4,0,0,0,.23-1.41,1.07,1.07,0,0,0,.19-.18,1.47,1.47,0,0,0,0-1.92,1.6,1.6,0,0,0,.24-.22,1.29,1.29,0,0,0,.21-1.29,1.47,1.47,0,0,0-.14-.28,1.5,1.5,0,0,0-.06-.29,1.45,1.45,0,0,0,.27-.54A1.47,1.47,0,0,0,80.9,59.89Zm-2.78,1a1.48,1.48,0,0,0-.23.38,1.4,1.4,0,0,0,.22,1.39l0,0a1.3,1.3,0,0,0-.3,1,1.34,1.34,0,0,0-.34.29,1.29,1.29,0,0,0-.17,1.39s0,.07,0,.11a1,1,0,0,0-.29.07,1.09,1.09,0,0,0-.47.33,1.12,1.12,0,0,0-.24.85h0a1.84,1.84,0,0,0,0,.25l-.18.14a1.65,1.65,0,0,0-.61.18h0a1.56,1.56,0,0,0-.4.13,1.28,1.28,0,0,0-.45.36,1.41,1.41,0,0,0-.28.56,1.2,1.2,0,0,0-.66.4,1.17,1.17,0,0,0-.27.66,1.07,1.07,0,0,0-1.07.28l-.22.11-.12.08a1.1,1.1,0,0,0-.35.11.77.77,0,0,0-.25.1,1.23,1.23,0,0,0-.64-.17,1.37,1.37,0,0,0-1.23-.08,1.34,1.34,0,0,0-.51.38l-.06.08a1.14,1.14,0,0,0-.41-.18,1,1,0,0,0-.73.11l-.11-.1a1.26,1.26,0,0,0-.39-.22,1.07,1.07,0,0,0-1-.07h0l-.16-.15a1.09,1.09,0,0,0-.17-.13l-.09-.07-.19-.13,0,0a1.27,1.27,0,0,0-.87-.29h0a1.31,1.31,0,0,0-.06-.27,1.48,1.48,0,0,0-.46-.68,1.46,1.46,0,0,0-.69-.32h0a1.86,1.86,0,0,0-.35-.22,1.35,1.35,0,0,0-.32-.67l-.11-.11,0,0a1.38,1.38,0,0,0-.65-.3,2,2,0,0,0-.08-.26,1.45,1.45,0,0,0-.17-.26,1.31,1.31,0,0,0-.41-.63,1.29,1.29,0,0,0-.62-.28l0-.16a.9.9,0,0,0-.23-.94,1.41,1.41,0,0,0,0-.61,1.46,1.46,0,0,0,0-.55,1,1,0,0,0-.06-.23,1.41,1.41,0,0,0-.15-.48,1.17,1.17,0,0,0,.12-.31,1.41,1.41,0,0,0-.2-1.21,1.06,1.06,0,0,0-.09-.7,1.28,1.28,0,0,0,.46-.35s0,0,0-.06h0a1.27,1.27,0,0,0,.13-1.3,1.2,1.2,0,0,0,0-.33,1,1,0,0,0,0-.35.82.82,0,0,0,.12-.2h0s0,0,0,0a.93.93,0,0,0,.22-.6h0s0,0,.05,0a1.09,1.09,0,0,0,.18-.31,1,1,0,0,0,.34-.16L62,56a1.48,1.48,0,0,0,.31-.15,1.44,1.44,0,0,0,.38-.32l0,0a1.28,1.28,0,0,0,.45-.35h0a1.27,1.27,0,0,0,.27-.56,1.43,1.43,0,0,0,1.65-1.46,1.05,1.05,0,0,0,1-.1,1.18,1.18,0,0,0,.47-.27l.17,0a1.46,1.46,0,0,0,1,0,1.39,1.39,0,0,0,.84-.48l.11-.16a1.5,1.5,0,0,0,.16-.34,1.26,1.26,0,0,0,.36.53,1.11,1.11,0,0,0,.59.25.75.75,0,0,0,.26,0,1.19,1.19,0,0,0,1.22,0,1.4,1.4,0,0,0,1.51.1l0,0a1.21,1.21,0,0,0,.42.22,1.24,1.24,0,0,0,.32.41,1.11,1.11,0,0,0,.51.25l0,0a.64.64,0,0,0,.47.14,1.71,1.71,0,0,0,.09.3h0a1.21,1.21,0,0,0,.41.73l.06,0a1.23,1.23,0,0,0,.14.25,1.32,1.32,0,0,0,.25.28l.17.12a1.56,1.56,0,0,0,.33.14,1.28,1.28,0,0,0,.3,1.06l0,0a.43.43,0,0,0,.12.11,1.26,1.26,0,0,0,.5.26.69.69,0,0,0,0,.13,1.36,1.36,0,0,0,.47,1.25l.11.08A1.38,1.38,0,0,0,77.94,60a1.64,1.64,0,0,0,0,.22,1.56,1.56,0,0,0,.22.59Z" style="fill: #006454"/>
            <path d="M78.28,68.94a1.37,1.37,0,0,1-.15.21,1.19,1.19,0,0,1-.23.22,1.3,1.3,0,0,1-.49.23,15.33,15.33,0,0,0-1.79-2.17l-.16-.15h0a1.48,1.48,0,0,1,.61-.18l.18-.14a1.84,1.84,0,0,1,0-.25A10.63,10.63,0,0,1,78.28,68.94Z" style="fill: #db504a"/>
            <path d="M80.65,61.19a1.47,1.47,0,0,1,.14.28,18.78,18.78,0,0,0-2.9-.22,1.48,1.48,0,0,1,.23-.38l.06-.07a1.56,1.56,0,0,1-.22-.59,17.91,17.91,0,0,1,2.9.15,1.45,1.45,0,0,1-.27.54A1.5,1.5,0,0,1,80.65,61.19Z" style="fill: #db504a"/>
            <path d="M76.87,52.52a16.54,16.54,0,0,1-1.62,2.63.89.89,0,0,1-.14-.25l-.06,0a1.21,1.21,0,0,1-.41-.73h0A20.05,20.05,0,0,0,76,52a1.12,1.12,0,0,1,.63.26A1.61,1.61,0,0,1,76.87,52.52Z" style="fill: #db504a"/>
            <path d="M69.79,52.6a1.11,1.11,0,0,1-.59-.25,1.26,1.26,0,0,1-.36-.53,1.5,1.5,0,0,1-.16.34A17.53,17.53,0,0,0,68.49,50l.1.08a.8.8,0,0,1,.13.13.68.68,0,0,1,.27.13l.08.08a1,1,0,0,1,.2-.34.8.8,0,0,1,.21-.2A14,14,0,0,1,69.79,52.6Z" style="fill: #db504a"/>
            <path d="M63.14,55.14h0a1.28,1.28,0,0,1-.45.35l0,0a1.58,1.58,0,0,1-.37.32,19.12,19.12,0,0,0-1.95-2.48,1.35,1.35,0,0,1,.36-.28.88.88,0,0,1,.22-.1h0a1.23,1.23,0,0,1,.14-.31A14.37,14.37,0,0,1,63.14,55.14Z" style="fill: #db504a"/>
            <path d="M57.51,61.29c0-.1,0-.19.07-.29a1.2,1.2,0,0,1-.09-.93,18.67,18.67,0,0,0,3,1.61,1.17,1.17,0,0,1-.12.31,1.41,1.41,0,0,1,.15.48,1,1,0,0,1,.06.23,10.35,10.35,0,0,1-3.07-1.34A.14.14,0,0,0,57.51,61.29Z" style="fill: #db504a"/>
            <path d="M69.5,72.67s0,0,0,0h0a1.2,1.2,0,0,1-.37-.1.76.76,0,0,1-.68-.12,17.83,17.83,0,0,0,.11-2.36,1.14,1.14,0,0,1,.41.18L69,70.2a1.34,1.34,0,0,1,.51-.38A13,13,0,0,1,69.5,72.67Z" style="fill: #db504a"/>
            <path d="M62.73,66.73a11.23,11.23,0,0,1-2.85,1.76l-.1-.1a1.37,1.37,0,0,1-.36-.79.6.6,0,0,1-.11-.06A18,18,0,0,0,62,66.13a2,2,0,0,1,.08.26,1.38,1.38,0,0,1,.65.3Z" style="fill: #db504a"/>
            <g>
              <g>
                <path d="M76.39,51.43l0,0-.13.09c-1.51,1-3.46,1.1-6,0L70,51.44l-.11,0,0,0-.06,0h0v-.08a.14.14,0,0,0,0-.07h0l.16.06h.07l.37.11a3.26,3.26,0,0,0,3.12-.69,2.84,2.84,0,0,0,.26-.24h0l0-.06a8.4,8.4,0,0,0,1.4-2.12l.09-.19,0,0,0,.06h0v.12l.13,1.54.79,1.53v.08Z" style="fill: #c94141"/>
                <g style="opacity: 0.45;mix-blend-mode: multiply">
                  <path d="M76.39,51.43l0,0-.13.09A5.2,5.2,0,0,0,75.12,51l-.37-.12c-.24-.06-.48-.11-.73-.15l-.45,0a2.84,2.84,0,0,0,.26-.24h0l0-.06q.38.06.72.15l.38.12a4.68,4.68,0,0,1,1.4.76Z" style="fill: #828282"/>
                </g>
                <path d="M62.35,50.8l.17.14c1.46,1.14,3.39,1.46,6,.63l.22-.07.15-.06.07,0v0s0,0,0,0,0,0,0-.06l-.17,0-.08,0-.37.06a3.43,3.43,0,0,1-3.08-1l-.3-.34a9.05,9.05,0,0,1-1.28-2.27,2.29,2.29,0,0,1-.1-.23l0,0,0,.19-.2,1.52Z" style="fill: #c94141"/>
                <path d="M69,51.4l-.07.05-.14-.15a4.57,4.57,0,0,0-.47-.38,5.47,5.47,0,0,0-2.39-.85h-.14l-.28,0h-.55a5.82,5.82,0,0,0-.73.08l-.38.07-.53.16a4.24,4.24,0,0,0-.93.46l1.06-3.07a.71.71,0,0,1,.08-.15l0,0a.32.32,0,0,1,.22-.1h.34a3.74,3.74,0,0,1,1,.17,5.94,5.94,0,0,1,1.16.48c.14.08.28.16.41.25A5.64,5.64,0,0,1,68.82,51c0,.1.07.2.1.3s0,0,0,.06,0,0,0,0Z" style="fill: #db504a"/>
                <g style="opacity: 0.45;mix-blend-mode: multiply">
                  <path d="M63.81,50.18l.38-.07a5.82,5.82,0,0,1,.73-.08l.3.34h-.45a5.65,5.65,0,0,0-.73.07l-.39.08a4.47,4.47,0,0,0-1.13.42l-.17-.14A4.6,4.6,0,0,1,63.81,50.18Z" style="fill: #828282"/>
                </g>
                <path d="M76.39,51.43l0,0a4.93,4.93,0,0,0-.7-.45,4.63,4.63,0,0,0-.68-.29l-.38-.11a5.4,5.4,0,0,0-.72-.16h0a4.9,4.9,0,0,0-.77-.06h-.15a5.15,5.15,0,0,0-2.42.59,4.55,4.55,0,0,0-.43.28l-.06,0-.1.09-.05,0-.06,0v0s0,0,0,0v0a.14.14,0,0,0,0-.06l0-.06A2.29,2.29,0,0,1,70,51a5.14,5.14,0,0,1,2.32-2.37,5,5,0,0,1,1.09-.45,4.7,4.7,0,0,1,.51-.12A4,4,0,0,1,75,48l.22,0a.42.42,0,0,1,.2.1,0,0,0,0,0,0,0l0,.06h0a1,1,0,0,1,.07.15l.86,3v.08Z" style="fill: #db504a"/>
                <path d="M68.3,51.18v.9h2v-.9a.76.76,0,0,0,0-.15,1,1,0,0,0-2,0A.76.76,0,0,0,68.3,51.18Z" style="fill: #ef8181"/>
                <path d="M68.3,51.49v.72h2v-.72a.86.86,0,0,0,0-.16.66.66,0,0,0,0-.14,1,1,0,0,0-2,0,.66.66,0,0,0,0,.14A.86.86,0,0,0,68.3,51.49Z" style="fill: #db504a"/>
                <path d="M68.3,51.14v1.07h2V51.14a.81.81,0,0,0,0-.16s0,.05,0,.07a1,1,0,0,1-1.08,1,.86.86,0,0,1-.43-.15,1.18,1.18,0,0,1-.49-.87V51A.81.81,0,0,0,68.3,51.14Z" style="fill: #c94141"/>
              </g>
              <path d="M71.44,57.71c0,.31,0,.59,0,.83l-.59-1.24-.66,1.24A18.29,18.29,0,0,0,69.72,53c-.14-.5-.3-.84-.47-.88h1a.87.87,0,0,1,.41.45A14.56,14.56,0,0,1,71.44,57.71Z" style="fill: #db504a"/>
              <path d="M69.51,52.09l0,0a.64.64,0,0,1-.08.14,18.15,18.15,0,0,0-1.63,5.18l-.36-1.35-.86,1q0-.34.15-.81a18.63,18.63,0,0,1,1.46-4.07l.11-.19Z" style="fill: #db504a"/>
            </g>
            <circle cx="66.95" cy="70.46" r="0.37" style="fill: #c366ff"/>
            <circle cx="58.43" cy="64" r="0.37" style="fill: #c366ff"/>
            <circle cx="58.11" cy="59.26" r="0.37" style="fill: #c366ff"/>
            <circle cx="74.46" cy="52.87" r="0.37" style="fill: #c366ff"/>
            <circle cx="78.06" cy="55.28" r="0.37" style="fill: #c366ff"/>
            <circle cx="79.61" cy="64.35" r="0.37" style="fill: #c366ff"/>
            <circle cx="74.64" cy="69.51" r="0.37" style="fill: #c366ff"/>
            <circle cx="63.12" cy="70.03" r="0.37" style="fill: #f2f7f7"/>
            <circle cx="60.05" cy="64.27" r="0.37" style="fill: #f2f7f7"/>
            <circle cx="60.12" cy="58.82" r="0.37" style="fill: #f2f7f7"/>
            <circle cx="65.48" cy="52.53" r="0.37" style="fill: #f2f7f7"/>
            <circle cx="76.74" cy="56.33" r="0.37" style="fill: #f2f7f7"/>
            <circle cx="80.05" cy="59.33" r="0.37" style="fill: #f2f7f7"/>
            <circle cx="77.59" cy="66.73" r="0.37" style="fill: #f2f7f7"/>
            <circle cx="72.95" cy="70.1" r="0.37" style="fill: #f2f7f7"/>
            <circle cx="71.87" cy="71.49" r="0.37" style="fill: #a1ddff"/>
            <circle cx="78.63" cy="63.38" r="0.37" style="fill: #a1ddff"/>
            <circle cx="78.31" cy="59" r="0.37" style="fill: #a1ddff"/>
            <circle cx="66.92" cy="50.8" r="0.37" style="fill: #a1ddff"/>
            <circle cx="60.55" cy="54.55" r="0.37" style="fill: #a1ddff"/>
            <circle cx="60.96" cy="66.12" r="0.37" style="fill: #a1ddff"/>
            <circle cx="65.1" cy="69.86" r="0.37" style="fill: #a1ddff"/>
            <circle cx="74.84" cy="71.14" r="0.37" style="fill: #ffd151"/>
            <circle cx="79.14" cy="65.74" r="0.37" style="fill: #ffd151"/>
            <circle cx="78.93" cy="57.2" r="0.37" style="fill: #ffd151"/>
            <circle cx="71.71" cy="50.97" r="0.37" style="fill: #ffd151"/>
            <circle cx="59.76" cy="56.33" r="0.37" style="fill: #ffd151"/>
            <circle cx="59.22" cy="65.9" r="0.37" style="fill: #ffd151"/>
            <circle cx="65.72" cy="71.96" r="0.37" style="fill: #ffd151"/>
            <g>
              <path d="M80.19,61.75a1,1,0,1,1-1-1A1,1,0,0,1,80.19,61.75Z" style="fill: #ffd151"/>
              <path d="M78.7,61.37a1,1,0,0,1,.73-.38.77.77,0,0,0-.88.26.78.78,0,0,0,0,.92A.94.94,0,0,1,78.7,61.37Z" style="fill: #fff;opacity: 0.5"/>
            </g>
            <g>
              <circle cx="62.22" cy="53.3" r="1.01" style="fill: #ffd151"/>
              <path d="M61.74,52.91a1,1,0,0,1,.74-.38.79.79,0,0,0-.92,1.19A1,1,0,0,1,61.74,52.91Z" style="fill: #fff;opacity: 0.5"/>
            </g>
            <g>
              <path d="M60.17,62.41a1,1,0,1,1-1-1A1,1,0,0,1,60.17,62.41Z" style="fill: #ffd151"/>
              <path d="M58.68,62a1,1,0,0,1,.74-.38.8.8,0,0,0-.93,1.19A1,1,0,0,1,58.68,62Z" style="fill: #fff;opacity: 0.5"/>
            </g>
            <g>
              <path d="M77.51,53.93a1,1,0,1,1-1.84.84,1,1,0,0,1,1.84-.84Z" style="fill: #ffd151"/>
              <path d="M76,54.2a1,1,0,0,1,.52-.66A.8.8,0,0,0,76.16,55,1,1,0,0,1,76,54.2Z" style="fill: #fff;opacity: 0.5"/>
            </g>
            <g>
              <path d="M71.06,71.39a1,1,0,0,1-1.13.88,1,1,0,0,1,.25-2A1,1,0,0,1,71.06,71.39Z" style="fill: #ffd151"/>
              <path d="M69.63,70.82a1,1,0,0,1,.78-.29.8.8,0,0,0-.91.16.78.78,0,0,0-.15.91A1,1,0,0,1,69.63,70.82Z" style="fill: #fff;opacity: 0.5"/>
            </g>
            <g>
              <path d="M77.12,68.69a1,1,0,1,1-2-.25,1,1,0,0,1,1.13-.88A1,1,0,0,1,77.12,68.69Z" style="fill: #ffd151"/>
              <path d="M75.69,68.12a1,1,0,0,1,.78-.28.79.79,0,0,0-.92.15.81.81,0,0,0-.15.91A1,1,0,0,1,75.69,68.12Z" style="fill: #fff;opacity: 0.5"/>
            </g>
            <g>
              <path d="M62.91,68.07a1,1,0,0,1-1.13.87,1,1,0,0,1-.88-1.12,1,1,0,0,1,2,.25Z" style="fill: #ffd151"/>
              <path d="M61.48,67.5a1,1,0,0,1,.78-.29.81.81,0,0,0-.92.15.83.83,0,0,0-.15.92A1,1,0,0,1,61.48,67.5Z" style="fill: #fff;opacity: 0.5"/>
            </g>
          </g>
        </g>
      </g>
    </g>
  </g>
</svg>
