<svg xmlns="http://www.w3.org/2000/svg" viewBox="0 0 180 180">
  <title>christmas-icon-decorations</title>
  <g style="isolation: isolate">
    <g id="christmas-icon-decorations" data-name="Christmas Icon Decorations">
      <g>
        <g>
          <path d="M62.56,113.18s6.5-15,6.5-26.26l7.33.08,7.32.07c-.23,11.25,6,26.4,6,26.4C93.16,124,76,123.73,76,123.73S58.84,123.63,62.56,113.18Z" style="fill: #c09769;fill-rule: evenodd"/>
          <g>
            <path d="M76.16,108.55s13.08-.5,3.11,15a28.42,28.42,0,0,1-3.16.18,28.8,28.8,0,0,1-3.38-.28C63.11,107.78,76.16,108.55,76.16,108.55Z" style="fill: #f1bd82;fill-rule: evenodd"/>
            <path d="M76.16,108.55h.19l-.16,15.19h-.08a28.8,28.8,0,0,1-3.38-.28C63.11,107.78,76.16,108.55,76.16,108.55Z" style="fill: #d8aa76;fill-rule: evenodd"/>
          </g>
          <g>
            <g>
              <path d="M62.44,75a5.78,5.78,0,0,1,3.89-.48,5.82,5.82,0,0,1,3,2.5l.16.28-.28.15a5.82,5.82,0,0,1-3.9.47,5.82,5.82,0,0,1-3-2.5l-.16-.28Z" style="fill: #8e704e"/>
              <path d="M69.07,77.15v0a5.55,5.55,0,0,1-3.66.46,5.55,5.55,0,0,1-2.84-2.36h0Z" style="fill: #a7835b"/>
            </g>
            <g>
              <path d="M90.73,75.29a5,5,0,0,0-7,1.88l-.17.28.28.15a5,5,0,0,0,7-1.88l.16-.27Z" style="fill: #8e704e"/>
              <path d="M84.06,77.31l0,0a4.65,4.65,0,0,0,6.54-1.77h0Z" style="fill: #c09769"/>
            </g>
            <path d="M80.71,71c0-.2,3.05-.4,1.87-4.19s-1.93-4.67-.81-5.18,2.24.23,3.12,3.5S90.69,67,93,60.77a13.53,13.53,0,0,0-2.65-13.63c-2.1-2.42-3.11-7.37-.73-6.94,1.91.35,1,2.2,2.53,4.39,1.69,2.38,5.53,5.61,7,.75s.61-10.34,2.74-9.82.6,9.53-.19,12.29-2.78,8-3.42,10-2.72,9.78,3.54,1.92.78-7.32,4.24-9,.08,8.09-.78,9.82.83,3.08,3.45.86,2.12,1,2.12,1-.41,2.8-6.16,3.51S88,68.62,85.94,72.17s-3.1,5-3,1.26c0,0,.08-1.41-.5-1.62S80.6,71.9,80.71,71Z" style="fill: #6e3818"/>
            <path d="M72.41,70.89c0-.21-3-.47-1.79-4.24s2-4.63.92-5.16-2.25.19-3.19,3.44-5.84,1.75-8-4.5a13.54,13.54,0,0,1,2.93-13.57c2.15-2.37,3.27-7.31.87-6.92-1.91.3-1,2.17-2.61,4.33-1.75,2.34-5.65,5.5-7,.6S54.16,34.52,52,35s-.8,9.52-.07,12.29,2.61,8.07,3.21,10,2.52,9.83-3.58,1.84-.62-7.33-4-9.11-.25,8.08.57,9.83-.89,3.06-3.46.79-2.14.93-2.14.93.35,2.81,6.08,3.64S65.12,68.38,67.15,72s3,5.1,2.94,1.32c0,0,0-1.4.52-1.61S72.5,71.82,72.41,70.89Z" style="fill: #3d2212"/>
            <path d="M69.11,86.7l7.33.07,7.33.08A48.58,48.58,0,0,0,84.88,97.2c-.62,2.44-2.61,5.51-8.71,5.45-5.75-.06-7.79-2.83-8.49-5.19A48.1,48.1,0,0,0,69.11,86.7Z" style="fill: #735a3f"/>
            <g>
              <path d="M71.23,101l2.36,0,2.35,0,2.35,0,2.35,0c.61,1.57-.89,2.39-2.39,3.94a3,3,0,0,0-.15-.83c-1.17,2.08-3.59,3.4-2.25,5.51-1.94-2-1.33-2.86-1-4.65-.77,1-1.66,1.26-2.12,2.26C72.23,105,74.11,103.36,71.23,101Z" style="fill: #babcba"/>
              <path d="M71.24,100.24l2.35,0,2.36,0,2.35,0,2.35,0c.61,1.57-.9,3.13-2.4,4.68a10.41,10.41,0,0,0-.14-1.57c-1.17,2.08-3.6,4.14-2.26,6.25-2-1.82-1.32-3.6-1-5.39a17.32,17.32,0,0,0-2.13,3C72.23,105,74.12,102.62,71.24,100.24Z" style="fill: #f1f1f2"/>
            </g>
            <g>
              <path d="M76.61,72.42c-7.37-.08-7.81,4-7.81,4L67.53,93.58s-1.31,8.44,8.77,8.54,9-8.35,9-8.35l-.91-17.18S84,72.5,76.61,72.42Z" style="fill: #c09769"/>
              <path d="M67.53,93.58,68.8,76.43s.44-4.09,7.81-4l-.31,29.7C66.22,102,67.53,93.58,67.53,93.58Z" style="fill: #a7835b"/>
            </g>
            <g>
              <path d="M71.29,80.13a1.5,1.5,0,1,1,1.48,1.51A1.5,1.5,0,0,1,71.29,80.13Z" style="fill: #404041"/>
              <path d="M71.57,79.76a.74.74,0,0,1,.76-.74.75.75,0,0,1,.74.75.76.76,0,0,1-.76.75A.76.76,0,0,1,71.57,79.76Z" style="fill: #d5d7d5"/>
            </g>
            <g>
              <path d="M78.72,80.21a1.5,1.5,0,1,1,1.48,1.51A1.5,1.5,0,0,1,78.72,80.21Z" style="fill: #404041"/>
              <path d="M79,79.84a.76.76,0,0,1,.76-.75.75.75,0,0,1,.74.76.73.73,0,0,1-.75.74A.75.75,0,0,1,79,79.84Z" style="fill: #d5d7d5"/>
            </g>
            <g>
              <path d="M69,73c0-.48,0-1,0-1.4,0-1.84-4.33-1.84-4.33-1.84,7-6.11,12.36-5.45,12.36-5.45,4,0,7.23,5,7.78,8.86Z" style="fill: #ec343a"/>
              <path d="M66.91,69.77A5.69,5.69,0,0,1,72,73l-3,0c0-.48,0-1,0-1.4,0-1.17-1.74-1.59-3-1.75A5.49,5.49,0,0,1,66.91,69.77Z" style="fill: #d12c33"/>
              <path d="M68.72,76.52a1.62,1.62,0,0,0,.77-.19c8-4.12,14.17,0,14.23.07a1.64,1.64,0,1,0,1.86-2.71,15.52,15.52,0,0,0-5.18-2.07A18.31,18.31,0,0,0,68,73.41a1.65,1.65,0,0,0,.74,3.11Z" style="fill: #f1f1f2"/>
              <path d="M62.79,69.72a1.9,1.9,0,1,1,1.88,1.92A1.9,1.9,0,0,1,62.79,69.72Z" style="fill: #f1f1f2"/>
            </g>
            <path d="M65.25,79.38a.53.53,0,0,1,.27.32,5,5,0,0,1,.26,1.14c.07.52.12,1,.21,1.56a4.52,4.52,0,0,0,.52,1.51,2.15,2.15,0,0,0,1,.9,4,4,0,0,0,.89.27h0a14.21,14.21,0,0,0,2.76.06l.14,0a5.49,5.49,0,0,0,1.7-.65,5,5,0,0,0,1.89-2,10.51,10.51,0,0,0,.59-1.53,1.64,1.64,0,0,1,.32-.63,1,1,0,0,1,1.4,0,1.73,1.73,0,0,1,.31.64,9,9,0,0,0,.56,1.55,4.79,4.79,0,0,0,1.84,2,5.53,5.53,0,0,0,1.69.69l.14,0a14.17,14.17,0,0,0,2.76,0h0a4.62,4.62,0,0,0,.9-.25,2.13,2.13,0,0,0,1-.88,4.33,4.33,0,0,0,.56-1.5c.1-.52.16-1,.24-1.56a5.66,5.66,0,0,1,.28-1.13.55.55,0,0,1,.27-.31.08.08,0,0,0,.06-.09c0-.44,0-.87,0-1.31,0-.06,0-.1-.08-.11l-.28,0c-.73-.14-1.46-.29-2.19-.42a16.63,16.63,0,0,0-2-.21,13.12,13.12,0,0,0-2.26.12c-.75.1-1.5.26-2.24.42a8.63,8.63,0,0,1-1.82.29h-.87a8.58,8.58,0,0,1-1.82-.33c-.74-.18-1.48-.35-2.23-.46a12.18,12.18,0,0,0-2.25-.17,16.52,16.52,0,0,0-2,.17c-.73.11-1.46.24-2.2.37l-.28,0c-.06,0-.08,0-.09.11l-.06,1.3S65.21,79.36,65.25,79.38Zm13.06.43a1.45,1.45,0,0,1,.84-1.19,4,4,0,0,1,1.16-.39,8.85,8.85,0,0,1,1.54-.17c.51,0,1,0,1.53,0a5.68,5.68,0,0,1,2,.42l.22.12a2.08,2.08,0,0,1,1,1.55s0,.12,0,.21a11.8,11.8,0,0,1-.09,1.46,8.49,8.49,0,0,1-.24,1.24,2.74,2.74,0,0,1-.42.9,1.86,1.86,0,0,1-.91.62,4.57,4.57,0,0,1-1.27.22c-.4,0-.8,0-1.2,0a3.72,3.72,0,0,1-2.3-.82,4.91,4.91,0,0,1-1-1.08,5.6,5.6,0,0,1-.85-2A3.64,3.64,0,0,1,78.31,79.81Zm-11.84.38a1.69,1.69,0,0,1,0-.21,2.06,2.06,0,0,1,1-1.53l.22-.11a5.75,5.75,0,0,1,2-.39c.51,0,1,0,1.53,0a8.9,8.9,0,0,1,1.54.2,4.27,4.27,0,0,1,1.15.41,1.51,1.51,0,0,1,.82,1.21,4,4,0,0,1-.08,1.14,5.9,5.9,0,0,1-.89,2,5.14,5.14,0,0,1-1,1,3.64,3.64,0,0,1-2.31.77c-.4,0-.81,0-1.21,0A4.55,4.55,0,0,1,68,84.44a1.81,1.81,0,0,1-.9-.64,2.68,2.68,0,0,1-.39-.9,7.61,7.61,0,0,1-.22-1.25A11.8,11.8,0,0,1,66.47,80.19Z" style="fill: #f1f1f2;fill-rule: evenodd"/>
            <g>
              <path d="M76.39,96.41c-1.59-1.59-4-.89-5.34.59a10.5,10.5,0,0,0-1.34,2.21c-.47.91-.85,1.87-1.28,2.8a4.05,4.05,0,0,1-.36.59c-.37.49-.84.93-1.49.69s-.58-1.38-.29-2a1.68,1.68,0,0,0-.29,2.59,2.38,2.38,0,0,0,2.25.46,8.45,8.45,0,0,0,3.57-2.32,11.93,11.93,0,0,1,2.93-2.16,4.37,4.37,0,0,1,4.82.73c1.09.94,2.08,2,3.17,2.92a4.11,4.11,0,0,0,3.05,1.09,1.71,1.71,0,0,0,1.59-1.15,2,2,0,0,0-.77-2.12c.39.68.54,1.74-.17,2.12-.46.25-1.22-.09-1.57-.81a36.83,36.83,0,0,1-1.71-3.86,4.75,4.75,0,0,0-4.46-3.18A9.77,9.77,0,0,0,76.39,96.41Z" style="fill: #babcba;fill-rule: evenodd"/>
              <path d="M76.39,95.92c-1.58-1.59-4-.89-5.33.59a10.34,10.34,0,0,0-1.34,2.21c-.47.92-.86,1.87-1.29,2.8a2.74,2.74,0,0,1-.36.59c-.37.5-.83.93-1.48.69s-.52-.88-.3-1.47a1.21,1.21,0,0,0-.28,2.1,2.31,2.31,0,0,0,2.24.46,8.56,8.56,0,0,0,3.58-2.31,11.72,11.72,0,0,1,2.93-2.17,4.35,4.35,0,0,1,4.81.73c1.09.94,2.08,2,3.18,2.93a4.12,4.12,0,0,0,3,1.08A1.7,1.7,0,0,0,87.38,103c.21-.65,0-1.18-.77-1.63.3.67.54,1.25-.17,1.63-.46.25-1.22-.09-1.57-.8a40.27,40.27,0,0,1-1.71-3.87,4.74,4.74,0,0,0-4.45-3.18A10,10,0,0,0,76.39,95.92Z" style="fill: #f1f1f2;fill-rule: evenodd"/>
            </g>
            <g>
              <path d="M69.33,95c0-1.92,3.19-3.44,7.08-3.4s7,1.63,7,3.55-3.2,3.44-7.09,3.4S69.3,97,69.33,95Z" style="fill: #db2e31"/>
              <path d="M70.29,95c0-.51.84-.91,1.88-.9s1.86.43,1.86.94-.85.91-1.88.9S70.28,95.55,70.29,95Z" style="fill: #f1f1f2"/>
            </g>
          </g>
        </g>
        <g>
          <path d="M137.53,132.61c0,1.61-8.87,4.75-45.6,2.92-25.15-1.25-45.59-1.31-45.59-2.92s20.41-2.93,45.59-2.93S137.53,131,137.53,132.61Z" style="fill: #231f20;opacity: 0.1"/>
          <g>
            <g>
              <path d="M110.21,90c3.54-1.77,6.37-2.69,6.92-1.93.23.3.07.88-.38,1.65-3.1,5.26-20.09,19.41-23.06,15.32a1.61,1.61,0,0,1-.32-1c0-1,.75-2.25,2-3.61C98.56,96.83,105.11,92.51,110.21,90Z" style="fill: #8b493f"/>
              <path d="M91.46,108.62a6.3,6.3,0,0,0,1.64,3.21c.1.1.21.19.32.28,5.89,5,19.48-.16,29.44-20.52l0,0a2.15,2.15,0,0,0-.62-2.64,9.11,9.11,0,0,0-5-2.37,10.36,10.36,0,0,0-4.5.67,50,50,0,0,0-11.56,5.84l-.22.15A44.28,44.28,0,0,0,97.26,96a28.73,28.73,0,0,0-3.1,2.94A14.93,14.93,0,0,0,92,101.87a7.66,7.66,0,0,0-.82,2.53A13.74,13.74,0,0,0,91.46,108.62ZM93.37,104c0-1,.75-2.25,2-3.61,3.22-3.56,9.77-7.88,14.87-10.43,3.54-1.77,6.37-2.69,6.92-1.93.23.3.07.88-.38,1.65-3.1,5.26-20.09,19.41-23.06,15.32A1.61,1.61,0,0,1,93.37,104Z" style="fill: #b36a50"/>
              <path d="M122.86,91.59c7.75,3.56,14.67,11.51,14.67,20.74,0,6.32-1.71,12-5.59,16.15s-9.78,6.58-18.31,6.58-14.06-2.51-17.48-6.58a19.91,19.91,0,0,1-4.07-9h0c-1-5.82,1.34-7.39,1.34-7.39C99.31,117.09,112.9,112,122.86,91.59Z" style="fill: #a45b41"/>
              <g style="mix-blend-mode: multiply">
                <path d="M96.15,128.48a19.36,19.36,0,0,1-3.84-7.94c4.26,6.43,21.94,6,27.47,4.89s11.16-3.49,14.58-7.85a13.63,13.63,0,0,0,2.86-8.58,18.42,18.42,0,0,1,.31,3.33c0,6.32-1.71,12-5.59,16.15s-9.78,6.58-18.31,6.58S99.57,132.55,96.15,128.48Z" style="fill: #ded4db"/>
              </g>
              <g>
                <path d="M101.79,92.62a5.2,5.2,0,0,1-3.14-1.45,4.59,4.59,0,0,1,6.5.61A5.25,5.25,0,0,1,101.79,92.62Z" style="fill: #f6f3f5"/>
                <path d="M99.3,89.91l1.64-1.83a.07.07,0,0,0,0-.11l-.53,0a.06.06,0,0,1,0-.1l1.15-1.28a.06.06,0,0,0,0-.1l-.31,0a.07.07,0,0,1,0-.11l1.4-1.56a.07.07,0,0,1,.1,0l1.09,1.79s0,.11-.06.1l-.32,0a.07.07,0,0,0-.06.1l.89,1.47a.06.06,0,0,1-.06.09l-.52,0a.07.07,0,0,0-.07.1l1.28,2.1s0,.11-.06.1L102,90.27,99.34,90A.07.07,0,0,1,99.3,89.91Z" style="fill: #81911e"/>
                <g>
                  <path d="M102.64,83.59a.36.36,0,0,0,.71.07.36.36,0,0,0-.32-.39A.35.35,0,0,0,102.64,83.59Z" style="fill: #fff"/>
                  <path d="M105.2,86.56a.35.35,0,0,0,.31.38.35.35,0,0,0,.39-.32.35.35,0,0,0-.7-.06Z" style="fill: #fff"/>
                  <path d="M105.41,89.05a.35.35,0,1,0,.7.07.35.35,0,1,0-.7-.07Z" style="fill: #fff"/>
                  <path d="M104.72,87.78a.22.22,0,1,0,.24-.2A.21.21,0,0,0,104.72,87.78Z" style="fill: #fff"/>
                  <path d="M104.19,85.45a.22.22,0,0,0,.2.24.22.22,0,0,0,.24-.2.21.21,0,0,0-.2-.24A.22.22,0,0,0,104.19,85.45Z" style="fill: #fff"/>
                  <path d="M99.77,86.62a.22.22,0,0,0,.2.24.22.22,0,0,0,.25-.2.22.22,0,0,0-.2-.24A.23.23,0,0,0,99.77,86.62Z" style="fill: #fff"/>
                  <path d="M100.8,85.13a.22.22,0,0,0,.2.24.22.22,0,0,0,.24-.2.21.21,0,0,0-.2-.24A.22.22,0,0,0,100.8,85.13Z" style="fill: #fff"/>
                  <path d="M102.24,86.28a.22.22,0,1,0,.24-.2A.21.21,0,0,0,102.24,86.28Z" style="fill: #fff"/>
                  <path d="M98.14,86.71a.22.22,0,0,0,.2.24.23.23,0,0,0,.25-.2.22.22,0,0,0-.2-.24A.23.23,0,0,0,98.14,86.71Z" style="fill: #fff"/>
                  <path d="M100.07,88.9a.22.22,0,0,0,.2.24.23.23,0,0,0,.25-.2.22.22,0,0,0-.2-.24A.23.23,0,0,0,100.07,88.9Z" style="fill: #fff"/>
                  <path d="M103.81,89.48a.22.22,0,0,0,.44,0,.21.21,0,0,0-.2-.24A.22.22,0,0,0,103.81,89.48Z" style="fill: #fff"/>
                  <path d="M98.93,85.08a.35.35,0,0,0,.32.39.34.34,0,0,0,.38-.32.36.36,0,0,0-.32-.39A.36.36,0,0,0,98.93,85.08Z" style="fill: #fff"/>
                  <path d="M102.08,88.19a.36.36,0,0,0,.71.06.36.36,0,0,0-.32-.38A.35.35,0,0,0,102.08,88.19Z" style="fill: #fff"/>
                  <path d="M98.42,88.48a.36.36,0,1,0,.39-.32A.37.37,0,0,0,98.42,88.48Z" style="fill: #fff"/>
                </g>
                <g style="opacity: 0.30000000000000004">
                  <path d="M97.08,86.92a5.23,5.23,0,1,1,4.71,5.7A5.23,5.23,0,0,1,97.08,86.92Z" style="fill: #9ab7d1"/>
                </g>
                <path d="M98,91.09a.16.16,0,0,1,.17-.11l7.41.7a.18.18,0,0,1,.15.14l.47,3L97,94Z" style="fill: #d9404e"/>
                <path d="M97,93.65l9.38.89a.32.32,0,0,1,.29.34.32.32,0,0,1-.35.28l-9.38-.88a.32.32,0,0,1-.28-.35A.31.31,0,0,1,97,93.65Z" style="fill: #ffa528"/>
                <g style="opacity: 0.5">
                  <path d="M106.21,88.38a.6.6,0,0,0,.65-.54,4.6,4.6,0,0,0-5.59-4.91.6.6,0,0,0-.45.71.6.6,0,0,0,.71.44,3.42,3.42,0,0,1,4.15,3.65A.6.6,0,0,0,106.21,88.38Z" style="fill: #fff"/>
                </g>
              </g>
              <g>
                <g>
                  <path d="M102.62,95.44a.61.61,0,0,0,0-.27.4.4,0,0,0-.14-.26l-.25-.19-.4-.29c-.39-.28-.77-.52-1.14-.74-.84-.85-1.74-1.6-2-1.32a.53.53,0,0,1,.1-.29,2.22,2.22,0,0,1,1.26-.91.54.54,0,0,1,.57.18,9.39,9.39,0,0,1,.89,1.25,12.68,12.68,0,0,1,.84,1.65c.16-.45.32-.87.5-1.26a10.15,10.15,0,0,1,1-1.68l.06-.08a.55.55,0,0,1,.56-.22,2.17,2.17,0,0,1,1.32.81.5.5,0,0,1,.12.28c-.33-.36-1.82,1.34-2.67,2.51h0c-.24.33-.42.61-.53.8l-.06.12h-.08l0-.1Z" style="fill: #e3b689"/>
                  <path d="M102.92,93c-.18.39-.34.81-.5,1.26a12.68,12.68,0,0,0-.84-1.65,9.77,9.77,0,0,1,0-1.53.55.55,0,0,1,.37-.48,2.13,2.13,0,0,1,1.55,0,.62.62,0,0,1,.25.17C103.41,90.68,103.11,91.81,102.92,93Z" style="fill: #daa77c"/>
                  <path d="M97.69,94.42A2.12,2.12,0,0,1,98.3,93a.52.52,0,0,1,.58-.14l.09,0a10.59,10.59,0,0,1,1.75.81c.37.22.75.46,1.14.74l.4.29.25.19a.4.4,0,0,1,.14.26.61.61,0,0,1,0,.27h0l0,.1,0,.06h0a.24.24,0,0,1-.08.09s0,0-.08-.08l-.12-.07a9.3,9.3,0,0,0-.88-.34h0c-1.37-.46-3.56-1-3.63-.49A.51.51,0,0,1,97.69,94.42Z" style="fill: #daa77c"/>
                  <path d="M102.73,95.41c.11-.19.29-.47.53-.8h0c.85-1.17,2.34-2.87,2.67-2.51a.53.53,0,0,1-.07.37,9.21,9.21,0,0,1-3,3.12.37.37,0,0,1-.23,0s0,0,0-.11Z" style="fill: #c78c66"/>
                  <path d="M102.92,93c.19-1.18.49-2.31.83-2.22a.59.59,0,0,1,.13.36,1.09,1.09,0,0,0,0,.18A10.15,10.15,0,0,0,102.92,93Z" style="fill: #c78c66"/>
                  <path d="M101.38,95.21h0a9.3,9.3,0,0,1,.88.34l.12.07c.06,0,.09.06.08.08a.31.31,0,0,1-.22.09A9.13,9.13,0,0,1,98,95a.59.59,0,0,1-.28-.26C97.82,94.23,100,94.75,101.38,95.21Z" style="fill: #c78c66"/>
                  <path d="M100.72,93.69A10.59,10.59,0,0,0,99,92.88l-.11-.15a.51.51,0,0,1-.1-.36C99,92.09,99.88,92.84,100.72,93.69Z" style="fill: #c78c66"/>
                </g>
                <g>
                  <path d="M98.51,98h0L99.2,100a.45.45,0,0,0,.5.21l-1.63.52a.44.44,0,0,1-.49-.21l-.67-2.09h0Z" style="fill: #8b493f"/>
                  <path d="M101.12,99.43l-.67-2.09,1.75-.57.67,2.1a.46.46,0,0,0,.5.2l-1.75.57A.47.47,0,0,1,101.12,99.43Z" style="fill: #8b493f"/>
                  <path d="M107.38,97.43l-.67-2.1.26-.08,1.82-.58h0l.67,2.1a.44.44,0,0,1-.29.45l-2.09.67A.45.45,0,0,0,107.38,97.43Z" style="fill: #a45b41"/>
                  <path d="M102.87,98.87l-.67-2.1h0l2.25-.72.67,2.1a.45.45,0,0,1-.29.45l-1.47.47A.46.46,0,0,1,102.87,98.87Z" style="fill: #a45b41"/>
                  <path d="M96.69,96.61l1.53-.49a.51.51,0,0,0-.34.65l.33,1a.24.24,0,0,0,.3.16l-1.6.51h0a.32.32,0,0,1-.4-.21l-.26-.81A.67.67,0,0,1,96.69,96.61Z" style="fill: #9b5347"/>
                  <path d="M101.55,95.75l.26.82a.32.32,0,0,0,.4.2h0l-1.75.57h0a.25.25,0,0,1-.31-.16l-.33-1a.52.52,0,0,1,.34-.66l1.85-.59A.67.67,0,0,0,101.55,95.75Z" style="fill: #9b5347"/>
                  <path d="M104.55,94.64l.33,1a.25.25,0,0,1-.16.31l-.26.08-2.25.72a.32.32,0,0,1-.4-.2l-.26-.82a.67.67,0,0,1,.44-.84l1.9-.61A.52.52,0,0,1,104.55,94.64Z" style="fill: #ba6e51"/>
                  <path d="M107,95.25a.25.25,0,0,0,.16-.31l-.33-1a.51.51,0,0,0-.65-.34l1.74-.56a.68.68,0,0,1,.85.43l.26.82a.31.31,0,0,1-.2.39h0Z" style="fill: #ba6e51"/>
                  <path d="M99.8,96.16l.33,1a.25.25,0,0,0,.31.16L98.53,98h0a.24.24,0,0,1-.3-.16l-.33-1a.51.51,0,0,1,.34-.65l1.92-.62A.52.52,0,0,0,99.8,96.16Z" style="fill: #daa77c"/>
                  <path d="M99.2,100,98.53,98l1.91-.61h0l.67,2.09a.47.47,0,0,0,.5.21l-1.92.61A.45.45,0,0,1,99.2,100Z" style="fill: #cf9875"/>
                  <path d="M105.13,98.15l-.67-2.1.26-.08,2-.64.67,2.1a.45.45,0,0,1-.29.45l-2.25.72A.45.45,0,0,0,105.13,98.15Z" style="fill: #daa77c"/>
                  <path d="M106.8,93.92l.33,1a.25.25,0,0,1-.16.31l-.26.08-2,.64a.25.25,0,0,0,.16-.31l-.33-1a.52.52,0,0,0-.66-.34l2.26-.72A.51.51,0,0,1,106.8,93.92Z" style="fill: #e3b689"/>
                </g>
              </g>
              <g>
                <path d="M122.44,84.1a2.44,2.44,0,0,1-2.31.08,1.76,1.76,0,0,1-2.08.52,9.39,9.39,0,0,1-.69,1.85.93.93,0,0,1,.84.47,5.19,5.19,0,0,1,1.72.06,1.84,1.84,0,0,1,1.5-1.32S121.25,84.88,122.44,84.1Z" style="fill: #798919"/>
                <path d="M115.87,85.66h.26a8.38,8.38,0,0,1,0-1.32,1.79,1.79,0,0,1-1.86-1.08,2.44,2.44,0,0,1-2.2-.73c.93,1.09.53,1.89.53,1.89a1.83,1.83,0,0,1,1.07,1.68,4.87,4.87,0,0,1,1.47.35A.91.91,0,0,1,115.87,85.66Z" style="fill: #798919"/>
                <path d="M115.07,88.29a9.45,9.45,0,0,1-1.62.39,1.8,1.8,0,0,1-.73,2,2.5,2.5,0,0,1-.31,2.29c.89-1.1,1.75-.85,1.75-.85a1.81,1.81,0,0,1,1.46-1.35,5.43,5.43,0,0,1,.12-1.73A.92.92,0,0,1,115.07,88.29Z" style="fill: #798919"/>
                <path d="M116.14,87.11a.7.7,0,0,0,.59-.78.69.69,0,1,0-.59.78Z" style="fill: #e42542"/>
                <path d="M117.36,86.55h-.1a.81.81,0,0,0-.35.12,1,1,0,0,0,0-.24.93.93,0,0,0-.78-.78h-.26a.91.91,0,0,0-.78.79,1,1,0,0,0,0,.25.88.88,0,0,0,.43.65.92.92,0,0,0-.45.94h0a.92.92,0,0,0,.67.77,1,1,0,0,0,.38,0,.93.93,0,0,0,.8-.83.88.88,0,0,0,.6.13.92.92,0,0,0,.78-1,1.19,1.19,0,0,0-.1-.32A.93.93,0,0,0,117.36,86.55Zm-.88.81h0Zm-1.12-.84a.69.69,0,0,1,1.37-.19.7.7,0,0,1-.59.78A.69.69,0,0,1,115.36,86.52Zm.78,2.25a.76.76,0,0,1-.21-1.5.76.76,0,0,1,.21,1.5Zm1.44-.69a.72.72,0,0,1-.82-.62.73.73,0,0,1,1.45-.21A.74.74,0,0,1,117.58,88.08Z" style="fill: #c5112d"/>
                <path d="M117.38,86.63a.73.73,0,0,0-.62.83.72.72,0,0,0,.82.62.73.73,0,1,0-.2-1.45Z" style="fill: #e42542"/>
                <path d="M116.78,87.92a.75.75,0,1,0-1.49.2.75.75,0,1,0,1.49-.2Z" style="fill: #e42542"/>
              </g>
              <g>
                <g>
                  <path d="M109.44,91.07a1.15,1.15,0,0,0,0-.41.54.54,0,0,0-.27-.36l-.42-.23-.69-.36c-.65-.33-1.27-.61-1.88-.86-1.47-1.1-3-2-3.28-1.56a.84.84,0,0,1,.1-.46,3.21,3.21,0,0,1,1.7-1.66.83.83,0,0,1,.91.14A15.23,15.23,0,0,1,107.22,87a21,21,0,0,1,1.64,2.32,20.69,20.69,0,0,1,.48-2,15.57,15.57,0,0,1,1.06-2.77.75.75,0,0,1,.07-.12.83.83,0,0,1,.8-.46,3.25,3.25,0,0,1,2.18.93.84.84,0,0,1,.26.39c-.6-.46-2.46,2.45-3.5,4.41h0A12.83,12.83,0,0,0,109.6,91l-.07.2h0l-.1,0a1.24,1.24,0,0,0,0-.16Z" style="fill: #ffc139"/>
                  <path d="M109.34,87.29a20.69,20.69,0,0,0-.48,2A21,21,0,0,0,107.22,87a15.17,15.17,0,0,1-.35-2.31.84.84,0,0,1,.45-.81,3.25,3.25,0,0,1,2.35-.33.75.75,0,0,1,.42.2C109.55,83.68,109.35,85.46,109.34,87.29Z" style="fill: #f2b03a"/>
                  <path d="M101.73,90.64a3.27,3.27,0,0,1,.59-2.3.85.85,0,0,1,.85-.36l.15,0a15.83,15.83,0,0,1,2.84.84c.61.25,1.23.53,1.88.86l.69.36.42.23a.54.54,0,0,1,.27.36,1.15,1.15,0,0,1,0,.41h0a1.24,1.24,0,0,1,0,.16l0,.1v0a.38.38,0,0,1-.09.15s0-.06-.14-.1l-.2-.08a12.81,12.81,0,0,0-1.42-.32h0c-2.19-.38-5.63-.68-5.63.08A.86.86,0,0,1,101.73,90.64Z" style="fill: #f2b03a"/>
                  <path d="M109.6,91a12.83,12.83,0,0,1,.61-1.33h0c1-2,2.9-4.87,3.5-4.41a.89.89,0,0,1,0,.58,13.81,13.81,0,0,1-3.79,5.39.52.52,0,0,1-.35.14s0-.08,0-.17Z" style="fill: #da7d25"/>
                  <path d="M109.34,87.29c0-1.83.21-3.61.75-3.55a.84.84,0,0,1,.28.51l0,.27A15.57,15.57,0,0,0,109.34,87.29Z" style="fill: #da7d25"/>
                  <path d="M107.51,91h0a12.81,12.81,0,0,1,1.42.32l.2.08c.09,0,.14.07.14.1a.51.51,0,0,1-.32.19,13.94,13.94,0,0,1-6.59-.29.89.89,0,0,1-.48-.32C101.88,90.32,105.32,90.62,107.51,91Z" style="fill: #da7d25"/>
                  <path d="M106.16,88.85a15.83,15.83,0,0,0-2.84-.84l-.2-.2a.87.87,0,0,1-.24-.52C103.16,86.82,104.69,87.75,106.16,88.85Z" style="fill: #da7d25"/>
                </g>
                <g>
                  <path d="M110.2,99.66l-3-6.12,1.91-.94,3,6.12a.51.51,0,0,0,.6.15l-1.91.94A.51.51,0,0,1,110.2,99.66Z" style="fill: #c62d38"/>
                  <path d="M105.08,94.58h0l3,6.12a.5.5,0,0,0,.6.15l-1.77.87a.51.51,0,0,1-.6-.15l-3-6.12h0Z" style="fill: #c62d38"/>
                  <path d="M117,96.31l-3-6.12.29-.14,2-1h0l3,6.12a.53.53,0,0,1-.25.57l-2.28,1.12A.51.51,0,0,0,117,96.31Z" style="fill: #d9404e"/>
                  <path d="M112.11,98.72l-3-6.12h0l2.45-1.2,3,6.11a.53.53,0,0,1-.25.58l-1.6.78A.51.51,0,0,1,112.11,98.72Z" style="fill: #d9404e"/>
                  <path d="M102.76,93.35l1.67-.82a.6.6,0,0,0-.28.8l.55,1.12a.28.28,0,0,0,.38.13l-1.75.86h0a.37.37,0,0,1-.48-.17l-.44-.89A.77.77,0,0,1,102.76,93.35Z" style="fill: #d23242"/>
                  <path d="M108.18,91.55l.44.88a.35.35,0,0,0,.48.17h0l-1.91.94h0a.28.28,0,0,1-.38-.13l-.54-1.11a.6.6,0,0,1,.27-.81l2-1A.78.78,0,0,0,108.18,91.55Z" style="fill: #d23242"/>
                  <path d="M111.42,89.76l.55,1.12a.28.28,0,0,1-.13.38l-.29.14-2.45,1.2a.35.35,0,0,1-.48-.17l-.44-.88a.78.78,0,0,1,.35-1l2.08-1A.6.6,0,0,1,111.42,89.76Z" style="fill: #e34759"/>
                  <path d="M114.29,90.05a.28.28,0,0,0,.13-.38l-.55-1.11a.61.61,0,0,0-.81-.28l1.91-.93a.76.76,0,0,1,1,.35l.44.89a.35.35,0,0,1-.16.48h0Z" style="fill: #e34759"/>
                  <path d="M106.25,92.31l.54,1.11a.28.28,0,0,0,.38.13l-2.07,1h0a.28.28,0,0,1-.38-.13l-.55-1.12a.6.6,0,0,1,.28-.8l2.09-1A.6.6,0,0,0,106.25,92.31Z" style="fill: #ee9027"/>
                  <path d="M108.11,100.69l-3-6.12,2.07-1h0l3,6.12a.51.51,0,0,0,.6.15l-2.09,1A.5.5,0,0,1,108.11,100.69Z" style="fill: #df8027"/>
                  <path d="M114.56,97.51l-3-6.11.29-.14L114,90.19l3,6.12a.51.51,0,0,1-.25.57l-2.45,1.21A.53.53,0,0,0,114.56,97.51Z" style="fill: #f2b03a"/>
                  <path d="M113.87,88.56l.55,1.11a.28.28,0,0,1-.13.38l-.29.14-2.16,1.07a.28.28,0,0,0,.13-.38l-.55-1.12a.6.6,0,0,0-.81-.27l2.45-1.21A.61.61,0,0,1,113.87,88.56Z" style="fill: #ffc139"/>
                </g>
              </g>
              <g>
                <path d="M109.61,89.75h0l.19.06a3.37,3.37,0,0,1,.62,1.39l-.15-.14,0,0-.14-.11h0l-.15-.1h0l-.16-.1h0l-.15-.08,0,0-.14,0-.08,0-.11,0-.21,0a2.36,2.36,0,0,0-.81-.68l.2,0A2.47,2.47,0,0,1,109.61,89.75Z" style="fill: #c62d38"/>
                <path d="M107.1,88.52a3.33,3.33,0,0,1,1.51.31,2.48,2.48,0,0,0-1.44.7,2,2,0,0,0-1,.28A2.32,2.32,0,0,1,107.1,88.52Z" style="fill: #c62d38"/>
                <path d="M108.61,88.83a3.32,3.32,0,0,1,1.19,1l-.19-.06h0a2.47,2.47,0,0,0-1.21,0l-.2,0a2.25,2.25,0,0,0-1-.22A2.48,2.48,0,0,1,108.61,88.83Z" style="fill: #f6f3f5"/>
                <path d="M109.33,90.52l.08,0,.14,0,0,0,.15.08h0l.16.1h0l.15.1h0l.14.11,0,0,.15.14a.37.37,0,0,1-.29.45l-.24,0a.38.38,0,0,1-.45-.3,2.54,2.54,0,0,0-.43-1l.21,0Z" style="fill: #f6f3f5"/>
                <path d="M104.72,90.74h0l0-.1v0a.14.14,0,0,1,0-.06l0-.06v-.06s0,0,0-.06,0,0,0-.07v-.06s0-.08,0-.12A3,3,0,0,1,105.64,89l0,.11a.42.42,0,0,1,0,.1h0a2.63,2.63,0,0,0-.15.75h0v.41s0,0,0,.06v.08a.19.19,0,0,0,0,.07,2.38,2.38,0,0,0-.29,1s0,0,0,0A2.43,2.43,0,0,1,104.72,90.74Z" style="fill: #c62d38"/>
                <path d="M104.18,91.57l.06.1.06.08h0a5,5,0,0,0,1,1l.26,1.29L104.36,93A5,5,0,0,1,104.18,91.57Z" style="fill: #c62d38"/>
                <path d="M104.3,91.75l-.06-.08-.06-.1a3.6,3.6,0,0,1,.4-1.46s0,.08,0,.12v.06s0,0,0,.07,0,0,0,.06v.06l0,.06a.14.14,0,0,0,0,.06v0l0,.1h0a2.32,2.32,0,0,0,.43.82s0,0,0,0a3.71,3.71,0,0,0,.15,1.17,5,5,0,0,1-1-1Z" style="fill: #f6f3f5"/>
                <path d="M105.45,90.44v0s0,0,0-.06v-.41h0a2.63,2.63,0,0,1,.15-.75h0a.42.42,0,0,0,0-.1l0-.11a3.19,3.19,0,0,1,1.46-.44,2.32,2.32,0,0,0-.93,1.29,2.06,2.06,0,0,0-.69.75.19.19,0,0,1,0-.07Z" style="fill: #f6f3f5"/>
                <polygon points="106.12 96.6 104.88 95.55 104.62 94.26 105.86 95.32 106.12 96.6" style="fill: #c62d38"/>
                <polygon points="106.65 99.18 105.41 98.12 105.14 96.83 106.39 97.89 106.65 99.18" style="fill: #c62d38"/>
                <polygon points="106.39 97.89 105.14 96.83 104.88 95.55 106.12 96.6 106.39 97.89" style="fill: #f6f3f5"/>
                <polygon points="105.86 95.32 104.62 94.26 104.36 93 105.6 94.06 105.86 95.32" style="fill: #f6f3f5"/>
                <polygon points="107.18 101.72 105.93 100.66 105.67 99.38 106.91 100.44 107.18 101.72" style="fill: #c62d38"/>
                <polygon points="107.7 104.3 106.46 103.24 106.2 101.95 107.44 103.01 107.7 104.3" style="fill: #c62d38"/>
                <polygon points="107.44 103.01 106.2 101.95 105.93 100.66 107.18 101.72 107.44 103.01" style="fill: #f6f3f5"/>
                <polygon points="106.91 100.44 105.67 99.38 105.41 98.12 106.65 99.18 106.91 100.44" style="fill: #f6f3f5"/>
                <path d="M107.41,104.74l-.24.05a.38.38,0,0,1-.45-.29l-.26-1.26,1.24,1.06A.37.37,0,0,1,107.41,104.74Z" style="fill: #f6f3f5"/>
              </g>
              <g>
                <g>
                  <path d="M99.84,99.56a.9.9,0,0,0,.06-.34.44.44,0,0,0-.15-.36l-.31-.28-.5-.44c-.49-.41-1-.77-1.42-1.1-1-1.22-2.12-2.31-2.44-2a.66.66,0,0,1,.17-.37A2.83,2.83,0,0,1,97,93.64a.71.71,0,0,1,.74.3,12.75,12.75,0,0,1,1,1.75A16.64,16.64,0,0,1,99.71,98c.26-.58.52-1.11.8-1.61A13.12,13.12,0,0,1,102,94.25l.08-.1a.75.75,0,0,1,.77-.23,2.86,2.86,0,0,1,1.65,1.23.67.67,0,0,1,.13.38c-.4-.51-2.56,1.56-3.82,3h0a10,10,0,0,0-.78,1l-.1.16h-.12a.54.54,0,0,0,.07-.13Z" style="fill: #e42542"/>
                  <path d="M100.51,96.36c-.28.5-.54,1-.8,1.61a16.64,16.64,0,0,0-.93-2.28,13.54,13.54,0,0,1,.18-2,.73.73,0,0,1,.54-.59,2.81,2.81,0,0,1,2,.19.65.65,0,0,1,.31.26C101.42,93.36,100.89,94.82,100.51,96.36Z" style="fill: #d52445"/>
                  <path d="M93.43,97.65a2.84,2.84,0,0,1,1-1.81.72.72,0,0,1,.79-.13l.12.05A13.83,13.83,0,0,1,97.52,97c.46.33.93.69,1.42,1.1l.5.44.31.28a.44.44,0,0,1,.15.36.9.9,0,0,1-.06.34h0a.54.54,0,0,1-.07.13.35.35,0,0,1,0,.08v0a.32.32,0,0,1-.1.1s0-.06-.1-.11a1,1,0,0,0-.15-.1,9.84,9.84,0,0,0-1.13-.56h0c-1.76-.76-4.6-1.7-4.74-1.06A.82.82,0,0,1,93.43,97.65Z" style="fill: #d52445"/>
                  <path d="M100,99.53a10,10,0,0,1,.78-1h0c1.26-1.45,3.42-3.52,3.82-3a.7.7,0,0,1-.14.48,12,12,0,0,1-4.28,3.78.48.48,0,0,1-.31,0s0-.07,0-.15Z" style="fill: #c5112d"/>
                  <path d="M100.51,96.36c.38-1.54.91-3,1.35-2.83A.71.71,0,0,1,102,94a1.94,1.94,0,0,1,0,.24A13.12,13.12,0,0,0,100.51,96.36Z" style="fill: #c5112d"/>
                  <path d="M98.22,99.12h0a9.84,9.84,0,0,1,1.13.56,1,1,0,0,1,.15.1c.07,0,.1.09.1.11a.5.5,0,0,1-.31.1,12.16,12.16,0,0,1-5.49-1.56.78.78,0,0,1-.33-.37C93.62,97.42,96.46,98.36,98.22,99.12Z" style="fill: #c5112d"/>
                  <path d="M97.52,97a13.83,13.83,0,0,0-2.22-1.28l-.13-.2a.71.71,0,0,1-.09-.49C95.4,94.73,96.51,95.82,97.52,97Z" style="fill: #c5112d"/>
                </g>
                <g>
                  <path d="M95.47,101.64h0l1.31,5.75a.43.43,0,0,0,.47.25L95.6,108a.44.44,0,0,1-.47-.25L93.82,102h0Z" style="fill: #777c1f"/>
                  <path d="M98.76,107l-1.31-5.76,1.79-.4,1.31,5.75a.46.46,0,0,0,.48.25l-1.8.41A.44.44,0,0,1,98.76,107Z" style="fill: #777c1f"/>
                  <path d="M105.16,105.49l-1.3-5.75.27-.06,1.86-.43h0l1.3,5.76a.44.44,0,0,1-.32.43l-2.14.48A.44.44,0,0,0,105.16,105.49Z" style="fill: #81911e"/>
                  <path d="M100.55,106.54l-1.31-5.75h0l2.3-.53,1.31,5.75a.46.46,0,0,1-.33.44l-1.5.34A.46.46,0,0,1,100.55,106.54Z" style="fill: #81911e"/>
                  <path d="M93.76,100.14l1.57-.35a.52.52,0,0,0-.4.62l.24,1a.25.25,0,0,0,.3.18l-1.65.38h0a.31.31,0,0,1-.37-.24l-.19-.84A.66.66,0,0,1,93.76,100.14Z" style="fill: #808120"/>
                  <path d="M98.68,99.71l.19.84a.33.33,0,0,0,.38.24h0l-1.79.4h0a.24.24,0,0,1-.29-.19L96.9,100a.52.52,0,0,1,.4-.62l1.89-.43A.67.67,0,0,0,98.68,99.71Z" style="fill: #808120"/>
                  <path d="M101.77,98.86l.23,1a.24.24,0,0,1-.18.29l-.27.06-2.3.53a.33.33,0,0,1-.38-.24l-.19-.84a.67.67,0,0,1,.51-.8l2-.44A.52.52,0,0,1,101.77,98.86Z" style="fill: #889921"/>
                  <path d="M104.13,99.68a.25.25,0,0,0,.18-.3l-.24-1a.52.52,0,0,0-.62-.4l1.79-.4a.66.66,0,0,1,.8.5l.19.84a.31.31,0,0,1-.23.37h0Z" style="fill: #889921"/>
                  <path d="M96.9,100l.24,1.05a.24.24,0,0,0,.29.19l-2,.44h0a.25.25,0,0,1-.3-.18l-.24-1a.52.52,0,0,1,.4-.62l2-.45A.52.52,0,0,0,96.9,100Z" style="fill: #d52445"/>
                  <path d="M96.79,107.39l-1.31-5.75,2-.44h0L98.76,107a.44.44,0,0,0,.47.25l-2,.44A.43.43,0,0,1,96.79,107.39Z" style="fill: #c5112d"/>
                  <path d="M102.86,106l-1.31-5.75.27-.06,2-.46,1.3,5.75a.44.44,0,0,1-.32.43l-2.31.53A.46.46,0,0,0,102.86,106Z" style="fill: #d52445"/>
                  <path d="M104.07,98.34l.24,1a.25.25,0,0,1-.18.3l-.27.06-2,.46a.24.24,0,0,0,.18-.29l-.23-1a.52.52,0,0,0-.63-.39l2.31-.53A.52.52,0,0,1,104.07,98.34Z" style="fill: #e42542"/>
                </g>
              </g>
              <g>
                <path d="M91.44,106.9h0a1.21,1.21,0,0,0,0,.19,3.5,3.5,0,0,0,1.06,1.1l-.08-.2v0l-.06-.16v0a1.16,1.16,0,0,1,0-.18v0l0-.18v0c0-.06,0-.12,0-.17V107s0,0,0-.08a.49.49,0,0,1,0-.12.76.76,0,0,1,0-.21,2.25,2.25,0,0,1-.34-1,1.77,1.77,0,0,0-.12.17A2.56,2.56,0,0,0,91.44,106.9Z" style="fill: #c62d38"/>
                <path d="M91.22,104.11a3.39,3.39,0,0,0-.26,1.52,2.43,2.43,0,0,1,1.17-1.09,1.91,1.91,0,0,1,.64-.82A2.37,2.37,0,0,0,91.22,104.11Z" style="fill: #c62d38"/>
                <path d="M91,105.63a3,3,0,0,0,.47,1.46,1.21,1.21,0,0,1,0-.19h0a2.56,2.56,0,0,1,.4-1.15,1.77,1.77,0,0,1,.12-.17,2.24,2.24,0,0,1,.17-1A2.43,2.43,0,0,0,91,105.63Z" style="fill: #f6f3f5"/>
                <path d="M92.26,106.92s0,.06,0,.08v.21c0,.05,0,.11,0,.17v0l0,.18v0a1.16,1.16,0,0,0,0,.18v0l.06.16v0l.08.2a.38.38,0,0,0,.52-.11l.14-.21a.38.38,0,0,0-.11-.52,2.56,2.56,0,0,1-.74-.76.76.76,0,0,0,0,.21A.49.49,0,0,0,92.26,106.92Z" style="fill: #f6f3f5"/>
                <path d="M94.17,102.72h0l-.07-.06,0,0s0,0,0,0l0,0,0,0-.05,0-.06,0-.05,0-.12-.06a3,3,0,0,0-1.45.55h.24a2.78,2.78,0,0,1,.74.14h0l.07,0h0l.06,0h0l0,0,0,0,0,0,0,0h0l0,0,0,0,0,0,.06,0a2.33,2.33,0,0,1,1.07.11s0,0,0,0A2.59,2.59,0,0,0,94.17,102.72Z" style="fill: #c62d38"/>
                <path d="M95.14,102.52a.35.35,0,0,0,.06.09l.06.08h0a4.86,4.86,0,0,1,.56,1.34l1.1.72-.52-1.55A5.19,5.19,0,0,0,95.14,102.52Z" style="fill: #c62d38"/>
                <path d="M95.26,102.69l-.06-.08a.35.35,0,0,1-.06-.09,3.55,3.55,0,0,0-1.52-.16l.12.06.05,0,.06,0,.05,0,0,0,0,0,0,0,0,0,.07.06h0a2.44,2.44,0,0,1,.6.7s0,0,0,0a3.55,3.55,0,0,1,1,.57,4.86,4.86,0,0,0-.56-1.34Z" style="fill: #f6f3f5"/>
                <path d="M93.62,103.28l0,0,0,0h0l0,0,0,0,0,0,0,0h0l-.06,0h0l-.07,0h0a2.43,2.43,0,0,0-.74-.14h-.24a3.33,3.33,0,0,0-1,1.2,2.37,2.37,0,0,1,1.55-.39,2.05,2.05,0,0,1,1-.36l-.06,0Z" style="fill: #f6f3f5"/>
                <polygon points="99.09 106.19 98.57 104.64 97.47 103.92 98 105.47 99.09 106.19" style="fill: #c62d38"/>
                <polygon points="101.29 107.63 100.77 106.08 99.67 105.36 100.19 106.91 101.29 107.63" style="fill: #c62d38"/>
                <polygon points="100.19 106.91 99.67 105.36 98.57 104.64 99.09 106.19 100.19 106.91" style="fill: #f6f3f5"/>
                <polygon points="98 105.47 97.47 103.92 96.4 103.21 96.92 104.76 98 105.47" style="fill: #f6f3f5"/>
                <polygon points="103.47 109.05 102.94 107.51 101.84 106.79 102.37 108.33 103.47 109.05" style="fill: #c62d38"/>
                <polygon points="105.66 110.49 105.14 108.95 104.04 108.23 104.56 109.77 105.66 110.49" style="fill: #c62d38"/>
                <polygon points="104.56 109.77 104.04 108.23 102.94 107.51 103.47 109.05 104.56 109.77" style="fill: #f6f3f5"/>
                <polygon points="102.37 108.33 101.84 106.79 100.77 106.08 101.29 107.63 102.37 108.33" style="fill: #f6f3f5"/>
                <path d="M106.18,110.39l.14-.21a.38.38,0,0,0-.11-.53l-1.07-.7.52,1.54A.37.37,0,0,0,106.18,110.39Z" style="fill: #f6f3f5"/>
              </g>
              <path d="M116.75,89.68a4.52,4.52,0,0,0,.4-.86,14.58,14.58,0,0,1,4.2-.65,5.14,5.14,0,0,1,.91.75,2.15,2.15,0,0,1,.62,2.64l0,0c-11.59,23.69-26.75,25.32-30.49,19.33a32.32,32.32,0,0,1,2.06-5.35C98.79,107.3,113.85,94.6,116.75,89.68Z" style="fill: #b36a50"/>
            </g>
            <g>
              <g>
                <path d="M95.66,122.13a.41.41,0,0,0,0-.12v-1a.5.5,0,0,0-.37-.49l-.13,0H93.88l-.14,0a.5.5,0,0,0-.37.49v1a.41.41,0,0,0,0,.12.49.49,0,0,0,.27.34.46.46,0,0,0,.23.06h1.29a.46.46,0,0,0,.22-.06A.49.49,0,0,0,95.66,122.13Z" style="fill: #f03d5d"/>
                <path d="M93.38,122.13a.41.41,0,0,1,0-.12v-1a.5.5,0,0,1,.37-.49c-.16-.57-.83-1.93-3.54-3.53a1,1,0,0,0-.8-.08.94.94,0,0,0-.56.56,7.54,7.54,0,0,0-.38,1.6,5.42,5.42,0,0,1-.51,1.73C88.76,120,91.9,121,93.38,122.13Z" style="fill: #e42542"/>
                <path d="M95.67,121v1a.41.41,0,0,1,0,.12c1.49-1.16,4.63-2.09,5.43-1.31a5.42,5.42,0,0,1-.51-1.73,7,7,0,0,0-.38-1.6.94.94,0,0,0-.56-.56,1,1,0,0,0-.8.08c-2.71,1.6-3.38,3-3.54,3.53A.5.5,0,0,1,95.67,121Z" style="fill: #e42542"/>
                <path d="M93.38,122.13C91.9,121,88.76,120,88,120.82c0,.07-.07.14-.1.2a.66.66,0,0,0-.09.33h0l0,.19a.68.68,0,0,0,.34.42,4.44,4.44,0,0,0,1.67.53,26.36,26.36,0,0,0,3.85,0A.49.49,0,0,1,93.38,122.13Z" style="fill: #c5112d"/>
                <path d="M101.09,120.82c-.8-.78-3.94.15-5.43,1.31a.49.49,0,0,1-.27.34,26.36,26.36,0,0,0,3.85,0,4.44,4.44,0,0,0,1.67-.53.68.68,0,0,0,.34-.42h0a.75.75,0,0,0,0-.2.59.59,0,0,0-.09-.32Z" style="fill: #c5112d"/>
              </g>
              <g>
                <path d="M87.48,124.93v7.42a.77.77,0,0,0,.77.77H92.8v-8.19Z" style="fill: #e3dbe0"/>
                <path d="M96.24,133.12h4.56a.77.77,0,0,0,.76-.77v-7.42H96.24Z" style="fill: #e3dbe0"/>
                <path d="M101.37,122.48H96.24v2.45h5.54a.36.36,0,0,0,.36-.36v-1.33A.76.76,0,0,0,101.37,122.48Z" style="fill: #f0ecef"/>
                <path d="M92.8,122.48H87.67a.76.76,0,0,0-.77.76v1.33a.36.36,0,0,0,.36.36H92.8Z" style="fill: #f0ecef"/>
                <polygon points="96.24 122.48 96.24 122.37 92.8 122.37 92.8 122.48 92.8 124.93 92.8 133.12 96.24 133.12 96.24 124.93 96.24 122.48" style="fill: #d52445"/>
              </g>
              <rect x="87.48" y="124.93" width="14.08" height="0.8" style="fill: #ded4db;mix-blend-mode: multiply"/>
            </g>
            <g>
              <g>
                <path d="M70.4,121.86a1.38,1.38,0,0,1-.16-.37.53.53,0,0,1,.08-.44l.28-.39.45-.61c.43-.58.86-1.1,1.29-1.58.82-1.62,1.77-3.11,2.22-2.81a.91.91,0,0,0-.28-.37,3.33,3.33,0,0,0-2.23-.73.84.84,0,0,0-.75.52,15.21,15.21,0,0,0-.7,2.2,20,20,0,0,0-.46,2.77c-.43-.58-.86-1.1-1.29-1.58a16.05,16.05,0,0,0-2.15-2l-.11-.08a.84.84,0,0,0-.91-.06,3.24,3.24,0,0,0-1.53,1.78.81.81,0,0,0-.05.46c.32-.67,3.24,1.09,5,2.38h0a12.52,12.52,0,0,1,1.12.9l.14.15h0l.1,0-.1-.12Z" style="fill: #e3b689"/>
                <path d="M68.85,118.47c.43.48.86,1,1.29,1.58a20,20,0,0,1,.46-2.77,16.6,16.6,0,0,0-.71-2.2.84.84,0,0,0-.75-.52,3.33,3.33,0,0,0-2.23.73.91.91,0,0,0-.28.37C67.08,115.36,68,116.86,68.85,118.47Z" style="fill: #daa77c"/>
                <path d="M77,118.12a3.24,3.24,0,0,0-1.53-1.78.84.84,0,0,0-.91.06l-.11.08a15.47,15.47,0,0,0-2.15,2c-.43.48-.86,1-1.29,1.58l-.45.61-.28.39a.53.53,0,0,0-.08.44,1.38,1.38,0,0,0,.16.37h0l.1.12.08.08h0a.45.45,0,0,0,.14.1s0-.08.08-.16l.14-.15a12.52,12.52,0,0,1,1.12-.9h0c1.77-1.29,4.69-3,5-2.38A.91.91,0,0,0,77,118.12Z" style="fill: #daa77c"/>
                <path d="M70.23,121.86a12.52,12.52,0,0,0-1.12-.9h0c-1.77-1.29-4.69-3-5-2.38a.85.85,0,0,0,.28.49,13.57,13.57,0,0,0,5.71,3.12.5.5,0,0,0,.36,0s0-.08-.08-.16Z" style="fill: #c78c66"/>
                <path d="M68.85,118.47c-.82-1.61-1.77-3.11-2.22-2.81a.8.8,0,0,0,0,.57,2.41,2.41,0,0,0,.08.25A16.05,16.05,0,0,1,68.85,118.47Z" style="fill: #c78c66"/>
                <path d="M72.08,121h0a12.52,12.52,0,0,0-1.12.9l-.14.15c-.07.08-.09.13-.08.16a.5.5,0,0,0,.36,0,13.57,13.57,0,0,0,5.71-3.12.85.85,0,0,0,.28-.49C76.77,117.91,73.85,119.67,72.08,121Z" style="fill: #c78c66"/>
                <path d="M72.34,118.47a15.47,15.47,0,0,1,2.15-2,2.41,2.41,0,0,0,.08-.25.8.8,0,0,0,0-.57C74.11,115.36,73.16,116.85,72.34,118.47Z" style="fill: #c78c66"/>
              </g>
              <g>
                <path d="M75.79,123.07h0v6.72a.52.52,0,0,1-.47.4h1.94a.52.52,0,0,0,.47-.4v-6.72H75.79Z" style="fill: #8b493f"/>
                <path d="M73.47,129.79v-6.72h-2.1v6.72a.52.52,0,0,1-.47.4H73A.52.52,0,0,0,73.47,129.79Z" style="fill: #8b493f"/>
                <path d="M66,129.79v-6.72h-2.5v6.72a.52.52,0,0,0,.47.4h2.5A.52.52,0,0,1,66,129.79Z" style="fill: #a45b41"/>
                <path d="M71.37,129.79v-6.72H68.68v6.72a.5.5,0,0,0,.46.4H70.9A.52.52,0,0,0,71.37,129.79Z" style="fill: #a45b41"/>
                <path d="M77.3,121H75.47a.59.59,0,0,1,.6.59v1.23a.29.29,0,0,1-.28.28h1.92a.36.36,0,0,0,.35-.36v-1A.76.76,0,0,0,77.3,121Z" style="fill: #9b5347"/>
                <path d="M71.72,121.73v1a.36.36,0,0,1-.36.36h2.12a.28.28,0,0,0,.28-.28v-1.23a.58.58,0,0,0-.59-.59H71A.76.76,0,0,1,71.72,121.73Z" style="fill: #9b5347"/>
                <path d="M68.08,121.56v1.23a.29.29,0,0,0,.28.28h3a.36.36,0,0,0,.36-.36v-1A.76.76,0,0,0,71,121H68.68A.59.59,0,0,0,68.08,121.56Z" style="fill: #ba6e51"/>
                <path d="M65.67,123.07a.28.28,0,0,1-.28-.28v-1.23A.58.58,0,0,1,66,121H63.89a.76.76,0,0,0-.76.76v1a.36.36,0,0,0,.35.36h2.19Z" style="fill: #ba6e51"/>
                <path d="M73.76,121.56v1.23a.28.28,0,0,1-.28.28h2.31a.29.29,0,0,0,.28-.28v-1.23a.59.59,0,0,0-.6-.59h-2.3A.58.58,0,0,1,73.76,121.56Z" style="fill: #daa77c"/>
                <path d="M75.77,129.79v-6.72h-2.3v6.72a.52.52,0,0,1-.47.4h2.3A.52.52,0,0,0,75.77,129.79Z" style="fill: #cf9875"/>
                <path d="M68.68,129.79v-6.72H66v6.72a.52.52,0,0,0,.47.4h2.69A.5.5,0,0,1,68.68,129.79Z" style="fill: #daa77c"/>
                <path d="M65.39,121.56v1.23a.28.28,0,0,0,.28.28h2.69a.29.29,0,0,1-.28-.28v-1.23a.59.59,0,0,1,.6-.59H66A.58.58,0,0,0,65.39,121.56Z" style="fill: #e3b689"/>
              </g>
              <rect x="63.48" y="123.07" width="14.23" height="0.8" style="fill: #ded4db;mix-blend-mode: multiply"/>
            </g>
            <g>
              <g>
                <path d="M81.26,127.44s0,0,0-.07v-.63a.33.33,0,0,0-.24-.32H80a.33.33,0,0,0-.24.32v.63s0,0,0,.07a.31.31,0,0,0,.18.22.33.33,0,0,0,.14,0h.83a.33.33,0,0,0,.14,0A.31.31,0,0,0,81.26,127.44Z" style="fill: #f03d5d"/>
                <path d="M79.79,127.44s0,0,0-.07v-.63a.33.33,0,0,1,.24-.32c-.1-.37-.53-1.24-2.27-2.27a.6.6,0,0,0-.87.31,4.57,4.57,0,0,0-.25,1,3.52,3.52,0,0,1-.32,1.11C76.82,126.1,78.84,126.7,79.79,127.44Z" style="fill: #e42542"/>
                <path d="M81.27,126.74v.63s0,0,0,.07c.95-.74,3-1.34,3.49-.84a3.19,3.19,0,0,1-.33-1.11,4.34,4.34,0,0,0-.25-1,.6.6,0,0,0-.36-.37.65.65,0,0,0-.51.05c-1.74,1-2.17,1.91-2.27,2.27A.33.33,0,0,1,81.27,126.74Z" style="fill: #e42542"/>
                <path d="M79.79,127.44c-1-.74-3-1.34-3.48-.84l-.07.13a.39.39,0,0,0-.06.21h0s0,.08,0,.12a.49.49,0,0,0,.22.27,3,3,0,0,0,1.07.34,16.42,16.42,0,0,0,2.48,0A.31.31,0,0,1,79.79,127.44Z" style="fill: #c5112d"/>
                <path d="M84.75,126.6c-.52-.5-2.54.1-3.49.84a.31.31,0,0,1-.18.22,16.42,16.42,0,0,0,2.48,0,3,3,0,0,0,1.07-.34.49.49,0,0,0,.22-.27h0a.57.57,0,0,0,0-.13.46.46,0,0,0,0-.2Z" style="fill: #c5112d"/>
              </g>
              <g>
                <path d="M82.24,134H86.8a.76.76,0,0,0,.76-.76V130H82.24Z" style="fill: #81911e"/>
                <path d="M73.49,130v3.2a.76.76,0,0,0,.76.76h4.56v-4Z" style="fill: #81911e"/>
                <path d="M87.38,127.56H82.24V130h5.54a.36.36,0,0,0,.36-.36v-1.33A.76.76,0,0,0,87.38,127.56Z" style="fill: #889921"/>
                <path d="M78.81,127.56H73.67a.76.76,0,0,0-.76.76v1.33a.36.36,0,0,0,.36.36h5.54Z" style="fill: #889921"/>
                <polygon points="82.25 127.56 82.25 127.45 78.81 127.45 78.81 127.56 78.81 130 78.81 133.97 82.25 133.97 82.25 130 82.25 127.56" style="fill: #d52445"/>
              </g>
              <rect x="73.49" y="130.02" width="14.08" height="0.8" style="fill: #ded4db;mix-blend-mode: multiply"/>
            </g>
            <g>
              <g>
                <path d="M58.11,125a1.25,1.25,0,0,1-.16-.37.58.58,0,0,1,.09-.44l.27-.38.45-.62c.43-.57.86-1.1,1.3-1.58.81-1.61,1.76-3.1,2.21-2.81a.76.76,0,0,0-.28-.36,3.2,3.2,0,0,0-2.23-.73.84.84,0,0,0-.75.52,14.83,14.83,0,0,0-.7,2.2,19.89,19.89,0,0,0-.45,2.76c-.44-.57-.86-1.1-1.3-1.58a14.8,14.8,0,0,0-2.15-2l-.11-.09a.86.86,0,0,0-.91-.06,3.22,3.22,0,0,0-1.52,1.78.82.82,0,0,0-.06.46c.32-.67,3.24,1.09,5,2.38h0a10.78,10.78,0,0,1,1.12.91,1.06,1.06,0,0,1,.15.15h0l.1,0-.1-.13Z" style="fill: #ffc139"/>
                <path d="M56.56,121.58c.44.48.86,1,1.3,1.58a19.89,19.89,0,0,1,.45-2.76,13.77,13.77,0,0,0-.71-2.2.81.81,0,0,0-.74-.52,3.2,3.2,0,0,0-2.23.73.76.76,0,0,0-.28.36C54.8,118.48,55.75,120,56.56,121.58Z" style="fill: #f2b03a"/>
                <path d="M64.75,121.23a3.27,3.27,0,0,0-1.53-1.78.86.86,0,0,0-.91.06l-.11.09a15.32,15.32,0,0,0-2.14,2c-.44.48-.87,1-1.3,1.58l-.45.62-.27.38a.58.58,0,0,0-.09.44,1.25,1.25,0,0,0,.16.37h0l.1.13.07.07,0,0a.42.42,0,0,0,.14.09s0-.08.08-.15a1,1,0,0,1,.14-.15,13.5,13.5,0,0,1,1.12-.91h0c1.76-1.29,4.68-3,5-2.38A.81.81,0,0,0,64.75,121.23Z" style="fill: #f2b03a"/>
                <path d="M57.94,125a10.78,10.78,0,0,0-1.12-.91h0c-1.77-1.29-4.69-3-5-2.38a.84.84,0,0,0,.28.5,13.74,13.74,0,0,0,5.71,3.12.56.56,0,0,0,.36,0s0-.08-.07-.15A1.06,1.06,0,0,0,57.94,125Z" style="fill: #da7d25"/>
                <path d="M56.56,121.58c-.81-1.61-1.76-3.1-2.21-2.81a.86.86,0,0,0,0,.57,2.58,2.58,0,0,1,.08.26A14.8,14.8,0,0,1,56.56,121.58Z" style="fill: #da7d25"/>
                <path d="M59.8,124.07h0a13.5,13.5,0,0,0-1.12.91,1,1,0,0,0-.14.15c-.06.07-.09.12-.08.15a.59.59,0,0,0,.37,0,13.71,13.71,0,0,0,5.7-3.12.79.79,0,0,0,.28-.5C64.48,121,61.56,122.78,59.8,124.07Z" style="fill: #da7d25"/>
                <path d="M60.06,121.58a15.32,15.32,0,0,1,2.14-2l.09-.26a.86.86,0,0,0,0-.57C61.82,118.48,60.87,120,60.06,121.58Z" style="fill: #da7d25"/>
              </g>
              <g>
                <path d="M61.18,132.9v-6.72h-2.1v6.72a.52.52,0,0,1-.46.4h2.09A.52.52,0,0,0,61.18,132.9Z" style="fill: #c62d38"/>
                <path d="M63.5,126.18h0v6.72a.52.52,0,0,1-.47.4H65a.52.52,0,0,0,.47-.4v-6.72H63.5Z" style="fill: #c62d38"/>
                <path d="M53.69,132.9v-6.72h-2.5v6.72a.52.52,0,0,0,.47.4h2.5A.52.52,0,0,1,53.69,132.9Z" style="fill: #d9404e"/>
                <path d="M59.08,132.9v-6.72H56.39v6.72a.52.52,0,0,0,.47.4h1.76A.52.52,0,0,0,59.08,132.9Z" style="fill: #d9404e"/>
                <path d="M65,124.08H63.18a.6.6,0,0,1,.6.6v1.22a.28.28,0,0,1-.28.28h1.92a.36.36,0,0,0,.36-.36v-1A.77.77,0,0,0,65,124.08Z" style="fill: #d23242"/>
                <path d="M59.44,124.84v1a.36.36,0,0,1-.36.36H61.2a.28.28,0,0,0,.28-.28v-1.22a.6.6,0,0,0-.6-.6H58.67A.77.77,0,0,1,59.44,124.84Z" style="fill: #d23242"/>
                <path d="M55.79,124.68v1.22a.28.28,0,0,0,.28.28h3a.36.36,0,0,0,.36-.36v-1a.77.77,0,0,0-.77-.76H56.39A.6.6,0,0,0,55.79,124.68Z" style="fill: #e34759"/>
                <path d="M53.38,126.18a.28.28,0,0,1-.28-.28v-1.22a.6.6,0,0,1,.59-.6H51.6a.76.76,0,0,0-.76.76v1a.36.36,0,0,0,.35.36h2.19Z" style="fill: #e34759"/>
                <path d="M61.48,124.68v1.22a.28.28,0,0,1-.28.28h2.3a.28.28,0,0,0,.28-.28v-1.22a.6.6,0,0,0-.6-.6h-2.3A.6.6,0,0,1,61.48,124.68Z" style="fill: #ee9027"/>
                <path d="M63.48,132.9v-6.72h-2.3v6.72a.52.52,0,0,1-.47.4H63A.52.52,0,0,0,63.48,132.9Z" style="fill: #df8027"/>
                <path d="M56.39,132.9v-6.72h-2.7v6.72a.52.52,0,0,0,.47.4h2.7A.52.52,0,0,1,56.39,132.9Z" style="fill: #f2b03a"/>
                <path d="M53.1,124.68v1.22a.28.28,0,0,0,.28.28h2.69a.28.28,0,0,1-.28-.28v-1.22a.6.6,0,0,1,.6-.6h-2.7A.6.6,0,0,0,53.1,124.68Z" style="fill: #ffc139"/>
              </g>
              <rect x="51.19" y="126.18" width="14.23" height="0.8" style="fill: #ded4db;mix-blend-mode: multiply"/>
            </g>
          </g>
        </g>
      </g>
    </g>
  </g>
</svg>
