<svg id="wintersport-icon-decorations" data-name="Wintersport Icon Decorations" xmlns="http://www.w3.org/2000/svg" viewBox="0 0 180 180">
  <title>wintersport-icon-decorations</title>
  <g>
    <g>
      <path d="M76.65,103.9a2.22,2.22,0,0,0,.19.93,3.74,3.74,0,0,0,.51-.93Z" style="fill: #ababab"/>
      <path d="M59.29,103.77a2.16,2.16,0,0,0,.19.92,3.6,3.6,0,0,0,.51-.92Z" style="fill: #ababab"/>
      <rect x="64.25" y="77.44" width="1.84" height="22.89" transform="translate(0.68 -0.5) rotate(0.44)" style="fill: #a5a5a5"/>
      <g>
        <rect x="73.66" y="77.51" width="1.84" height="22.89" transform="translate(0.68 -0.57) rotate(0.44)" style="fill: #a5a5a5"/>
        <polygon points="82.04 90.58 58.97 90.41 58.78 95.12 82.19 95.3 82.04 90.58" style="fill: #ff9327"/>
        <polygon points="59.1 87.21 81.93 87.39 81.77 82.67 59.29 82.5 59.1 87.21" style="fill: #ff9327"/>
        <polygon points="81.66 79.47 81.58 76.97 59.54 76.31 60.66 79.14 81.66 79.47" style="fill: #ff9327"/>
        <polygon points="58.65 98.31 58.42 103.76 82.49 103.94 82.3 98.5 58.65 98.31" style="fill: #ff9327"/>
      </g>
      <path d="M80.76,67.94c-2.18-2.09-7.05-2.93-9.46-3s-8.39.85-9.76,2.8c-1.13,1.61-1.17,10.83-1.17,10.83L71,78.7h.1l10.65.08S82.17,69.29,80.76,67.94Zm-.43,9.28-18.45-.15c.09-3.68.42-7.57.87-8.37.8-1.1,5.63-2.18,8.54-2.16,2.43,0,6.68.9,8.42,2.5C80.15,69.83,80.41,73.37,80.33,77.22Z" style="fill: #a5a5a5"/>
      <path d="M66,69.5a18.62,18.62,0,0,0-3.87,9.56c-.32,5.28,3.13,9.8,3.13,9.8L77,89s3.42-10.18,1.72-14.77-4-4.61-4-4.61Z" style="fill: #43ad9d"/>
      <rect x="70.2" y="69.53" width="0.86" height="15.45" transform="translate(0.59 -0.54) rotate(0.44)" style="fill: #e0e2e2"/>
      <path d="M66,64.6a2.74,2.74,0,0,0-2,2.52c-.07,2,1,2.37,1,2.37l12,.09s1.16-.77.72-3.19c-.2-1.09-2.19-2.29-2.19-2.29Z" style="fill: #f73c4f"/>
      <path d="M59.94,49.38a3.18,3.18,0,0,0-.13-2.12,4.75,4.75,0,0,0-1.51-1.63l.28.94L58.1,45a5.7,5.7,0,0,0-.43,3c.07.61,1.42,1.62,1.42,1.62Z" style="fill: #3d3d3d"/>
      <path d="M65.38,57.69a2.93,2.93,0,0,0-.57-2.49c-1-1-1.34-.88-1.34-.88A2.74,2.74,0,0,0,63,53a2.79,2.79,0,0,0-1.37-1,3.68,3.68,0,0,0-.82-1.83c-.65-.62-.84-.78-.84-.78l-.85.2a13.14,13.14,0,0,0,.35,1.79,1.71,1.71,0,0,0,.67.94,3.32,3.32,0,0,0,.41,1.81,2.64,2.64,0,0,0,.94,1,16.65,16.65,0,0,0,1.17,2.26,3.94,3.94,0,0,0,1.77,1.23Z" style="fill: #3d3d3d"/>
      <path d="M59.26,50.3l1.2-.35a.58.58,0,0,0,.4-.72h0a.58.58,0,0,0-.72-.4l-1.2.34a.59.59,0,0,0-.4.73h0A.58.58,0,0,0,59.26,50.3Z" style="fill: #4ac0ae"/>
      <path d="M83.89,50.81a3.17,3.17,0,0,1,.76-2,4.89,4.89,0,0,1,1.94-1.09l-.55.81L87,47.19a5.74,5.74,0,0,1-.48,3c-.26.56-1.86,1.11-1.86,1.11Z" style="fill: #3d3d3d"/>
      <path d="M76.17,57.07a2.92,2.92,0,0,1,1.31-2.19c1.21-.68,1.54-.44,1.54-.44a2.72,2.72,0,0,1,.87-1.09,2.8,2.8,0,0,1,1.62-.56,3.68,3.68,0,0,1,1.34-1.49c.81-.4,1-.49,1-.49l.74.45a12.86,12.86,0,0,1-.87,1.6,1.69,1.69,0,0,1-.93.69,3.33,3.33,0,0,1-.94,1.6,2.71,2.71,0,0,1-1.21.69,16.32,16.32,0,0,1-1.8,1.8,4,4,0,0,1-2.06.63Z" style="fill: #3d3d3d"/>
      <path d="M77.36,97.7s-.52,1-.78,1.06a1.83,1.83,0,0,0-1.3,1.14,15.82,15.82,0,0,0-.63,1.86s5.7,1.55,5.92,1.5a5.25,5.25,0,0,0,.86-2.07c0-.45.51-2.47.51-2.47S80.56,97.23,77.36,97.7Z" style="fill: #2d2d2d"/>
      <path d="M62,95.35s.28,1.11.53,1.21a1.85,1.85,0,0,1,1,1.4,16.72,16.72,0,0,1,.2,2s-5.9.24-6.11.15a5.5,5.5,0,0,1-.37-2.21c0-.45.06-2.52.06-2.52S59,94.19,62,95.35Z" style="fill: #2d2d2d"/>
      <rect x="65.83" y="86.27" width="11.15" height="0.47" transform="translate(0.66 -0.54) rotate(0.44)" style="fill: #ed8924"/>
      <path d="M83.3,100.46a7.23,7.23,0,0,0-2.08-1.25,7,7,0,0,0-3-.53c-2.48.12-2.8.52-2.83.65l.33-7.14s-1.59,1-5.17,0a9.94,9.94,0,0,1-5.41-3.85l-.72,8.69s-2.61-.5-5.38-1.23c-.52-.14-1-.25-1.31-.36A14.85,14.85,0,0,1,56,94.92a22.42,22.42,0,0,0,1.5-4.12c.15-.68.45-2.39.81-4.33h0c.27-1.45.57-3,.85-4.38a14.19,14.19,0,0,1,.94-3.4s1-2,4-1.11,6.9,8.21,8.15,8.71,1.9-.64,2.51-1.56,2.2-3.79,4.54-3.5c1.74.22,2.62,2.41,3,4.86a20.1,20.1,0,0,1,.22,2.56c0,.84.08,2,.16,3.31C82.91,95.73,83.3,100.46,83.3,100.46Z" style="fill: #f73c4f"/>
      <path d="M83.3,100.46a7.23,7.23,0,0,0-2.08-1.25,37,37,0,0,1,0-5.59C81.54,92,82.63,92,82.68,92,82.91,95.73,83.3,100.46,83.3,100.46Z" style="fill: #383838"/>
      <path d="M59.18,89.79a19.32,19.32,0,0,1-1.42,5.67A14.85,14.85,0,0,1,56,94.92a22.42,22.42,0,0,0,1.5-4.12c.15-.68.45-2.39.81-4.33h0S59.43,86.72,59.18,89.79Z" style="fill: #383838"/>
      <path d="M82.3,86.09c-.5-.19-1.07-.83-1.73-1-2.91-.84-2.78,1.11-7.13,2.66s-5.62-4.57-8.86-6.22a4.66,4.66,0,0,0-5.44.58,14.19,14.19,0,0,1,.94-3.4s1-2,4-1.11,6.9,8.21,8.15,8.71,1.9-.64,2.51-1.56,2.2-3.79,4.54-3.5C81.05,81.45,81.93,83.64,82.3,86.09Z" style="fill: #de3647"/>
      <path d="M77.1,55.81l-6.22-.05h-.12l-6.22,0s-.16,6.37.86,8.1A8.28,8.28,0,0,0,69.87,67l.81.12v0h.11l.81-.11a8.36,8.36,0,0,0,4.52-3.15C77.17,62.18,77.1,55.81,77.1,55.81Z" style="fill: #f6cba9"/>
      <path d="M64.65,57.76s-.8-.43-.87,0,.22,2.79.85,2.73S64.65,57.76,64.65,57.76Z" style="fill: #f6cba9"/>
      <path d="M76.91,57.87s.81-.42.87,0-.26,2.79-.89,2.72S76.91,57.87,76.91,57.87Z" style="fill: #f6cba9"/>
      <path d="M65.48,58l-.11,1.15a16.86,16.86,0,0,0,2.11,0,26.07,26.07,0,0,1,2.66.05l.26-1.18.35,1.18s1.88,0,2.92,0,2.49,0,2.49,0,.18-.95,0-1.18S65.48,58,65.48,58Z" style="fill: #3d3d3d"/>
      <g>
        <path d="M76.74,55.5l-5.87,0h-.13l-5.87-.11s.08-.26.22-.67l.14-.38a19.27,19.27,0,0,1,1.63-3.43l.11-.15.25-.36a1.34,1.34,0,0,1,.11-.14,4.29,4.29,0,0,1,1-1,9.75,9.75,0,0,1,2.47-1.35h0a8.83,8.83,0,0,1,2.45,1.38,4.52,4.52,0,0,1,.6.51l.12.13a9.48,9.48,0,0,1,.87,1.22l.09.16a19.36,19.36,0,0,1,1.38,3.12,3.43,3.43,0,0,1,.13.38C76.66,55.24,76.74,55.5,76.74,55.5Z" style="fill: #4ac0ae"/>
        <path d="M77.92,56.66V58a1.15,1.15,0,0,1-1.15,1.14L64.84,59a1.16,1.16,0,0,1-1.14-1.16V56.55a1.15,1.15,0,0,1,1.16-1.14l11.91.09A1.14,1.14,0,0,1,77.92,56.66Z" style="fill: #f73c4f"/>
        <path d="M76.52,54.83l-11.43-.09.14-.38,11.16.09A3.43,3.43,0,0,1,76.52,54.83Z" style="fill: #fff"/>
        <path d="M73.46,50.54h0l-.13.12h0l-.13-.12h0l-.6-.61-.75.73h0l-.74-.74-.74.73-.74-.75L69,50.5h0l-.13.13h0l-.13-.13h0l-.6-.62-.75.74h0l-.19-.2a1.34,1.34,0,0,1,.11-.14l.08.08.62-.61h0l.13-.12h0l.12.13h0l.61.61.62-.6h0l.12-.13h0l.12.13h0l.61.62.62-.61h0l.13-.13h0l.12.13h0l.61.62.62-.61h0l.13-.13h0l.13.13h0l.6.62.6-.59.12.13Z" style="fill: #fff"/>
        <path d="M75,51.33l-.2.2h0l-.73-.74-.62.61h0l-.12.12h0l-.12-.12h0l-.61-.61-.75.73h0l-.73-.74-.75.73-.73-.75-.62.61h0l-.13.13h0l-.13-.13h0l-.61-.62-.75.74h0l-.54-.55.11-.15.43.44.62-.6h0l.13-.12h0l.13.13h0l.6.61.62-.6h0l.13-.13h0l.13.13h0l.61.62.62-.61h0l.13-.13h0l.13.13h0l.61.62.61-.61h0l.13-.13h0l.13.13h0l.61.62.61-.61h0l.13-.13h0l.13.13h0l.61.62.11-.11Z" style="fill: #fff"/>
        <path d="M72.72,47.56a1.86,1.86,0,0,1-1.42,1.79,2.3,2.3,0,0,1-.45,0,1.86,1.86,0,1,1,0-3.71,1.61,1.61,0,0,1,.44.06A1.86,1.86,0,0,1,72.72,47.56Z" style="fill: #f73c4f"/>
        <path d="M72.72,47.56a1.86,1.86,0,0,1-1.42,1.79,1.85,1.85,0,0,1,0-3.6A1.86,1.86,0,0,1,72.72,47.56Z" style="fill: #de3647"/>
        <rect x="63.57" y="57.51" width="2.79" height="0.22" transform="translate(6.84 122.14) rotate(-89.56)" style="fill: #de3647"/>
        <rect x="64.54" y="57.52" width="2.79" height="0.22" transform="translate(7.8 123.12) rotate(-89.56)" style="fill: #de3647"/>
        <rect x="65.52" y="57.53" width="2.79" height="0.22" transform="translate(8.76 124.1) rotate(-89.56)" style="fill: #de3647"/>
        <rect x="66.49" y="57.54" width="2.79" height="0.22" transform="translate(9.72 125.09) rotate(-89.56)" style="fill: #de3647"/>
        <rect x="67.47" y="57.54" width="2.79" height="0.22" transform="translate(10.69 126.07) rotate(-89.56)" style="fill: #de3647"/>
        <rect x="68.44" y="57.55" width="2.79" height="0.22" transform="translate(11.65 127.05) rotate(-89.56)" style="fill: #de3647"/>
        <rect x="69.42" y="57.56" width="2.79" height="0.22" transform="translate(12.61 128.04) rotate(-89.56)" style="fill: #de3647"/>
        <rect x="70.39" y="57.57" width="2.79" height="0.22" transform="translate(13.57 129.02) rotate(-89.56)" style="fill: #de3647"/>
        <rect x="71.37" y="57.57" width="2.79" height="0.22" transform="translate(14.53 130) rotate(-89.56)" style="fill: #de3647"/>
        <rect x="72.34" y="57.58" width="2.79" height="0.22" transform="translate(15.49 130.98) rotate(-89.56)" style="fill: #de3647"/>
        <rect x="73.32" y="57.59" width="2.79" height="0.22" transform="translate(16.45 131.97) rotate(-89.56)" style="fill: #de3647"/>
        <rect x="74.3" y="57.6" width="2.79" height="0.22" transform="translate(17.41 132.95) rotate(-89.56)" style="fill: #de3647"/>
        <rect x="75.27" y="57.6" width="2.79" height="0.22" transform="translate(18.37 133.93) rotate(-89.56)" style="fill: #de3647"/>
      </g>
      <path d="M84.25,51.89l-1-.69a.58.58,0,0,1-.16-.81h0a.6.6,0,0,1,.82-.17l1,.7a.58.58,0,0,1,.16.81h0A.58.58,0,0,1,84.25,51.89Z" style="fill: #4ac0ae"/>
      <path d="M69,60.71a.29.29,0,0,1-.23-.14,1.24,1.24,0,0,0-1.14-.47,1.31,1.31,0,0,0-1.09.47.26.26,0,0,1-.35.07.25.25,0,0,1-.08-.35,1.76,1.76,0,0,1,1.52-.7h0a1.68,1.68,0,0,1,1.54.73.25.25,0,0,1-.1.35A.19.19,0,0,1,69,60.71Z" style="fill: #3d3d3d"/>
      <path d="M75.11,60.75a.28.28,0,0,1-.23-.13,1.21,1.21,0,0,0-1.13-.47,1.29,1.29,0,0,0-1.09.46.26.26,0,1,1-.44-.28,1.8,1.8,0,0,1,1.52-.7h.05a1.74,1.74,0,0,1,1.55.74.26.26,0,0,1-.1.35A.31.31,0,0,1,75.11,60.75Z" style="fill: #3d3d3d"/>
      <path d="M70.74,65.16a3.4,3.4,0,0,1-2.51-1,.17.17,0,0,1,.26-.22,3.19,3.19,0,0,0,2.45.88C72.56,64.74,73,64,73,64a.17.17,0,0,1,.23-.06.16.16,0,0,1,.07.23s-.53.92-2.35,1Z" style="fill: #3d3d3d"/>
      <path d="M66,69.49s-2.38-.46-3.82.72a6.75,6.75,0,0,0-2.55,4.72c-.45,3.83,3.73,12.89,4.54,13s4.86-1.39,5.4-2.36-2.93-7-3.29-9.21c-.52-3.16,1.46-6.83,1.46-6.83Z" style="fill: #4ac0ae"/>
      <path d="M76.7,69.57a7,7,0,0,1,3.06,1c1.2.84,1.74,2.4,2.29,4.55,1,3.76-3.93,12.83-4.74,12.9S72.48,86.54,72,85.55s2.93-7,3.43-9.15c.75-3.3-1.84-6.86-1.84-6.86Z" style="fill: #4ac0ae"/>
      <path d="M66.27,88.19a13.64,13.64,0,0,1,0,2.07c-.09,1,1.44,2.79,2.88,1.8s2-2.2,1.45-3a6.55,6.55,0,0,0-2-1.62Z" style="fill: #f6cba9"/>
      <path d="M73.41,87.49a14.43,14.43,0,0,1-1.52,1.4c-.83.64-1,3,.65,3.33s2.94-.08,3.2-1a6.59,6.59,0,0,0-.22-2.61Z" style="fill: #f6cba9"/>
      <path d="M65,87.76s0,1.18,1.13,1.16,3.37-1.35,3.42-1.88-.73-.88-.73-.88Z" style="fill: #7bc0b5"/>
      <path d="M72.87,86.18s-1.09.7-.41,1.47,3.25,1.57,3.77,1.3.38-1,.38-1Z" style="fill: #7bc0b5"/>
      <path d="M79.4,91.13a.9.9,0,0,0-.9,1,38.48,38.48,0,0,1-.15,7.53c-.55,3.92-1.51,5.21-1.51,5.21h2.34a16.49,16.49,0,0,0,1.43-6.53,25.91,25.91,0,0,0-.34-6.42.88.88,0,0,0-.87-.76Z" style="fill: #bababa"/>
      <path d="M62,91a.89.89,0,0,0-.9,1A39.25,39.25,0,0,1,61,99.49c-.55,3.91-1.51,5.2-1.51,5.2l2.33,0a16.27,16.27,0,0,0,1.43-6.53,26,26,0,0,0-.33-6.42A.88.88,0,0,0,62,91Z" style="fill: #bababa"/>
      <rect x="60.94" y="98.34" width="2.41" height="0.63" transform="translate(0.76 -0.47) rotate(0.44)" style="fill: #ab816e"/>
      <rect x="78.05" y="98.79" width="2.6" height="0.63" transform="translate(0.76 -0.6) rotate(0.44)" style="fill: #ab816e"/>
      <path d="M78.05,99.17c0-.07-1.93-7-3.35-8.46s-5.2-1.09-6.89.52-4.7,7.38-4.73,7.44l-.47-.24c.13-.24,3-5.82,4.84-7.58s6-2.1,7.61-.51,3.41,8.4,3.49,8.69Z" style="fill: #ab816e"/>
    </g>
    <g>
      <g>
        <g>
          <path d="M121,78.72l-2.56,3.15-2,2.4-1.31,1.61-2,2.4c-3.39,4.14-7.37,9-11.41,13.85l-5,6.06c-6.68,8-13,15.37-16.52,19.19a19.58,19.58,0,0,1-2.75,2.67c-3.56,2.06-13.47-.93-13.66-1.49v0c0-.46,2.31-2.08,5.28-4.29,1.23-.9,2.56-1.91,3.9-3,1.79-1.44,8.69-8.37,16.53-16.38l5.14-5.27c3.85-4,7.7-7.92,11.1-11.44l2.31-2.4,1.55-1.6,2.31-2.4,4.76-5a1.45,1.45,0,0,1,1-.44h2.16A1.44,1.44,0,0,1,121,78.72Z" style="fill: #3d3d3d"/>
          <path d="M80.25,127.38a19.32,19.32,0,0,1-2.77,2.67c-3.55,2.06-13.46-.93-13.65-1.49,0,0,0,0,0,0-.33-2.05,2.45-5.21,3.57-5.76.53-.27,1,.49,1.71,1.48a7.94,7.94,0,0,0,3.9,3.14A12.15,12.15,0,0,0,80.25,127.38Z" style="fill: #ff9327"/>
          <path d="M118.46,81.87l-2,2.4-6.87-.09,2.31-2.4Z" style="fill: #ffde00"/>
          <path d="M115.19,85.88l-2,2.4-7.44-.1,2.31-2.4Z" style="fill: #ff9327"/>
        </g>
        <path d="M101.81,102.13l-5,6.06-7.23-3.3,5.14-5.27Z" style="fill: #bababa"/>
        <path d="M96,109.78l-7.27-3.39a1.15,1.15,0,0,1-.55-1.53h0a1.15,1.15,0,0,1,1.53-.55L97,107.7a1.15,1.15,0,0,1,.56,1.53h0A1.15,1.15,0,0,1,96,109.78Z" style="fill: #ababab"/>
        <path d="M101.36,103.48l-7.31-3.29a1.15,1.15,0,0,1-.58-1.52h0A1.15,1.15,0,0,1,95,98.09l7.31,3.29a1.15,1.15,0,0,1,.58,1.52h0A1.15,1.15,0,0,1,101.36,103.48Z" style="fill: #ababab"/>
      </g>
      <g>
        <g>
          <path d="M113.65,76.62l-2.92,2.8-2.24,2.16L107,83c-.71.69-1.47,1.4-2.25,2.15-5,4.8-11.14,10.64-17.11,16.26l-1.2,1.12c-7.74,7.28-15.06,14-19.13,17.46a20,20,0,0,1-3,2.32c-3.79,1.62-13.26-2.55-13.39-3.12,0,0,0,0,0,0,.06-.46,2.55-1.78,5.76-3.62,1.33-.75,2.77-1.58,4.23-2.48,1.88-1.17,9.13-6.86,17.51-13.56h0L80,98.19h0c5.85-4.69,12.1-9.74,17.38-14l2.58-2.1,1.74-1.4,2.58-2.11c2.58-2.11,4.49-3.66,5.32-4.35a1.48,1.48,0,0,1,1.09-.31l2.14.26A1.44,1.44,0,0,1,113.65,76.62Z" style="fill: #3d3d3d"/>
          <path d="M67.31,120a19,19,0,0,1-3.07,2.32c-3.77,1.62-13.25-2.55-13.37-3.13,0,0,0,0,0,0-.09-2.09,3.05-4.88,4.23-5.3.56-.2.92.61,1.52,1.69a8,8,0,0,0,3.49,3.58A12.15,12.15,0,0,0,67.31,120Z" style="fill: #ff9327"/>
          <path d="M110.73,79.42l-2.24,2.16-6.8-.92,2.58-2.11Z" style="fill: #ffde00"/>
          <path d="M107,83l-2.25,2.15-7.38-1,2.58-2.1Z" style="fill: #ff9327"/>
        </g>
        <path d="M94.07,95.6c-1.93,1.81-3.86,3.62-5.77,5.39l-6.77-4.17c1.89-1.49,3.82-3,5.76-4.59Z" style="fill: #bababa"/>
        <path d="M87.35,102.48l-6.79-4.27a1.14,1.14,0,0,1-.36-1.58h0a1.15,1.15,0,0,1,1.58-.37l6.8,4.27a1.16,1.16,0,0,1,.36,1.59h0A1.16,1.16,0,0,1,87.35,102.48Z" style="fill: #ababab"/>
        <path d="M93.45,96.89,86.6,92.72a1.16,1.16,0,0,1-.38-1.59h0a1.15,1.15,0,0,1,1.58-.38l6.85,4.17A1.15,1.15,0,0,1,95,96.5h0A1.15,1.15,0,0,1,93.45,96.89Z" style="fill: #ababab"/>
      </g>
      <g>
        <path d="M118.15,63.55s6.14-6.57,10.26-4.06-10.6,7.25-10.6,7.25l1-1.29s7.87-2.26,8-4.72c.17-3.09-7.86,3.44-7.86,3.44Z" style="fill: #3d3d3d"/>
        <rect x="78.13" y="95.71" width="72.93" height="1.8" transform="translate(6.26 200.18) rotate(-83.84)" style="fill: #3d3d3d"/>
        <path d="M117.86,66.32h0a1.93,1.93,0,0,1-1.71-2.12l.68-6.35A1.93,1.93,0,0,1,119,56.14h0a1.92,1.92,0,0,1,1.71,2.12L120,64.61A1.93,1.93,0,0,1,117.86,66.32Z" style="fill: #ff9327"/>
        <path d="M114.6,132.61l-2.66-3-.9-.09-.89-.1-3.25,2.37a.28.28,0,0,0,.14.51l3.66.4,3.66.39A.28.28,0,0,0,114.6,132.61Zm-5-.74c-.15.18-1.88,0-1.85-.2a16.55,16.55,0,0,1,2.37-1.66A12.54,12.54,0,0,1,109.56,131.87Zm.49.27c-.23-.25.93-2,.93-2s.36,2,.34,2.16S110.28,132.38,110.05,132.14Zm1.7-.11a12.3,12.3,0,0,1-.07-1.85,16,16,0,0,1,1.93,2C113.58,132.46,111.86,132.24,111.75,132Z" style="fill: #ff9327"/>
        <polygon points="109.79 132.76 110.45 135 111.57 132.96 109.79 132.76" style="fill: #bababa"/>
      </g>
      <g>
        <path d="M112.9,54.18s-4.41-7.84-9-6.37,8.59,9.55,8.59,9.55l-.71-1.51s-7.11-4-6.66-6.47c.57-3,6.83,5.2,6.83,5.2Z" style="fill: #3d3d3d"/>
        <rect x="72.1" y="86.24" width="72.93" height="1.8" transform="translate(8 183.4) rotate(-82.5)" style="fill: #3d3d3d"/>
        <path d="M112.54,56.94h0a1.94,1.94,0,0,0,2.16-1.66l.83-6.34a1.92,1.92,0,0,0-1.66-2.16h0a1.93,1.93,0,0,0-2.16,1.66l-.83,6.33A1.93,1.93,0,0,0,112.54,56.94Z" style="fill: #ff9327"/>
        <path d="M100.17,122.64l3.65.48,3.65.48a.28.28,0,0,0,.25-.46l-2.59-3.08-.89-.11-.89-.12-3.3,2.3A.28.28,0,0,0,100.17,122.64Zm4.88-2a16.76,16.76,0,0,1,1.92,2.18c0,.22-1.75,0-1.85-.24A13.53,13.53,0,0,1,105.05,120.66Zm-1.74,1.91c0-.18.85-2,.85-2s.71,2,.43,2.19S103.29,122.75,103.31,122.57Zm-2.2-.58a15.71,15.71,0,0,1,2.35-1.54,11.67,11.67,0,0,1-.51,1.78C102.8,122.41,101.08,122.21,101.11,122Z" style="fill: #ff9327"/>
        <polygon points="104.69 123.41 103.52 125.43 102.91 123.17 104.69 123.41" style="fill: #bababa"/>
      </g>
    </g>
  </g>
</svg>
