<svg id="beach-icon-message" data-name="beach-icon-message" xmlns="http://www.w3.org/2000/svg" viewBox="0 0 180 180">
  <title>beach-icon-message</title>
  <g>
    <path d="M56.79,87.09a2,2,0,0,1-.5-1.48V73.3a2,2,0,0,1,.56-1.5,2.07,2.07,0,0,1,1.53-.57A2.13,2.13,0,0,1,60,71.8a2,2,0,0,1,.58,1.5V84.16h5.3c1.33,0,2,.57,2,1.73a1.6,1.6,0,0,1-.49,1.29,2.37,2.37,0,0,1-1.51.41H58.24A2,2,0,0,1,56.79,87.09Z" style="fill: #595e70"/>
    <path d="M70,87.09a2,2,0,0,1-.5-1.46V73.3a2,2,0,0,1,.5-1.45,2,2,0,0,1,1.46-.5h8a2.31,2.31,0,0,1,1.5.41,1.46,1.46,0,0,1,.5,1.2c0,1.11-.66,1.66-2,1.66H73.59v3.09h5.35c1.34,0,2,.54,2,1.63a1.49,1.49,0,0,1-.5,1.2,2.31,2.31,0,0,1-1.5.42H73.59v3.36H79.4c1.34,0,2,.55,2,1.66a1.46,1.46,0,0,1-.5,1.2,2.37,2.37,0,0,1-1.5.41h-8A2,2,0,0,1,70,87.09Z" style="fill: #595e70"/>
    <path d="M87.84,87.14a2,2,0,0,1-.58-1.51V74.78H84a2.23,2.23,0,0,1-1.51-.43,1.93,1.93,0,0,1,0-2.59A2.29,2.29,0,0,1,84,71.35H94.79a2.29,2.29,0,0,1,1.51.41,1.93,1.93,0,0,1,0,2.59,2.23,2.23,0,0,1-1.51.43H91.54V85.63A2,2,0,0,1,91,87.14a2.42,2.42,0,0,1-3.12,0Z" style="fill: #595e70"/>
    <path d="M105.31,87.17a2.11,2.11,0,0,1-.56-1.54V73.3a2,2,0,0,1,.56-1.5,2.07,2.07,0,0,1,1.53-.57,2.13,2.13,0,0,1,1.57.57,2,2,0,0,1,.58,1.5V85.63a2,2,0,0,1-.58,1.54,2.17,2.17,0,0,1-1.57.56A2.1,2.1,0,0,1,105.31,87.17Z" style="fill: #595e70"/>
    <path d="M116.19,87.14a2,2,0,0,1-.59-1.51V74.78h-3.25a2.25,2.25,0,0,1-1.51-.43,2,2,0,0,1,0-2.59,2.31,2.31,0,0,1,1.51-.41h10.79a2.31,2.31,0,0,1,1.51.41,2,2,0,0,1,0,2.59,2.25,2.25,0,0,1-1.51.43h-3.25V85.63a2,2,0,0,1-.59,1.51,2.41,2.41,0,0,1-3.11,0Z" style="fill: #595e70"/>
    <path d="M52.59,108.37a7.81,7.81,0,0,1-2.6-1.12,2.11,2.11,0,0,1-.56-.62,1.7,1.7,0,0,1-.17-.83,1.88,1.88,0,0,1,.41-1.2,1.23,1.23,0,0,1,1-.51,1.9,1.9,0,0,1,.58.09,4.47,4.47,0,0,1,.69.35,7.42,7.42,0,0,0,1.88.76,8.94,8.94,0,0,0,2.1.23,4.24,4.24,0,0,0,2.07-.4,1.31,1.31,0,0,0,.7-1.19A1.08,1.08,0,0,0,58,103a9.58,9.58,0,0,0-2.5-.75,14.67,14.67,0,0,1-3.57-1.15,4.28,4.28,0,0,1-1.81-1.58,4.45,4.45,0,0,1-.52-2.2,4.39,4.39,0,0,1,.88-2.67,5.73,5.73,0,0,1,2.41-1.88,8.45,8.45,0,0,1,3.44-.68,11,11,0,0,1,3,.37,7.45,7.45,0,0,1,2.39,1.15,1.81,1.81,0,0,1,.59.63,1.74,1.74,0,0,1,.18.82,1.88,1.88,0,0,1-.41,1.2,1.19,1.19,0,0,1-.95.51,2,2,0,0,1-.56-.08,4.28,4.28,0,0,1-.71-.36L59.2,96a5.53,5.53,0,0,0-1.27-.46,7.09,7.09,0,0,0-1.58-.17,3.46,3.46,0,0,0-1.88.45A1.34,1.34,0,0,0,53.75,97a1.07,1.07,0,0,0,.25.72,2.72,2.72,0,0,0,1,.54,12.78,12.78,0,0,0,2,.54A13.93,13.93,0,0,1,60.48,100a4.66,4.66,0,0,1,1.8,1.58,4.14,4.14,0,0,1,.53,2.12,4.43,4.43,0,0,1-.86,2.69,5.43,5.43,0,0,1-2.38,1.8,9.31,9.31,0,0,1-3.56.63A13.71,13.71,0,0,1,52.59,108.37Z" style="fill: #50c2ef"/>
    <path d="M79.13,92.78a2,2,0,0,1,.57,1.49V106.6a2.13,2.13,0,0,1-.55,1.52,1.88,1.88,0,0,1-1.43.58,1.86,1.86,0,0,1-1.57-.69l-7-8.73v7.32a2.12,2.12,0,0,1-.53,1.52,1.82,1.82,0,0,1-1.42.58,1.87,1.87,0,0,1-1.43-.58,2.09,2.09,0,0,1-.56-1.52V94.27a2.05,2.05,0,0,1,.56-1.49,2.06,2.06,0,0,1,3,.11l7,8.71V94.27a2.06,2.06,0,0,1,.54-1.5,1.85,1.85,0,0,1,1.41-.57A1.89,1.89,0,0,1,79.13,92.78Z" style="fill: #50c2ef"/>
    <path d="M86.05,107.74a7.06,7.06,0,0,1-2.83-2.9,10.34,10.34,0,0,1,0-8.83,7,7,0,0,1,2.83-2.89,9.74,9.74,0,0,1,8.64,0A6.87,6.87,0,0,1,97.5,96a9.51,9.51,0,0,1,1,4.42,9.32,9.32,0,0,1-1,4.41,7,7,0,0,1-2.82,2.9,9.53,9.53,0,0,1-8.62,0Zm7.2-3.52a6,6,0,0,0,1-3.79,5.87,5.87,0,0,0-1.05-3.78,3.86,3.86,0,0,0-5.75,0,5.91,5.91,0,0,0-1,3.79,6,6,0,0,0,1,3.8,3.85,3.85,0,0,0,5.76,0Z" style="fill: #50c2ef"/>
    <path d="M121.15,92.5a2,2,0,0,1,2.46.14,1.63,1.63,0,0,1,.57,1.31,3.07,3.07,0,0,1-.19.92l-4.63,12.54a1.83,1.83,0,0,1-.84,1,2.62,2.62,0,0,1-1.35.36,2.56,2.56,0,0,1-1.34-.36,1.9,1.9,0,0,1-.83-1l-3-8.55-3.14,8.55a2,2,0,0,1-.85,1,2.51,2.51,0,0,1-1.31.36,2.56,2.56,0,0,1-1.34-.36,1.85,1.85,0,0,1-.83-1L99.89,94.87a2.58,2.58,0,0,1-.17-.87,1.64,1.64,0,0,1,.62-1.35,2.15,2.15,0,0,1,1.41-.5,2.26,2.26,0,0,1,1.19.34,1.82,1.82,0,0,1,.77,1l3.16,9.08,3.34-9.08a1.89,1.89,0,0,1,.75-1,2,2,0,0,1,1.14-.35A1.94,1.94,0,0,1,114,93.51l3.13,9.27,3.3-9.29A1.89,1.89,0,0,1,121.15,92.5Z" style="fill: #50c2ef"/>
    <path d="M127.46,102.87A1.56,1.56,0,0,1,127,102l-1.2-7.17a3.26,3.26,0,0,1,0-.37,2,2,0,0,1,.7-1.62,2.68,2.68,0,0,1,1.77-.59,2.6,2.6,0,0,1,1.77.6,2.05,2.05,0,0,1,.69,1.64,2,2,0,0,1,0,.37L129.5,102a1.48,1.48,0,0,1-.4.92,1.13,1.13,0,0,1-.82.32A1.1,1.1,0,0,1,127.46,102.87Zm-.78,5.19a2.25,2.25,0,0,1,3.18-3.18,2.32,2.32,0,0,1,0,3.18,2.3,2.3,0,0,1-3.18,0Z" style="fill: #50c2ef"/>
  </g>
</svg>
