<svg id="wintersport-icon-background" data-name="wintersport-icon-background" xmlns="http://www.w3.org/2000/svg" viewBox="0 0 180 180">
  <title>wintersport-icon-background</title>
  <g>
    <path d="M41.29,118.56S47.76,82.89,60.65,78,77.18,95.7,80,104.69a29.62,29.62,0,0,0,9.39,13.87Z" style="fill: #d1f6fe"/>
    <g>
      <polygon points="119.83 105.28 116.18 105.25 116.12 91.18 119.77 91.21 119.83 105.28" style="fill: #b78a76"/>
      <polygon points="122.78 73.97 122.77 73.97 122.77 73.97 122.78 73.97" style="fill: #005662"/>
      <path d="M132,101.44c-.06,0-1.23-.08-2.86-.23-1.23-.1-2.73-.24-4.22-.41l-.15,0c-1.55-.17-3.08-.37-4.3-.59l-.13,0-.5-.1A3.84,3.84,0,0,1,118,99.4a3.71,3.71,0,0,1-1.82.63c-.48.09-1,.18-1.62.26l-.44.06-1.76.21-2.09.2-2.39.2-1.52.1h-.1l-2.23.14.95-.68c1.05-.79,1.86-1.43,2.53-2l.1-.1a14.57,14.57,0,0,0,1.82-1.91,32.4,32.4,0,0,0,2-3l.85-1.3-1.6.68c-1.86.77-3.77,1.48-5.71,2.13l.72-.56a29.88,29.88,0,0,0,3.34-3,30.44,30.44,0,0,0,2.83-3.39l.05-.07A30.29,30.29,0,0,0,114,84.75q-2.06,1-4.2,1.94h0l-1,.4.5-.45.16-.15a25.48,25.48,0,0,0,5.34-7c.35-.65.66-1.32,1-2l-1.67.92c-1,.56-2.08,1.09-3.15,1.6l.38-.39a20.18,20.18,0,0,0,2-2.39,21.89,21.89,0,0,0,1.34-2c.15-.26.29-.51.42-.77s.32-.61.46-.92c.25-.51.48-1,.69-1.58l-1.32.8-1.12.65-.91.51.27-.31.36-.42c.3-.36.58-.74.85-1.13a21.5,21.5,0,0,0,3.38-8.45,21.28,21.28,0,0,0,4.68,10.08l0,0,.25.29-.35-.2c-1-.58-2-1.19-3-1.81a24.29,24.29,0,0,0,3.17,5.66,21.86,21.86,0,0,0,1.83,2.13l.39.39c-1-.51-2.06-1-3.07-1.59l-1.77-1c.18.42.37.83.57,1.24.11.22.22.44.34.66.24.46.5.92.76,1.37s.58.93.89,1.38a25.58,25.58,0,0,0,4,4.59l.5.46q-2.66-1.14-5.17-2.43a32.34,32.34,0,0,0,8.37,9.89l.51.4.23.17-.19-.06c-2.46-.87-4.84-1.82-7.15-2.87,2.84,4.35,3.12,5.16,7.41,8.41Z" style="fill: #005662"/>
    </g>
    <g>
      <polygon points="127.9 102.41 127.79 103.81 127.79 103.83 127.53 107.14 127.33 109.7 127.28 110.36 127.16 111.9 127 113.98 126.72 117.5 123.22 117.29 123.45 114.28 123.66 111.7 123.69 111.34 123.92 108.42 123.96 107.86 124.13 105.7 124.28 103.77 124.29 103.67 124.33 103.14 124.33 103.07 124.34 103.03 124.4 102.21 127.9 102.41" style="fill: #b78a76"/>
      <path d="M137.85,113.15l.86.79s-2.46-.31-5.26-.76c-2.19-.36-4.59-.8-6.19-1.25l-.1,0c-.93-.27-1.57-.54-1.7-.79a3.44,3.44,0,0,1-1.8.59c-.7.11-1.55.21-2.48.29h0c-1.58.14-3.38.23-5,.29-.79,0-1.53.06-2.17.07h-.42l-1.71,0,.76-.54.21-.15c.14-.09.26-.19.39-.28,1-.71,1.69-1.3,2.32-1.84a17.06,17.06,0,0,0,2.85-3.18l.6-.85.51-.75.26-.38.85-1.25-1.36.56-1.72.67h0l-1.48.53c-.48.18-1,.34-1.46.51l-1.15.37-.09,0,0,0,.72-.55.39-.29.72-.58c.38-.32.76-.65,1.12-1s.46-.42.68-.63h0c.51-.49,1-1,1.48-1.53.16-.17.31-.34.46-.52h0c.49-.56,1-1.13,1.42-1.72s1-1.35,1.45-2l.28-.42c.29-.44.56-.88.82-1.33l-1.43.68q-1.83.84-3.72,1.59l.52-.46a25.84,25.84,0,0,0,2.22-2.22c.3-.32.59-.66.86-1s.71-.89,1-1.35c.66-.93,1.28-1.9,1.85-2.9.18-.32.35-.65.52-1s.35-.68.52-1c-.39.22-.77.43-1.16.63l-.7.38c-1,.51-2,1-3,1.47l.4-.39a23.06,23.06,0,0,0,1.85-2.08l.15-.18c.15-.2.3-.39.44-.59s.39-.54.57-.81a28.48,28.48,0,0,0,2.41-4.38c-.85.52-1.72,1-2.6,1.51h0l-.79.43.29-.31.2-.23.07-.08a21.63,21.63,0,0,0,3.43-5.51,29.55,29.55,0,0,0,1.58-4.65s0,0,0,0v.05c0,.14,0,.28,0,.41a1.36,1.36,0,0,0,0,.2c0,.08,0,.16,0,.24l0,.22s0,.09,0,.14v.08l0,.24,0,.16,0,.24v.09s0,.06,0,.09a.2.2,0,0,1,0,.07l0,.17a2.93,2.93,0,0,1,.05.29v0l0,.12,0,.12v.06l0,.13v0c0,.08,0,.15.05.22s0,.14,0,.21l0,.14,0,.13,0,0,0,.13a1,1,0,0,0,0,.17c0,.1,0,.19.07.29s0,0,0,.06a2,2,0,0,0,.07.26,2.68,2.68,0,0,0,.07.27l0,.05a.57.57,0,0,0,0,.14l0,.1a1.33,1.33,0,0,0,.05.19s0,.1,0,.14l0,.1v.06l.11.3c0,.08.05.16.07.23l0,.08h0v.06a.42.42,0,0,1,0,.1v0l0,.09.08.21h0c0,.07.05.13.07.19s.13.33.2.49l.06.13s0,.07,0,.11l0,0,.07.15,0,.07.07.15a1,1,0,0,0,.07.15.91.91,0,0,0,.07.14h0s0,0,0,0l.15.3,0,.05.13.24,0,.11h0l0,.1h0v0s0,0,0,0l.05.1a.41.41,0,0,0,.07.11c.14.26.29.5.44.75l0,.05.1.16.19.28.24.34q-1.57-1.11-3.06-2.31a24.72,24.72,0,0,0,4.12,8.59l.33.44c-1.52-1-3-2-4.42-3,0,.11.07.21.1.31a1.72,1.72,0,0,0,.07.21,1.43,1.43,0,0,0,.09.27l.07.23s0,.08,0,.12,0,.12.07.19l.06.18c0,.1.07.19.1.28l.08.21.06.15c.07.2.15.4.23.6a2.44,2.44,0,0,1,.1.24l.09.2a1.54,1.54,0,0,0,.08.19c0,.06.05.11.07.17l.11.24c0,.08.07.15.1.22l.09.2a.08.08,0,0,1,0,0l0,0,0,.07.08.16.12.25.09.18.26.49a3.24,3.24,0,0,0,.17.32l.13.24.08.13.09.17a1.71,1.71,0,0,1,.13.23l0,.05,0,0a.41.41,0,0,0,.05.09l.1.17,0,.07a.21.21,0,0,1,0,.06l.06.1.07.1.16.26.15.22v0l.06.08v0l.05.07a.35.35,0,0,1,0,.08l0,0h0c0,.07.09.14.14.2h0l.15.21a.76.76,0,0,1,.08.11l.13.17.11.15.12.16.08.11.17.21.06.08,0,0,0,0h0l0,0,0,0,0,0,.07.08.15.19.1.11.16.2.45.51c-1.63-.89-3.22-1.84-4.75-2.84.43,1.09.92,2.14,1.45,3.17l0,.08a31.34,31.34,0,0,0,5.66,7.74l.65.64q-3.51-1.59-6.78-3.48a.54.54,0,0,0,.05.11l.31.63C133.86,108.7,134.23,109.67,137.85,113.15Z" style="fill: #006454"/>
    </g>
    <g>
      <polygon points="67.26 118.37 62.88 118.97 62.32 115.73 61.8 112.76 61.8 112.73 61.66 111.96 60.02 102.56 59.98 102.29 59.95 102.14 60.21 102.11 62.23 101.83 64.33 101.55 65.53 108.44 66.14 111.93 66.17 112.13 66.78 115.59 67.26 118.37" style="fill: #b78a76"/>
      <path d="M81,111.67l-2,.13-3.48.2c-2.17.1-4.66.2-6.78.2-1,0-1.87,0-2.63-.07-.26,0-.5,0-.72-.06a3.14,3.14,0,0,1-1.61-.41c-.13.3-.91.67-2.05,1.07l-.2.07h0c-.5.17-1.05.34-1.64.51-4.36,1.27-11,2.63-12.25,2.9l-.23,0a.93.93,0,0,0,.14-.14l.86-.83c4.46-4.55,4.62-5.55,7.11-11.19-2.61,1.64-5.35,3.19-8.19,4.63.26-.26.51-.53.76-.79a35.24,35.24,0,0,0,5.1-6.88,35.76,35.76,0,0,0,2-4.12h0c.29-.7.56-1.41.81-2.12q-2.74,1.93-5.7,3.7l.51-.62A30.34,30.34,0,0,0,56.75,86a1.05,1.05,0,0,0,0-.19l-.69.55h0q-2.2,1.71-4.57,3.31c.13-.18.26-.35.38-.53a26.86,26.86,0,0,0,4.35-10.09c-1.17,1-2.37,2-3.62,2.92.09-.13.18-.27.26-.41A24.34,24.34,0,0,0,56.38,69v-.22l.15.39A28,28,0,0,0,62,78.1a20.11,20.11,0,0,0,2.07,2l.39.33c-1-.4-2.07-.81-3.08-1.24L60,78.56c.28.47.57.92.87,1.37a28.42,28.42,0,0,0,1.93,2.55c.27.33.55.66.84,1A27.16,27.16,0,0,0,67.57,87l.54.4q-2.77-.89-5.45-1.92l-.88-.35c.19.3.4.6.6.9a34.35,34.35,0,0,0,6.39,7l.58.47c.69.54,1.41,1.06,2.14,1.54l.7.46c-1.24-.32-2.47-.67-3.69-1l-.92-.28-2.08-.68c.59.75,1.2,1.48,1.85,2.19l.36.41c.86.92,1.76,1.82,2.71,2.66q.66.6,1.35,1.17,1.52,1.25,3.15,2.34c.85.57,1.72,1.11,2.62,1.61l1,.55c-1.18-.22-2.35-.47-3.51-.73-1.66-.37-3.3-.79-4.92-1.23l-.95-.27.65.72a45,45,0,0,0,4.38,4.51c.36.3.74.6,1.16.9l.64.44c.86.57,1.87,1.17,3.17,1.88l.51.28h0l.08,0Z" style="fill: #005662"/>
    </g>
    <path d="M127.9,118.56l-61.67,0s-.32-1.35-.32-1.38c.32-1.7,9.85-50.8,23.75-55.31a14,14,0,0,1,6.22-.69h0a4.85,4.85,0,0,1,.53.08c11,2,15.15,19.54,17.8,32.12C117.38,108.21,127.9,118.56,127.9,118.56Z" style="fill: #d1f6fe"/>
    <path d="M95.88,61.13c-1.2,0-4.3.8-9,7.48-6.22,8.77-17,48.5-17,48.5l-4,0c.32-1.7,9.85-50.8,23.75-55.31A14,14,0,0,1,95.88,61.13Z" style="fill: #b2eaf9"/>
    <g>
      <polygon points="69.72 118.56 65.66 118.51 65.67 115.45 65.67 113.47 65.67 112.96 65.68 109.19 65.69 106.01 65.7 103.83 65.7 103.38 65.7 102.67 65.7 102.03 66.46 102.04 67.08 102.05 69.76 102.08 69.74 107.82 69.74 108.68 69.74 110.69 69.73 111.45 69.73 111.61 69.73 112.65 69.73 113.64 69.72 115.47 69.72 118.56" style="fill: #ab816e"/>
      <path d="M83.23,114.49l-1-.09-1.67-.16-1.75-.18-2.37-.27h0c-1.44-.18-2.9-.38-4.17-.6h0l-.32-.06a21.36,21.36,0,0,1-2.16-.48,2.38,2.38,0,0,1-1.22-.59c-.21.34-1.31.64-2.84.9h0c-.49.09-1,.17-1.58.24l-.41.06c-.71.09-1.46.18-2.21.25l-.12,0h0l-.76.07h0c-3.5.35-6.81.53-6.81.53l1-.79c4.52-3.71,4.81-4.64,7.8-9.68q-2.79,1.35-5.71,2.5l-2,.77.77-.65a32.79,32.79,0,0,0,2.64-2.5h0a36.59,36.59,0,0,0,4.69-6.2c.06-.1.12-.21.19-.31.23-.39.45-.79.66-1.18s.43-.8.63-1.21l-1.09.59q-1.84,1-3.75,1.86l-.4.19h0l-.21.09.53-.52a28.5,28.5,0,0,0,2.79-3.22l.32-.45.42-.6c.21-.31.41-.62.61-.93a33.38,33.38,0,0,0,2.74-5.48c-1.55,1-3.14,1.9-4.79,2.77l-.31.17.24-.26.17-.19a27.47,27.47,0,0,0,5.26-9c-1.15.79-2.34,1.56-3.55,2.28.1-.11.19-.23.29-.35a25.62,25.62,0,0,0,4.91-11.7h0A26.37,26.37,0,0,0,73.2,81.59l0,0,.21.29.29.36q-1.81-1.14-3.54-2.37a30.26,30.26,0,0,0,2.87,6c.32.51.67,1,1,1.51.2.26.4.53.61.79s.47.58.72.87l.41.45c-.49-.26-1-.53-1.45-.81s-.92-.54-1.37-.82l-1.11-.68c-.39-.25-.78-.49-1.16-.75.18.46.36.92.56,1.36l.3.68c.39.85.81,1.67,1.26,2.48a30.38,30.38,0,0,0,3.69,5.23l.17.19h0c.27.31.56.61.85.9.13.15.27.29.41.43l.12.11L78,97.77q-2.72-1.3-5.28-2.79a39.19,39.19,0,0,0,2.69,4.68c.3.44.6.87.91,1.3.14.19.28.38.43.56.48.63,1,1.25,1.5,1.84s.8.9,1.22,1.33c.64.66,1.31,1.29,2,1.9l.22.19.15.13h0l.27.23.13.12L82,107.2l-.45-.18h0c-.83-.33-1.65-.67-2.47-1-.51-.22-1-.44-1.52-.68s-1.16-.53-1.73-.81l-1.37-.68.58,1,.72,1.25.32.56.55.91c.17.28.34.55.51.8.33.5.66,1,1,1.42s.64.76,1,1.16c.22.23.45.46.71.71.63.6,1.38,1.27,2.3,2l.22.18Z" style="fill: #006454"/>
    </g>
    <path d="M95.88,61.13s4.65,3.43,8.13,16.2.36,24.71,5.45,33,6.66,8.27,6.66,8.27H90.79s-3.11-4.69,2-18.27S95.88,61.13,95.88,61.13Z" style="fill: #ddf8fe"/>
  </g>
</svg>
