<svg id="newyear-icon-message" data-name="newyear-icon-message" xmlns="http://www.w3.org/2000/svg" viewBox="0 0 180 180">
  <title>newyear-icon-message</title>
  <g>
    <path d="M50.44,66.53a1.67,1.67,0,0,1,.46,1.24v10.1a1.71,1.71,0,0,1-.46,1.25,1.87,1.87,0,0,1-2.47,0,1.71,1.71,0,0,1-.47-1.26V74.09H42.07v3.78a1.71,1.71,0,0,1-.47,1.25,1.65,1.65,0,0,1-1.23.47,1.59,1.59,0,0,1-1.7-1.72V67.77a1.59,1.59,0,0,1,1.7-1.7,1.64,1.64,0,0,1,1.23.46,1.67,1.67,0,0,1,.47,1.24v3.57H47.5V67.77A1.67,1.67,0,0,1,48,66.53a1.64,1.64,0,0,1,1.23-.46A1.67,1.67,0,0,1,50.44,66.53Z" style="fill: #595e70"/>
    <path d="M56.1,78.8a5.68,5.68,0,0,1-2.31-2.37,8.49,8.49,0,0,1,0-7.24,5.65,5.65,0,0,1,2.31-2.36,8,8,0,0,1,7.08,0,5.65,5.65,0,0,1,2.31,2.36,7.82,7.82,0,0,1,.8,3.62,7.67,7.67,0,0,1-.81,3.62,5.7,5.7,0,0,1-2.32,2.37,7.84,7.84,0,0,1-7.06,0ZM62,75.92a4.88,4.88,0,0,0,.85-3.11,4.79,4.79,0,0,0-.86-3.1,2.86,2.86,0,0,0-2.35-1,2.9,2.9,0,0,0-2.36,1,4.91,4.91,0,0,0-.85,3.11,5,5,0,0,0,.85,3.12,2.88,2.88,0,0,0,2.36,1A2.83,2.83,0,0,0,62,75.92Z" style="fill: #595e70"/>
    <path d="M85.52,66.53A1.71,1.71,0,0,1,86,67.77v10.1a1.75,1.75,0,0,1-.46,1.25,1.67,1.67,0,0,1-1.24.47,1.59,1.59,0,0,1-1.7-1.72V74.09H77.14v3.78a1.71,1.71,0,0,1-.46,1.25,1.67,1.67,0,0,1-1.24.47,1.59,1.59,0,0,1-1.69-1.72V67.77a1.7,1.7,0,1,1,3.39,0v3.57h5.44V67.77a1.76,1.76,0,0,1,2.94-1.24Z" style="fill: #595e70"/>
    <path d="M91.18,78.8a5.68,5.68,0,0,1-2.31-2.37,8.49,8.49,0,0,1,0-7.24,5.65,5.65,0,0,1,2.31-2.36,8,8,0,0,1,7.08,0,5.57,5.57,0,0,1,2.3,2.36,8.54,8.54,0,0,1,0,7.24,5.68,5.68,0,0,1-2.31,2.37,7.84,7.84,0,0,1-7.06,0Zm5.9-2.88a6.07,6.07,0,0,0,0-6.21,3.18,3.18,0,0,0-4.71,0,4.85,4.85,0,0,0-.85,3.11,4.9,4.9,0,0,0,.85,3.12,3.17,3.17,0,0,0,4.72,0Z" style="fill: #595e70"/>
    <path d="M120.59,66.53a1.67,1.67,0,0,1,.47,1.24v10.1a1.71,1.71,0,0,1-.47,1.25,1.67,1.67,0,0,1-1.23.47,1.59,1.59,0,0,1-1.7-1.72V74.09h-5.44v3.78a1.71,1.71,0,0,1-.46,1.25,1.67,1.67,0,0,1-1.24.47,1.71,1.71,0,0,1-1.24-.46,1.74,1.74,0,0,1-.46-1.26V67.77a1.71,1.71,0,0,1,.46-1.24,1.7,1.7,0,0,1,2.94,1.24v3.57h5.44V67.77a1.75,1.75,0,0,1,2.93-1.24Z" style="fill: #595e70"/>
    <path d="M126.26,78.8a5.7,5.7,0,0,1-2.32-2.37,8.49,8.49,0,0,1,0-7.24,5.68,5.68,0,0,1,2.32-2.36,8,8,0,0,1,7.08,0,5.63,5.63,0,0,1,2.3,2.36,7.82,7.82,0,0,1,.8,3.62,7.67,7.67,0,0,1-.81,3.62,5.68,5.68,0,0,1-2.31,2.37,7.84,7.84,0,0,1-7.06,0Zm5.9-2.88a5,5,0,0,0,.85-3.11,4.85,4.85,0,0,0-.86-3.1,3.18,3.18,0,0,0-4.71,0,4.85,4.85,0,0,0-.85,3.11,4.9,4.9,0,0,0,.85,3.12,3.17,3.17,0,0,0,4.72,0Z" style="fill: #595e70"/>
    <path d="M139.19,74.81a1.29,1.29,0,0,1-.35-.75l-1-5.87a1.37,1.37,0,0,1,0-.31,1.65,1.65,0,0,1,.57-1.33,2.2,2.2,0,0,1,1.45-.48,2.12,2.12,0,0,1,1.45.49,1.69,1.69,0,0,1,.57,1.34,2.11,2.11,0,0,1,0,.3l-1,5.86a1.22,1.22,0,0,1-.33.75.92.92,0,0,1-.67.27A.9.9,0,0,1,139.19,74.81Zm-.64,4.25a1.77,1.77,0,0,1-.52-1.3,1.79,1.79,0,0,1,.52-1.31,1.88,1.88,0,0,1,2.6,0,1.79,1.79,0,0,1,.52,1.31,1.77,1.77,0,0,1-.52,1.3,1.86,1.86,0,0,1-2.6,0Z" style="fill: #595e70"/>
    <path d="M71.18,83.72A1.73,1.73,0,0,1,71.63,85V95.22a1.5,1.5,0,0,1-.42,1.13,1.45,1.45,0,0,1-1.09.42,1.44,1.44,0,0,1-1.51-1.55V89.67l-2.15,4a2.43,2.43,0,0,1-.68.86,1.52,1.52,0,0,1-1.7,0,2.33,2.33,0,0,1-.68-.86l-2.13-3.85v5.44a1.51,1.51,0,0,1-.43,1.12,1.46,1.46,0,0,1-1.1.43,1.49,1.49,0,0,1-1.09-.42,1.5,1.5,0,0,1-.42-1.13V85a1.69,1.69,0,0,1,.46-1.23,1.6,1.6,0,0,1,1.18-.47,1.57,1.57,0,0,1,.92.29,2.35,2.35,0,0,1,.7.84L65,90.92l3.45-6.54A1.78,1.78,0,0,1,70,83.25,1.57,1.57,0,0,1,71.18,83.72Z" style="fill: #f73c4f"/>
    <path d="M74.5,96.24a1.6,1.6,0,0,1-.42-1.19V85a1.46,1.46,0,0,1,1.61-1.61h6.53a1.9,1.9,0,0,1,1.23.35,1.17,1.17,0,0,1,.41,1c0,.9-.54,1.36-1.64,1.36H77.46v2.53h4.38c1.1,0,1.65.44,1.65,1.34a1.2,1.2,0,0,1-.42,1,1.88,1.88,0,0,1-1.23.34H77.46V94h4.76c1.1,0,1.64.46,1.64,1.36a1.17,1.17,0,0,1-.41,1,1.9,1.9,0,0,1-1.23.35H75.69A1.6,1.6,0,0,1,74.5,96.24Z" style="fill: #f73c4f"/>
    <path d="M96.89,95.41a1.26,1.26,0,0,1-.5,1,1.89,1.89,0,0,1-2,.2A1.93,1.93,0,0,1,93.7,96l-2.45-3.58a2.12,2.12,0,0,0-.56-.56,1.31,1.31,0,0,0-.69-.18H88.77v3.38a1.74,1.74,0,0,1-.45,1.26,1.71,1.71,0,0,1-3-1.26V85A1.45,1.45,0,0,1,87,83.34H91.7a5.42,5.42,0,0,1,3.63,1,3.79,3.79,0,0,1,1.22,3,3.87,3.87,0,0,1-3.17,4,2.51,2.51,0,0,1,1.08.41,3.93,3.93,0,0,1,.92,1l1.17,1.68A1.73,1.73,0,0,1,96.89,95.41Zm-4.09-6.7a1.33,1.33,0,0,0,.5-1.17,1.36,1.36,0,0,0-.5-1.2A2.79,2.79,0,0,0,91.15,86H88.73v3.1h2.42A2.88,2.88,0,0,0,92.8,88.71Z" style="fill: #f73c4f"/>
    <path d="M110.24,95.41a1.26,1.26,0,0,1-.5,1,1.8,1.8,0,0,1-1.16.4,1.75,1.75,0,0,1-.85-.2,1.85,1.85,0,0,1-.68-.63l-2.46-3.58a2,2,0,0,0-.55-.56,1.31,1.31,0,0,0-.69-.18h-1.23v3.38a1.74,1.74,0,0,1-.45,1.26,1.72,1.72,0,0,1-3-1.26V85a1.46,1.46,0,0,1,1.61-1.61h4.74a5.42,5.42,0,0,1,3.63,1,3.79,3.79,0,0,1,1.22,3,4,4,0,0,1-.83,2.56,4.12,4.12,0,0,1-2.34,1.41,2.56,2.56,0,0,1,1.08.41,3.93,3.93,0,0,1,.92,1l1.17,1.68A1.81,1.81,0,0,1,110.24,95.41Zm-4.09-6.7a1.35,1.35,0,0,0,.5-1.17,1.39,1.39,0,0,0-.5-1.2A2.79,2.79,0,0,0,104.5,86h-2.42v3.1h2.42A2.88,2.88,0,0,0,106.15,88.71Z" style="fill: #f73c4f"/>
    <path d="M121.26,83.23a1.6,1.6,0,0,1,1.13.48,1.51,1.51,0,0,1,.5,1.11,1.6,1.6,0,0,1-.42,1l-4,4.58v4.61a1.64,1.64,0,0,1-.48,1.27,1.77,1.77,0,0,1-1.24.45,1.81,1.81,0,0,1-1.27-.45,1.64,1.64,0,0,1-.49-1.27V90.44l-3.92-4.58a1.58,1.58,0,0,1-.44-1.06,1.51,1.51,0,0,1,.49-1.1,1.59,1.59,0,0,1,1.12-.47,1.48,1.48,0,0,1,1.15.57l3.34,4,3.34-4A1.48,1.48,0,0,1,121.26,83.23Z" style="fill: #f73c4f"/>
    <path d="M37.22,113.17a5.67,5.67,0,0,1-2.32-2.38,8.38,8.38,0,0,1,0-7.23,5.7,5.7,0,0,1,2.32-2.37,7.06,7.06,0,0,1,3.51-.83,7.21,7.21,0,0,1,4.21,1.26,1.51,1.51,0,0,1,.46.49,1.49,1.49,0,0,1,.14.68,1.52,1.52,0,0,1-.33,1,1,1,0,0,1-.8.41,1.36,1.36,0,0,1-.51-.09,3,3,0,0,1-.53-.27,5.44,5.44,0,0,0-1.25-.57,4.42,4.42,0,0,0-1.21-.17,3,3,0,0,0-2.5,1,6.19,6.19,0,0,0,0,6.16,3,3,0,0,0,2.5,1,3.38,3.38,0,0,0,1.1-.18c.35-.12.8-.31,1.36-.56.26-.14.46-.23.58-.28a1.26,1.26,0,0,1,.46-.08,1,1,0,0,1,.8.41,1.66,1.66,0,0,1,.19,1.66,1.53,1.53,0,0,1-.46.5A7.21,7.21,0,0,1,40.73,114,7.06,7.06,0,0,1,37.22,113.17Z" style="fill: #f73c4f"/>
    <path d="M59,100.89a1.67,1.67,0,0,1,.46,1.24v10.1a1.71,1.71,0,0,1-.46,1.25,1.67,1.67,0,0,1-1.23.47,1.59,1.59,0,0,1-1.7-1.72v-3.78H50.62v3.78a1.75,1.75,0,0,1-.46,1.25,1.67,1.67,0,0,1-1.24.47,1.59,1.59,0,0,1-1.7-1.72v-10.1a1.76,1.76,0,0,1,2.94-1.24,1.71,1.71,0,0,1,.46,1.24v3.57h5.44v-3.57A1.75,1.75,0,0,1,59,100.89Z" style="fill: #f73c4f"/>
    <path d="M73.41,112.59a1.26,1.26,0,0,1-.5,1,1.82,1.82,0,0,1-1.17.4,1.8,1.8,0,0,1-.85-.2,1.93,1.93,0,0,1-.68-.63l-2.45-3.58a2,2,0,0,0-.56-.56,1.27,1.27,0,0,0-.69-.18H65.29v3.38a1.7,1.7,0,0,1-.46,1.26,1.68,1.68,0,0,1-1.24.46,1.74,1.74,0,0,1-1.26-.46,1.7,1.7,0,0,1-.46-1.26v-10.1a1.46,1.46,0,0,1,1.61-1.61h4.73a5.45,5.45,0,0,1,3.64,1,3.79,3.79,0,0,1,1.22,3,4,4,0,0,1-.84,2.56,4.05,4.05,0,0,1-2.34,1.41A2.55,2.55,0,0,1,71,109a3.91,3.91,0,0,1,.91,1l1.18,1.68A1.81,1.81,0,0,1,73.41,112.59Zm-4.09-6.7a1.35,1.35,0,0,0,.5-1.17,1.39,1.39,0,0,0-.5-1.2,2.83,2.83,0,0,0-1.65-.37H65.25v3.1h2.42A2.92,2.92,0,0,0,69.32,105.89Z" style="fill: #f73c4f"/>
    <path d="M75.68,113.49a1.7,1.7,0,0,1-.46-1.26v-10.1a1.67,1.67,0,0,1,.46-1.24,1.7,1.7,0,0,1,1.26-.46,1.75,1.75,0,0,1,1.28.46,1.67,1.67,0,0,1,.47,1.24v10.1a1.71,1.71,0,0,1-.47,1.26,1.79,1.79,0,0,1-1.28.46A1.74,1.74,0,0,1,75.68,113.49Z" style="fill: #f73c4f"/>
    <path d="M83.31,113.67a6.45,6.45,0,0,1-2.13-.91,1.66,1.66,0,0,1-.46-.51,1.49,1.49,0,0,1-.14-.68,1.46,1.46,0,0,1,.34-1,1,1,0,0,1,.79-.42,1.45,1.45,0,0,1,.47.08,2.91,2.91,0,0,1,.57.28,6,6,0,0,0,1.54.62,7,7,0,0,0,1.73.19,3.49,3.49,0,0,0,1.69-.33,1.05,1.05,0,0,0,.57-1,.89.89,0,0,0-.54-.75,7.9,7.9,0,0,0-2-.61,11.87,11.87,0,0,1-2.93-.94,3.44,3.44,0,0,1-1.48-1.3,3.48,3.48,0,0,1-.43-1.8,3.64,3.64,0,0,1,.72-2.19,4.86,4.86,0,0,1,2-1.54,6.92,6.92,0,0,1,2.82-.55,9.21,9.21,0,0,1,2.46.3,6,6,0,0,1,2,.94,1.45,1.45,0,0,1,.48.52,1.38,1.38,0,0,1,.15.67,1.51,1.51,0,0,1-.33,1,1,1,0,0,1-.79.42,1.33,1.33,0,0,1-.45-.07,3.06,3.06,0,0,1-.59-.29l-.53-.29a4.24,4.24,0,0,0-1-.38,5.34,5.34,0,0,0-1.3-.14,2.81,2.81,0,0,0-1.54.37,1.1,1.1,0,0,0-.59,1,.81.81,0,0,0,.21.58,2.15,2.15,0,0,0,.77.45,12.06,12.06,0,0,0,1.68.44,11.1,11.1,0,0,1,2.85,1,3.7,3.7,0,0,1,1.48,1.3,3.44,3.44,0,0,1,.43,1.73A3.59,3.59,0,0,1,91,112a4.47,4.47,0,0,1-2,1.48,7.73,7.73,0,0,1-2.92.51A11.26,11.26,0,0,1,83.31,113.67Z" style="fill: #f73c4f"/>
    <path d="M96.84,113.47a1.64,1.64,0,0,1-.48-1.24v-8.89H93.7a1.89,1.89,0,0,1-1.24-.35,1.33,1.33,0,0,1-.4-1.07,1.27,1.27,0,0,1,.4-1,1.89,1.89,0,0,1,1.24-.35h8.84a1.86,1.86,0,0,1,1.23.35,1.28,1.28,0,0,1,.41,1,1.34,1.34,0,0,1-.41,1.07,1.86,1.86,0,0,1-1.23.35H99.87v8.89a1.64,1.64,0,0,1-.48,1.24,1.74,1.74,0,0,1-1.27.46A1.76,1.76,0,0,1,96.84,113.47Z" style="fill: #f73c4f"/>
    <path d="M118.28,100.9a1.73,1.73,0,0,1,.45,1.23V112.4a1.54,1.54,0,0,1-.41,1.13,1.48,1.48,0,0,1-1.1.42,1.46,1.46,0,0,1-1.51-1.55v-5.55l-2.15,4a2.33,2.33,0,0,1-.68.86,1.52,1.52,0,0,1-1.7,0,2.43,2.43,0,0,1-.68-.86L108.37,107v5.44a1.48,1.48,0,0,1-.43,1.12,1.46,1.46,0,0,1-1.1.43,1.44,1.44,0,0,1-1.51-1.55V102.13a1.69,1.69,0,0,1,.46-1.23,1.6,1.6,0,0,1,1.18-.47,1.63,1.63,0,0,1,.93.29,2.46,2.46,0,0,1,.7.84l3.47,6.54,3.45-6.54a1.78,1.78,0,0,1,1.59-1.13A1.56,1.56,0,0,1,118.28,100.9Z" style="fill: #f73c4f"/>
    <path d="M134.1,112.4a1.36,1.36,0,0,1-.5,1.06,1.67,1.67,0,0,1-1.14.43,1.43,1.43,0,0,1-.79-.22,1.6,1.6,0,0,1-.57-.68l-.85-1.91h-6.12l-.87,1.91a1.54,1.54,0,0,1-.57.68,1.51,1.51,0,0,1-.8.22,1.78,1.78,0,0,1-1.17-.43,1.34,1.34,0,0,1-.51-1.06,1.53,1.53,0,0,1,.17-.7l5-10.23a1.72,1.72,0,0,1,.73-.78,2,2,0,0,1,1.06-.28,2.08,2.08,0,0,1,1.06.28,1.75,1.75,0,0,1,.74.78l5,10.23A1.67,1.67,0,0,1,134.1,112.4Zm-8.8-3.93h3.78l-1.89-4.21Z" style="fill: #f73c4f"/>
    <path d="M137.55,113.67a6.45,6.45,0,0,1-2.13-.91,1.55,1.55,0,0,1-.46-.51,1.49,1.49,0,0,1-.14-.68,1.46,1.46,0,0,1,.34-1,1,1,0,0,1,.79-.42,1.5,1.5,0,0,1,.47.08,2.91,2.91,0,0,1,.57.28,6,6,0,0,0,1.54.62,7,7,0,0,0,1.73.19A3.49,3.49,0,0,0,142,111a1.05,1.05,0,0,0,.57-1,.89.89,0,0,0-.54-.75,7.87,7.87,0,0,0-2-.61,11.92,11.92,0,0,1-2.92-.94,3.44,3.44,0,0,1-1.48-1.3,3.48,3.48,0,0,1-.43-1.8,3.64,3.64,0,0,1,.72-2.19,4.79,4.79,0,0,1,2-1.54,6.92,6.92,0,0,1,2.82-.55,9.21,9.21,0,0,1,2.46.3,6,6,0,0,1,2,.94,1.45,1.45,0,0,1,.48.52,1.38,1.38,0,0,1,.15.67,1.52,1.52,0,0,1-.34,1,1,1,0,0,1-.78.42,1.33,1.33,0,0,1-.45-.07,2.8,2.8,0,0,1-.59-.29c-.06,0-.24-.14-.54-.29a4,4,0,0,0-1-.38,5.34,5.34,0,0,0-1.3-.14,2.81,2.81,0,0,0-1.54.37,1.08,1.08,0,0,0-.59,1,.81.81,0,0,0,.21.58,2.15,2.15,0,0,0,.77.45,12.06,12.06,0,0,0,1.68.44,11.1,11.1,0,0,1,2.85,1,3.77,3.77,0,0,1,1.48,1.3,3.44,3.44,0,0,1,.43,1.73,3.59,3.59,0,0,1-.7,2.2,4.47,4.47,0,0,1-1.95,1.48,7.73,7.73,0,0,1-2.92.51A11.26,11.26,0,0,1,137.55,113.67Z" style="fill: #f73c4f"/>
  </g>
</svg>
