<svg id="newyear-icon-outfits" data-name="Newyear Icon Outfits" xmlns="http://www.w3.org/2000/svg" viewBox="0 0 180 180">
  <title>newyear-icon-outfits</title>
  <g>
    <g>
      <polygon points="90 75.2 90 124.4 57.83 124.4 63.53 95.74 55.7 113.91 42.13 113.91 66.06 68.45 90 75.2" style="fill: #f73c4f"/>
      <polygon points="90 116.55 58.05 116.55 59.14 108.45 90 108.45 90 116.55"/>
      <path d="M90,77.38a2.06,2.06,0,0,1-.59-.09L65.47,70.54a2.17,2.17,0,1,1,1.18-4.18l23.94,6.75A2.18,2.18,0,0,1,90,77.38Z" style="fill: #e6e7e8"/>
      <path d="M55.7,116.09H42.12a2.18,2.18,0,0,1,0-4.35H55.7a2.18,2.18,0,1,1,0,4.35Z" style="fill: #e6e7e8"/>
      <polygon points="90 75.2 90 124.4 122.17 124.4 116.47 95.74 124.3 113.91 137.88 113.91 113.94 68.45 90 75.2" style="fill: #cf3242"/>
      <polygon points="90 116.55 121.94 116.55 120.86 108.45 90 108.45 90 116.55"/>
      <path d="M90,77.38a2.18,2.18,0,0,1-.59-4.27l23.94-6.75a2.17,2.17,0,0,1,1.18,4.18L90.59,77.29A2.06,2.06,0,0,1,90,77.38Z" style="fill: #e6e7e8"/>
      <path d="M137.88,116.09H124.3a2.18,2.18,0,1,1,0-4.35h13.58a2.18,2.18,0,0,1,0,4.35Z" style="fill: #e6e7e8"/>
      <circle cx="90" cy="86.43" r="2.69" style="fill: #fff"/>
      <circle cx="90" cy="94.49" r="2.69" style="fill: #fff"/>
      <circle cx="90" cy="102.81" r="2.69" style="fill: #fff"/>
    </g>
    <g>
      <path d="M73,51.39s-7.36,8.9-.4,21.34,25.25,14,25.25,14S93.29,79.53,99.66,77s12.11-16,8.62-25.6c0,0-2.49,12-13.41,16.92S70.36,61.25,73,51.39Z" style="fill: #f2f2f2"/>
      <path d="M89.78,69c-2.73-.77-6.6-8.44,2.56-9.39s11,3.45,17.86-2.21C106.74,65,101.75,72.37,89.78,69Z" style="fill: #e6e7e8"/>
      <path d="M84.24,69c2.74-.78,6.6-8.45-2.56-9.4s-11,3.45-17.86-2.21C67.29,65,72.27,72.35,84.24,69Z" style="fill: #e6e7e8"/>
    </g>
  </g>
</svg>
