<svg id="Layer_1" data-name="Layer 1" xmlns="http://www.w3.org/2000/svg" viewBox="0 0 180 180"><defs><style>.cls-1{fill:#ab2937;}.cls-2{fill:#962430;}.cls-3{fill:#383838;}.cls-4{fill:#b2eaf9;}.cls-5{fill:#ddf8fe;}.cls-6{fill:#c9c9c9;}.cls-7{fill:#f73c4f;}.cls-8{fill:#de3647;}.cls-9{fill:#2d2d2d;}</style></defs><title>wintersport-icon-outfits copy</title><path class="cls-1" d="M110.29,61.71c-1.16,1.58-8.64,6.48-11,6.23-2-.21-7.54-4.65-9.33-6.1-1.79,1.45-7.38,5.89-9.33,6.1s-7.14-3-9.69-5l0,0,0,0a7.68,7.68,0,0,1-1.18-1.14c-1.16-1.58-1.08-11.38-.66-12s7.87-3.32,11.69-4.31h0a47.74,47.74,0,0,1,9.18-1.08h.12a47.74,47.74,0,0,1,9.18,1.08c3.82,1,11.3,3.66,11.71,4.32S111.45,60.13,110.29,61.71Z"/><path class="cls-2" d="M70.89,62.85a7.68,7.68,0,0,1-1.18-1.14c-1.16-1.58-1.08-11.38-.66-12s7.87-3.32,11.69-4.31c-.42.14-9.46,3.21-10.7,5.81S69.41,61.59,70.89,62.85Z"/><path class="cls-2" d="M109,62.85a7.68,7.68,0,0,0,1.18-1.14c1.16-1.58,1.08-11.38.66-12S103,46.35,99.19,45.36c.42.14,9.46,3.21,10.7,5.81S110.52,61.59,109,62.85Z"/><path class="cls-3" d="M108.12,51.22s.34-.12.51.83a20.82,20.82,0,0,1,0,3.24s.66.56.66.82a9.65,9.65,0,0,1-.25,2.5,2.72,2.72,0,0,1-.62.33,7.51,7.51,0,0,1-.3,1.87c-.2.25-.77.17-.61-.12C108.2,59.36,108.17,52.05,108.12,51.22Z"/><path class="cls-3" d="M72.07,51.22s-.51-.12-.67.83a19.6,19.6,0,0,0,0,3.24s-.67.56-.67.82a9.65,9.65,0,0,0,.25,2.5,3,3,0,0,0,.62.33,7.51,7.51,0,0,0,.3,1.87c.2.25.77.17.62-.12C71.82,59.36,72,52.05,72.07,51.22Z"/><path class="cls-4" d="M108.16,56.56c-.08,2.29-.29,4.46-.66,5-.81,1.13-5.9,4.88-8.61,4.28l-.2,0a9.2,9.2,0,0,1-3.2-2.59c-.34-.36-.67-.75-1-1.14-.47-.55-.94-1.1-1.38-1.63-1.28-1.51-2.4-2.76-3-2.86-1.58.25-6,7.39-8.64,8.22-2.08.65-5.78-1.59-7.7-3.16a7,7,0,0,1-1.1-1.07c-.36-.5-.56-2.51-.65-4.69a35.82,35.82,0,0,1,.15-6.53c.26-.59,5.19-2.16,9.25-2.88a22.2,22.2,0,0,1,3-.35,18.16,18.16,0,0,1,4.6.31,5.11,5.11,0,0,1,1.13.35s1.66-.83,5.73-.66a40,40,0,0,1,8.83,1.79h0c.88.27,1.66.54,2.24.78a2.79,2.79,0,0,1,1.14.66,1.74,1.74,0,0,1,.06.29A44.25,44.25,0,0,1,108.16,56.56Z"/><path class="cls-5" d="M88.93,47.41,73.72,62.62a7,7,0,0,1-1.1-1.07c-.36-.5-.56-2.51-.65-4.69l9.4-9.41a22.2,22.2,0,0,1,3-.35A18.16,18.16,0,0,1,88.93,47.41Z"/><path class="cls-5" d="M106.86,49.67,94.48,62.05c-.47-.55-.94-1.1-1.38-1.63l11.52-11.53h0C105.5,49.16,106.28,49.43,106.86,49.67Z"/><path class="cls-5" d="M108.16,56.56l-9.27,9.27-.2,0a9.2,9.2,0,0,1-3.2-2.59l12.57-12.57A44.25,44.25,0,0,1,108.16,56.56Z"/><path class="cls-3" d="M86.29,45.69a10.49,10.49,0,0,1,3.77-.53,8,8,0,0,1,3.24.53,22.67,22.67,0,0,1-3.24.63A35.64,35.64,0,0,1,86.29,45.69Z"/><rect class="cls-6" x="69.56" y="131.87" width="41.22" height="3.86"/><path class="cls-7" d="M118.34,104.49c-.58,4.54-2,10.54-2,10.54a29,29,0,0,1,.17,9.38,11.87,11.87,0,0,1-6.12,8.87H69.65s-6.06-3-6.12-8.87c0-4.34.36-9.52.36-9.52s-.35-1.23-.78-3a70.65,70.65,0,0,1-1.45-7.39c-.51-4,.78-9.13,1.08-10.18l0-.2s0-.15-.1-.42h0a32.14,32.14,0,0,1-.87-7.63c0-.5.07-1,.12-1.52s.09-.83.15-1.24a21.93,21.93,0,0,1,2.18-7.15,7.46,7.46,0,0,1,3-2.89h0a13.85,13.85,0,0,1,3-1.21l.05,0a26.39,26.39,0,0,1,6.69-.84,60.42,60.42,0,0,1,7.28,2.49c2.29.86,4.51,1.72,5.66,2.17l.26-.1c3-1.19,11.76-4.56,12.68-4.56a24.68,24.68,0,0,1,5,.74l.08,0,.16,0,.07,0,.48.13c2.54.71,5.3,1.94,7,4,1.46,1.8,2.08,5.41,2.37,8.57.1,1.13.17,2.2.22,3.11a15.1,15.1,0,0,1-.94,5.86c-.1.27-.17.42-.17.42l.06.22C117.57,95.42,118.84,100.47,118.34,104.49Z"/><polygon class="cls-8" points="116.05 114.77 63.99 114.77 63.89 115.29 116.3 115.29 116.05 114.77"/><path class="cls-8" d="M117.21,92.39l.06.18H62.74l-.05-.5h54.69C117.28,92.27,117.21,92.39,117.21,92.39Z"/><path class="cls-9" d="M89.36,79.9s-7.45-3.28-18.18-.42a34.87,34.87,0,0,0-9.09,3.82,21.93,21.93,0,0,1,2.18-7.15,7.46,7.46,0,0,1,3-2.89h0a13.85,13.85,0,0,1,3-1.21l.05,0c.55-.18,5.19-1.64,5.7-1.48a84.3,84.3,0,0,1,8.23,3.1l0,0C89.08,75.89,89.36,79.9,89.36,79.9Z"/><path class="cls-9" d="M118.1,84.72a39.21,39.21,0,0,0-10.59-5.24c-8.83-2.86-18.15.42-18.15.42a7.83,7.83,0,0,1,.9-4.16,8.28,8.28,0,0,1,1.53-2.1c2.19-2.2,8.38-2.52,10.18-3.11.45-.15,4.61,1,6,1.39l.08,0,.16,0,.07,0,.13,0,.35.09c2.54.71,5.3,1.94,7,4C117.19,78,117.81,81.56,118.1,84.72Z"/><path class="cls-6" d="M89.22,78.42h0Z"/><path class="cls-6" d="M93.15,75.54a62,62,0,0,1,9.44-3.75,1.47,1.47,0,0,0,.36-2.68h0a1.66,1.66,0,0,0-1.19-.21c-.54.1-1.46.3-3,.67a85,85,0,0,0-9.71,3.86,84.83,84.83,0,0,0-9.7-3.86c-1.5-.37-2.42-.57-3-.67a1.66,1.66,0,0,0-1.19.21h0a1.47,1.47,0,0,0,.36,2.68A62,62,0,0,1,85,75.54,20.53,20.53,0,0,1,88.91,78l.06.42s0-.09.12-.23c.12.14.13.21.13.23l.06-.42A20.53,20.53,0,0,1,93.15,75.54Z"/><path class="cls-6" d="M89,78.43h0Z"/><rect class="cls-6" x="88.89" y="73.61" width="1.27" height="62.12"/></svg>