<svg id="Layer_1" data-name="Layer 1" xmlns="http://www.w3.org/2000/svg" viewBox="0 0 792 648"><defs><style>.cls-1{fill:#3d3d3d;}.cls-2{fill:#ff9327;}.cls-3{fill:#ffde00;}.cls-4{fill:#bababa;}.cls-5{fill:#ababab;}.cls-6{fill:#a5a5a5;}.cls-7{fill:#43ad9d;}.cls-8{fill:#e0e2e2;}.cls-9{fill:#f73c4f;}.cls-10{fill:#4ac0ae;}.cls-11{fill:#2d2d2d;}.cls-12{fill:#ed8924;}.cls-13{fill:#383838;}.cls-14{fill:#de3647;}.cls-15{fill:#f6cba9;}.cls-16{fill:#fff;}.cls-17{fill:#7bc0b5;}.cls-18{fill:#ab816e;}.cls-19{fill:#e8384a;}.cls-20{fill:#1c1c1c;}.cls-21{fill:#f2f0f0;}.cls-22{fill:#494949;}.cls-23{opacity:0.3;}</style></defs><title>WinterSports-Theme-Decorations</title><path class="cls-1" d="M524,419.61l-4.65,5.7-3.54,4.36c-.78.94-1.57,1.9-2.39,2.91-1.14,1.4-2.34,2.84-3.57,4.36-6.15,7.49-13.35,16.25-20.68,25.11L480,473c-12.1,14.47-23.5,27.86-30,34.79a36,36,0,0,1-5,4.85c-6.45,3.73-24.42-1.69-24.77-2.71,0,0,0,0,0-.06,0-.83,4.19-3.77,9.58-7.77,2.22-1.64,4.64-3.46,7.06-5.39,3.25-2.61,15.76-15.18,30-29.69l9.33-9.56c7-7.16,13.95-14.37,20.11-20.75,1.45-1.49,2.85-2.95,4.2-4.36l2.81-2.89,4.19-4.36,8.63-9a2.61,2.61,0,0,1,1.88-.81H522A2.61,2.61,0,0,1,524,419.61Z"/><path class="cls-2" d="M450.09,507.83a36,36,0,0,1-5,4.85c-6.45,3.73-24.42-1.69-24.76-2.71,0,0,0,0,0-.06-.62-3.73,4.43-9.45,6.46-10.46,1-.49,1.79.89,3.11,2.7a14.41,14.41,0,0,0,7.06,5.68A22,22,0,0,0,450.09,507.83Z"/><path class="cls-3" d="M519.39,425.3l-3.55,4.37-12.46-.17,4.18-4.36Z"/><path class="cls-2" d="M513.46,432.58c-1.15,1.39-2.34,2.85-3.59,4.35l-13.5-.18,4.2-4.35Z"/><path class="cls-4" d="M489.2,462.05,480,473l-13.11-6,9.33-9.56Z"/><path class="cls-5" d="M478.67,475.92l-13.19-6.14a2.1,2.1,0,0,1-1-2.77h0a2.09,2.09,0,0,1,2.78-1l13.18,6.14a2.1,2.1,0,0,1,1,2.77h0A2.08,2.08,0,0,1,478.67,475.92Z"/><path class="cls-5" d="M488.38,464.49l-13.26-6a2.09,2.09,0,0,1-1.05-2.76h0a2.09,2.09,0,0,1,2.76-1l13.26,6a2.09,2.09,0,0,1,1.05,2.76h0A2.08,2.08,0,0,1,488.38,464.49Z"/><path class="cls-1" d="M510.66,415.78c-1.43,1.39-3.22,3.11-5.3,5.09-1.25,1.22-2.6,2.51-4.05,3.91l-2.71,2.6-4.08,3.9c-9.09,8.7-20.22,19.29-31,29.48l-2.17,2c-14,13.19-27.32,25.44-34.68,31.66a36.82,36.82,0,0,1-5.55,4.2c-6.85,2.93-24-4.62-24.26-5.67,0,0,0,0,0-.06.1-.83,4.61-3.23,10.44-6.56,2.4-1.36,5-2.88,7.66-4.51,3.42-2.11,16.55-12.43,31.75-24.59l0,0h0l2.92-2.33h0c10.6-8.49,21.94-17.66,31.51-25.43l4.69-3.82c1.09-.87,2.14-1.72,3.14-2.54l4.68-3.82,9.66-7.88a2.65,2.65,0,0,1,2-.57l3.89.48A2.6,2.6,0,0,1,510.66,415.78Z"/><path class="cls-2" d="M426.63,494.46a35.59,35.59,0,0,1-5.55,4.2c-6.85,2.93-24-4.62-24.26-5.67,0,0,0,0,0-.06-.15-3.78,5.54-8.85,7.68-9.61,1-.36,1.67,1.1,2.76,3.06a14.46,14.46,0,0,0,6.32,6.49A22.09,22.09,0,0,0,426.63,494.46Z"/><path class="cls-3" d="M505.37,420.88l-4.05,3.9L489,423.11l4.68-3.82Z"/><path class="cls-2" d="M498.6,427.38c-1.31,1.25-2.66,2.55-4.08,3.89l-13.38-1.8,4.69-3.82Z"/><path class="cls-4" d="M475.15,450.22,464.71,460l-12.28-7.57,10.45-8.32Z"/><path class="cls-5" d="M463,462.68,450.66,455a2.09,2.09,0,0,1-.65-2.88h0a2.09,2.09,0,0,1,2.87-.66l12.32,7.74a2.08,2.08,0,0,1,.66,2.87h0A2.09,2.09,0,0,1,463,462.68Z"/><path class="cls-5" d="M474,452.54,461.62,445a2.08,2.08,0,0,1-.7-2.87h0a2.1,2.1,0,0,1,2.87-.7L476.21,449a2.09,2.09,0,0,1,.7,2.87h0A2.09,2.09,0,0,1,474,452.54Z"/><path class="cls-1" d="M483.68,298.27S494,284.13,502.59,288s-18.84,16.49-18.84,16.49l1.72-2.76s14.72-6.18,14.4-11c-.4-6-14.42,8.48-14.42,8.48Z"/><rect class="cls-1" x="482.66" y="291.99" width="3.5" height="142.16" transform="matrix(1, -0.01, 0.01, 1, -4.08, 5.51)"/><path class="cls-2" d="M483.74,303.69h0A3.75,3.75,0,0,1,480,300l-.14-12.45a3.74,3.74,0,0,1,3.71-3.8h0a3.75,3.75,0,0,1,3.79,3.71l.15,12.45A3.76,3.76,0,0,1,483.74,303.69Z"/><path class="cls-2" d="M492.85,432.88a.53.53,0,0,0-.1-.12l-2.29-2-3.56-3.17-1.75,0-1.69,0h-.06l-.31.28,0,0,0,0h0l-1.68,1.56-3.7,3.44a.56.56,0,0,0,.39,1l5.42-.07,3.5,0,5-.06h.43A.55.55,0,0,0,492.85,432.88Zm-10-.38c-.25.37-3.63.48-3.63,0s1.91-1.9,3.15-2.92l1.06-.84c0,.07-.05.46-.11,1A14.75,14.75,0,0,1,482.83,432.5Zm1,.39c-.31-.27.29-1.84.78-3,.3-.67.55-1.18.55-1.18l.4,1.31c.34,1.12.77,2.58.77,2.8S484.34,433.31,483.83,432.89Zm3.28-.59a2,2,0,0,1-.17-.49v-.06c-.08-.41-.16-1-.23-1.54-.1-.78-.17-1.48-.17-1.48l.37.28c.43.32,1.21.9,1.94,1.49a8.55,8.55,0,0,1,1.89,1.75C490.74,432.69,487.36,432.67,487.11,432.3Z"/><polygon class="cls-4" points="483.47 434.16 485.27 438.35 486.98 434.12 483.47 434.16"/><path class="cls-1" d="M488.13,289.45s-8.88-15.11-17.78-12.09,17.07,18.31,17.07,18.31L486,292.75s-14-7.63-13.21-12.37c1-5.94,13.49,9.88,13.49,9.88Z"/><rect class="cls-1" x="409.77" y="352.09" width="142.16" height="3.5" transform="translate(75.3 791.96) rotate(-83.56)"/><path class="cls-2" d="M487.52,294.84h0a3.75,3.75,0,0,0,4.15-3.31l1.4-12.38a3.75,3.75,0,0,0-3.31-4.15h0a3.75,3.75,0,0,0-4.15,3.31l-1.4,12.37A3.77,3.77,0,0,0,487.52,294.84Z"/><path class="cls-2" d="M480.52,424l-5.16-5.89-3.48-.4-1.2.87h0l-1,.69-4.18,3a.55.55,0,0,0,.26,1l2.82.32,2.57.29,1.74.2,1.74.19,5.39.61A.55.55,0,0,0,480.52,424Zm-9.12-2.09a1.81,1.81,0,0,1-.21.5,4.4,4.4,0,0,1-2.08.08c-.82-.1-1.55-.28-1.53-.48a10.48,10.48,0,0,1,2.48-1.82l1.48-.91.17-.1.41-.25s0,.13-.07.35c-.13.61-.42,1.88-.64,2.61Zm3,1.43c-.55.37-2.53.07-2.49-.29s1.59-4,1.59-4S474.94,423,474.39,423.37Zm1-.29a25.07,25.07,0,0,1-.2-3.77s3.86,3.74,3.81,4.17S475.64,423.48,475.43,423.08Z"/><polygon class="cls-4" points="474.62 424.67 472.41 428.66 471.14 424.28 474.62 424.67"/><path class="cls-5" d="M150.94,630.25s-.54,2.85.06,4.28a16.33,16.33,0,0,0,3-3.67Z"/><path class="cls-5" d="M73.85,614.87s-.54,2.85.05,4.28a16.05,16.05,0,0,0,3-3.67Z"/><rect class="cls-6" x="108.49" y="501.85" width="8.33" height="103.64" transform="translate(110.5 -11.34) rotate(11.28)"/><rect class="cls-6" x="150.28" y="510.19" width="8.33" height="103.64" transform="translate(112.94 -19.36) rotate(11.28)"/><polygon class="cls-2" points="186.24 575.62 83.79 555.18 78.92 575.98 182.92 596.72 186.24 575.62"/><polygon class="cls-2" points="87.09 541.08 188.48 561.3 191.79 540.2 91.96 520.28 87.09 541.08"/><polygon class="cls-2" points="194.04 525.88 195.8 514.66 98.36 492.96 100.91 506.51 194.04 525.88"/><polygon class="cls-2" points="75.62 590.08 70 614.1 176.85 635.42 180.68 611.03 75.62 590.08"/><path class="cls-6" d="M199.87,473.82c-7.94-11.16-28.88-19.06-39.58-21.2s-38-3.33-45.8,4.17c-6.41,6.2-14.43,47.15-14.43,47.15l47.3,9.44.44.09,47.3,9.43S205,481,199.87,473.82ZM190,514.71l-81.94-16.35c3.53-16.31,8.33-33.33,11-36.5,4.49-4.21,26.89-4.91,39.83-2.33,10.79,2.16,29,9.68,35.31,18.29C195.52,481.71,193.65,497.65,190,514.71Z"/><path class="cls-7" d="M132.67,468.13s-19.5,16.07-25.4,39.25,5.59,46.22,5.59,46.22L165.1,564S189,521.68,185.35,499.8s-13.68-23.88-13.68-23.88Z"/><rect class="cls-8" x="144.9" y="471.65" width="3.89" height="69.97" transform="translate(101.96 -18.94) rotate(11.28)"/><path class="cls-9" d="M137,446.39s-8.94.6-11,9.51,2.48,11.41,2.48,11.41l53.23,10.61s5.81-2.47,5.92-13.58c.05-5-7.78-12.07-7.78-12.07Z"/><path class="cls-1" d="M123.06,373.53s2.59-4.93,1.24-9.52a21.57,21.57,0,0,0-5.36-8.56l.46,4.44-.76-7.42a25.81,25.81,0,0,0-4.48,12.79c-.19,2.79,5,8.42,5,8.42Z"/><path class="cls-1" d="M140.18,415.12s2.9-6.21-.44-11.53-5.18-5.08-5.18-5.08a12.32,12.32,0,0,0-1.1-6.24,12.75,12.75,0,0,0-5.23-5.73s.27-5.48-2.09-8.81-3.08-4.2-3.08-4.2l-3.93.15a56,56,0,0,0,0,8.29,7.79,7.79,0,0,0,2.19,4.75,15.13,15.13,0,0,0,.26,8.39,12.11,12.11,0,0,0,3.35,5.35s1.85,8.27,3.26,11.06a18,18,0,0,0,6.81,7Z"/><path class="cls-10" d="M119.27,377l5.63-.51a2.66,2.66,0,0,0,2.4-2.89h0a2.65,2.65,0,0,0-2.88-2.4l-5.63.51a2.66,2.66,0,0,0-2.4,2.89h0A2.65,2.65,0,0,0,119.27,377Z"/><path class="cls-1" d="M228.35,400.3s1.13-5.45,5.08-8.14A21.68,21.68,0,0,1,243,389l-3.17,3.14,5.31-5.25a25.82,25.82,0,0,1-4.67,12.72c-1.63,2.29-9.18,3.36-9.18,3.36Z"/><path class="cls-1" d="M188.71,421.57s1.71-6.64,7.67-8.64,7.22-.63,7.22-.63a12.31,12.31,0,0,1,4.82-4.12,12.8,12.8,0,0,1,7.67-1.11s3.27-4.4,7.21-5.48,5-1.29,5-1.29l2.94,2.62a55.88,55.88,0,0,1-5.27,6.4,7.86,7.86,0,0,1-4.71,2.28,15.13,15.13,0,0,1-5.52,6.31,12.23,12.23,0,0,1-6,2s-6.69,5.21-9.54,6.47a18,18,0,0,1-9.68,1.06Z"/><path class="cls-11" d="M159.39,603.26s-3.18,4.1-4.4,4.06a8.35,8.35,0,0,0-6.73,4,72.25,72.25,0,0,0-4.4,7.71s24,11.75,25.07,11.75,5-6.57,5.58-8.5,4.36-10.55,4.36-10.55S174,603.92,159.39,603.26Z"/><path class="cls-11" d="M93.12,579.75s.3,5.17,1.32,5.83a8.36,8.36,0,0,1,3.29,7.09,72.33,72.33,0,0,1-.75,8.85S70.51,597.57,69.67,597s-.39-8.25.22-10.17,2.4-11.16,2.4-11.16S80.72,572,93.12,579.75Z"/><rect class="cls-12" x="117.18" y="547.34" width="50.5" height="2.11" transform="translate(110.04 -17.27) rotate(11.28)"/><path class="cls-9" d="M183.43,620.63a33.43,33.43,0,0,0-8.19-7.36,31.65,31.65,0,0,0-12.73-4.85c-11.17-1.6-12.89-.09-13.15.45l7.52-31.46s-7.87,3-23-4.34-20.78-21.73-20.78-21.73L102.5,589.41s-11.17-4.48-22.86-10.08c-2.19-1.05-4-1.94-5.54-2.69-6.59-3.25-7.45-3.93-7.45-3.93s6.85-9.18,10.18-17.05c1.23-2.89,4-10.26,7.3-18.57h0c2.43-6.23,5.11-13,7.52-18.74,3.15-7.55,5.87-13.44,7-14.33,0,0,6.08-7.83,18.88-1.51s23.7,42.41,28.82,45.69,9-1.21,12.51-4.79,13-15,23.18-11.71c7.54,2.44,9.59,12.93,9.15,24.14A91,91,0,0,1,190,567.44c-.62,3.73-1.35,9-2.1,14.84C185.75,599.23,183.43,620.63,183.43,620.63Z"/><path class="cls-13" d="M183.43,620.63a33.43,33.43,0,0,0-8.19-7.36s2.26-17.62,4.95-24.81c2.62-7,7.5-6.22,7.73-6.18C185.75,599.23,183.43,620.63,183.43,620.63Z"/><path class="cls-13" d="M85.25,552.61a87.34,87.34,0,0,1-11.15,24c-6.59-3.25-7.45-3.93-7.45-3.93s6.85-9.18,10.18-17.05c1.23-2.89,4-10.26,7.3-18.57h0S89,539.16,85.25,552.61Z"/><path class="cls-14" d="M191.23,555.83c-2-1.23-4-4.58-6.81-6-12.25-6.2-13.32,2.56-34,5.74s-21.09-25.08-34.1-35.2-24.66-2-24.66-2c3.15-7.55,5.87-13.44,7-14.33,0,0,6.08-7.83,18.88-1.51s23.7,42.41,28.82,45.69,9-1.21,12.51-4.79,13-15,23.18-11.71C189.62,534.13,191.67,544.62,191.23,555.83Z"/><path class="cls-15" d="M193.92,416.76l-27.63-5.52-.52-.1-27.63-5.51s-6.16,28.18-3.08,36.76,13.17,16.71,17.14,18.12l3.48,1.23,0,.07.27,0,.25.09,0-.08,3.67.2c4.22.23,16.65-3.42,22.79-10.16S193.92,416.76,193.92,416.76Z"/><path class="cls-15" d="M136.87,414.82s-3.21-2.58-3.86-.77-1.4,12.59,1.44,12.87S136.87,414.82,136.87,414.82Z"/><path class="cls-15" d="M191.31,425.74s3.95-1.15,3.86.77-3.54,12.16-6.27,11.33S191.31,425.74,191.31,425.74Z"/><path class="cls-1" d="M140.36,416.71l-1.48,5a76.82,76.82,0,0,0,9.35,1.87A114.09,114.09,0,0,1,160,426.08l2.16-5,.52,5.55s8.38,1.52,13,2.59,11,2.2,11,2.2,1.61-4.06,1-5.23S140.36,416.71,140.36,416.71Z"/><path class="cls-10" d="M192.55,415.06l-26.12-4.89h0l-.29-.06-.3-.06h0l-26-5.5s.56-1.08,1.55-2.78l.93-1.58a83.35,83.35,0,0,1,10.21-13.85l.58-.6c.46-.47.94-.93,1.42-1.37l.61-.55a20.41,20.41,0,0,1,5.51-3.6c8.54-3.51,11.37-3.86,12.1-3.88v0l.11,0h.1v0c.67.29,3.16,1.7,9.7,8.22a16.78,16.78,0,0,1,2.22,2.81c.15.22.29.45.43.69a35.74,35.74,0,0,1,2.83,6.17c.1.26.19.52.28.79a88,88,0,0,1,3.49,15c.11.66.19,1.27.26,1.82C192.44,413.85,192.55,415.06,192.55,415.06Z"/><path class="cls-9" d="M196.83,421.21,195.67,427a5.2,5.2,0,0,1-6.07,4.09l-52.94-10.57a5.19,5.19,0,0,1-4.08-6.11l1.16-5.82a5.19,5.19,0,0,1,6.11-4.08l52.9,10.55A5.19,5.19,0,0,1,196.83,421.21Z"/><path class="cls-16" d="M192.18,411.9,141.4,401.77l.93-1.58,49.59,9.89C192,410.74,192.11,411.35,192.18,411.9Z"/><path class="cls-16" d="M182.2,390.19h0l-.68.45h0l-.45-.68h0l-2.18-3.26-4,2.64h0l-2.63-3.95L168.37,388l-2.63-3.94-3.26,2.17h0l-.68.45h0l-.45-.67h0l-2.18-3.26-3.94,2.63h0l-.68-1,.61-.55.3.45,3.27-2.18h0l.68-.45h0l.45.67h0l2.18,3.26,3.26-2.18h0L166,383h0l.45.67h0l2.19,3.27,3.27-2.19h0l.68-.45h0l.45.68h0l2.19,3.27,3.27-2.18h0l.67-.45h0l.45.68h0l2.17,3.26,3.14-2.09c.15.22.29.45.43.69Z"/><path class="cls-16" d="M188.43,395.07l-1.07.72v0h0l-2.63-3.95L181.44,394h0l-.68.45h0l-.46-.68h0l-2.17-3.26-3.95,2.63h0l-2.64-4-3.94,2.63L165,387.9l-3.27,2.18h0l-.68.45h0l-.45-.67h0l-2.18-3.26-3.94,2.63h0l-1.92-2.88.58-.6,1.57,2.36,3.27-2.19h0l.67-.45h0l.45.67h0l2.17,3.26,3.26-2.18h0l.68-.45h0l.46.67h0l2.18,3.27,3.27-2.18h0l.68-.45h0l.46.68h0l2.18,3.27,3.28-2.18h0l.68-.45h0l.45.68h0l2.18,3.26,3.26-2.17h0l.67-.45h0l.45.68h0l2.19,3.28.58-.38C188.25,394.54,188.34,394.8,188.43,395.07Z"/><path class="cls-9" d="M181.45,376.32a8.4,8.4,0,1,1-6.6-9.89,8.66,8.66,0,0,1,1.94.64A8.42,8.42,0,0,1,181.45,376.32Z"/><path class="cls-14" d="M181.45,376.32a8.42,8.42,0,0,1-7.85,6.75,8.41,8.41,0,0,1,3.19-16A8.42,8.42,0,0,1,181.45,376.32Z"/><rect class="cls-14" x="132.06" y="413.98" width="12.63" height="0.98" transform="translate(-295.16 469.07) rotate(-78.72)"/><rect class="cls-14" x="136.39" y="414.84" width="12.63" height="0.98" transform="translate(-292.52 474.02) rotate(-78.72)"/><rect class="cls-14" x="140.72" y="415.71" width="12.63" height="0.98" transform="translate(-289.89 478.96) rotate(-78.72)"/><rect class="cls-14" x="145.05" y="416.57" width="12.63" height="0.98" transform="translate(-287.25 483.9) rotate(-78.72)"/><rect class="cls-14" x="149.38" y="417.44" width="12.63" height="0.98" transform="translate(-284.61 488.85) rotate(-78.72)"/><rect class="cls-14" x="153.71" y="418.3" width="12.63" height="0.98" transform="translate(-281.98 493.79) rotate(-78.72)"/><rect class="cls-14" x="158.05" y="419.17" width="12.63" height="0.98" transform="translate(-279.34 498.73) rotate(-78.72)"/><rect class="cls-14" x="162.38" y="420.03" width="12.63" height="0.98" transform="translate(-276.7 503.68) rotate(-78.72)"/><rect class="cls-14" x="166.71" y="420.89" width="12.63" height="0.98" transform="translate(-274.07 508.62) rotate(-78.72)"/><rect class="cls-14" x="171.04" y="421.76" width="12.63" height="0.98" transform="translate(-271.43 513.56) rotate(-78.72)"/><rect class="cls-14" x="175.38" y="422.62" width="12.63" height="0.98" transform="translate(-268.79 518.51) rotate(-78.72)"/><rect class="cls-14" x="179.7" y="423.49" width="12.63" height="0.98" transform="translate(-266.16 523.45) rotate(-78.72)"/><rect class="cls-14" x="184.04" y="424.35" width="12.63" height="0.98" transform="translate(-263.52 528.39) rotate(-78.72)"/><path class="cls-10" d="M229,405.42l-4-4a2.65,2.65,0,0,1,0-3.75h0a2.64,2.64,0,0,1,3.75,0l4,4a2.66,2.66,0,0,1,0,3.76h0A2.66,2.66,0,0,1,229,405.42Z"/><path class="cls-1" d="M153.82,431.64a1.16,1.16,0,0,1-.88-.78c0-.08-.86-2.39-4.66-3.05-3.48-.63-5.18,1.05-5.25,1.12a1.17,1.17,0,0,1-1.71-1.61c.11-.11,2.58-2.69,7.38-1.82l.21,0c5,1,6.21,4.44,6.26,4.59a1.18,1.18,0,0,1-.75,1.48A1.22,1.22,0,0,1,153.82,431.64Z"/><path class="cls-1" d="M180.84,437a1.19,1.19,0,0,1-.89-.78c0-.09-.87-2.39-4.66-3.05-3.48-.63-5.17,1.05-5.24,1.12a1.19,1.19,0,0,1-1.66,0,1.18,1.18,0,0,1,0-1.65c.1-.11,2.57-2.69,7.37-1.82l.21,0c5,1,6.22,4.44,6.26,4.59a1.17,1.17,0,0,1-.75,1.48A1.19,1.19,0,0,1,180.84,437Z"/><path class="cls-1" d="M157.66,452.92c-7.27-1.45-10.19-6.39-10.31-6.61a.78.78,0,0,1,.28-1.07.77.77,0,0,1,1.07.29,14.44,14.44,0,0,0,10.14,6c7.24,1.07,9.87-1.85,9.9-1.88a.79.79,0,0,1,1.1-.08.77.77,0,0,1,.09,1.09c-.12.15-3.13,3.63-11.32,2.42Z"/><path class="cls-10" d="M132.68,468.08s-10.21-4.06-17.63,0c-5.31,2.87-11.85,7.82-15.34,18.82-5.27,16.65,5.59,60.51,9.13,61.56s22.78-2,26-5.92-7-33.72-6.76-43.73c.36-14.51,12.29-29.15,12.29-29.15Z"/><path class="cls-10" d="M180.39,477.6s8.17,2.17,12.79,6.95,5.69,12.19,6.29,22.21c1,17.55-28.38,53.73-32.05,53.35s-20.25-10.64-21.75-15.46,19-28.59,23-37.78c6.16-14.05-2.32-32.06-2.32-32.06Z"/><path class="cls-15" d="M118.14,551.52a63.71,63.71,0,0,1-1.84,9.2c-1.3,4.53,4,13.63,11.28,10.45s10.57-8.11,9-12.21-7.74-9-7.74-9Z"/><path class="cls-15" d="M150.5,554.48a63.43,63.43,0,0,1-8,4.95c-4.2,2.15-7.18,12.27.08,15.38S155.76,577,157.68,573s1.26-11.78,1.26-11.78Z"/><path class="cls-17" d="M112.92,548.56s-1,5.23,4,6.11,16.15-3.15,16.82-5.45-2.49-4.54-2.49-4.54Z"/><path class="cls-17" d="M149.2,548.22s-5.43,2.16-3.07,6.2,13.12,9.75,15.66,9,2.6-4.26,2.6-4.26Z"/><path class="cls-4" d="M174,575.79a4.06,4.06,0,0,0-4.82,3.49c-.83,7-2.91,21.19-7.07,33.39-5.77,17-11.14,21.86-11.14,21.86l10.36,2.07s7-8.33,11.94-27.82a118.93,118.93,0,0,0,4-28.84,4,4,0,0,0-3.25-4.15Z"/><path class="cls-4" d="M96.73,560.37a4.05,4.05,0,0,0-4.81,3.49c-.84,7-2.91,21.19-7.07,33.39-5.77,17-11.15,21.86-11.15,21.86l10.37,2.07s7-8.33,11.94-27.82a119.47,119.47,0,0,0,4-28.84,4.07,4.07,0,0,0-3.26-4.15Z"/><rect class="cls-18" x="85.44" y="593.15" width="10.91" height="2.87" transform="translate(118.09 -6.29) rotate(11.28)"/><rect class="cls-18" x="161.13" y="609.8" width="11.77" height="2.87" transform="translate(122.81 -20.86) rotate(11.28)"/><path class="cls-18" d="M161.2,610.4c0-.33-2.59-33-7.71-40.46s-22.17-9.29-31.08-3.58c-9.4,6-27.21,28.82-27.39,29L93.17,594c.74-1,18.24-23.35,28-29.59,10.18-6.52,28.44-4.26,34.28,4.23,5.48,8,8,40.24,8.12,41.61Z"/><path class="cls-19" d="M724,462.5a28.68,28.68,0,0,0,15.83,2.15s-1.58-3.49-6.89-4.45C725.62,458.88,724,462.5,724,462.5Z"/><path class="cls-11" d="M689.8,454.49s.09,1.12-.84,1.12-3-2.34-4.86-2.06-3.45,2.9-3.54,4l-.1,1.12,17.28,5.13a8.83,8.83,0,0,0,.65-2.05v-.56s1.12-.56,1.12-1.4a21.49,21.49,0,0,1,1-3.69Z"/><path class="cls-11" d="M727.51,460.41s-1.08,2.16-1.64,2.26a3.88,3.88,0,0,0-2.71,2.42,35.17,35.17,0,0,0-1.3,3.92s12,3.18,12.51,3.09,1.68-3.46,1.77-4.39,1-5.21,1-5.21S734.23,459.39,727.51,460.41Z"/><path class="cls-2" d="M732.35,417.44c.14.63,1.93,9.38.18,13.4-1.82,4.18-4.54,5.08-4.54,5.08H704s-2.73-.9-4.54-5.08c-1.75-4,0-12.77.17-13.4h0a.16.16,0,0,0,0,0l-.09-.46v0c-.11-.57-.33-1.74-.81-4.22a22.07,22.07,0,0,1-.23-4.94,53.3,53.3,0,0,1,1.26-9.08,7.8,7.8,0,0,1,.24-.87c.26-.69,3.08-2.12,5.94-3.41l1.72-.76h0c2.43-1.05,4.49-1.86,4.49-1.86h7.72s11.6,4.59,12.14,6,2.18,10.17,1.27,14.89c-.47,2.48-.7,3.65-.8,4.22l-.1.5Z"/><path class="cls-15" d="M723.27,378.34a1.81,1.81,0,0,0-1.81-1.71H710.93a1.82,1.82,0,0,0-1.81,1.71c-.15,2.54-.28,7.15.65,8.46,1.32,1.84,4,4.38,5.26,4.82a5.39,5.39,0,0,0,2.33,0c1.32-.44,3.95-3,5.26-4.82C723.56,385.49,723.43,380.88,723.27,378.34Z"/><path class="cls-13" d="M723.36,384.6a7.25,7.25,0,0,1-2.92.83,13.26,13.26,0,0,0-3.76.29,1.74,1.74,0,0,1-1.06,0,13.26,13.26,0,0,0-3.76-.29,7.25,7.25,0,0,1-2.92-.83s-.71,3.51,3.18,7.55c2.87,3,3.76,3.15,4,3,.27.12,1.16-.06,4-3C724.07,388.11,723.36,384.6,723.36,384.6Zm-3.84,3.18c-1.32,2.46-5.64,1.79-6.53-.12-.33-.7,2.39-.42,3-.42h.23C716.92,387.24,719.89,387.1,719.52,387.78Z"/><path class="cls-15" d="M723,378.48s.25-1.64,1.07-.82.69,4.33-.19,4.74-1.58-.64-1.58-.64Z"/><path class="cls-15" d="M709.32,378.8s-.28-1.74-1.1-.93-.65,4.43.22,4.84,1.58-.63,1.58-.63Z"/><path class="cls-20" d="M723.3,377.78a1.23,1.23,0,0,0-1.22-1.15h-11.7a1.23,1.23,0,0,0-1.22,1.15c-.06,1.13-.14,3-.09,5l.44-.71s-.13-3.24.31-3.85,5.25-.78,6.41-.83,6,.29,6.41.83.31,3.85.31,3.85l.44.71C723.44,380.75,723.36,378.91,723.3,377.78Z"/><circle class="cls-20" cx="712.38" cy="381.84" r="0.98"/><path class="cls-20" d="M720.63,381.84a1,1,0,1,1-1-1A1,1,0,0,1,720.63,381.84Z"/><circle class="cls-9" cx="716.71" cy="366.46" r="3.22"/><path class="cls-12" d="M709.74,388.78a6,6,0,0,0-2,3c-.82,2.2,8.46,3.43,8.46,3.43Z"/><path class="cls-12" d="M722.5,388.57a6.71,6.71,0,0,1,2.33,3.18c.82,2.2-8.46,3.43-8.46,3.43Z"/><path class="cls-12" d="M732.35,417.4v0H699.6l-.08-.5v0h32.94Z"/><rect class="cls-21" x="715.25" y="395.18" width="1.46" height="40.74"/><rect class="cls-12" x="703.97" y="435.92" width="24.09" height="1"/><path class="cls-2" d="M706.72,394.19v12s-1.18.56-8.25,1.53c-.92.13-1.94.26-3.07.4-9.8,1.22-23.72,2.09-23.72,2.09l-1.7-5a41.18,41.18,0,0,1,6.42-3c.5-.2,1-.39,1.57-.59,4.73-1.72,23.76-6.25,27.94-7.23Z"/><path class="cls-2" d="M760.71,424.57l-3.89,3.56s-11.77-7.47-19.78-13.26c-1.45-1.05-2.67-1.95-3.69-2.73-4.64-3.51-5.3-4.42-5.3-4.42l3-5.44,1.41-2.58.23-.41,1.16-2.11,0,.05c.66.6,7.58,6.84,13.53,12.41h0c3.51,3.3,6.69,6.37,8,7.9A45.49,45.49,0,0,1,760.71,424.57Z"/><path class="cls-2" d="M734.07,400.41a47,47,0,0,1-.76,5l-2.26-3.09-6.17-8.42h0s.61.12,1.52.33h0c2.4.55,6.87,1.74,7.5,3l0,.06A8.26,8.26,0,0,1,734.07,400.41Z"/><path class="cls-9" d="M724,462.5v.08A.45.45,0,0,1,724,462.5Z"/><path class="cls-9" d="M739.85,464.65a14.83,14.83,0,0,0-4.2-2.49,14.09,14.09,0,0,0-6-1c-5,.28-5.61,1.08-5.67,1.34l.54-14.33s-3.17,2-10.38.1a19.81,19.81,0,0,1-10.92-7.64L702,458.09s-5.25-1-10.82-2.4c-1-.26-1.91-.49-2.64-.69a29.92,29.92,0,0,1-3.58-1.06,44.73,44.73,0,0,0,3-8.3c.28-1.36.87-4.81,1.56-8.71h0c.52-2.92,1.1-6.08,1.65-8.8.71-3.56,1.38-6.35,1.81-6.84,0,0,2-3.94,8.08-2.3s14,16.39,16.5,17.37,3.82-1.31,5-3.17,4.37-7.64,9.07-7.1c3.49.41,5.29,4.79,6.07,9.7a39.29,39.29,0,0,1,.48,5.16c.06,1.67.2,4,.38,6.63C739,455.14,739.85,464.65,739.85,464.65Z"/><path class="cls-13" d="M739.85,464.65a14.83,14.83,0,0,0-4.2-2.49s-.54-7.86,0-11.22,2.72-3.35,2.83-3.36C739,455.14,739.85,464.65,739.85,464.65Z"/><path class="cls-13" d="M691.26,443.59A38.89,38.89,0,0,1,688.49,455a29.92,29.92,0,0,1-3.58-1.06,44.73,44.73,0,0,0,3-8.3c.28-1.36.87-4.81,1.56-8.71h0S691.71,437.41,691.26,443.59Z"/><path class="cls-9" d="M758.71,476.82a3,3,0,0,1-.07.71h0c-.36,1.5-1.93,3.18-4.33,4.43-4.47,2.33-11.85-.38-17.45-2.24s-65.7-16.8-68-17.59S655.15,451,654.74,450.6l0,0,.25.16c6.53,3.61,78.2,20.46,83.33,21.38s14.38.83,18.2,2.24C758,474.93,758.68,475.8,758.71,476.82Z"/><path class="cls-13" d="M670,405.24s-2.42.67-3.51,1-3.45.18-5.45,0-3.63,2.27-3.26,4.45,3.54,3.78,5.26,3.12,2.63-1.61,2.73-1.18-.91.87.36,1.33,1.36-1.82,2.9-2.63a14.81,14.81,0,0,1,2.67-1.13Z"/><path class="cls-13" d="M756.82,428.13s2.62,1.48,2.89,2.38,2.39,5.23,4.48,5.41,5.85-1.65,5.81-4.56c0-1.76-1.66-3.66-3.93-4.39s-5-1.78-5.36-2.4Z"/><rect class="cls-9" x="707.63" y="375.65" width="16.99" height="4.31" rx="2.16" ry="2.16"/><path class="cls-13" d="M708.57,375.65s2.95-7.36,7.8-7.48,7.32,7.48,7.32,7.48Z"/><path class="cls-14" d="M758.71,476.82s0,.25-.07.71h0c-.36,1.5-1.93,3.18-4.33,4.43-4.47,2.33-11.85-.38-17.45-2.24s-65.7-16.8-68-17.59S655.15,451,654.74,450.6l0,0,.25.16c2,1.26,14.06,8.76,20.26,11.63,6.78,3.15,65.08,17.8,72.81,18.22S758.71,476.82,758.71,476.82Z"/><path class="cls-16" d="M670,457.21l3.81.91,10,2.45,6.69,1.67L698,464.1l16.2,4.11,8.22,2.1c2.72.69,5.38,1.4,8,2s5.12,1.05,7.53,1.44,4.7.67,6.82.89,4.06.36,5.79.51a39.72,39.72,0,0,1,4.47.54c.31.07.6.16.86.24l.75.22,1.17.36,1,.31-3.81-.9a39.56,39.56,0,0,0-4.45-.41c-1.72-.11-3.68-.23-5.81-.42s-4.43-.42-6.86-.77-5-.81-7.58-1.39-5.28-1.28-8-1.95-5.48-1.36-8.23-2.08l-16.18-4.2c-2.58-.66-5.07-1.34-7.43-2L683.7,461c-4.12-1.1-7.55-2.06-10-2.71Z"/><path class="cls-14" d="M737.62,435.79c-1-.36-2.15-1.64-3.48-2-5.86-1.63-5.57,2.27-14.29,5.45s-11.34-9.08-17.88-12.35a9.32,9.32,0,0,0-10.9,1.25c.71-3.56,1.38-6.35,1.81-6.84,0,0,2-3.94,8.08-2.3s14,16.39,16.5,17.37,3.82-1.31,5-3.17,4.37-7.64,9.07-7.1C735,426.5,736.84,430.88,737.62,435.79Z"/><path class="cls-22" d="M707.63,393.62a5.1,5.1,0,0,1-.91,1.09,19.49,19.49,0,0,1-6.48,3.76l-.51.19c-6.19,2.2-16.91,2.77-19.91,3.55a7.3,7.3,0,0,1-3.42,0c.5-.2,1-.39,1.57-.59,4.73-1.72,23.76-6.25,27.94-7.23Z"/><path class="cls-22" d="M747.43,409.64c-2.39-.26-8.15-4.91-11.87-8l-1.49-1.23-1.38-1.12-.39-.32c-1.91-1.56-3.77-3.06-4.87-4-.61-.49-1-.8-1-.83,2.4.55,6.87,1.74,7.5,3C734.56,397.83,741.48,404.07,747.43,409.64Z"/><g class="cls-23"><path class="cls-16" d="M756.55,474.4c-3.82-1.41-13-1.31-18.2-2.24-.52-.1-1.73-.36-3.48-.74a15.85,15.85,0,0,0,1.27-3.71c.05-.45.29-1.67.52-2.82a30.22,30.22,0,0,0,3.19-.24s-.85-9.51-1.37-17.07c-.18-2.59-.32-5-.38-6.63a39.29,39.29,0,0,0-.48-5.16c-.64-4-2-7.69-4.35-9.11a44.12,44.12,0,0,0-.92-9.24v0l.1-.5c.1-.57.33-1.74.8-4.22,0-.17.06-.36.09-.55h0c1,.78,2.24,1.68,3.69,2.73,8,5.79,19.78,13.26,19.78,13.26l3.89-3.56a45.49,45.49,0,0,0-5.25-7c-1.34-1.53-4.52-4.6-8-7.9h0c-5.95-5.57-12.87-11.81-13.53-12.41-.63-1.3-5.1-2.49-7.5-3h0c-.91-.21-1.52-.33-1.52-.33h0l-1.23-.54c.88-.45,1.41-1,1.18-1.57a6.83,6.83,0,0,0-2.21-3.09,7.22,7.22,0,0,0,.74-4.06l-.13.07c.07-.6.12-1.26.14-1.94l0,0v-.29a1,1,0,0,0,.5-.08c.68-.32.91-2.51.59-3.86a2,2,0,0,0,.14-.74h0a2.15,2.15,0,0,0-2.16-2.15h1.23s-1.63-5-4.82-6.82a3.21,3.21,0,1,0-5.38-2.37,3.18,3.18,0,0,0,.88,2.2c-3.65,1.65-5.8,7-5.8,7h1.22a2.16,2.16,0,0,0-2.16,2.15h0a2.2,2.2,0,0,0,.2.9c-.33,1.36-.08,3.69.61,4a1,1,0,0,0,.59.08c0,.68.07,1.34.14,1.93l-.23-.12a7.28,7.28,0,0,0,.81,4.19h0a6,6,0,0,0-2,3c-.21.54.2,1,.93,1.44l-1,.42h0c-.56.24-1.14.49-1.72.76-4.18,1-23.21,5.51-27.94,7.23-.55.2-1.07.39-1.57.59a41.18,41.18,0,0,0-6.42,3l.85,2.49-.85-2.49s-2.42.67-3.51,1-3.45.18-5.45,0-3.63,2.27-3.26,4.45,3.54,3.78,5.26,3.12,2.63-1.61,2.73-1.18-.91.87.36,1.33,1.36-1.82,2.9-2.63a14.81,14.81,0,0,1,2.67-1.13h0s13.92-.87,23.72-2.09c1.13-.14,2.15-.27,3.07-.4a22.07,22.07,0,0,0,.23,4.94c.48,2.48.7,3.65.81,4.22v0l.08.5h0c0,.13-.12.58-.23,1.24-4.86-.61-6.49,2.61-6.49,2.61-.43.49-1.1,3.28-1.81,6.84-.55,2.72-1.13,5.88-1.65,8.8h0c-.69,3.9-1.28,7.35-1.56,8.71a43.51,43.51,0,0,1-2.8,8,2.6,2.6,0,0,0-1-.06c-1.86.28-3.45,2.9-3.54,4l-.06.7c-12.75-3.29-23.17-6.22-25.48-7.49l-.25-.16,0,0c.41.38,11.79,10.74,14.08,11.53s62.44,15.72,68,17.59,13,4.57,17.45,2.24c2.4-1.25,4-2.93,4.33-4.43h0c.05-.46.07-.71.07-.71C758.68,475.8,758,474.93,756.55,474.4ZM688.49,455l1.11.3a.75.75,0,0,1-.64.31,5,5,0,0,1-1.83-1Zm9.9,6.77v-.56s1.12-.56,1.12-1.4a10.31,10.31,0,0,1,.48-2.1c1.22.25,2,.38,2,.38l1.31-17.47a19.81,19.81,0,0,0,10.92,7.64c7.21,1.86,10.38-.1,10.38-.1L724,462.49a.44.44,0,0,1,.09-.16,1.57,1.57,0,0,0-.09.17s.37.19,1,.46a4.23,4.23,0,0,0-1.9,2.13,34.9,34.9,0,0,0-1.15,3.36c-6.93-1.63-15.34-3.65-23.84-5.74A3.61,3.61,0,0,0,698.39,461.77Z"/><path class="cls-16" d="M766.07,427c-2.27-.72-5-1.78-5.36-2.4l-3.89,3.56s2.62,1.48,2.89,2.38,2.39,5.23,4.48,5.41,5.85-1.65,5.81-4.56C770,429.6,768.34,427.7,766.07,427Z"/></g></svg>