<svg xmlns="http://www.w3.org/2000/svg" viewBox="0 0 792 648"><defs><style>.cls-1{isolation:isolate;}.cls-2{fill:#231f20;opacity:0.1;}.cls-3{fill:#8b493f;}.cls-4{fill:#b36a50;}.cls-5{fill:#a45b41;}.cls-40,.cls-6{mix-blend-mode:multiply;}.cls-40,.cls-7{fill:#ded4db;}.cls-8{fill:#f6f3f5;}.cls-9{fill:#81911e;}.cls-10{fill:#fff;}.cls-11{opacity:0.3;}.cls-12{fill:#9ab7d1;}.cls-13{fill:#d9404e;}.cls-14{fill:#ffa528;}.cls-15{opacity:0.5;}.cls-16{fill:#e3b689;}.cls-17{fill:#daa77c;}.cls-18{fill:#c78c66;}.cls-19{fill:#9b5347;}.cls-20{fill:#ba6e51;}.cls-21{fill:#cf9875;}.cls-22{fill:#798919;}.cls-23{fill:#e42542;}.cls-24{fill:#c5112d;}.cls-25{fill:#ffc139;}.cls-26{fill:#f2b03a;}.cls-27{fill:#da7d25;}.cls-28{fill:#c62d38;}.cls-29{fill:#d23242;}.cls-30{fill:#e34759;}.cls-31{fill:#ee9027;}.cls-32{fill:#df8027;}.cls-33{fill:#d52445;}.cls-34{fill:#777c1f;}.cls-35{fill:#808120;}.cls-36{fill:#889921;}.cls-37{fill:#f03d5d;}.cls-38{fill:#e3dbe0;}.cls-39{fill:#f0ecef;}.cls-41,.cls-46{fill:#c09769;}.cls-41,.cls-42,.cls-43,.cls-56,.cls-57{fill-rule:evenodd;}.cls-42{fill:#f1bd82;}.cls-43{fill:#d8aa76;}.cls-44{fill:#8e704e;}.cls-45{fill:#a7835b;}.cls-47{fill:#6e3818;}.cls-48{fill:#3d2212;}.cls-49{fill:#735a3f;}.cls-50,.cls-57{fill:#babcba;}.cls-51,.cls-56{fill:#f1f1f2;}.cls-52{fill:#404041;}.cls-53{fill:#d5d7d5;}.cls-54{fill:#ec343a;}.cls-55{fill:#d12c33;}.cls-58{fill:#db2e31;}</style></defs><title>Christmas-Theme-Decorations</title><g class="cls-1"><g id="Layer_1" data-name="Layer 1"><path class="cls-2" d="M781.47,623c0,5.73-31.41,16.83-161.55,10.36-89.11-4.42-161.54-4.63-161.54-10.36s72.32-10.36,161.54-10.36S781.47,617.28,781.47,623Z"/><path class="cls-3" d="M684.69,471.89c12.52-6.25,22.57-9.52,24.52-6.84.79,1.09.23,3.13-1.36,5.84-11,18.65-71.17,68.79-81.7,54.3a5.83,5.83,0,0,1-1.12-3.56c0-3.54,2.63-8,7-12.76C643.4,496.23,666.62,480.94,684.69,471.89Z"/><path class="cls-4" d="M618.24,538c1,4.18,2.67,8.35,5.82,11.37.36.35.74.68,1.12,1,20.87,17.63,69-.58,104.33-72.73a.53.53,0,0,1,.06-.1,7.59,7.59,0,0,0-2.18-9.34s-5.39-6.11-17.67-8.4c-3.67-.68-9.26.25-15.93,2.38-11.9,3.8-27.19,11.47-41,20.68l-.78.52c-4.57,3.09-9,6.37-13.25,9.9a106,106,0,0,0-11,10.42,53.25,53.25,0,0,0-7.52,10.38,26.19,26.19,0,0,0-2.92,9A49.19,49.19,0,0,0,618.24,538ZM625,521.63c0-3.54,2.63-8,7-12.76,11.41-12.64,34.63-27.93,52.7-37,12.52-6.25,22.57-9.52,24.52-6.84.79,1.09.23,3.13-1.36,5.84-11,18.65-71.17,68.79-81.7,54.3A5.83,5.83,0,0,1,625,521.63Z"/><path class="cls-5" d="M729.51,477.66c27.44,12.61,52,40.78,52,73.51,0,22.39-6.05,42.63-19.8,57.21C748.1,622.79,727,631.67,696.8,631.67s-49.83-8.88-61.92-23.29c-7.37-8.8-12-19.65-14.43-31.79v0c-3.48-20.64,4.73-26.18,4.73-26.18C646.05,568,694.2,549.81,729.51,477.66Z"/><g class="cls-6"><path class="cls-7" d="M634.88,608.38c-6.63-7.91-11-17.48-13.6-28.15C636.35,603,699,601.39,718.6,597.58c19.8-3.85,39.54-12.37,51.64-27.84a48,48,0,0,0,10.15-30.39,66.12,66.12,0,0,1,1.08,11.82c0,22.39-6.05,42.63-19.8,57.21C748.1,622.79,727,631.67,696.8,631.67S647,622.79,634.88,608.38Z"/></g><path class="cls-8" d="M654.85,481.32a18.49,18.49,0,0,1-11.14-5.14,16.3,16.3,0,0,1,23,2.17A18.43,18.43,0,0,1,654.85,481.32Z"/><path class="cls-9" d="M646,471.72l5.82-6.48a.23.23,0,0,0-.15-.38l-1.85-.17a.23.23,0,0,1-.15-.38l4.06-4.52a.23.23,0,0,0-.15-.38l-1.1-.1a.23.23,0,0,1-.15-.38l4.95-5.51a.22.22,0,0,1,.36,0l3.84,6.34a.23.23,0,0,1-.22.34l-1.1-.11a.24.24,0,0,0-.22.35l3.15,5.2a.23.23,0,0,1-.22.34l-1.85-.18a.23.23,0,0,0-.22.35l4.51,7.45a.23.23,0,0,1-.22.34l-9.47-.89-9.47-.9A.22.22,0,0,1,646,471.72Z"/><path class="cls-10" d="M657.87,449.32a1.26,1.26,0,1,0,1.37-1.13A1.26,1.26,0,0,0,657.87,449.32Z"/><path class="cls-10" d="M666.92,459.84a1.25,1.25,0,0,0,2.49.23,1.25,1.25,0,1,0-2.49-.23Z"/><path class="cls-10" d="M667.67,468.67a1.27,1.27,0,0,0,1.14,1.37,1.26,1.26,0,0,0,.23-2.5A1.26,1.26,0,0,0,667.67,468.67Z"/><path class="cls-10" d="M665.23,464.16a.78.78,0,0,0,.7.86.79.79,0,1,0-.7-.86Z"/><path class="cls-10" d="M663.37,455.91a.78.78,0,0,0,.7.86.79.79,0,1,0-.7-.86Z"/><path class="cls-10" d="M647.71,460.07a.78.78,0,1,0,.85-.71A.79.79,0,0,0,647.71,460.07Z"/><path class="cls-10" d="M651.36,454.78a.77.77,0,0,0,.7.85.78.78,0,1,0-.7-.85Z"/><path class="cls-10" d="M656.44,458.85A.78.78,0,0,0,658,459a.79.79,0,0,0-.71-.86A.78.78,0,0,0,656.44,458.85Z"/><path class="cls-10" d="M641.93,460.38a.79.79,0,1,0,.86-.71A.79.79,0,0,0,641.93,460.38Z"/><path class="cls-10" d="M648.77,468.15a.79.79,0,1,0,.86-.71A.8.8,0,0,0,648.77,468.15Z"/><path class="cls-10" d="M662,470.19a.78.78,0,1,0,.85-.71A.78.78,0,0,0,662,470.19Z"/><path class="cls-10" d="M644.71,454.62a1.27,1.27,0,0,0,1.14,1.37,1.26,1.26,0,0,0,.23-2.5A1.26,1.26,0,0,0,644.71,454.62Z"/><path class="cls-10" d="M655.88,465.62a1.26,1.26,0,1,0,1.37-1.13A1.25,1.25,0,0,0,655.88,465.62Z"/><path class="cls-10" d="M642.92,466.66a1.26,1.26,0,0,0,2.5.24,1.26,1.26,0,1,0-2.5-.24Z"/><g class="cls-11"><path class="cls-12" d="M638.15,461.13a18.53,18.53,0,1,1,16.7,20.19A18.53,18.53,0,0,1,638.15,461.13Z"/></g><path class="cls-13" d="M641.55,475.9a.58.58,0,0,1,.61-.39L668.41,478a.59.59,0,0,1,.53.49l1.67,10.72-32.72-3.09Z"/><path class="cls-14" d="M637.74,485,671,488.11a1.11,1.11,0,0,1-.21,2.22l-33.24-3.13a1.12,1.12,0,0,1,.21-2.23Z"/><g class="cls-15"><path class="cls-10" d="M670.52,466.29a2.1,2.1,0,0,0,2.28-1.89A16.3,16.3,0,0,0,653,447a2.09,2.09,0,1,0,.92,4.08A12.11,12.11,0,0,1,668.63,464,2.1,2.1,0,0,0,670.52,466.29Z"/></g><path class="cls-16" d="M657.81,491.3a2.54,2.54,0,0,0,.09-.93,1.25,1.25,0,0,0-.5-.93l-.88-.66-1.44-1c-1.38-1-2.71-1.84-4-2.6-3-3-6.16-5.67-6.95-4.69a2,2,0,0,1,.37-1,7.57,7.57,0,0,1,4.45-3.22,2,2,0,0,1,2,.63,34.5,34.5,0,0,1,3.14,4.41,48.31,48.31,0,0,1,3,5.85c.56-1.6,1.14-3.07,1.77-4.46a35.3,35.3,0,0,1,3.37-6l.19-.27a2,2,0,0,1,2-.78,7.63,7.63,0,0,1,4.68,2.88,2,2,0,0,1,.44,1c-1.19-1.26-6.45,4.75-9.47,8.9h0a28.63,28.63,0,0,0-1.85,2.82,4.44,4.44,0,0,0-.22.43h-.07l-.24,0a2.67,2.67,0,0,0,.14-.36Z"/><path class="cls-17" d="M658.86,482.63c-.63,1.39-1.21,2.86-1.77,4.46a48.31,48.31,0,0,0-3-5.85,35,35,0,0,1,0-5.42,2,2,0,0,1,1.3-1.69,7.54,7.54,0,0,1,5.49,0,1.93,1.93,0,0,1,.89.61C660.58,474.45,659.52,478.45,658.86,482.63Z"/><path class="cls-17" d="M640.33,487.7a7.61,7.61,0,0,1,2.14-5.06,2,2,0,0,1,2.07-.52l.31.11a36,36,0,0,1,6.21,2.9c1.31.76,2.64,1.63,4,2.6l1.44,1,.88.66a1.25,1.25,0,0,1,.5.93,2.54,2.54,0,0,1-.09.93h0a2.67,2.67,0,0,1-.14.36,2.26,2.26,0,0,1-.11.22l0,.05a1.26,1.26,0,0,1-.25.31c0-.07-.09-.17-.29-.29a3.79,3.79,0,0,0-.42-.23,27.44,27.44,0,0,0-3.15-1.22h0c-4.86-1.62-12.63-3.46-12.87-1.74A2,2,0,0,1,640.33,487.7Z"/><path class="cls-18" d="M658.2,491.2a28.63,28.63,0,0,1,1.85-2.82h0c3-4.15,8.28-10.16,9.47-8.9a2,2,0,0,1-.27,1.31,32.22,32.22,0,0,1-10.51,11,1.29,1.29,0,0,1-.83.2s0-.19.06-.4A4.44,4.44,0,0,1,658.2,491.2Z"/><path class="cls-18" d="M658.86,482.63c.66-4.18,1.72-8.18,2.93-7.85a2,2,0,0,1,.45,1.26c0,.21,0,.43,0,.63A35.3,35.3,0,0,0,658.86,482.63Z"/><path class="cls-18" d="M653.41,490.5h0a27.44,27.44,0,0,1,3.15,1.22,3.79,3.79,0,0,1,.42.23c.2.12.3.22.29.29a1.35,1.35,0,0,1-.8.32,32.24,32.24,0,0,1-15-2.89,2,2,0,0,1-1-.91C640.78,487,648.55,488.88,653.41,490.5Z"/><path class="cls-18" d="M651.06,485.13a36,36,0,0,0-6.21-2.9c-.12-.16-.25-.33-.37-.51a1.92,1.92,0,0,1-.37-1.28C644.9,479.46,648.09,482.1,651.06,485.13Z"/><path class="cls-3" d="M643.24,500.23l.06,0,2.37,7.41a1.59,1.59,0,0,0,1.76.74l-5.75,1.84a1.6,1.6,0,0,1-1.76-.73l-2.38-7.42h0Z"/><path class="cls-3" d="M652.48,505.45,650.11,498l6.21-2,2.37,7.42a1.59,1.59,0,0,0,1.76.73l-6.21,2A1.61,1.61,0,0,1,652.48,505.45Z"/><path class="cls-5" d="M674.65,498.35l-2.37-7.41.93-.3,6.46-2.07h0l2.38,7.41a1.6,1.6,0,0,1-1,1.62L673.64,500A1.6,1.6,0,0,0,674.65,498.35Z"/><path class="cls-5" d="M658.69,503.46,656.32,496h0l8-2.55,2.37,7.41a1.59,1.59,0,0,1-1,1.62l-5.21,1.67A1.59,1.59,0,0,1,658.69,503.46Z"/><path class="cls-19" d="M636.77,495.44l5.41-1.73A1.84,1.84,0,0,0,641,496l1.16,3.64a.88.88,0,0,0,1.09.56L637.56,502h0a1.12,1.12,0,0,1-1.38-.73l-.93-2.89A2.38,2.38,0,0,1,636.77,495.44Z"/><path class="cls-19" d="M654,492.42l.92,2.9a1.12,1.12,0,0,0,1.4.72h0l-6.21,2-.06,0a.88.88,0,0,1-1.09-.57l-1.16-3.63a1.85,1.85,0,0,1,1.2-2.32l6.54-2.09A2.36,2.36,0,0,0,654,492.42Z"/><path class="cls-20" d="M664.63,488.47l1.16,3.63a.86.86,0,0,1-.56,1.09l-.93.3-8,2.55a1.12,1.12,0,0,1-1.4-.72l-.92-2.9a2.36,2.36,0,0,1,1.53-3l6.77-2.17A1.85,1.85,0,0,1,664.63,488.47Z"/><path class="cls-20" d="M673.21,490.64a.87.87,0,0,0,.56-1.09l-1.16-3.63a1.84,1.84,0,0,0-2.32-1.2l6.19-2a2.36,2.36,0,0,1,3,1.54l.93,2.89a1.12,1.12,0,0,1-.71,1.4h0Z"/><path class="cls-17" d="M647.8,493.85l1.16,3.63a.88.88,0,0,0,1.09.57l-6.75,2.16-.06,0a.88.88,0,0,1-1.09-.56L641,496a1.84,1.84,0,0,1,1.19-2.32l6.82-2.18A1.85,1.85,0,0,0,647.8,493.85Z"/><path class="cls-21" d="M645.67,507.62l-2.37-7.41,6.75-2.16.06,0,2.37,7.42a1.61,1.61,0,0,0,1.76.73l-6.81,2.18A1.59,1.59,0,0,1,645.67,507.62Z"/><path class="cls-17" d="M666.67,500.9l-2.37-7.41.93-.3,7-2.25,2.37,7.41a1.6,1.6,0,0,1-1,1.62l-8,2.55A1.59,1.59,0,0,0,666.67,500.9Z"/><path class="cls-16" d="M672.61,485.92l1.16,3.63a.87.87,0,0,1-.56,1.09l-.93.3-7,2.25a.86.86,0,0,0,.56-1.09l-1.16-3.63a1.85,1.85,0,0,0-2.32-1.2l8-2.55A1.84,1.84,0,0,1,672.61,485.92Z"/><path class="cls-22" d="M728,451.15a8.71,8.71,0,0,1-8.18.27c-.86,1.08-3.19,3.23-7.38,1.86a31.83,31.83,0,0,1-2.47,6.53,3.25,3.25,0,0,1,3,1.69,18,18,0,0,1,6.11.21,6.47,6.47,0,0,1,5.3-4.68S723.8,453.91,728,451.15Z"/><path class="cls-22" d="M704.74,456.66a3.08,3.08,0,0,1,.91,0,31.67,31.67,0,0,1-.18-4.68c-4.42.15-6.06-2.57-6.58-3.84a8.7,8.7,0,0,1-7.79-2.56c3.3,3.84,1.86,6.68,1.86,6.68a6.46,6.46,0,0,1,3.79,6,17.71,17.71,0,0,1,5.22,1.21A3.26,3.26,0,0,1,704.74,456.66Z"/><path class="cls-22" d="M701.89,466a32.31,32.31,0,0,1-5.74,1.41c1,4.31-1.43,6.41-2.58,7.15a8.72,8.72,0,0,1-1.1,8.1c3.17-3.91,6.22-3,6.22-3a6.44,6.44,0,0,1,5.18-4.8,18.19,18.19,0,0,1,.41-6.12A3.3,3.3,0,0,1,701.89,466Z"/><path class="cls-23" d="M705.69,461.8a2.44,2.44,0,1,0-2.76-2.08A2.44,2.44,0,0,0,705.69,461.8Z"/><path class="cls-24" d="M710,459.81l-.32,0a3.17,3.17,0,0,0-1.26.45,3.45,3.45,0,0,0,0-.85,3.26,3.26,0,0,0-2.77-2.77,3.08,3.08,0,0,0-.91,0,3.26,3.26,0,0,0-2.77,2.79,3.32,3.32,0,0,0,0,.89,3.26,3.26,0,0,0,1.53,2.33,3.28,3.28,0,0,0-1.61,3.3h0a3.3,3.3,0,0,0,6.56-.12,3.2,3.2,0,0,0,2.12.43,3.25,3.25,0,0,0,2.78-3.67,3.38,3.38,0,0,0-.37-1.11A3.25,3.25,0,0,0,710,459.81Zm-3.11,2.89,0,0,0,0Zm-4-3a2.44,2.44,0,1,1,2.76,2.08A2.44,2.44,0,0,1,702.93,459.72Zm2.76,7.95a2.68,2.68,0,1,1,2.28-3A2.67,2.67,0,0,1,705.69,467.67Zm5.12-2.43a2.6,2.6,0,1,1,2.21-2.93A2.6,2.6,0,0,1,710.81,465.24Z"/><path class="cls-23" d="M710.09,460.1a2.6,2.6,0,1,0,2.93,2.21A2.6,2.6,0,0,0,710.09,460.1Z"/><path class="cls-23" d="M708,464.66a2.67,2.67,0,1,0-2.28,3A2.67,2.67,0,0,0,708,464.66Z"/><path class="cls-25" d="M682,475.82a4,4,0,0,0-.07-1.44,2,2,0,0,0-1-1.28l-1.49-.81c-.82-.44-1.62-.86-2.42-1.26-2.32-1.18-4.52-2.19-6.69-3.06-5.18-3.91-10.62-7.2-11.6-5.53a3.11,3.11,0,0,1,.33-1.63,11.63,11.63,0,0,1,6-5.89,3,3,0,0,1,3.24.49,52.45,52.45,0,0,1,5.75,6,73.49,73.49,0,0,1,5.85,8.21c.48-2.55,1-4.92,1.67-7.17a55.59,55.59,0,0,1,3.77-9.79c.07-.16.15-.31.23-.46a3,3,0,0,1,2.84-1.62,11.54,11.54,0,0,1,7.74,3.31,3,3,0,0,1,.9,1.39c-2.1-1.66-8.72,8.65-12.37,15.62h0a41.13,41.13,0,0,0-2.18,4.68,6.26,6.26,0,0,0-.23.71l-.11,0-.36.07a3.78,3.78,0,0,0,.13-.56Z"/><path class="cls-26" d="M681.59,462.43c-.65,2.25-1.19,4.62-1.67,7.17a73.49,73.49,0,0,0-5.85-8.21,53.44,53.44,0,0,1-1.21-8.22,3,3,0,0,1,1.58-2.86,11.67,11.67,0,0,1,8.35-1.17,3,3,0,0,1,1.48.73C682.36,449.63,681.65,456,681.59,462.43Z"/><path class="cls-26" d="M654.63,474.3a11.63,11.63,0,0,1,2.1-8.16,3,3,0,0,1,3-1.25l.5.09a56,56,0,0,1,10.06,3c2.17.87,4.37,1.88,6.69,3.06.8.4,1.6.82,2.42,1.26l1.49.81a2,2,0,0,1,1,1.28,4,4,0,0,1,.07,1.44h0a3.78,3.78,0,0,1-.13.56c0,.12-.07.25-.12.38l0,.07a1.92,1.92,0,0,1-.32.53c0-.11-.17-.24-.49-.38a7.24,7.24,0,0,0-.7-.26,44.68,44.68,0,0,0-5-1.13h0c-7.75-1.37-20-2.41-19.92.25A2.91,2.91,0,0,1,654.63,474.3Z"/><path class="cls-27" d="M682.52,475.57a41.13,41.13,0,0,1,2.18-4.68h0c3.65-7,10.27-17.28,12.37-15.62a2.94,2.94,0,0,1-.12,2c-3.34,7.82-6.86,13.18-13.45,19.11a2,2,0,0,1-1.21.5c-.09-.07-.08-.29,0-.63A6.26,6.26,0,0,1,682.52,475.57Z"/><path class="cls-27" d="M681.59,462.43c.06-6.48.77-12.8,2.68-12.56a3,3,0,0,1,1,1.81c0,.32.09.64.13,1A55.59,55.59,0,0,0,681.59,462.43Z"/><path class="cls-27" d="M675.1,475.6h0a44.68,44.68,0,0,1,5,1.13,7.24,7.24,0,0,1,.7.26c.32.14.49.27.49.38a1.91,1.91,0,0,1-1.13.65c-8.72,1.61-15.11,1.12-23.35-1a3,3,0,0,1-1.69-1.16C655.15,473.19,667.35,474.23,675.1,475.6Z"/><path class="cls-27" d="M670.32,468a56,56,0,0,0-10.06-3l-.69-.68a3.07,3.07,0,0,1-.85-1.86C659.7,460.77,665.14,464.06,670.32,468Z"/><path class="cls-28" d="M684.64,506.26,674,484.59l6.77-3.33,10.66,21.68a1.83,1.83,0,0,0,2.13.54l-6.76,3.32A1.84,1.84,0,0,1,684.64,506.26Z"/><path class="cls-28" d="M666.51,488.26l.06,0,10.66,21.67a1.83,1.83,0,0,0,2.13.54l-6.26,3.08A1.83,1.83,0,0,1,671,513l-10.66-21.68h0Z"/><path class="cls-13" d="M708.78,494.39l-10.66-21.67,1-.5,7-3.46h0l10.66,21.68a1.84,1.84,0,0,1-.87,2l-8.07,4A1.84,1.84,0,0,0,708.78,494.39Z"/><path class="cls-13" d="M691.41,502.94l-10.66-21.68h0c8-3.92.71-.36,8.67-4.27l10.66,21.67a1.84,1.84,0,0,1-.87,2l-5.68,2.79A1.83,1.83,0,0,1,691.41,502.94Z"/><path class="cls-29" d="M658.3,483.9l5.9-2.91a2.14,2.14,0,0,0-1,2.86l1.95,4a1,1,0,0,0,1.34.45l-6.19,3.05h0a1.28,1.28,0,0,1-1.71-.59l-1.55-3.15A2.74,2.74,0,0,1,658.3,483.9Z"/><path class="cls-29" d="M677.49,477.52l1.55,3.15a1.28,1.28,0,0,0,1.72.59h0L674,484.59l-.05,0a1,1,0,0,1-1.35-.46l-1.94-4a2.13,2.13,0,0,1,1-2.86l7.13-3.51A2.75,2.75,0,0,0,677.49,477.52Z"/><path class="cls-30" d="M689,471.19l1.95,4a1,1,0,0,1-.46,1.34l-1,.5-8.67,4.27a1.28,1.28,0,0,1-1.72-.59l-1.55-3.15a2.75,2.75,0,0,1,1.25-3.68l7.36-3.62A2.14,2.14,0,0,1,689,471.19Z"/><path class="cls-30" d="M699.14,472.22a1,1,0,0,0,.45-1.34l-1.94-4a2.14,2.14,0,0,0-2.86-1l6.74-3.32a2.75,2.75,0,0,1,3.68,1.26l1.55,3.15a1.28,1.28,0,0,1-.58,1.71h0Z"/><path class="cls-31" d="M670.64,480.21l1.94,4a1,1,0,0,0,1.35.46l-7.36,3.62-.06,0a1,1,0,0,1-1.34-.45l-1.95-4a2.14,2.14,0,0,1,1-2.86l7.41-3.64A2.13,2.13,0,0,0,670.64,480.21Z"/><path class="cls-32" d="M677.23,509.91l-10.66-21.67,7.36-3.62.05,0,10.66,21.67a1.84,1.84,0,0,0,2.14.54l-7.42,3.65A1.83,1.83,0,0,1,677.23,509.91Z"/><path class="cls-26" d="M700.09,498.66,689.43,477l1-.5,7.67-3.77,10.66,21.67a1.84,1.84,0,0,1-.88,2l-8.68,4.28A1.84,1.84,0,0,0,700.09,498.66Z"/><path class="cls-25" d="M697.65,466.92l1.94,4a1,1,0,0,1-.45,1.34l-1,.5-7.67,3.77a1,1,0,0,0,.46-1.34l-1.95-4a2.14,2.14,0,0,0-2.86-1l8.69-4.27A2.14,2.14,0,0,1,697.65,466.92Z"/><path class="cls-28" d="M682.55,471.16h0l.68.22a12.26,12.26,0,0,1,2.21,4.92c-.18-.18-.37-.34-.55-.5l-.08-.06-.49-.4-.05,0a6.42,6.42,0,0,0-.53-.38l0,0-.55-.34-.07,0-.56-.29-.16-.06c-.16-.07-.33-.15-.5-.21l-.29-.09-.4-.13c-.24-.07-.48-.12-.73-.17a8.2,8.2,0,0,0-2.88-2.43c.24-.07.48-.14.72-.19A9.22,9.22,0,0,1,682.55,471.16Z"/><path class="cls-28" d="M673.68,466.8a11.75,11.75,0,0,1,5.35,1.11,8.78,8.78,0,0,0-5.13,2.45,6.72,6.72,0,0,0-3.52,1A8.2,8.2,0,0,1,673.68,466.8Z"/><path class="cls-8" d="M679,467.91a11.4,11.4,0,0,1,4.2,3.47l-.68-.22h0a9.22,9.22,0,0,0-4.28-.2c-.24.05-.48.12-.72.19a7.74,7.74,0,0,0-3.65-.79A8.78,8.78,0,0,1,679,467.91Z"/><path class="cls-8" d="M681.56,473.88l.29.09a4.4,4.4,0,0,1,.5.21l.16.06.56.29.07,0,.55.34,0,0a6.42,6.42,0,0,1,.53.38l.05,0,.49.4.08.06c.18.16.37.32.55.5a1.34,1.34,0,0,1-1,1.58l-.87.18A1.35,1.35,0,0,1,682,477a9,9,0,0,0-1.52-3.43c.25.05.49.1.73.17Z"/><path class="cls-28" d="M665.23,474.67v0c0-.11-.07-.22-.1-.33a.74.74,0,0,1,0-.14c0-.08-.05-.16-.07-.24s0-.13,0-.2a1.6,1.6,0,0,1-.05-.21c0-.08,0-.15,0-.22s0-.17,0-.25a1.29,1.29,0,0,1,0-.19c0-.15,0-.3,0-.46a10.74,10.74,0,0,1,3.73-4.05c-.06.13-.11.26-.16.39s-.09.23-.13.34,0,0,0,.05a8.92,8.92,0,0,0-.51,2.64v0a2.26,2.26,0,0,0,0,.26v.1a1.48,1.48,0,0,0,0,.21v.13c0,.06,0,.11,0,.16a1.09,1.09,0,0,1,0,.18s0,.08,0,.12,0,.13,0,.19l0,.13,0,.18,0,.12,0,.16c0,.09,0,.18.08.27a8.91,8.91,0,0,0-1,3.68l-.13-.14A9.2,9.2,0,0,1,665.23,474.67Z"/><path class="cls-28" d="M663.33,477.62l.21.33a2.75,2.75,0,0,0,.19.28v0a18,18,0,0,0,3.68,3.59l.93,4.56-4.4-3.75A17.27,17.27,0,0,1,663.33,477.62Z"/><path class="cls-8" d="M663.73,478.23a2.75,2.75,0,0,1-.19-.28l-.21-.33a12.3,12.3,0,0,1,1.42-5.21c0,.16,0,.31,0,.46a1.29,1.29,0,0,0,0,.19c0,.08,0,.16,0,.25s0,.14,0,.22a1.6,1.6,0,0,0,.05.21c0,.07,0,.13,0,.2s0,.16.07.24a.74.74,0,0,0,0,.14c0,.11.06.22.1.33v0a8.75,8.75,0,0,0,1.52,2.9l.13.14a13.67,13.67,0,0,0,.54,4.14,18,18,0,0,1-3.68-3.59Z"/><path class="cls-8" d="M667.81,473.6l0-.12,0-.18,0-.13c0-.06,0-.12,0-.19s0-.08,0-.12a1.09,1.09,0,0,0,0-.18c0-.05,0-.1,0-.16v-.13a1.48,1.48,0,0,1,0-.21v-.1a2.26,2.26,0,0,1,0-.26v0a8.86,8.86,0,0,1,.51-2.64s0,0,0-.05.08-.23.13-.34.1-.26.16-.39a11.17,11.17,0,0,1,5.2-1.56,8.2,8.2,0,0,0-3.3,4.57,7.61,7.61,0,0,0-2.46,2.66c0-.09,0-.18-.08-.27Z"/><polygon class="cls-28" points="670.21 495.44 665.8 491.69 664.87 487.13 669.27 490.88 670.21 495.44"/><polygon class="cls-28" points="672.08 504.55 667.67 500.8 666.74 496.24 671.14 499.99 672.08 504.55"/><polygon class="cls-8" points="671.14 499.99 666.74 496.24 665.8 491.69 670.21 495.44 671.14 499.99"/><polygon class="cls-8" points="669.27 490.88 664.87 487.13 663.95 482.66 668.35 486.41 669.27 490.88"/><polygon class="cls-28" points="673.93 513.58 669.53 509.82 668.59 505.27 673 509.02 673.93 513.58"/><polygon class="cls-28" points="675.8 522.69 671.4 518.94 670.46 514.38 674.87 518.13 675.8 522.69"/><polygon class="cls-8" points="674.87 518.13 670.46 514.38 669.53 509.82 673.93 513.58 674.87 518.13"/><polygon class="cls-8" points="673 509.02 668.59 505.27 667.67 500.8 672.08 504.55 673 509.02"/><path class="cls-8" d="M674.76,524.27l-.86.18a1.33,1.33,0,0,1-1.58-1l-.92-4.47,4.4,3.75A1.33,1.33,0,0,1,674.76,524.27Z"/><path class="cls-23" d="M647.93,505.92a3.37,3.37,0,0,0,.24-1.23,1.72,1.72,0,0,0-.56-1.27c-.36-.34-.72-.66-1.09-1-.6-.54-1.19-1.05-1.78-1.55-1.72-1.45-3.37-2.75-5-3.91-3.58-4.33-7.5-8.2-8.65-7a2.47,2.47,0,0,1,.6-1.3,10.09,10.09,0,0,1,6.25-3.75,2.6,2.6,0,0,1,2.63,1.06,45.51,45.51,0,0,1,3.65,6.19,65.61,65.61,0,0,1,3.27,8.08c.92-2,1.85-3.94,2.84-5.7a47.26,47.26,0,0,1,5.15-7.49q.13-.18.27-.33a2.62,2.62,0,0,1,2.72-.81,10.1,10.1,0,0,1,5.86,4.34,2.62,2.62,0,0,1,.47,1.35c-1.43-1.81-9.07,5.55-13.54,10.68h0a36.19,36.19,0,0,0-2.78,3.51c-.14.21-.25.4-.33.55h-.42a3.11,3.11,0,0,0,.22-.45Z"/><path class="cls-33" d="M650.31,494.57c-1,1.76-1.92,3.65-2.84,5.7a65.61,65.61,0,0,0-3.27-8.08,45,45,0,0,1,.62-7.16,2.57,2.57,0,0,1,1.91-2.09,10.07,10.07,0,0,1,7.26.68,2.59,2.59,0,0,1,1.1.91C653.53,484,651.66,489.13,650.31,494.57Z"/><path class="cls-33" d="M625.24,499.16a10.06,10.06,0,0,1,3.41-6.44,2.58,2.58,0,0,1,2.79-.46l.4.19a47.57,47.57,0,0,1,7.88,4.53c1.65,1.16,3.3,2.46,5,3.91.59.5,1.18,1,1.78,1.55.37.32.73.64,1.09,1a1.72,1.72,0,0,1,.56,1.27,3.37,3.37,0,0,1-.24,1.23h0a3.11,3.11,0,0,1-.22.45,2.29,2.29,0,0,1-.18.29l0,.06a2,2,0,0,1-.38.38c0-.1-.1-.24-.34-.42a5.74,5.74,0,0,0-.54-.35,36.18,36.18,0,0,0-4-2h0c-6.25-2.7-16.32-6-16.83-3.78A2.53,2.53,0,0,1,625.24,499.16Z"/><path class="cls-24" d="M648.46,505.82a36.19,36.19,0,0,1,2.78-3.51h0c4.47-5.13,12.11-12.49,13.54-10.68a2.56,2.56,0,0,1-.5,1.7,42.58,42.58,0,0,1-15.16,13.39,1.69,1.69,0,0,1-1.12.18c-.06-.08,0-.26.13-.53S648.32,506,648.46,505.82Z"/><path class="cls-24" d="M650.31,494.57c1.35-5.44,3.22-10.62,4.78-10a2.63,2.63,0,0,1,.45,1.72c0,.28-.06.56-.08.83A47.26,47.26,0,0,0,650.31,494.57Z"/><path class="cls-24" d="M642.22,504.36h0a36.18,36.18,0,0,1,4,2,5.74,5.74,0,0,1,.54.35c.24.18.36.32.34.42a1.65,1.65,0,0,1-1.09.32,42.55,42.55,0,0,1-19.45-5.52,2.67,2.67,0,0,1-1.19-1.32C625.9,498.33,636,501.66,642.22,504.36Z"/><path class="cls-24" d="M639.72,497a47.57,47.57,0,0,0-7.88-4.53c-.14-.24-.29-.48-.44-.72a2.55,2.55,0,0,1-.33-1.74C632.22,488.78,636.14,492.65,639.72,497Z"/><path class="cls-34" d="M632.44,513.3h.06l4.63,20.38a1.59,1.59,0,0,0,1.69.88l-5.89,1.34a1.6,1.6,0,0,1-1.69-.88l-4.63-20.39h0Z"/><path class="cls-34" d="M644.1,532.08l-4.63-20.38,6.36-1.44,4.63,20.38a1.59,1.59,0,0,0,1.69.88L645.79,533A1.61,1.61,0,0,1,644.1,532.08Z"/><path class="cls-9" d="M666.8,526.93l-4.63-20.38,1-.22,6.61-1.5h0l4.63,20.39a1.59,1.59,0,0,1-1.14,1.52l-7.58,1.72A1.59,1.59,0,0,0,666.8,526.93Z"/><path class="cls-9" d="M650.46,530.64l-4.63-20.38h0L654,508.4l4.63,20.38a1.6,1.6,0,0,1-1.14,1.53l-5.34,1.21A1.59,1.59,0,0,1,650.46,530.64Z"/><path class="cls-35" d="M626.41,508l5.54-1.25a1.84,1.84,0,0,0-1.39,2.21l.84,3.72a.88.88,0,0,0,1,.65l-5.82,1.32h0a1.12,1.12,0,0,1-1.32-.84l-.67-3A2.39,2.39,0,0,1,626.41,508Z"/><path class="cls-35" d="M643.84,506.45l.67,3a1.12,1.12,0,0,0,1.34.84h0l-6.36,1.44h-.05a.86.86,0,0,1-1-.65l-.85-3.72a1.86,1.86,0,0,1,1.4-2.21l6.7-1.52A2.37,2.37,0,0,0,643.84,506.45Z"/><path class="cls-36" d="M654.77,503.43l.84,3.71a.86.86,0,0,1-.65,1l-1,.22-8.15,1.85a1.12,1.12,0,0,1-1.34-.84l-.67-3a2.37,2.37,0,0,1,1.79-2.84l6.93-1.58A1.86,1.86,0,0,1,654.77,503.43Z"/><path class="cls-36" d="M663.13,506.33a.87.87,0,0,0,.65-1l-.84-3.72a1.86,1.86,0,0,0-2.22-1.39l6.34-1.44a2.38,2.38,0,0,1,2.85,1.79l.67,3a1.12,1.12,0,0,1-.83,1.33h0Z"/><path class="cls-33" d="M637.53,507.34l.85,3.72a.86.86,0,0,0,1,.65l-6.92,1.58h-.06a.88.88,0,0,1-1-.65l-.84-3.72a1.84,1.84,0,0,1,1.39-2.21l7-1.59A1.86,1.86,0,0,0,637.53,507.34Z"/><path class="cls-24" d="M637.13,533.67l-4.63-20.38,6.92-1.58h.05l4.63,20.38a1.61,1.61,0,0,0,1.69.89l-7,1.58A1.59,1.59,0,0,1,637.13,533.67Z"/><path class="cls-33" d="M658.63,528.78,654,508.4l1-.22,7.21-1.63,4.63,20.38a1.59,1.59,0,0,1-1.14,1.52l-8.17,1.86A1.6,1.6,0,0,0,658.63,528.78Z"/><path class="cls-23" d="M662.94,501.57l.84,3.72a.87.87,0,0,1-.65,1l-1,.22L655,508.18a.86.86,0,0,0,.65-1l-.84-3.71a1.86,1.86,0,0,0-2.21-1.4l8.16-1.85A1.86,1.86,0,0,1,662.94,501.57Z"/><path class="cls-28" d="M618.18,531.9h0c0,.24,0,.47,0,.71a12.1,12.1,0,0,0,3.75,3.87c-.09-.23-.18-.46-.26-.7l0-.09c-.06-.2-.13-.4-.18-.6,0,0,0,0,0-.06q-.09-.31-.15-.63a.13.13,0,0,1,0-.06c0-.21-.08-.43-.11-.64a.22.22,0,0,0,0-.08l-.06-.62v-.17c0-.18,0-.36,0-.54l0-.31c0-.14,0-.28,0-.42s.07-.49.12-.74a8.1,8.1,0,0,1-1.2-3.58c-.16.2-.3.4-.44.61A9.09,9.09,0,0,0,618.18,531.9Z"/><path class="cls-28" d="M617.41,522a11.76,11.76,0,0,0-.95,5.39,8.8,8.8,0,0,1,4.17-3.87,6.78,6.78,0,0,1,2.25-2.9A8.23,8.23,0,0,0,617.41,522Z"/><path class="cls-8" d="M616.46,527.43a11.34,11.34,0,0,0,1.68,5.18c0-.24,0-.47,0-.71h0a9.09,9.09,0,0,1,1.4-4c.14-.21.28-.41.44-.61a7.9,7.9,0,0,1,.61-3.68A8.8,8.8,0,0,0,616.46,527.43Z"/><path class="cls-8" d="M621.08,532l0,.31c0,.18,0,.36,0,.54V533l.06.62a.22.22,0,0,1,0,.08c0,.21.07.43.11.64a.13.13,0,0,0,0,.06q.06.32.15.63s0,0,0,.06c.05.2.12.4.18.6l0,.09c.08.24.17.47.26.7a1.35,1.35,0,0,0,1.86-.38l.48-.74a1.34,1.34,0,0,0-.39-1.86,8.94,8.94,0,0,1-2.62-2.68c-.05.25-.09.5-.12.74S621.08,531.84,621.08,532Z"/><path class="cls-28" d="M627.85,517.09h0a2.75,2.75,0,0,0-.26-.22l-.12-.09-.2-.14-.17-.12-.18-.12-.19-.13-.21-.12-.17-.1-.4-.22a10.67,10.67,0,0,0-5.15,2h.84a9.45,9.45,0,0,1,2.65.49l0,0,.24.09.09,0,.19.08.13,0,.14.07.16.08.11.06.17.09.11.07.15.09.11.08.13.09.22.17a8.74,8.74,0,0,1,3.81.4l-.09-.18A9.1,9.1,0,0,0,627.85,517.09Z"/><path class="cls-28" d="M631.28,516.42c.08.11.16.21.23.32l.2.27v0a17.94,17.94,0,0,1,2,4.74l3.89,2.55-1.86-5.47A17,17,0,0,0,631.28,516.42Z"/><path class="cls-8" d="M631.71,517l-.2-.27c-.07-.11-.15-.21-.23-.32a12.2,12.2,0,0,0-5.36-.6l.4.22.17.1.21.12.19.13.18.12.17.12.2.14.12.09a2.75,2.75,0,0,1,.26.22h0a8.76,8.76,0,0,1,2.12,2.49l.09.18a14,14,0,0,1,3.65,2,17.94,17.94,0,0,0-2-4.74Z"/><path class="cls-8" d="M625.9,519.1l-.11-.08-.15-.09-.11-.07-.17-.09-.11-.06-.16-.08-.14-.07-.13,0-.19-.08-.09,0-.24-.09,0,0a9.45,9.45,0,0,0-2.65-.49h-.84a11.21,11.21,0,0,0-3.36,4.25,8.23,8.23,0,0,1,5.47-1.38,7.52,7.52,0,0,1,3.37-1.3l-.22-.17Z"/><polygon class="cls-28" points="645.3 529.39 643.44 523.91 639.55 521.36 641.41 526.84 645.3 529.39"/><polygon class="cls-28" points="653.08 534.49 651.22 529.01 647.33 526.46 649.19 531.94 653.08 534.49"/><polygon class="cls-8" points="649.19 531.94 647.33 526.46 643.44 523.91 645.3 529.39 649.19 531.94"/><polygon class="cls-8" points="641.41 526.84 639.55 521.36 635.74 518.86 637.6 524.34 641.41 526.84"/><polygon class="cls-28" points="660.79 539.55 658.92 534.07 655.04 531.52 656.9 537 660.79 539.55"/><polygon class="cls-28" points="668.57 544.65 666.71 539.17 662.82 536.62 664.67 542.1 668.57 544.65"/><polygon class="cls-8" points="664.67 542.1 662.82 536.62 658.92 534.07 660.79 539.55 664.67 542.1"/><polygon class="cls-8" points="656.9 537 655.04 531.52 651.22 529.01 653.08 534.49 656.9 537"/><path class="cls-8" d="M670.42,544.27l.48-.74a1.34,1.34,0,0,0-.38-1.86l-3.81-2.5,1.86,5.48A1.34,1.34,0,0,0,670.42,544.27Z"/><path class="cls-4" d="M707.85,470.89a15.29,15.29,0,0,0,1.42-3,52.09,52.09,0,0,1,14.89-2.32,18.81,18.81,0,0,1,3.23,2.68,7.59,7.59,0,0,1,2.18,9.34.53.53,0,0,0-.06.1c-41.07,83.93-94.79,89.72-108,68.51,1.61-6.48,4.44-12.51,7.32-19C644.23,533.35,697.59,488.34,707.85,470.89Z"/><path class="cls-37" d="M633.14,585.89a1.93,1.93,0,0,0,0-.42V582a1.79,1.79,0,0,0-1.31-1.74,1.61,1.61,0,0,0-.49-.07h-4.57a1.51,1.51,0,0,0-.48.07A1.79,1.79,0,0,0,625,582v3.47a1.93,1.93,0,0,0,0,.42,1.81,1.81,0,0,0,1,1.21,1.69,1.69,0,0,0,.78.18h4.57a1.69,1.69,0,0,0,.78-.18A1.81,1.81,0,0,0,633.14,585.89Z"/><path class="cls-23" d="M625.05,585.89a1.93,1.93,0,0,1,0-.42V582a1.79,1.79,0,0,1,1.33-1.74c-.58-2-3-6.86-12.56-12.52a3.32,3.32,0,0,0-4.8,1.71,25.69,25.69,0,0,0-1.36,5.66,19,19,0,0,1-1.79,6.13C608.67,578.48,619.81,581.76,625.05,585.89Z"/><path class="cls-23" d="M633.18,582v3.47a1.93,1.93,0,0,1,0,.42c5.25-4.13,16.41-7.42,19.24-4.64a18.84,18.84,0,0,1-1.8-6.14,26.32,26.32,0,0,0-1.35-5.66,3.36,3.36,0,0,0-2-2,3.32,3.32,0,0,0-2.8.27c-9.63,5.68-12,10.51-12.55,12.52A1.79,1.79,0,0,1,633.18,582Z"/><path class="cls-24" d="M625.05,585.89c-5.24-4.13-16.38-7.41-19.23-4.65q-.18.38-.36.69a2.52,2.52,0,0,0-.31,1.2s0,0,0,0a4.13,4.13,0,0,0,.11.66,2.4,2.4,0,0,0,1.19,1.48,16.48,16.48,0,0,0,5.91,1.9c4.2.48,11.69,0,13.67-.1A1.81,1.81,0,0,1,625.05,585.89Z"/><path class="cls-24" d="M652.38,581.25c-2.83-2.78-14,.51-19.24,4.64a1.81,1.81,0,0,1-1,1.21,98.08,98.08,0,0,0,13.67.1,16.55,16.55,0,0,0,5.91-1.9,2.52,2.52,0,0,0,1.2-1.48.06.06,0,0,0,0,0,3.73,3.73,0,0,0,.09-.71,2.53,2.53,0,0,0-.31-1.14C652.62,581.72,652.5,581.5,652.38,581.25Z"/><path class="cls-38" d="M604.15,595.79v26.3a2.71,2.71,0,0,0,2.71,2.71H623v-29Z"/><path class="cls-38" d="M635.19,624.8h16.14a2.71,2.71,0,0,0,2.71-2.71v-26.3H635.19Z"/><path class="cls-39" d="M653.38,587.12H635.19v8.67h19.63a1.27,1.27,0,0,0,1.27-1.27v-4.69A2.71,2.71,0,0,0,653.38,587.12Z"/><path class="cls-39" d="M623,587.12H604.81a2.71,2.71,0,0,0-2.71,2.71v4.69a1.27,1.27,0,0,0,1.27,1.27H623Z"/><polygon class="cls-33" points="635.19 587.12 635.19 586.74 623 586.74 623 587.12 623 595.79 623 624.8 635.19 624.8 635.19 595.79 635.19 587.12"/><rect class="cls-40" x="604.15" y="595.79" width="49.88" height="2.85"/><path class="cls-16" d="M543.64,584.91a3.91,3.91,0,0,1-.57-1.31,1.94,1.94,0,0,1,.29-1.55l1-1.37c.53-.74,1.06-1.46,1.59-2.17,1.54-2,3.05-3.9,4.6-5.61,2.88-5.72,6.26-11,7.84-9.94a2.88,2.88,0,0,0-1-1.3,11.48,11.48,0,0,0-7.89-2.59,3,3,0,0,0-2.65,1.84,51,51,0,0,0-2.49,7.8,71.89,71.89,0,0,0-1.6,9.8c-1.54-2-3.05-3.9-4.6-5.61a54.57,54.57,0,0,0-7.6-7l-.4-.3a3,3,0,0,0-3.22-.2,11.44,11.44,0,0,0-5.41,6.3,2.92,2.92,0,0,0-.19,1.62c1.14-2.38,11.48,3.87,17.74,8.44h0a43,43,0,0,1,4,3.2c.21.2.38.39.51.53h.11l.35-.1a4.94,4.94,0,0,1-.36-.44Z"/><path class="cls-17" d="M538.13,572.9c1.55,1.71,3.06,3.57,4.6,5.61a71.89,71.89,0,0,1,1.6-9.8,52.12,52.12,0,0,0-2.5-7.8,3,3,0,0,0-2.65-1.84,11.53,11.53,0,0,0-7.9,2.59,2.85,2.85,0,0,0-1,1.29C531.88,561.91,535.26,567.19,538.13,572.9Z"/><path class="cls-17" d="M567.15,571.67a11.44,11.44,0,0,0-5.41-6.3,3,3,0,0,0-3.22.2l-.4.3a54.62,54.62,0,0,0-7.6,7c-1.55,1.71-3.06,3.57-4.6,5.61-.53.71-1.06,1.43-1.59,2.17l-1,1.37a1.94,1.94,0,0,0-.29,1.55,3.91,3.91,0,0,0,.57,1.31h0a4.94,4.94,0,0,0,.36.44,2.37,2.37,0,0,0,.27.28l.06,0a1.72,1.72,0,0,0,.51.33c-.05-.1,0-.28.27-.55s.3-.33.51-.53a43,43,0,0,1,4-3.2h0c6.26-4.58,16.6-10.82,17.74-8.44A2.92,2.92,0,0,0,567.15,571.67Z"/><path class="cls-18" d="M543,584.93a43,43,0,0,0-4-3.2h0c-6.26-4.57-16.6-10.82-17.74-8.44a3,3,0,0,0,1,1.76c6.36,5.46,11.81,8.67,20.22,11.05a1.91,1.91,0,0,0,1.29-.09c.05-.1,0-.28-.27-.55S543.24,585.13,543,584.93Z"/><path class="cls-18" d="M538.13,572.9c-2.87-5.71-6.25-11-7.84-9.95a3,3,0,0,0-.07,2l.31.9A54.57,54.57,0,0,1,538.13,572.9Z"/><path class="cls-18" d="M549.6,581.73h0a43,43,0,0,0-4,3.2c-.21.2-.38.39-.51.53s-.32.45-.27.55a1.91,1.91,0,0,0,1.29.09c8.41-2.38,13.86-5.59,20.22-11.05a3,3,0,0,0,1-1.76C566.2,570.91,555.86,577.15,549.6,581.73Z"/><path class="cls-18" d="M550.52,572.9a54.62,54.62,0,0,1,7.6-7q.15-.43.3-.9a2.83,2.83,0,0,0-.06-2C556.78,561.9,553.4,567.18,550.52,572.9Z"/><path class="cls-3" d="M562.72,589.2h-.07V613a1.81,1.81,0,0,1-1.65,1.41h6.87a1.81,1.81,0,0,0,1.66-1.41V589.2h-6.81Z"/><path class="cls-3" d="M554.5,613V589.2h-7.43V613a1.81,1.81,0,0,1-1.66,1.41h7.43A1.81,1.81,0,0,0,554.5,613Z"/><path class="cls-5" d="M528,613V589.2h-8.86V613a1.81,1.81,0,0,0,1.65,1.41h8.86A1.81,1.81,0,0,1,528,613Z"/><path class="cls-5" d="M547.07,613V589.2h-9.55V613a1.81,1.81,0,0,0,1.66,1.41h6.23A1.81,1.81,0,0,0,547.07,613Z"/><path class="cls-19" d="M568.08,581.76H561.6a2.11,2.11,0,0,1,2.11,2.1v4.35a1,1,0,0,1-1,1h6.81a1.27,1.27,0,0,0,1.25-1.27v-3.46A2.7,2.7,0,0,0,568.08,581.76Z"/><path class="cls-19" d="M548.32,584.47v3.46a1.27,1.27,0,0,1-1.27,1.27h7.51a1,1,0,0,0,1-1v-4.35a2.11,2.11,0,0,0-2.11-2.1h-7.83A2.7,2.7,0,0,1,548.32,584.47Z"/><path class="cls-20" d="M535.42,583.86v4.35a1,1,0,0,0,1,1h10.64a1.27,1.27,0,0,0,1.27-1.27v-3.46a2.7,2.7,0,0,0-2.7-2.71h-8.1A2.1,2.1,0,0,0,535.42,583.86Z"/><path class="cls-20" d="M526.86,589.2a1,1,0,0,1-1-1v-4.35a2.11,2.11,0,0,1,2.11-2.1h-7.41a2.71,2.71,0,0,0-2.71,2.71v3.46a1.28,1.28,0,0,0,1.26,1.27h7.74Z"/><path class="cls-17" d="M555.56,583.86v4.35a1,1,0,0,1-1,1h8.16a1,1,0,0,0,1-1v-4.35a2.11,2.11,0,0,0-2.11-2.1h-8.15A2.11,2.11,0,0,1,555.56,583.86Z"/><path class="cls-21" d="M562.65,613V589.2H554.5V613a1.81,1.81,0,0,1-1.66,1.41H561A1.81,1.81,0,0,0,562.65,613Z"/><path class="cls-17" d="M537.52,613V589.2H528V613a1.81,1.81,0,0,0,1.65,1.41h9.55A1.81,1.81,0,0,1,537.52,613Z"/><path class="cls-16" d="M525.87,583.86v4.35a1,1,0,0,0,1,1h9.55a1,1,0,0,1-1-1v-4.35a2.1,2.1,0,0,1,2.1-2.1H528A2.11,2.11,0,0,0,525.87,583.86Z"/><rect class="cls-40" x="519.12" y="589.2" width="50.41" height="2.85"/><path class="cls-37" d="M582.1,604.71a1.26,1.26,0,0,0,0-.27v-2.23a1.16,1.16,0,0,0-.85-1.12,1.1,1.1,0,0,0-.31,0H578a1.06,1.06,0,0,0-.31,0,1.15,1.15,0,0,0-.85,1.12v2.23a1.24,1.24,0,0,0,0,.27,1.14,1.14,0,0,0,.63.77,1.06,1.06,0,0,0,.5.12H581a1.06,1.06,0,0,0,.5-.12A1.13,1.13,0,0,0,582.1,604.71Z"/><path class="cls-23" d="M576.91,604.71a1.24,1.24,0,0,1,0-.27v-2.23a1.15,1.15,0,0,1,.85-1.12c-.37-1.31-1.89-4.4-8.06-8a2.14,2.14,0,0,0-3.09,1.1,16.4,16.4,0,0,0-.87,3.63,12.13,12.13,0,0,1-1.15,3.94C566.39,600,573.54,602.06,576.91,604.71Z"/><path class="cls-23" d="M582.14,602.21v2.23a1.26,1.26,0,0,1,0,.27c3.38-2.66,10.55-4.77,12.36-3a12.2,12.2,0,0,1-1.15-4,17,17,0,0,0-.87-3.63,2.14,2.14,0,0,0-3.09-1.1c-6.18,3.65-7.69,6.75-8.06,8A1.16,1.16,0,0,1,582.14,602.21Z"/><path class="cls-24" d="M576.91,604.71c-3.37-2.65-10.52-4.76-12.35-3-.08.16-.15.31-.23.44a1.64,1.64,0,0,0-.2.77s0,0,0,0a2.3,2.3,0,0,0,.07.42,1.59,1.59,0,0,0,.76,1,10.54,10.54,0,0,0,3.8,1.22,61.62,61.62,0,0,0,8.78-.07A1.14,1.14,0,0,1,576.91,604.71Z"/><path class="cls-24" d="M594.46,601.73c-1.81-1.79-9,.32-12.36,3a1.13,1.13,0,0,1-.62.77,61.57,61.57,0,0,0,8.78.07,10.54,10.54,0,0,0,3.8-1.22,1.6,1.6,0,0,0,.76-1,0,0,0,0,0,0,0,1.85,1.85,0,0,0,0-.46,1.59,1.59,0,0,0-.19-.73C594.62,602,594.54,601.89,594.46,601.73Z"/><path class="cls-9" d="M585.6,627.84h16.14a2.7,2.7,0,0,0,2.71-2.7V613.78H585.6Z"/><path class="cls-9" d="M554.57,613.78v11.36a2.7,2.7,0,0,0,2.7,2.7h16.15V613.78Z"/><path class="cls-36" d="M603.79,605.11H585.6v8.67h19.63a1.27,1.27,0,0,0,1.27-1.27v-4.7A2.7,2.7,0,0,0,603.79,605.11Z"/><path class="cls-36" d="M573.42,605.11h-18.2a2.7,2.7,0,0,0-2.7,2.7v4.7a1.27,1.27,0,0,0,1.27,1.27h19.63Z"/><polygon class="cls-33" points="585.6 605.11 585.6 604.73 573.42 604.73 573.42 605.11 573.42 613.78 573.42 627.84 585.6 627.84 585.6 613.78 585.6 605.11"/><rect class="cls-40" x="554.57" y="613.84" width="49.88" height="2.85"/><path class="cls-25" d="M500.11,595.94a3.72,3.72,0,0,1-.57-1.31,1.94,1.94,0,0,1,.29-1.55c.32-.46.64-.92,1-1.36.54-.75,1.07-1.47,1.6-2.18,1.54-2,3.05-3.9,4.59-5.61,2.89-5.72,6.27-11,7.85-9.94a2.88,2.88,0,0,0-1-1.3,11.48,11.48,0,0,0-7.89-2.59,3,3,0,0,0-2.65,1.84,52.12,52.12,0,0,0-2.5,7.8,73.47,73.47,0,0,0-1.6,9.8c-1.53-2-3-3.9-4.59-5.61a53.42,53.42,0,0,0-7.61-7l-.39-.31a3,3,0,0,0-3.22-.2,11.44,11.44,0,0,0-5.41,6.3,2.93,2.93,0,0,0-.19,1.62c1.13-2.38,11.48,3.87,17.74,8.44h0a42.9,42.9,0,0,1,4,3.19,5.58,5.58,0,0,1,.5.54l.12,0,.35-.1a3,3,0,0,1-.36-.44Z"/><path class="cls-26" d="M494.6,583.93c1.55,1.71,3.06,3.57,4.59,5.61a73.47,73.47,0,0,1,1.6-9.8,53.26,53.26,0,0,0-2.49-7.8,3,3,0,0,0-2.65-1.84,11.53,11.53,0,0,0-7.9,2.59,2.85,2.85,0,0,0-1,1.29C488.35,572.94,491.72,578.22,494.6,583.93Z"/><path class="cls-26" d="M523.62,582.7a11.48,11.48,0,0,0-5.41-6.3,3,3,0,0,0-3.22.2l-.4.31a54.56,54.56,0,0,0-7.61,7c-1.54,1.71-3.05,3.57-4.59,5.61-.53.71-1.06,1.43-1.6,2.18-.32.44-.64.9-1,1.36a1.94,1.94,0,0,0-.29,1.55,3.72,3.72,0,0,0,.57,1.31h0a3,3,0,0,0,.36.44,2.37,2.37,0,0,0,.27.28l.05.05a1.91,1.91,0,0,0,.52.33c-.05-.09.05-.28.27-.54s.3-.34.51-.54a41.57,41.57,0,0,1,4-3.19h0c6.26-4.58,16.6-10.81,17.74-8.44A3,3,0,0,0,523.62,582.7Z"/><path class="cls-27" d="M499.5,596a42.9,42.9,0,0,0-4-3.19h0c-6.26-4.57-16.61-10.82-17.74-8.44a3,3,0,0,0,1,1.76c6.36,5.46,11.8,8.68,20.22,11a1.91,1.91,0,0,0,1.29-.09c0-.09,0-.28-.28-.54A5.58,5.58,0,0,0,499.5,596Z"/><path class="cls-27" d="M494.6,583.93c-2.88-5.71-6.25-11-7.84-9.95a3,3,0,0,0-.07,2c.1.31.21.61.3.91A53.42,53.42,0,0,1,494.6,583.93Z"/><path class="cls-27" d="M506.07,592.76h0a41.57,41.57,0,0,0-4,3.19c-.21.2-.38.39-.51.54s-.32.45-.27.54a1.91,1.91,0,0,0,1.29.09c8.41-2.37,13.85-5.59,20.21-11a3,3,0,0,0,1-1.76C522.67,582,512.33,588.18,506.07,592.76Z"/><path class="cls-27" d="M507,583.93a54.56,54.56,0,0,1,7.61-7l.3-.91a2.89,2.89,0,0,0-.06-2C513.25,572.93,509.87,578.21,507,583.93Z"/><path class="cls-28" d="M511,624V600.23h-7.43v23.82a1.81,1.81,0,0,1-1.66,1.4h7.43A1.81,1.81,0,0,0,511,624Z"/><path class="cls-28" d="M519.18,600.23h-.06V624a1.81,1.81,0,0,1-1.66,1.41h6.88a1.81,1.81,0,0,0,1.66-1.4V600.23h-6.82Z"/><path class="cls-13" d="M484.45,624V600.23h-8.86v23.82a1.81,1.81,0,0,0,1.65,1.4h8.86A1.81,1.81,0,0,1,484.45,624Z"/><path class="cls-13" d="M503.54,624.05V600.23H494V624a1.81,1.81,0,0,0,1.66,1.41h6.23A1.81,1.81,0,0,0,503.54,624.05Z"/><path class="cls-29" d="M524.55,592.79h-6.48a2.1,2.1,0,0,1,2.1,2.11v4.34a1,1,0,0,1-1,1H526a1.27,1.27,0,0,0,1.25-1.27V595.5A2.7,2.7,0,0,0,524.55,592.79Z"/><path class="cls-29" d="M504.79,595.5V599a1.27,1.27,0,0,1-1.27,1.27H511a1,1,0,0,0,1-1V594.9a2.1,2.1,0,0,0-2.1-2.11h-7.84A2.71,2.71,0,0,1,504.79,595.5Z"/><path class="cls-30" d="M491.89,594.9v4.34a1,1,0,0,0,1,1h10.64a1.27,1.27,0,0,0,1.27-1.27V595.5a2.71,2.71,0,0,0-2.71-2.71H494A2.1,2.1,0,0,0,491.89,594.9Z"/><path class="cls-30" d="M483.33,600.23a1,1,0,0,1-1-1V594.9a2.1,2.1,0,0,1,2.11-2.11H477a2.71,2.71,0,0,0-2.71,2.71V599a1.28,1.28,0,0,0,1.26,1.27h7.74Z"/><path class="cls-31" d="M512,594.9v4.34a1,1,0,0,1-1,1h8.15a1,1,0,0,0,1-1V594.9a2.1,2.1,0,0,0-2.1-2.11h-8.15A2.1,2.1,0,0,1,512,594.9Z"/><path class="cls-32" d="M519.12,624V600.23H511V624a1.81,1.81,0,0,1-1.66,1.41h8.15A1.81,1.81,0,0,0,519.12,624Z"/><path class="cls-26" d="M494,624V600.23h-9.54V624a1.81,1.81,0,0,0,1.65,1.41h9.55A1.81,1.81,0,0,1,494,624Z"/><path class="cls-25" d="M482.34,594.9v4.34a1,1,0,0,0,1,1h9.55a1,1,0,0,1-1-1V594.9a2.1,2.1,0,0,1,2.1-2.11h-9.54A2.1,2.1,0,0,0,482.34,594.9Z"/><rect class="cls-40" x="475.59" y="600.23" width="50.41" height="2.85"/><path class="cls-41" d="M119.88,562.2C104.31,588.45,95.73,627.14,92,648H0V609c8-6.19,51.29-40.85,70.72-75.27L95.3,548Z"/><path class="cls-42" d="M67.92,648H13.71c4.08-50.71,39.75-27.71,39.75-27.71l.36.2.27.16C57.48,622.59,73.34,632.68,67.92,648Z"/><path class="cls-43" d="M54.09,620.65,38.27,648H13.71c4.08-50.71,39.75-27.71,39.75-27.71l.36.2Z"/><path class="cls-44" d="M71.09,480.89c.35,0,8.71.33,14,5.82s5.44,13.84,5.44,14.19v1.24l-1.24,0c-.35,0-8.7-.34-14-5.82s-5.43-13.84-5.43-14.19v-1.24Z"/><path class="cls-45" d="M89.37,500.8v.11s-8.16-.26-13.22-5.46-5.1-13.37-5.1-13.37h.11Z"/><path class="cls-44" d="M166,535.81c-.19-.3-4.63-7.38-12-9.27s-14.71,2.19-15,2.36l-1.07.62.65,1.05c.18.3,4.63,7.38,12,9.27s14.71-2.19,15-2.36l1.07-.61Z"/><path class="cls-46" d="M139.65,529.89l-.1.05s4.3,6.95,11.32,8.75S165,536.44,165,536.44a.37.37,0,0,1-.06-.09Z"/><path class="cls-47" d="M140.42,502.13c.46-.64,11.07,4.44,14.33-10.59s2.36-19.45,7.12-19,7.13,5.07,3.85,17.77,16,17.39,35.56.8,19.46-39.29,17.05-51c-2.48-12.15,3.53-30.8,10.75-24.8,5.79,4.82-1,9.23.15,19.62,1.21,11.26,8,29.48,22.13,15.81s21.76-33.71,27.93-27.92-16.14,33.32-24,41.11-24.66,21.76-30.52,27.1-27.84,27.83,8.28,13.23S249.6,481,264.52,481.8s-15.13,27.47-21.33,31.67-3.07,11.95,10,9.46,5.29,7.35,5.29,7.35-6.71,8.67-27.47.1-61.34-22.23-75.22-14.24-20.05,11.06-12.38-1.41c0,0,2.94-4.58,1.41-6.4S138.27,505.05,140.42,502.13Z"/><path class="cls-48" d="M112.56,486c.32-.72-9.37-7.38,2-17.7s15.68-11.74,13-15.65-8-3.65-17.33,5.52-23-5.21-18.42-30.44,24.36-36.45,35.76-40.22c11.78-3.9,24.95-18.41,16.14-21.68-7.06-2.62-7.52,5.43-17.08,9.65-10.36,4.56-29.54,7.77-24.73-11.31s18.38-35.66,10.28-38.13-20.84,30.6-23.66,41.33-6.58,32.23-8.28,40-10.25,38-15.6-.59,11.86-25.95,3.71-38.47-16.28,26.8-16.83,34.27-8.83,8.62-13.18-3.95-9-.91-9-.91-4.18,10.13,13.6,23.86,49.84,42.1,49.83,58.12.4,22.89,7.39,10c0,0,2.51-4.83,4.85-4.41S111.1,489.33,112.56,486Z"/><path class="cls-49" d="M71.32,533.1l24.59,14.23,24.58,14.22c-6.48,10.92-11.75,24-16,37.05-6.74,7-19.32,13.62-39.8,1.78C45.46,589.22,43.83,576,46,566.69,55.63,556.18,64.82,544.63,71.32,533.1Z"/><path class="cls-50" d="M51.26,585.34l7.89,4.57L67,594.47,74.93,599l7.89,4.57c-.94,6.47-7.55,6.37-15.59,8.74.93-1.81.42-1.14,1.09-3.09-7.92,4.78-18.61,4.65-18.11,14.3-2.78-10.37,1-12.18,5.49-17.59-4.52,1.9-8,1.09-11.48,3.6C47,600.67,56.42,598.86,51.26,585.34Z"/><path class="cls-51" d="M52.69,582.87l7.89,4.56L68.47,592l7.89,4.56,7.89,4.57c-.94,6.48-9,8.85-17,11.22a41.76,41.76,0,0,0,2.52-5.57c-7.92,4.78-20,7.13-19.54,16.78-3.44-10,2.4-14.65,6.92-20.07-4.51,1.91-9.45,3.57-12.91,6.08C47,600.67,57.86,596.39,52.69,582.87Z"/><path class="cls-46" d="M123.84,499.21c-24.74-14.31-34-1.36-34-1.36l-37,55.48s-20.52,26,13.31,45.54,46.11-11.15,46.11-11.15L142,528S148.59,513.53,123.84,499.21Z"/><path class="cls-45" d="M52.87,553.33l37-55.48s9.25-13,34,1.36L66.18,598.87C32.35,579.29,52.87,553.33,52.87,553.33Z"/><path class="cls-52" d="M91.18,515.09A5.81,5.81,0,1,1,93.3,523,5.8,5.8,0,0,1,91.18,515.09Z"/><path class="cls-53" d="M92.83,514.37a2.9,2.9,0,1,1,1.06,4A2.9,2.9,0,0,1,92.83,514.37Z"/><path class="cls-52" d="M116.09,529.5a5.81,5.81,0,1,1,2.12,7.94A5.82,5.82,0,0,1,116.09,529.5Z"/><path class="cls-53" d="M117.74,528.78a2.91,2.91,0,1,1,1.06,4A2.91,2.91,0,0,1,117.74,528.78Z"/><path class="cls-54" d="M97.1,486.62l2.73-4.72c3.56-6.16-11.14-14.45-11.14-14.45,35.13-7.36,52.14,5.17,52.14,5.17,13.35,7.73,14.79,30.77,9.34,44.71Z"/><path class="cls-55" d="M96.17,471.78a22.09,22.09,0,0,1,11,20.65l-10-5.81,2.73-4.72C102.09,478,97,473.21,93,470.25A22.47,22.47,0,0,1,96.17,471.78Z"/><path class="cls-51" d="M89.4,498a6.41,6.41,0,0,0,2.95.85c34.77,1.28,47.77,27.06,47.9,27.32a6.37,6.37,0,0,0,11.45-5.6,61,61,0,0,0-13.57-16.87c-8.51-7.57-23.28-16.78-45.31-17.59A6.37,6.37,0,0,0,89.4,498Z"/><path class="cls-51" d="M82.34,463.78a7.33,7.33,0,1,1,2.68,10A7.33,7.33,0,0,1,82.34,463.78Z"/><path class="cls-56" d="M72.24,501.05a2.05,2.05,0,0,1,.28,1.6,19.21,19.21,0,0,1-1.3,4.32c-.75,1.89-1.56,3.76-2.25,5.67a17.06,17.06,0,0,0-1.12,6.08,8.55,8.55,0,0,0,1.74,5,17.63,17.63,0,0,0,2.51,2.6h0a54.51,54.51,0,0,0,9.18,5.47l.54.16a21.28,21.28,0,0,0,7,1A19,19,0,0,0,99,529.91a36.41,36.41,0,0,0,4.94-4.06,6.86,6.86,0,0,1,2.27-1.52,3.83,3.83,0,0,1,4.72,2.73,6.79,6.79,0,0,1-.19,2.73,36.19,36.19,0,0,0-1,6.3A19,19,0,0,0,112,546.44a21.34,21.34,0,0,0,4.39,5.53l.4.39a54,54,0,0,0,9.32,5.23h0a16.18,16.18,0,0,0,3.5.88,8.4,8.4,0,0,0,5.22-1,17.29,17.29,0,0,0,4.72-4c1.31-1.55,2.53-3.18,3.79-4.78a19.66,19.66,0,0,1,3.1-3.28,2.1,2.1,0,0,1,1.52-.56.3.3,0,0,0,.36-.19c.79-1.49,1.57-3,2.37-4.47a.38.38,0,0,0-.09-.54l-.84-.72c-2.2-1.86-4.38-3.74-6.61-5.57a56.64,56.64,0,0,0-6.27-4.48A49,49,0,0,0,129,525c-2.74-1.09-5.55-2-8.37-2.87a33.44,33.44,0,0,1-6.7-2.46c-.49-.28-1-.55-1.47-.84L111,518a33.31,33.31,0,0,1-5.47-4.58c-2.17-2-4.34-4-6.66-5.82a48.59,48.59,0,0,0-7.29-4.85,58.32,58.32,0,0,0-7-3.21c-2.7-1-5.42-2-8.13-2.95l-1-.37a.38.38,0,0,0-.51.2q-1.34,2.14-2.7,4.27A.31.31,0,0,0,72.24,501.05Zm43.24,26.33a5.74,5.74,0,0,1,5.11-2.42,16.38,16.38,0,0,1,4.65.9,31.38,31.38,0,0,1,5.52,2.38c1.72,1,3.44,2,5.1,3a21.42,21.42,0,0,1,5.76,5.14c.2.27.37.54.54.82,1.82,2.73,1,5.9.48,7.17a6.48,6.48,0,0,1-.35.76,43.57,43.57,0,0,1-3.08,4.77,31.32,31.32,0,0,1-3.19,3.72,10.58,10.58,0,0,1-3.08,2.22,7,7,0,0,1-4.27.36,17.8,17.8,0,0,1-4.7-1.67c-1.39-.69-2.78-1.42-4.11-2.23a14.24,14.24,0,0,1-6.19-7.15,18.43,18.43,0,0,1-1.16-5.44,22,22,0,0,1,1-8.41A13.59,13.59,0,0,1,115.48,527.38ZM74.81,506.12a6.68,6.68,0,0,1,.49-.68c.86-1.05,3.18-3.38,6.45-3.16.33,0,.66,0,1,.06a21.34,21.34,0,0,1,7.33,2.43c1.76.9,3.47,1.9,5.17,2.92a30.55,30.55,0,0,1,4.81,3.59,16.17,16.17,0,0,1,3.11,3.59,5.75,5.75,0,0,1,.44,5.63,13.57,13.57,0,0,1-2.43,3.69,21.83,21.83,0,0,1-6.81,5,18.29,18.29,0,0,1-5.29,1.7,14.28,14.28,0,0,1-9.29-1.8c-1.36-.75-2.68-1.6-4-2.45A18.31,18.31,0,0,1,72,523.45a7,7,0,0,1-1.82-3.88,10.54,10.54,0,0,1,.39-3.79,31.72,31.72,0,0,1,1.64-4.62A43.56,43.56,0,0,1,74.81,506.12Z"/><path class="cls-57" d="M77.36,579.74c-2.31-8.39-11.84-10.65-19.14-8.16-3.11,1-5.95,3.06-8.74,4.9-3.31,2.19-6.43,4.66-9.66,7a13.06,13.06,0,0,1-2.33,1.32c-2.2,1-4.6,1.54-6.35-.49-1.93-2.25.69-5.77,2.75-7.2A6.52,6.52,0,0,0,28,585.3c1.05,3.24,3.6,4.91,6.69,5.82,5.61,1.66,11,.17,16.48-1,4.61-1,9.45-2.21,14-1.73a17,17,0,0,1,14.87,11.66c1.86,5.25,3.21,10.69,5.13,15.92,1.51,4.09,4.07,7.57,8.21,9.45,2.63,1.19,5.37,1.18,7.56-.84a7.69,7.69,0,0,0,1.46-8.62c0,3-1.52,6.92-4.64,6.84-2,0-3.94-2.64-3.76-5.72a152.93,152.93,0,0,1,1.59-16.3c1.24-7.44-2.28-16-9-19.22C84,580.32,80.82,580.37,77.36,579.74Z"/><path class="cls-56" d="M78.31,578.11c-2.31-8.4-11.84-10.65-19.15-8.17-3.11,1.06-5.94,3.07-8.73,4.9-3.31,2.19-6.43,4.67-9.66,7a12.8,12.8,0,0,1-2.34,1.32c-2.19,1-4.6,1.54-6.34-.49-1.93-2.25,0-4,1.8-5.56-4.11.09-6.14,2.9-4.95,6.57,1.06,3.25,3.6,4.91,6.7,5.82,5.61,1.66,11,.18,16.48-1,4.61-1,9.45-2.21,14-1.73A16.94,16.94,0,0,1,81,598.41c1.87,5.26,3.22,10.7,5.14,15.92,1.51,4.09,4.06,7.58,8.21,9.46,2.62,1.19,5.36,1.17,7.55-.85,1.95-1.78,2.07-4.08.52-7-.29,2.84-.57,5.28-3.7,5.21-2-.06-3.94-2.65-3.76-5.73a153.46,153.46,0,0,1,1.6-16.3c1.24-7.43-2.29-16-9-19.22C85,578.68,81.77,578.74,78.31,578.11Z"/><path class="cls-58" d="M56.15,561.64c3.72-6.44,17.33-5.53,30.4,2s20.64,18.91,16.91,25.34-17.34,5.53-30.4-2S52.42,568.08,56.15,561.64Z"/><path class="cls-51" d="M59.37,563.5c1-1.7,4.6-1.46,8.07.54s5.48,5,4.49,6.73-4.6,1.46-8.07-.54S58.38,565.21,59.37,563.5Z"/></g></g></svg>