<svg id="Layer_1" data-name="Layer 1" xmlns="http://www.w3.org/2000/svg" viewBox="0 0 792 648"><defs><style>.cls-1{fill:#fff;}.cls-2{fill:#f73c4f;}.cls-3{fill:#f2f2f2;}</style></defs><title>Christmas-Theme-Accessories</title><path d="M334.22,311.6c-.18,3.15-1.22,14.82-.75,17.27a7.37,7.37,0,0,0,1.86,3.76l-14.81,9.5a115.35,115.35,0,0,0-11.89-10.8c-4.29-3.26-11.33-12.84-15-18.41-.37-.56-.72-1.08-1-1.56a16.41,16.41,0,0,1-1.4-2.46c0-.11-.07-.28-.11-.5s-.13-.88-.2-1.51c-.49-4.53-.74-14.86,3.47-17.08s12.86,1.8,16.62,4.14c.53.33,1,.62,1.27.86a2.94,2.94,0,0,1,.39.34,22.75,22.75,0,0,1,1.72,2.19l1,1.44c2.68,3.73,6.37,8.94,7.94,9.62,2.31,1,.11-9.15,4.93-9.21S334.4,308.46,334.22,311.6Z"/><path class="cls-1" d="M321,345.08l16.84-10.81A.92.92,0,0,0,338,333l-1.91-3a.94.94,0,0,0-1.25-.37l-16.83,10.81a.92.92,0,0,0-.18,1.28l1.91,3A.92.92,0,0,0,321,345.08Z"/><path d="M510.84,315.6c-4.6,5.38-13.24,14.54-18.18,17.41a122.81,122.81,0,0,0-13.91,9.83l-14.34-11.92a7.82,7.82,0,0,0,2.44-3.71c.81-2.52,1.23-14.93,1.45-18.26s2.81-13,7.87-12.29,1.43,11.08,4,10.33c1.75-.51,6.31-5.51,9.6-9.09l1.28-1.39a25.51,25.51,0,0,1,2.09-2.08,4,4,0,0,1,.46-.31c.36-.21.85-.46,1.44-.73,4.26-2,13.86-5.1,18-2.21s2.54,13.72,1.44,18.42c-.15.65-.3,1.18-.41,1.56a4.83,4.83,0,0,1-.18.52,18.6,18.6,0,0,1-1.79,2.4h0C511.73,314.55,511.3,315.05,510.84,315.6Z"/><path class="cls-1" d="M461,332.56l16.31,13.55a1,1,0,0,0,1.36-.23l2.39-2.88a1,1,0,0,0,0-1.38l-16.31-13.55a1,1,0,0,0-1.36.24L461,331.19A1,1,0,0,0,461,332.56Z"/><path class="cls-2" d="M437.92,286H361.59a57.16,57.16,0,0,1,57.16-57.16H460.3C445.3,245.23,437.42,264.14,437.92,286Z"/><circle class="cls-3" cx="457.41" cy="231.8" r="10.17"/><path class="cls-1" d="M437.92,291H361.59a5,5,0,1,1,0-10h76.33a5,5,0,1,1,0,10Z"/></svg>