<svg id="Layer_1" data-name="Layer 1" xmlns="http://www.w3.org/2000/svg" viewBox="0 0 792 648"><defs><style>.cls-1{fill:#f73c4f;}.cls-2{fill:#cf3242;}.cls-3{fill:#fff;}.cls-4{fill:#e63849;}.cls-5{fill:#f2f2f2;}.cls-6{fill:#d87b00;}.cls-7{fill:#f39200;}</style></defs><title>Christmas-Theme-Outfits</title><path class="cls-1" d="M475.19,393.09c0,.55,0,1.1,0,1.64,0,.34,0,.67,0,1s0,.75-.05,1.12V397c0,.58-.07,1.15-.11,1.72a1.36,1.36,0,0,1,0,.2c0,.53-.08,1.05-.13,1.57,0,.17,0,.34-.05.5-.06.53-.12,1.05-.19,1.57s-.14,1.1-.22,1.65c0,.14-.05.28-.07.42-.08.54-.17,1.07-.27,1.6s-.18,1-.28,1.49c0,0,0,0,0,.06-.05.25-.1.5-.16.75-.08.41-.17.81-.26,1.21s-.14.59-.22.88c-.15.64-.31,1.28-.48,1.91l-.09.33c-.19.67-.38,1.34-.59,2,0,.09-.05.18-.08.28q-.32,1-.66,2c-.25.73-.52,1.46-.79,2.18H331.82a75.13,75.13,0,0,1-2.76-9,72.85,72.85,0,0,1-1.74-10.82q-.29-3.18-.28-6.43a74.09,74.09,0,0,1,46.38-68.72,38.17,38.17,0,0,0,55.4,0c.81.33,1.61.67,2.41,1,.48.21.95.43,1.43.66l1.16.56,1.22.61,1.21.64.91.49c1.88,1.06,3.71,2.18,5.49,3.38l1.35.95q1.46,1,2.85,2.13l1.39,1.12c.48.4,1,.81,1.45,1.23s.83.72,1.24,1.1l1.3,1.21c.41.39.81.78,1.21,1.19s.95.95,1.41,1.44.73.77,1.08,1.16c0,0,0,0,0,0l.95,1.08a74.17,74.17,0,0,1,5.64,7.32c.33.48.65,1,1,1.46l.9,1.43.69,1.17q.27.45.54.93,1.25,2.22,2.36,4.53c.21.44.41.88.61,1.32l0,.09q.33.72.63,1.44c.52,1.22,1,2.46,1.47,3.71q.24.68.48,1.38c.41,1.21.8,2.43,1.15,3.67l.42,1.55q.26,1,.48,2c.12.5.23,1,.34,1.51l.12.6c.08.41.16.82.23,1.23q.18,1,.33,1.95l.09.58c.07.47.13.95.19,1.42s.1.76.14,1.14.08.73.11,1.09a2.46,2.46,0,0,1,0,.26c.05.42.08.83.11,1.25.08,1,.14,2,.17,3l0,1C475.18,392,475.19,392.53,475.19,393.09Z"/><path class="cls-2" d="M475.19,393.09c0,.55,0,1.1,0,1.64,0,.34,0,.67,0,1s0,.75-.05,1.12V397c0,.58-.07,1.15-.11,1.72a1.36,1.36,0,0,1,0,.2c0,.53-.08,1.05-.13,1.57,0,.17,0,.34-.05.5-.06.53-.12,1.05-.19,1.57s-.14,1.1-.22,1.65c0,.14-.05.28-.07.42-.08.54-.17,1.07-.27,1.6s-.18,1-.28,1.49c0,0,0,0,0,.06-.05.25-.1.5-.16.75-.08.41-.17.81-.26,1.21s-.14.59-.22.88c-.15.64-.31,1.28-.48,1.91l-.09.33c-.19.67-.38,1.34-.59,2,0,.09-.05.18-.08.28q-.32,1-.66,2c-.25.73-.52,1.46-.79,2.18H401.12v-83a38,38,0,0,0,27.7-11.91c.81.33,1.61.67,2.41,1,.48.21.95.43,1.43.66l1.16.56,1.22.61,1.21.64.91.49c1.88,1.06,3.71,2.18,5.49,3.38l1.35.95q1.46,1,2.85,2.13l1.39,1.12c.48.4,1,.81,1.45,1.23s.83.72,1.24,1.1l1.3,1.21c.41.39.81.78,1.21,1.19s.95.95,1.41,1.44.73.77,1.08,1.16c0,0,0,0,0,0l.95,1.08a74.17,74.17,0,0,1,5.64,7.32c.33.48.65,1,1,1.46l.9,1.43.69,1.17q.27.45.54.93,1.25,2.22,2.36,4.53c.21.44.41.88.61,1.32l0,.09q.33.72.63,1.44c.52,1.22,1,2.46,1.47,3.71q.24.68.48,1.38c.41,1.21.8,2.43,1.15,3.67l.42,1.55q.26,1,.48,2c.12.5.23,1,.34,1.51l.12.6c.08.41.16.82.23,1.23q.18,1,.33,1.95l.09.58c.07.47.13.95.19,1.42s.1.76.14,1.14.08.73.11,1.09a2.46,2.46,0,0,1,0,.26c.05.42.08.83.11,1.25.08,1,.14,2,.17,3l0,1C475.18,392,475.19,392.53,475.19,393.09Z"/><path class="cls-3" d="M397.12,373.66a4,4,0,1,0,5.05-3.84,4,4,0,0,0-1.05-.16A4,4,0,0,0,397.12,373.66Z"/><path class="cls-3" d="M397.12,390.66a4,4,0,1,0,5.05-3.84,4,4,0,0,0-1.05-.16A4,4,0,0,0,397.12,390.66Z"/><path class="cls-3" d="M397.12,356.66a4,4,0,1,0,5.05-3.84,4,4,0,0,0-1.05-.16A4,4,0,0,0,397.12,356.66Z"/><path class="cls-3" d="M401.12,339.28a40.79,40.79,0,0,1-29.87-12.85,3,3,0,1,1,4.35-4.13,35.16,35.16,0,0,0,51,0,3,3,0,0,1,4.35,4.13A40.83,40.83,0,0,1,401.12,339.28Z"/><path class="cls-3" d="M469.25,424.62H333a3.5,3.5,0,0,1,0-7H469.25a3.5,3.5,0,0,1,0,7Z"/><path d="M474.91,399.58a73,73,0,0,1-1.76,10.83c-9,1.4-28.51,3-70.9,3-44.21,0-64.26-1.71-73.19-3.06a72.85,72.85,0,0,1-1.74-10.82c4,.88,20.5,3.53,74.93,3.53S471.57,400.4,474.91,399.58Z"/><path class="cls-4" d="M333,368.26l14.5-22c.4-.25-9.16-14.79-9.46-15.25l-1.91-3a.91.91,0,0,0-1.24-.37L317,340a.92.92,0,0,0-.18,1.29l1.91,3C319,344.72,332.61,368.52,333,368.26Z"/><path class="cls-2" d="M466,368.06l-14.5-22c-.4-.25,9.16-14.79,9.46-15.25l1.91-3a.92.92,0,0,1,1.24-.38L482,339.8a.92.92,0,0,1,.18,1.29l-1.91,3C480,344.52,466.4,368.31,466,368.06Z"/><path class="cls-3" d="M481.05,343.19a3.5,3.5,0,0,1-2.23-.81l-16.31-13.55a3.5,3.5,0,1,1,4.47-5.38L483.29,337a3.5,3.5,0,0,1-2.24,6.2Z"/><path class="cls-3" d="M318.06,342a3.5,3.5,0,0,1-1.9-6.44L333,324.76a3.5,3.5,0,0,1,3.78,5.89l-16.84,10.81A3.51,3.51,0,0,1,318.06,342Z"/><path class="cls-3" d="M363.81,290s-15.57,18.83-.85,45.14,53.38,29.57,53.38,29.57-9.6-15.21,3.87-20.57,25.6-33.8,18.22-54.14c0,0-5.26,25.28-28.34,35.78S358.27,310.9,363.81,290Z"/><path class="cls-5" d="M399.33,327.2c-5.78-1.65-13.95-17.85,5.41-19.88s23.2,7.3,37.77-4.65C435.18,318.75,424.63,334.4,399.33,327.2Z"/><path class="cls-5" d="M387.62,327.16c5.78-1.65,13.95-17.85-5.41-19.88s-23.2,7.3-37.77-4.65C351.77,318.71,362.31,334.36,387.62,327.16Z"/><path class="cls-6" d="M392.78,311.2a6.91,6.91,0,0,1-1.58-.2h0l-24.06-4.91-3.42-.7-3.64-.75h39.25A6.55,6.55,0,0,1,392.78,311.2Z"/><path class="cls-7" d="M391.2,298.3h0a6.39,6.39,0,0,1,1.58-.2,6.54,6.54,0,0,1,6.55,6.54H360.07l5.36-1.09,1.29-.26Z"/></svg>