<svg id="Layer_1" data-name="Layer 1" xmlns="http://www.w3.org/2000/svg" viewBox="0 0 792 648"><defs><style>.cls-1{fill:#50c2ef;}.cls-14,.cls-2{fill:#1d1d1b;}.cls-2{opacity:0.1;}.cls-3{fill:#85e2ff;}.cls-4{fill:#f6f6f6;}.cls-5{fill:#e6332a;}.cls-6{fill:#dadada;}.cls-7{fill:#634e42;}.cls-8{fill:#00a19a;}.cls-9{fill:#008c82;}.cls-10{fill:#fff;}.cls-11{fill:#d87b00;}.cls-12{fill:#f39200;}.cls-13{fill:#bf1717;}.cls-15{fill:#683c11;}.cls-16{fill:#ededed;}</style></defs><title>Snowman-loading</title><rect class="cls-1" x="-0.06" y="0.46" width="792" height="648"/><path class="cls-2" d="M441.18,336.49v4.92c0,9.22-20.23,16.69-45.18,16.69s-45.18-7.47-45.18-16.69h0v-4.92c-3.14,2.18-4.91,4.63-4.91,7.21,0,.13,0,.27,0,.41a.78.78,0,0,0,0,.14,2.11,2.11,0,0,0,0,.26c0,.06,0,.12,0,.18a1.7,1.7,0,0,0,0,.22,770678438245.59,770678438245.59,0,0,1,.1.4l.06.21.07.18a2.09,2.09,0,0,0,.08.23c0,.05.05.1.07.16a2.56,2.56,0,0,0,.11.24l.06.13.14.27.05.07a11,11,0,0,0,2.37,2.81c.44.38.92.76,1.44,1.13l0,0c.51.37,1.07.73,1.67,1.08l0,0,.44.25,0,0c.45.25.93.5,1.42.75l.05,0,.46.23.11,0,.48.23h0c.52.24,1.05.47,1.6.7l.17.07.47.19.17.06c.51.21,1,.4,1.58.6l.22.08.48.16.25.09a80,80,0,0,0,9.48,2.51h0l1,.21h0l1,.19.07,0,1,.17.08,0,1,.16.11,0,1,.16.14,0,1,.14.17,0,.95.13.19,0,.93.12.23,0,.91.11.25,0,.9.09.29,0,.87.08.32,0,.86.08.35,0,.84.07.37,0,.84.06.39,0,.82.06.42,0,.8,0,.45,0,.8,0,.45,0,.82,0,.45,0,.83,0,.44,0,.85,0h.44l.94,0h3.3l.94,0H399l.84,0,.47,0,.8,0,.46,0,.81,0,.45,0,.8,0,.45,0,.8,0,.42,0,.82-.06.4,0,.83-.06.37,0,.84-.07.34,0,.87-.08.31,0,.88-.08.29,0,.9-.09.25,0,.91-.11.22,0,.94-.12.19,0,.95-.13.17,0,1-.14.14,0,1-.16.11,0,1-.16.09,0,1-.17.06,0,1-.19h0l1-.21h0a80,80,0,0,0,9.48-2.51l.26-.09.47-.16.22-.08c.54-.2,1.07-.39,1.58-.6l.17-.06.47-.19.17-.07c.55-.23,1.08-.46,1.59-.7h0l.48-.23.11,0,.46-.23.05,0c.49-.25,1-.5,1.42-.75l0,0,.44-.25,0,0c.6-.35,1.15-.71,1.67-1.08l0,0c.52-.37,1-.75,1.44-1.13a11,11,0,0,0,2.37-2.81l.05-.07.14-.27.06-.13a2.56,2.56,0,0,0,.11-.24c0-.06.05-.11.07-.16a2.09,2.09,0,0,0,.08-.23l.07-.18.06-.21a700616761999.77,700616761999.77,0,0,1,.1-.4,1.7,1.7,0,0,0,0-.22c0-.06,0-.12,0-.18a2.11,2.11,0,0,0,0-.26.78.78,0,0,0,0-.14c0-.14,0-.28,0-.41C446.09,341.12,444.32,338.67,441.18,336.49Z"/><polygon class="cls-3" points="434.19 314.44 433.11 313.28 433.11 314.44 434.19 314.44"/><polygon class="cls-3" points="426.5 275.95 427.28 277.31 427.86 277.31 426.5 275.95"/><polygon class="cls-3" points="426.86 278.38 425.83 279.48 426.17 280.06 427.86 278.38 426.86 278.38"/><path class="cls-3" d="M350.82,341.41V329.59c0-6.39,9.71-11.94,24-14.75v-1.15l-4.54-4.87,0,0-4.63,5-4.63-5-.15.16-4.48,4.81-4.59-4.93,6.58-11.39v-1h.58l2.34-4.05L357.17,288l-.14.15,3.92-6.79v-.86L357.5,284l-.76-.76,3.46-3.46H358v-1.07h2.21l-3.45-3.46.76-.76,3.45,3.46v-2.22H362v2.22l2.17-2.17,3.44-6-2-2.19,13-22.49H378v-1.65h-1.65v-1.07H378v-1.65h1.08v1.65h1.64v1.07h-1.64v.82l.38-.67,13.86,24-2,2.19,1.89,3.28h3.31v5.73h0v-5.73h6.6l1.3,10.12,2.14-3.7-1.67-1.79L414,261.78v-.32h-1.65v-1.07H414v-1.65h1.08v1.18l1.07-1.86L425,273.29l.2-.2,3.45,3.46v-2.22h1.08v2.22l3.45-3.46.76.76-3.45,3.46h2.21v1.07h-2.21l3.45,3.46-.76.76-3.45-3.46v2.22h-1.08v-2.22L426.73,281l1.64,2.84h.24v-1.65h1.08v1.65h1.65v1.07h-1.65v1.21l4.76,8.26-1.34,1.44v.57h1.65v1.08h-1.65v1.64H432V297.5h-.46l-.49.52,7.76,13.43-3.72,4-.37-.4v.46h-1.65v1.65H432v-1.65h-1.65v-1.07H432v-1.65h.61l-1.31-1.41,0,0-3.76,4-3.79-4.07L420,315.44c12.73,2.95,21.19,8.18,21.19,14.15V277.86h0a45.18,45.18,0,0,0-90.36,0h0v63.55Zm7.51-27H360v-1.65h1.07v1.65h1.65v1.07h-1.65v1.65H360v-1.65h-1.65Zm76.85-38.78h1.07v1.65h1.65v1.07h-1.65V280h-1.07v-1.65h-1.65v-1.07h1.65Zm-4.79-15.27H432v-1.65h1.07v1.65h1.65v1.07h-1.65v1.65H432v-1.65h-1.65ZM427,270.75h1.64V269.1h1.08v1.65h1.65v1.07h-1.65v1.65h-1.08v-1.65H427Zm-18.76-11.22h-1.65v1.65h-1.07v-1.65h-1.65v-1.07h1.65v-1.65h1.07v1.65h1.65Zm4.16-17.15H414v-1.65h1.08v1.65h1.64v1.07H415.1v1.65H414v-1.65h-1.65Zm-.32,7.87h1.07v1.65h1.65V253h-1.65v1.65h-1.07V253H410.4V251.9h1.65Zm-8.21-4.91h1.65v-1.65h1.07v1.65h1.65v1.07h-1.65v1.65h-1.07v-1.65h-1.65ZM402,247.68l3.46,3.46v-2.22h1.07v2.22l3.46-3.46.76.76-3.46,3.46h2.22V253h-2.22l3.46,3.46-.76.76-3.46-3.46V256h-1.07v-2.22L402,257.19l-.76-.76,3.46-3.46h-2.22V251.9h2.22l-3.46-3.46Zm-3.1,2.57H400v1.65h1.65V253H400v1.65h-1.07V253h-1.65V251.9h1.65Zm-4.57-7.87H396v-1.65h1.07v1.65h1.65v1.07h-1.65v1.65H396v-1.65h-1.65Zm0,18H396v-1.65h1.07v1.65h1.65v1.07h-1.65v1.65H396v-1.65h-1.65Zm-30.69,12.79H362v1.65H361v-1.65h-1.64v-1.07H361v-1.65H362v1.65h1.64Zm-5.34-12.79H360v-1.65h1.07v1.65h1.65v1.07h-1.65v1.65H360v-1.65h-1.65Zm-5.59,18.28h1.65V277h1.08v1.65h1.64v1.07h-1.64v1.65h-1.08v-1.65h-1.65Z"/><path class="cls-4" d="M420,315.44h0v6.78c2.07.21,3.48.62,3.48,1.09,0,.69-3,1.25-6.72,1.25-.88,0-1.72,0-2.5-.09A18.92,18.92,0,0,1,405.8,335c2.48.46,4,1.1,4,1.8,0,1.41-6.18,2.56-13.81,2.56s-13.81-1.15-13.81-2.56c0-.74,1.71-1.41,4.43-1.88a18.89,18.89,0,0,1-8.29-10.41l-.91,0c-3.71,0-6.71-.56-6.71-1.25,0-.51,1.69-.95,4.09-1.14v-7.34c-14.27,2.81-24,8.36-24,14.75,0,.13,0,.27,0,.41s0,.09,0,.14l0,.26,0,.18a1.85,1.85,0,0,0,0,.23c0,.06,0,.13,0,.19s0,.14,0,.2l.06.21c0,.06,0,.13.05.19s.05.15.08.22l.06.16.1.24.06.13.12.27,0,.08a11.27,11.27,0,0,0,2.14,2.81c.4.38.83.76,1.3,1.13l0,0a18.29,18.29,0,0,0,1.51,1.08l0,0,.39.25.05,0c.4.26.83.51,1.27.75l.05,0,.41.22.11.06.43.22h0c.46.23,1,.47,1.44.69l.15.07.43.19.15.07c.46.2.94.4,1.43.59l.2.08.42.17.24.08a65.56,65.56,0,0,0,8.55,2.52h0l.92.2h0l.91.19h.06l.9.17.07,0,.9.17h.1l.88.16.12,0,.87.14.15,0,.86.13.17,0,.84.12.2,0,.83.11.23,0,.81.1.26,0,.78.09.29,0,.78.08.31,0,.76.07.34,0,.75.06.35,0,.75.05.37,0,.73,0,.4,0,.72,0,.41,0,.74,0h.4l.76,0h.39l.77,0h5.47l.76,0h.43l.72,0h.41l.73,0,.4,0,.73,0,.4,0,.73,0,.37,0,.75-.05.35,0,.75-.06.34,0,.76-.07.31,0,.78-.08.28,0,.79-.09.26,0,.81-.1.23,0,.83-.11.19,0,.85-.12.17,0,.86-.13.15,0,.87-.14.12,0,.88-.16h.1l.9-.17.08,0,.89-.17h.06l.91-.19h0l.92-.2h0a64.49,64.49,0,0,0,8.55-2.52l.24-.08.42-.17.2-.08c.49-.19,1-.39,1.43-.59l.15-.07.43-.19.15-.07c.49-.22,1-.46,1.44-.69h0l.42-.22.11-.06.41-.22.05,0c.44-.24.87-.49,1.27-.75l.05,0,.39-.25,0,0a18.29,18.29,0,0,0,1.51-1.08l0,0c.47-.37.9-.75,1.3-1.13a11.27,11.27,0,0,0,2.14-2.81l0-.08.12-.27.06-.13.1-.24.06-.16c0-.07.05-.15.08-.22s0-.13.05-.19l.06-.21c0-.06,0-.13,0-.2s0-.13,0-.19a1.85,1.85,0,0,0,0-.23l0-.18,0-.26c0-.05,0-.1,0-.14s0-.28,0-.41C441.18,323.62,432.72,318.39,420,315.44Z"/><path class="cls-5" d="M441.16,330.14l0,.26,0,.18a1.85,1.85,0,0,1,0,.23c0,.06,0,.13,0,.19s0,.14,0,.2l-.06.21c0,.06,0,.13-.05.19s-.05.15-.08.22l-.06.16-.1.24-.06.13-.12.27,0,.08a11.27,11.27,0,0,1-2.14,2.81c-.4.38-.83.76-1.3,1.13l0,0a18.29,18.29,0,0,1-1.51,1.08l0,0L435,338l-.05,0c-.4.26-.83.51-1.27.75l-.05,0-.41.22-.11.06-.42.22h0c-.47.23-1,.47-1.44.69l-.15.07-.43.19-.15.07c-.46.2-.94.4-1.43.59l-.2.08-.42.17-.24.08a64.49,64.49,0,0,1-8.55,2.52h0l-.92.2h0l-.91.19h-.06l-.89.17-.08,0-.9.17h-.1l-.88.16-.12,0-.87.14-.15,0-.86.13-.17,0-.85.12-.19,0-.83.11-.23,0-.81.1-.26,0-.79.09-.28,0-.78.08-.31,0-.76.07-.34,0-.75.06-.35,0-.75.05-.37,0-.73,0-.4,0-.73,0-.4,0-.73,0h-.41l-.72,0h-.43l-.76,0h-5.47l-.77,0h-.39l-.76,0H391l-.74,0-.41,0-.72,0-.4,0-.73,0-.37,0-.75-.05-.35,0-.75-.06-.34,0-.76-.07-.31,0-.78-.08-.29,0-.78-.09-.26,0-.81-.1-.23,0-.83-.11-.2,0-.84-.12-.17,0-.86-.13-.15,0-.87-.14-.12,0-.88-.16h-.1l-.9-.17-.07,0-.9-.17h-.06l-.91-.19h0l-.92-.2h0a65.56,65.56,0,0,1-8.55-2.52l-.24-.08-.42-.17-.2-.08c-.49-.19-1-.39-1.43-.59l-.15-.07-.43-.19-.15-.07c-.49-.22-1-.46-1.44-.69h0l-.43-.22-.11-.06-.41-.22-.05,0c-.44-.24-.87-.49-1.27-.75l-.05,0-.39-.25,0,0a18.29,18.29,0,0,1-1.51-1.08l0,0c-.47-.37-.9-.75-1.3-1.13a11.27,11.27,0,0,1-2.14-2.81l0-.08-.12-.27-.06-.13-.1-.24-.06-.16c0-.07-.05-.15-.08-.22s0-.13-.05-.19l-.06-.21c0-.06,0-.13,0-.2s0-.13,0-.19a1.85,1.85,0,0,1,0-.23l0-.18,0-.26c0-.05,0-.1,0-.14s0-.28,0-.41v11.82c0,9.22,20.23,16.69,45.18,16.69s45.18-7.47,45.18-16.69V329.59c0,.13,0,.27,0,.41S441.16,330.09,441.16,330.14Z"/><path class="cls-6" d="M374.8,323.06v-.88c-2.4.19-4.09.63-4.09,1.14,0,.69,3,1.25,6.71,1.25l.91,0c-.15-.49-.3-1-.42-1.49Z"/><path class="cls-6" d="M414.64,323.06c-.12.48-.25.95-.4,1.42.78,0,1.62.09,2.5.09,3.71,0,6.72-.56,6.72-1.25,0-.47-1.41-.88-3.48-1.09v.83Z"/><path class="cls-7" d="M374.8,323.06h3.11A18.91,18.91,0,0,1,380,309.3l-.48-.52-4.63,5-.06-.06v9.37Z"/><path class="cls-8" d="M379.49,308.78l.48.52c.19-.32.39-.64.59-.95l-.84-.84h-7.78V306h6.23l-6.77-6.77,1.09-1.09,3.22,3.22v-4.13h1.55v5.67l4.22,4.23a18.86,18.86,0,0,1,7.81-5.83v-.11a9.69,9.69,0,0,1-2.76-6.79,9.51,9.51,0,0,1,.5-3.08l-1-1h-3.86v-.32l-2.69,2.88L375,288l-4.47,4.79L366.11,288l-4.47,4.79-.39-.42-2.34,4.05H360v-1.65h1.07v1.65h1.65v1.08h-1.65v1.64H360V297.5h-1.65v-.07l-6.58,11.39,4.59,4.93,4.48-4.81.15-.16,4.63,5,4.63-5,0,0,4.54,4.87.06.06Z"/><path class="cls-9" d="M386.05,290.23l1,1a9.52,9.52,0,0,1,.41-1Z"/><path class="cls-9" d="M366.11,288l4.46,4.79L375,288l4.46,4.79,2.69-2.88V287.4h5.62v-2.54h.54l1.52-11.8h3.29l-1.89-3.28-2.56,2.75-4.63-5-4.63,5-4.63-5-4.63,5-2.55-2.75-3.44,6,1.28-1.29.76.76-3.46,3.46H365v1.07h-2.22l3.46,3.46-.76.76L362,280.5v2.22H361v-1.36L357,288.15l.14-.15,4.08,4.37.39.42Zm10.23-9.59H378v-1.65h1.08v1.65h1.64v1.07h-1.64v1.65H378v-1.65h-1.65Zm-10.47,1.33v-1.07h1.64V277h1.08v1.65h1.65v1.07h-1.65v1.65h-1.08v-1.65ZM361,288V286.3h-1.64v-1.07H361v-1.65H362v1.65h1.64v1.07H362V288Z"/><rect class="cls-9" x="396.47" y="278.79" height="5.82"/><path class="cls-8" d="M374.82,267.56l4.63,5,4.63-5,4.63,5,2.56-2.75,2-2.19-13.86-24-.38.67v.83h-.48l-13,22.49,2,2.19,2.55,2.75Zm1.52-7.17H378v-1.65h1.08v1.65h1.64v1.07h-1.64v1.65H378v-1.65h-1.65Z"/><path class="cls-7" d="M416.2,311.38l-1.86,2a18.73,18.73,0,0,1,.79,5.39,18.93,18.93,0,0,1-.49,4.29H420v-7.61Z"/><path class="cls-8" d="M406.3,295.5l-.31-.33,0,.26Z"/><path class="cls-8" d="M403.26,301.15v.11a18.8,18.8,0,0,1,7.57,5.52l3.91-3.92v-5.67h.44l-2.62-2.81-3.65,3.92L406.74,296l-.88.18A9.74,9.74,0,0,1,403.26,301.15Z"/><path class="cls-8" d="M427.17,294.38l-3.65,3.92-3.65-3.92-3.58,3.84v3.1l3.22-3.22,1.09,1.09L413.83,306h6.23v1.55h-7.78l-.51.52a18.77,18.77,0,0,1,2.57,5.35l1.86-2,3.78,4.07h0l3.78-4.06,3.79,4.07,3.76-4,0,0,1.31,1.41h.46v.49l1.08,1.16h.57v.61l.37.4,3.72-4L431.09,298l-.27.28Z"/><path class="cls-9" d="M405.13,284.86v2.54h5.62v2.83h-5.64a9.79,9.79,0,0,1,.91,4.13q0,.4,0,.81l.31.33,1.38.28h0l-.93.19,2.17,2.33,3.65-3.92,2.62,2.81h1.11v1l3.58-3.84,3.65,3.92,3.65-3.92,3.65,3.92.27-.28.49-.52h-1.19v-1.08H432v-1.65h1.07v1.08l1.34-1.44-4.76-8.26v.44h-1.08v-1.65H427v-1.07h1.4L426.73,281l-1.57,1.57-.76-.76,1.77-1.78-.34-.58-2.09,2.24L422.16,280h-.11v-.12l-1.42-1.53h-.22v-.24l-.45-.48-3.79,4.06-1.07-1.15v.56H414v-1.65h-1.65v-1.07h.71l-.7-.75-3.78,4.06-2.09-2.24-2.14,3.7.22,1.68Z"/><polygon class="cls-8" points="412.38 277.66 413.08 278.41 414.02 278.41 414.02 276.76 415.1 276.76 415.1 278.41 416.74 278.41 416.74 279.48 415.1 279.48 415.1 280.57 416.17 281.73 419.96 277.66 420.4 278.14 420.4 277.31 422.05 277.31 422.05 275.66 423.13 275.66 423.13 277.31 424.77 277.31 424.77 278.38 423.13 278.38 423.13 280.03 422.16 280.03 423.74 281.73 425.83 279.48 426.86 278.38 425.64 278.38 425.64 277.31 427.28 277.31 426.5 275.95 424.4 273.85 424.96 273.29 416.17 258.06 415.1 259.92 415.1 260.39 416.74 260.39 416.74 261.46 415.1 261.46 415.1 263.11 414.02 263.11 414.02 261.78 404.84 277.69 406.51 279.48 408.6 281.73 412.38 277.66"/><polygon class="cls-8" points="420.63 278.38 422.05 279.91 422.05 278.38 420.63 278.38"/><path class="cls-6" d="M405.05,335.45l-.3.16-.3.15-.24.11-.35.16-.19.09-.41.16-.15.06-.44.17-.12,0-.48.16-.09,0-.51.15-.06,0-.54.15h-.05l-.57.13h0c-.19.05-.39.08-.59.12h0a19.74,19.74,0,0,1-3.1.3h-.26a18.74,18.74,0,0,1-9.66-2.66c-2.72.47-4.43,1.14-4.43,1.88,0,1.41,6.18,2.56,13.81,2.56s13.81-1.15,13.81-2.56c0-.7-1.53-1.34-4-1.8-.17.1-.34.2-.52.29Z"/><path class="cls-10" d="M397.47,304.49l1.17-.67a9.88,9.88,0,0,1-1.46.24A1.21,1.21,0,0,1,397.47,304.49Z"/><path class="cls-10" d="M397.51,305.85a.87.87,0,0,1-.07.17A.87.87,0,0,0,397.51,305.85Z"/><path class="cls-10" d="M397,306.53h0Z"/><path class="cls-10" d="M397.41,306.08l-.06.1Z"/><path class="cls-10" d="M397.3,306.26l-.06.07Z"/><path class="cls-10" d="M397.17,306.4l-.05.05Z"/><path class="cls-10" d="M400.87,337.06l.54-.15Z"/><path class="cls-10" d="M404.45,335.76l.3-.15Z"/><path class="cls-10" d="M403.26,336.28l.41-.16Z"/><path class="cls-10" d="M403.86,336l.35-.16Z"/><path class="cls-10" d="M396.54,337.62V318.91a1.09,1.09,0,0,1-.26,0,1,1,0,0,1,0-2.06.75.75,0,0,1,.26,0v-2.4a1.09,1.09,0,0,1-.26,0,1,1,0,0,1,0-2.06,1.09,1.09,0,0,1,.26,0v-2.39a1.09,1.09,0,0,1-.26,0,1,1,0,0,1,0-2.06.75.75,0,0,1,.26,0v-1.45a1.09,1.09,0,0,1-.26,0,1.29,1.29,0,0,1-1.24-.92l-5.75,3.32v-7.91a18.86,18.86,0,0,0-7.81,5.83l3.39,3.39-1.09,1.09-3.22-3.22c-.2.31-.4.63-.59.95a18.91,18.91,0,0,0-2.06,13.76c.12.51.27,1,.42,1.49a18.86,18.86,0,0,0,17.95,13.07Z"/><path class="cls-10" d="M405.05,335.45l.23-.12Z"/><path class="cls-10" d="M399.64,337.32c.2,0,.4-.07.59-.12C400,337.25,399.84,337.28,399.64,337.32Z"/><path class="cls-10" d="M396.54,337.62a19.74,19.74,0,0,0,3.1-.3A19.74,19.74,0,0,1,396.54,337.62Z"/><path class="cls-10" d="M402.67,336.51l.44-.17Z"/><path class="cls-10" d="M400.25,337.2l.57-.13Z"/><path class="cls-10" d="M402.07,336.71l.48-.16Z"/><path class="cls-10" d="M401.47,336.89l.51-.15Z"/><path class="cls-10" d="M395.08,304.49a1.36,1.36,0,0,1,.29-.43,9.88,9.88,0,0,1-1.46-.24Z"/><rect class="cls-10" x="396.47" y="284.61" height="0.25"/><path class="cls-10" d="M396.72,303.77l-.09,0Z"/><path class="cls-10" d="M397.18,304.06l-.16-.14Z"/><path class="cls-10" d="M396.94,303.88l-.11-.07Z"/><path class="cls-10" d="M396.66,298.74h0Z"/><path class="cls-10" d="M397.06,298.72l.09,0Z"/><path class="cls-10" d="M397.19,298.77l.12.06Z"/><path class="cls-10" d="M396.68,300.22Z"/><path class="cls-10" d="M396.77,298.71h0Z"/><path class="cls-10" d="M393.91,303.82a9.88,9.88,0,0,0,1.46.24,1.28,1.28,0,0,1,.91-.38.83.83,0,0,1,.22,0v-3.57h0l0,0a.77.77,0,0,1,0-1.31l0-8.58h-9a10.08,10.08,0,0,0-.91,4.13,9.69,9.69,0,0,0,2.76,6.79h0Zm2.21-5.4a.76.76,0,0,1-1.09,0,.76.76,0,0,1,0-1.09.79.79,0,0,1,1.09,0,.76.76,0,0,1,0,1.09Zm-.79-6.55a1,1,0,1,1-1,1A1,1,0,0,1,395.33,291.87Z"/><path class="cls-10" d="M396.89,298.7h0Z"/><path d="M395.33,293.84a1,1,0,1,0-1-1A1,1,0,0,0,395.33,293.84Z"/><path d="M402.28,293.84a1,1,0,1,0-1-1A1,1,0,0,0,402.28,293.84Z"/><path d="M402.12,298.66a.76.76,0,0,0,.55-.23.76.76,0,0,0,0-1.09.79.79,0,0,0-1.09,0,.78.78,0,0,0,.54,1.32Z"/><path d="M396.68,300.22a.68.68,0,0,0,.2,0,.75.75,0,0,0,.64-.34.76.76,0,0,0-.21-1.07l-.12-.06,0,0-.09,0h-.29l-.08,0h0l-.17.07h0a.77.77,0,0,0,0,1.31l0,0,.19.08Z"/><path d="M400.82,300.25a.8.8,0,0,0,.43-.13.77.77,0,0,0,.21-1.07.78.78,0,0,0-1.29.86A.79.79,0,0,0,400.82,300.25Z"/><path d="M398.85,300.84a.77.77,0,1,0-.77-.77A.76.76,0,0,0,398.85,300.84Z"/><path d="M395,297.33a.76.76,0,0,0,0,1.09.77.77,0,1,0,1.09-1.09A.79.79,0,0,0,395,297.33Z"/><path class="cls-11" d="M399.26,297.47a1.34,1.34,0,0,0,.4-.06h0l6.2-1.27.88-.18.93-.19h-10.1A1.69,1.69,0,0,0,399.26,297.47Z"/><path class="cls-12" d="M399.66,294.15h0a1.75,1.75,0,0,0-.4,0,1.69,1.69,0,0,0-1.69,1.68h10.11l-1.38-.28-.34-.07Z"/><polygon class="cls-13" points="394.99 305 391.03 304.5 391.03 305.82 394.99 305.32 394.99 305"/><polygon class="cls-13" points="401.52 304.5 397.57 305 397.57 305.32 401.52 305.82 401.52 304.5"/><polygon class="cls-14" points="388.35 284.86 396.47 284.86 396.47 284.62 396.47 278.79 396.47 273.06 393.16 273.06 389.87 273.06 388.35 284.86"/><polygon points="396.47 284.86 404.59 284.86 404.37 283.18 403.07 273.06 396.47 273.06 396.47 278.79 396.47 284.62 396.47 284.86"/><polygon points="396.45 290.23 405.11 290.23 410.75 290.23 410.75 287.4 405.13 287.4 404.91 287.4 396.47 287.4 396.47 287.4 388.03 287.4 387.81 287.4 382.19 287.4 382.19 289.91 382.19 290.23 386.05 290.23 387.44 290.23 396.45 290.23"/><polygon class="cls-13" points="396.47 287.4 404.91 287.4 405.13 287.4 405.13 284.86 404.59 284.86 396.47 284.86 396.47 284.86 396.47 287.4 396.47 287.4"/><polygon class="cls-5" points="396.47 287.4 396.47 284.86 388.35 284.86 387.81 284.86 387.81 287.4 388.03 287.4 396.47 287.4"/><path class="cls-5" d="M395,305.85a1.29,1.29,0,0,0,1.24.92,1.09,1.09,0,0,0,.26,0h0a1.16,1.16,0,0,0,.47-.2h0a.39.39,0,0,1,.1-.08l.05-.05.07-.07.06-.07.05-.08.06-.1,0-.06a.87.87,0,0,0,.07-.17l5.75,3.32v-8h0l-4.62,2.67-1.17.67a1.21,1.21,0,0,0-.29-.43l-.16-.14-.08,0-.11-.07-.11,0-.09,0a.5.5,0,0,0-.13,0h0a.83.83,0,0,0-.22,0,1.28,1.28,0,0,0-.91.38,1.36,1.36,0,0,0-.29.43l-1.17-.67-4.62-2.67h0v8Zm2.53-.85,3.95-.5v1.32l-3.95-.5Zm-6.54-.5,4,.5v.32l-4,.5Z"/><polygon class="cls-15" points="414.74 302.86 410.83 306.78 407.13 310.48 408.22 311.57 411.76 308.02 412.28 307.51 420.06 307.51 420.06 305.96 413.83 305.96 420.6 299.19 419.51 298.1 416.29 301.32 416.29 298.22 416.29 297.19 415.18 297.19 414.74 297.19 414.74 302.86"/><polygon class="cls-15" points="384.87 310.48 381.48 307.09 377.26 302.86 377.26 297.19 375.71 297.19 375.71 301.32 372.49 298.1 371.4 299.19 378.17 305.96 371.94 305.96 371.94 307.51 379.72 307.51 380.56 308.35 383.78 311.57 384.87 310.48"/><polygon class="cls-10" points="402.51 251.9 402.51 252.97 404.73 252.97 401.27 256.43 402.03 257.19 405.49 253.73 405.49 255.95 406.56 255.95 406.56 253.73 410.02 257.19 410.78 256.43 407.32 252.97 409.54 252.97 409.54 251.9 407.32 251.9 410.78 248.44 410.02 247.68 406.56 251.14 406.56 248.92 405.49 248.92 405.49 251.14 402.03 247.68 401.27 248.44 404.73 251.9 402.51 251.9"/><polygon class="cls-10" points="406.56 256.81 405.49 256.81 405.49 258.46 403.84 258.46 403.84 259.53 405.49 259.53 405.49 261.18 406.56 261.18 406.56 259.53 408.21 259.53 408.21 258.46 406.56 258.46 406.56 256.81"/><polygon class="cls-10" points="397.28 252.97 398.93 252.97 398.93 254.62 400 254.62 400 252.97 401.65 252.97 401.65 251.9 400 251.9 400 250.25 398.93 250.25 398.93 251.9 397.28 251.9 397.28 252.97"/><polygon class="cls-10" points="405.49 248.06 406.56 248.06 406.56 246.41 408.21 246.41 408.21 245.34 406.56 245.34 406.56 243.69 405.49 243.69 405.49 245.34 403.84 245.34 403.84 246.41 405.49 246.41 405.49 248.06"/><polygon class="cls-10" points="410.4 252.97 412.05 252.97 412.05 254.62 413.12 254.62 413.12 252.97 414.77 252.97 414.77 251.9 413.12 251.9 413.12 250.25 412.05 250.25 412.05 251.9 410.4 251.9 410.4 252.97"/><polygon class="cls-10" points="362.03 282.72 362.03 280.5 365.48 283.96 366.24 283.2 362.78 279.74 365 279.74 365 278.67 362.79 278.67 366.24 275.21 365.48 274.45 364.2 275.74 362.03 277.91 362.03 275.69 360.95 275.69 360.95 277.91 357.5 274.45 356.74 275.21 360.19 278.67 357.98 278.67 357.98 279.74 360.19 279.74 356.74 283.2 357.5 283.96 360.95 280.5 360.95 281.36 360.95 282.72 362.03 282.72"/><polygon class="cls-10" points="362.03 286.3 363.68 286.3 363.68 285.23 362.03 285.23 362.03 283.58 360.95 283.58 360.95 285.23 359.31 285.23 359.31 286.3 360.95 286.3 360.95 287.95 362.03 287.95 362.03 286.3"/><polygon class="cls-10" points="354.39 281.39 355.46 281.39 355.46 279.74 357.11 279.74 357.11 278.67 355.46 278.67 355.46 277.02 354.39 277.02 354.39 278.67 352.74 278.67 352.74 279.74 354.39 279.74 354.39 281.39"/><polygon class="cls-10" points="362.03 270.46 360.95 270.46 360.95 272.11 359.31 272.11 359.31 273.18 360.95 273.18 360.95 274.83 362.03 274.83 362.03 273.18 363.68 273.18 363.68 272.11 362.03 272.11 362.03 270.46"/><polygon class="cls-10" points="367.51 281.39 368.59 281.39 368.59 279.74 370.24 279.74 370.24 278.67 368.59 278.67 368.59 277.02 367.51 277.02 367.51 278.67 365.87 278.67 365.87 279.74 367.51 279.74 367.51 281.39"/><polygon class="cls-10" points="426.5 275.95 427.86 277.31 427.28 277.31 425.64 277.31 425.64 278.38 426.86 278.38 427.86 278.38 426.17 280.06 424.4 281.84 425.16 282.6 426.73 281.03 428.62 279.14 428.62 281.36 429.69 281.36 429.69 279.14 433.14 282.6 433.9 281.84 430.45 278.38 432.66 278.38 432.66 277.31 430.45 277.31 433.9 273.85 433.14 273.09 429.69 276.55 429.69 274.33 428.62 274.33 428.62 276.55 425.16 273.09 424.96 273.29 424.4 273.85 426.5 275.95"/><polygon class="cls-10" points="426.97 284.94 428.62 284.94 428.62 286.59 429.69 286.59 429.69 286.15 429.69 284.94 431.34 284.94 431.34 283.87 429.69 283.87 429.69 282.22 428.62 282.22 428.62 283.87 428.37 283.87 426.97 283.87 426.97 284.94"/><polygon class="cls-10" points="423.13 278.38 424.77 278.38 424.77 277.31 423.13 277.31 423.13 275.66 422.05 275.66 422.05 277.31 420.4 277.31 420.4 278.14 420.4 278.38 420.63 278.38 422.05 278.38 422.05 279.91 422.05 280.03 422.16 280.03 423.13 280.03 423.13 278.38"/><polygon class="cls-10" points="428.62 273.47 429.69 273.47 429.69 271.82 431.34 271.82 431.34 270.75 429.69 270.75 429.69 269.1 428.62 269.1 428.62 270.75 426.97 270.75 426.97 271.82 428.62 271.82 428.62 273.47"/><polygon class="cls-10" points="433.53 278.38 435.18 278.38 435.18 280.03 436.25 280.03 436.25 278.38 437.9 278.38 437.9 277.31 436.25 277.31 436.25 275.66 435.18 275.66 435.18 277.31 433.53 277.31 433.53 278.38"/><polygon class="cls-10" points="414.02 245.1 415.1 245.1 415.1 243.45 416.74 243.45 416.74 242.38 415.1 242.38 415.1 240.73 414.02 240.73 414.02 242.38 412.38 242.38 412.38 243.45 414.02 243.45 414.02 245.1"/><polygon class="cls-10" points="396.01 245.1 397.08 245.1 397.08 243.45 398.73 243.45 398.73 242.38 397.08 242.38 397.08 240.73 396.01 240.73 396.01 242.38 394.36 242.38 394.36 243.45 396.01 243.45 396.01 245.1"/><polygon class="cls-10" points="379.06 244.27 379.06 243.45 380.71 243.45 380.71 242.38 379.06 242.38 379.06 240.73 377.99 240.73 377.99 242.38 376.34 242.38 376.34 243.45 377.99 243.45 377.99 245.1 378.59 245.1 379.06 245.1 379.06 244.27"/><polygon class="cls-10" points="432.04 263.11 433.11 263.11 433.11 261.46 434.76 261.46 434.76 260.39 433.11 260.39 433.11 258.74 432.04 258.74 432.04 260.39 430.39 260.39 430.39 261.46 432.04 261.46 432.04 263.11"/><polygon class="cls-10" points="415.1 263.11 415.1 261.46 416.74 261.46 416.74 260.39 415.1 260.39 415.1 259.92 415.1 258.74 414.02 258.74 414.02 260.39 412.38 260.39 412.38 261.46 414.02 261.46 414.02 261.78 414.02 263.11 415.1 263.11"/><polygon class="cls-10" points="396.01 263.11 397.08 263.11 397.08 261.46 398.73 261.46 398.73 260.39 397.08 260.39 397.08 258.74 396.01 258.74 396.01 260.39 394.36 260.39 394.36 261.46 396.01 261.46 396.01 263.11"/><polygon class="cls-10" points="377.99 263.11 379.06 263.11 379.06 261.46 380.71 261.46 380.71 260.39 379.06 260.39 379.06 258.74 377.99 258.74 377.99 260.39 376.34 260.39 376.34 261.46 377.99 261.46 377.99 263.11"/><polygon class="cls-10" points="359.98 263.11 361.05 263.11 361.05 261.46 362.7 261.46 362.7 260.39 361.05 260.39 361.05 258.74 359.98 258.74 359.98 260.39 358.33 260.39 358.33 261.46 359.98 261.46 359.98 263.11"/><polygon class="cls-10" points="416.74 279.48 416.74 278.41 415.1 278.41 415.1 276.76 414.02 276.76 414.02 278.41 413.08 278.41 412.38 278.41 412.38 279.48 414.02 279.48 414.02 281.13 415.1 281.13 415.1 280.57 415.1 279.48 416.74 279.48"/><polygon class="cls-10" points="377.99 281.13 379.06 281.13 379.06 279.48 380.71 279.48 380.71 278.41 379.06 278.41 379.06 276.76 377.99 276.76 377.99 278.41 376.34 278.41 376.34 279.48 377.99 279.48 377.99 281.13"/><polygon class="cls-10" points="432.04 294.77 432.04 296.42 430.39 296.42 430.39 297.5 431.58 297.5 432.04 297.5 432.04 299.14 433.11 299.14 433.11 297.5 434.76 297.5 434.76 296.42 433.11 296.42 433.11 295.85 433.11 294.77 432.04 294.77"/><polygon class="cls-10" points="359.98 297.5 359.98 299.14 361.05 299.14 361.05 297.5 362.7 297.5 362.7 296.42 361.05 296.42 361.05 294.77 359.98 294.77 359.98 296.42 358.91 296.42 358.33 296.42 358.33 297.43 358.33 297.5 359.98 297.5"/><polygon class="cls-10" points="434.19 314.44 433.11 314.44 433.11 313.28 433.11 312.79 432.65 312.79 432.04 312.79 432.04 314.44 430.39 314.44 430.39 315.51 432.04 315.51 432.04 317.16 433.11 317.16 433.11 315.51 434.76 315.51 434.76 315.05 434.76 314.44 434.19 314.44"/><polygon class="cls-10" points="359.98 317.16 361.05 317.16 361.05 315.51 362.7 315.51 362.7 314.44 361.05 314.44 361.05 312.79 359.98 312.79 359.98 314.44 358.33 314.44 358.33 315.51 359.98 315.51 359.98 317.16"/><path class="cls-16" d="M415.13,318.77A18.9,18.9,0,0,0,411.77,308l-3.55,3.54-1.09-1.09,3.7-3.7a18.8,18.8,0,0,0-7.57-5.52v7.91l-5.75-3.32a.87.87,0,0,1-.07.17l0,.06-.06.1-.05.08-.06.07-.07.07-.05.05a.39.39,0,0,0-.1.08h0a1.16,1.16,0,0,1-.47.2h0v1.45a1,1,0,0,1,0,2v2.39a1,1,0,0,1,0,2v2.4a1,1,0,0,1,0,2v18.71h0a19.74,19.74,0,0,0,3.1-.3h0c.2,0,.4-.07.59-.12h0l.57-.13h.05l.54-.15.06,0,.51-.15.09,0,.48-.16.12,0,.44-.17.15-.06.41-.16.19-.09.35-.16.24-.11.3-.15.3-.16.23-.12c.18-.09.35-.19.52-.29a18.92,18.92,0,0,0,8.44-10.56c.15-.47.28-.94.4-1.42A18.93,18.93,0,0,0,415.13,318.77Z"/><path d="M395.25,313.54a1,1,0,0,0,1,1,1.09,1.09,0,0,0,.26,0,1,1,0,0,0,0-2,1.09,1.09,0,0,0-.26,0A1,1,0,0,0,395.25,313.54Z"/><path d="M395.25,317.92a1,1,0,0,0,1,1,1.09,1.09,0,0,0,.26,0,1,1,0,0,0,0-2,.75.75,0,0,0-.26,0A1,1,0,0,0,395.25,317.92Z"/><path d="M395.25,309.17a1,1,0,0,0,1,1,1.09,1.09,0,0,0,.26,0,1,1,0,0,0,0-2,.75.75,0,0,0-.26,0A1,1,0,0,0,395.25,309.17Z"/><path class="cls-16" d="M396.49,298.81h0l.17-.07h0l.08,0h.29l.09,0,0,0,.12.06a.76.76,0,0,1,.21,1.07.75.75,0,0,1-.64.34.68.68,0,0,1-.2,0h0l-.19-.08h0v3.57h0a.5.5,0,0,1,.13,0l.09,0,.11,0,.11.07.08,0,.16.14a9.88,9.88,0,0,0,1.46-.24l4.62-2.67h0a9.74,9.74,0,0,0,2.6-5l-6.2,1.27h0a1.34,1.34,0,0,1-.4.06,1.69,1.69,0,1,1,0-3.37,1.75,1.75,0,0,1,.4,0h0l6.3,1.28,0-.26q0-.41,0-.81a9.79,9.79,0,0,0-.91-4.13h-8.66Zm5.09-1.47a.78.78,0,0,1,1.32.55.78.78,0,0,1-.23.54.76.76,0,0,1-.55.23.77.77,0,0,1-.54-1.32Zm-1.19,1.5a.76.76,0,0,1,1.07.21.77.77,0,0,1-.21,1.07.79.79,0,0,1-1.08-.21A.77.77,0,0,1,400.39,298.84Zm-1.54.46a.77.77,0,0,1,0,1.54.77.77,0,1,1,0-1.54Zm3.43-7.43a1,1,0,1,1-1,1A1,1,0,0,1,402.28,291.87Z"/></svg>