<svg xmlns="http://www.w3.org/2000/svg" id="Layer_1" data-name="Layer 1" viewBox="0 0 792 648">
    <defs>
        <style>
            .cls-1{fill:#231f20;opacity:0.1;}.cls-2{fill:#fff;}.cls-3{fill:#683c11;}.cls-4{fill:#d87b00;}.cls-5{fill:#f39200;}
        </style>
    </defs>
    <title>
        snowman
    </title>
    <ellipse cx="401.12" cy="465.47" class="cls-1" rx="53.66" ry="10.36"/>
    <circle cx="401.12" cy="393.09" r="74.07" class="cls-2"/>
    <polygon points="473.95 332.17 458.73 347.39 444.36 361.76 448.61 366 462.38 352.23 464.39 350.22 470.39 344.22 496.71 317.9 492.47 313.65 479.95 326.17 479.95 314.15 479.95 310.13 475.63 310.13 473.95 310.13 473.95 332.17" class="cls-3"/>
    <polygon points="357.87 361.76 344.7 348.59 328.29 332.17 328.29 310.13 322.29 310.13 322.29 326.17 309.77 313.65 305.53 317.9 331.85 344.22 337.85 350.22 341.13 353.5 353.63 366 357.87 361.76" class="cls-3"/>
    <path d="M397.12,373.66a4,4,0,0,0,4,4,4,4,0,0,0,0-8A4,4,0,0,0,397.12,373.66Z"/>
    <path d="M397.12,390.66a4,4,0,0,0,4,4,4,4,0,0,0,0-8A4,4,0,0,0,397.12,390.66Z"/>
    <path d="M397.12,356.66a4,4,0,0,0,4,4,4,4,0,0,0,0-8A4,4,0,0,0,397.12,356.66Z"/>
    <circle cx="401.12" cy="300.11" r="38.17" class="cls-1"/>
    <circle cx="401.12" cy="298.11" r="38.17" class="cls-2"/>
    <path d="M408.06,297.13a3.84,3.84,0,1,1,3.83-3.84A3.84,3.84,0,0,1,408.06,297.13Z"/>
    <path d="M381.05,297.13a3.84,3.84,0,1,1,3.84-3.84A3.83,3.83,0,0,1,381.05,297.13Z"/>
    <path d="M381.64,315.83a3,3,0,0,1-2.12-5.12,3.1,3.1,0,0,1,4.24,0,3,3,0,0,1-2.12,5.12Z"/>
    <path d="M402.78,321.89a2.86,2.86,0,0,1-.77.1,3,3,0,0,1-1.67-5.49,3.67,3.67,0,0,1,.48-.25l.15-.06.36-.11.17,0A3.56,3.56,0,0,1,402,316l.24,0,.23,0c.1,0,.2,0,.3.06l.14,0a3.08,3.08,0,0,1,.67.29h0a3,3,0,0,1,.13,5.06l-.15.09a2.92,2.92,0,0,1-.73.31Z"/>
    <path d="M386.71,322a2.92,2.92,0,0,1-1.66-.51,3,3,0,1,1,1.66.51Z"/>
    <path d="M394.37,324.32a3,3,0,1,1,3-3A3,3,0,0,1,394.37,324.32Z"/>
    <path d="M409.2,310.66a3,3,0,0,1,0,4.25,3,3,0,0,1-4.24-4.25A3.12,3.12,0,0,1,409.2,310.66Z"/>
    <path d="M392.78,311.2a6.27,6.27,0,0,1-1.58-.2h0l-24.06-4.91-3.42-.7-3.65-.74h39.25A6.54,6.54,0,0,1,392.78,311.2Z" class="cls-4"/>
    <path d="M391.2,298.31h0a6.77,6.77,0,0,1,1.58-.2,6.54,6.54,0,0,1,6.54,6.55H360.07l5.36-1.1,1.29-.26Z" class="cls-5"/>
</svg>
