<svg id="Layer_1" data-name="Layer 1" xmlns="http://www.w3.org/2000/svg" viewBox="0 0 180 180"><defs><style>.cls-1{fill:#4ac0ae;}.cls-2{fill:#f73c4f;}.cls-3{fill:#fff;}.cls-4{fill:#de3647;}.cls-5{fill:#e63849;}.cls-6{fill:#cf3242;}</style></defs><title>wintersport-icon-accessory</title><path class="cls-1" d="M115.12,81.56l-20.87.25h-.47l-20.87-.25s.27-.91.77-2.38l.47-1.36a66.43,66.43,0,0,1,5.73-12.24l.36-.54c.29-.44.58-.87.88-1.28l.39-.52a16.14,16.14,0,0,1,3.69-3.62c6-4,8.17-4.72,8.73-4.84v0h.17v0c.56.12,2.69.83,8.73,4.84A12.85,12.85,0,0,1,105,61.45c.15.14.3.3.44.46a28.37,28.37,0,0,1,3.13,4.32c.12.18.23.37.34.56a69.6,69.6,0,0,1,5,11c.18.49.34,1,.48,1.36C114.86,80.65,115.12,81.56,115.12,81.56Z"/><path class="cls-2" d="M119.37,85.64v4.67a4.07,4.07,0,0,1-4.05,4.08H72.91a4.08,4.08,0,0,1-4.08-4.08V85.64a4.08,4.08,0,0,1,4.08-4.08h42.38A4.08,4.08,0,0,1,119.37,85.64Z"/><path class="cls-3" d="M114.36,79.18H73.68l.47-1.36h39.73C114.06,78.31,114.22,78.77,114.36,79.18Z"/><path class="cls-3" d="M103.33,64h0l-.45.45h0l-.45-.45h0l-2.18-2.18-2.63,2.64h0L95,61.81l-2.64,2.64-2.63-2.64L87.53,64h0l-.45.45h0L86.62,64h0l-2.18-2.18-2.64,2.64h0l-.69-.69.39-.52.3.31L84,61.36h0l.45-.45h0l.45.45h0l2.18,2.18,2.18-2.18h0l.45-.45h0l.45.45h0l2.18,2.19,2.19-2.19h0l.45-.45h0l.45.45h0l2.19,2.19,2.18-2.19h0l.45-.45h0l.46.45h0l2.18,2.18L105,61.45c.15.14.3.3.44.46Z"/><path class="cls-3" d="M108.88,66.79l-.72.72h0l-2.63-2.64-2.18,2.18h0l-.45.45h0l-.45-.45h0l-2.18-2.18-2.63,2.64h0L95,64.87l-2.64,2.64-2.63-2.64-2.18,2.18h0l-.45.45h0l-.45-.45h0l-2.18-2.18-2.64,2.64h0l-1.93-1.93.36-.54,1.57,1.57L84,64.42h0l.45-.45h0l.45.45h0l2.18,2.18,2.18-2.18h0L89.7,64h0l.45.45h0l2.18,2.19,2.19-2.19h0L95,64h0l.45.45h0l2.18,2.19,2.19-2.19h0l.45-.45h0l.46.45h0l2.18,2.18,2.18-2.18h0l.46-.45h0l.45.45h0l2.19,2.19.39-.38C108.66,66.41,108.77,66.6,108.88,66.79Z"/><path class="cls-2" d="M100.62,53.42a6.62,6.62,0,0,1-5,6.41A7,7,0,0,1,94,60a6.6,6.6,0,0,1,0-13.2,7,7,0,0,1,1.6.19A6.63,6.63,0,0,1,100.62,53.42Z"/><path class="cls-4" d="M100.62,53.42a6.62,6.62,0,0,1-5,6.41,6.61,6.61,0,0,1,0-12.82A6.63,6.63,0,0,1,100.62,53.42Z"/><rect class="cls-4" x="72.91" y="84.47" width="0.77" height="9.92"/><rect class="cls-4" x="76.38" y="84.47" width="0.77" height="9.92"/><rect class="cls-4" x="79.85" y="84.47" width="0.77" height="9.92"/><rect class="cls-4" x="83.32" y="84.47" width="0.77" height="9.92"/><rect class="cls-4" x="86.79" y="84.47" width="0.77" height="9.92"/><rect class="cls-4" x="90.26" y="84.47" width="0.77" height="9.92"/><rect class="cls-4" x="93.73" y="84.47" width="0.77" height="9.92"/><rect class="cls-4" x="97.2" y="84.47" width="0.77" height="9.92"/><rect class="cls-4" x="100.67" y="84.47" width="0.77" height="9.92"/><rect class="cls-4" x="104.14" y="84.47" width="0.77" height="9.92"/><rect class="cls-4" x="107.61" y="84.47" width="0.77" height="9.92"/><rect class="cls-4" x="111.08" y="84.47" width="0.77" height="9.92"/><rect class="cls-4" x="114.55" y="84.47" width="0.77" height="9.92"/><path class="cls-1" d="M82,97.36c-.12,2.09-.81,9.83-.5,11.46a5,5,0,0,0,1.24,2.49l-9.83,6.31A76.28,76.28,0,0,0,65,110.45c-2.85-2.16-7.51-8.51-10-12.21l-.67-1a11.06,11.06,0,0,1-.92-1.63c0-.07,0-.18-.08-.33s-.09-.59-.13-1c-.32-3-.49-9.86,2.3-11.33s8.53,1.19,11,2.74a9.81,9.81,0,0,1,.84.57,2.19,2.19,0,0,1,.26.23,14.09,14.09,0,0,1,1.14,1.45l.69,1c1.77,2.47,4.22,5.93,5.26,6.38,1.54.66.07-6.07,3.27-6.11S82.08,95.28,82,97.36Z"/><path class="cls-3" d="M67.39,86.22l-.9,2.32h-.11l0,.1-3.88-.27L61.05,92h0l-3.88-.27-1.41,3.62h-.06l0,.05-2.31-.16c0-.25-.09-.59-.13-1l1.84.13,1-2.71.38-1h0l1,.07,2.86.2,1-2.67.38-1h0l1,.07,3,.2.76-1.95A9.81,9.81,0,0,1,67.39,86.22Z"/><polygon class="cls-3" points="54.35 97.2 56.99 97.39 58.05 94.68 58.43 93.71 58.44 93.71 59.47 93.78 62.33 93.97 63.37 91.31 63.74 90.35 63.75 90.35 64.78 90.42 67.73 90.62 68.79 87.9 69.48 88.86 68.42 91.56 68.32 91.55 68.28 91.65 64.4 91.38 62.98 95 62.98 95 62.97 95.01 59.09 94.75 57.67 98.37 57.62 98.37 57.6 98.42 55.02 98.24 54.35 97.2"/><path class="cls-5" d="M73.21,119.58l11.17-7.17a.62.62,0,0,0,.11-.86l-1.26-2a.62.62,0,0,0-.83-.25L71.23,116.5a.63.63,0,0,0-.12.86l1.27,2A.63.63,0,0,0,73.21,119.58Z"/><path class="cls-1" d="M123.71,112.81c-3,3.57-8.78,9.65-12.06,11.56a80.91,80.91,0,0,0-9.23,6.52L92.9,123a5.15,5.15,0,0,0,1.62-2.46c.54-1.67.82-9.91,1-12.12s1.86-8.61,5.22-8.15,1,7.35,2.64,6.85c1.16-.34,4.18-3.66,6.37-6,.3-.33.58-.64.85-.92A19,19,0,0,1,112,98.77a2.41,2.41,0,0,1,.31-.2c.24-.14.56-.31.95-.49,2.83-1.32,9.2-3.38,12-1.46s1.68,9.09,1,12.22c-.1.43-.19.78-.27,1a1.59,1.59,0,0,1-.12.34,11.63,11.63,0,0,1-1.18,1.6h0C124.3,112.12,124,112.45,123.71,112.81Z"/><path class="cls-3" d="M125.85,109.87l-2.44-.13v-.06h-.06l-1-4-4.11-.23h0l-1-4-4.11-.22,0-.11h-.11l-.65-2.55c.24-.14.56-.31.95-.49l.55,2.14,3.13.17,1.1.06h0l.27,1.07.75,2.94,3,.16,1.1.06h0l.27,1.07.77,3,1.94.11C126,109.27,125.93,109.62,125.85,109.87Z"/><path class="cls-3" d="M123.71,112.81l-2.73-.14v-.06h-.06l-1-4-4.12-.22h0l-1-4-4.11-.22,0-.11h-.11l-.76-3c.3-.33.58-.64.85-.92l.76,3,3.13.17,1.1.06h0l.27,1.06.75,2.94,3,.17,1.1,0h0l.27,1.06.77,3,2.8.15C124.3,112.12,124,112.45,123.71,112.81Z"/><path class="cls-6" d="M90.65,124.07l10.82,9a.66.66,0,0,0,.91-.16L104,131a.64.64,0,0,0,0-.91l-10.82-9a.66.66,0,0,0-.91.16l-1.58,1.91A.64.64,0,0,0,90.65,124.07Z"/></svg>