<svg id="Layer_1" data-name="Layer 1" xmlns="http://www.w3.org/2000/svg" viewBox="0 0 792 648"><defs><style>.cls-1{fill:#ab2937;}.cls-2{fill:#962430;}.cls-3{fill:#383838;}.cls-4{fill:#b2eaf9;}.cls-5{fill:#ddf8fe;}.cls-6{fill:#d87b00;}.cls-7{fill:#f39200;}.cls-8{fill:#f73c4f;}.cls-9{fill:#2d2d2d;}.cls-10,.cls-11,.cls-12{fill:none;stroke-linecap:round;stroke-miterlimit:10;}.cls-10{stroke:#de3647;stroke-width:3px;}.cls-11,.cls-12{stroke:#c9c9c9;}.cls-11{stroke-width:6px;}.cls-12{stroke-width:5px;}</style></defs><title>Winter Sports Theme copy 2</title><path class="cls-1" d="M429.84,303.11c-2,2.76-15.11,11.33-19.17,10.9-3.4-.37-13.19-8.14-16.31-10.68-3.13,2.54-12.92,10.31-16.32,10.68s-12.49-5.21-17-8.8l-.07,0-.08-.06a13.43,13.43,0,0,1-2.07-2c-2-2.76-1.88-19.89-1.16-21.05s13.76-5.8,20.45-7.55h0c6.12-1.59,14.67-1.85,16.07-1.88h.2c1.39,0,9.94.29,16.06,1.88,6.68,1.75,19.75,6.39,20.48,7.56S431.87,300.35,429.84,303.11Z"/><path class="cls-2" d="M360.94,305.1a13.43,13.43,0,0,1-2.07-2c-2-2.76-1.88-19.89-1.16-21.05s13.76-5.8,20.45-7.55c-.74.25-16.54,5.62-18.71,10.16S358.35,302.91,360.94,305.1Z"/><path class="cls-2" d="M427.65,305.1a13.43,13.43,0,0,0,2.07-2c2-2.76,1.88-19.89,1.16-21.05s-13.77-5.8-20.45-7.55c.74.25,16.54,5.62,18.71,10.16S430.23,302.91,427.65,305.1Z"/><path class="cls-3" d="M426.05,284.77s.59-.22.88,1.45a35.08,35.08,0,0,1,0,5.66s1.16,1,1.16,1.44-.07,4.08-.43,4.37a5.71,5.71,0,0,1-1.09.58,13.1,13.1,0,0,1-.52,3.27c-.35.44-1.35.29-1.08-.22C426.19,299,426.13,286.22,426.05,284.77Z"/><path class="cls-3" d="M363,284.77s-.88-.22-1.17,1.45a35.08,35.08,0,0,0,0,5.66s-1.16,1-1.16,1.44.07,4.08.44,4.37a5.45,5.45,0,0,0,1.08.58,13.1,13.1,0,0,0,.52,3.27c.36.44,1.35.29,1.08-.22C362.56,299,362.91,286.22,363,284.77Z"/><path class="cls-4" d="M426.11,294.1c-.14,4-.5,7.81-1.16,8.72-1.41,2-10.31,8.55-15.06,7.5l-.33-.09c-1.61-.5-3.59-2.33-5.6-4.53-.59-.64-1.18-1.31-1.77-2l-2.42-2.86c-2.24-2.63-4.19-4.82-5.31-5-2.76.44-10.46,12.93-15.11,14.38-3.63,1.14-10.11-2.79-13.46-5.53a11.15,11.15,0,0,1-1.93-1.88c-.63-.87-1-4.38-1.14-8.19-.21-5.06-.07-10.67.27-11.41.45-1,9.07-3.79,16.18-5a39.15,39.15,0,0,1,5.16-.63,32.09,32.09,0,0,1,8.06.55,9.75,9.75,0,0,1,2,.62s2.9-1.46,10-1.17c4.21.17,10.72,1.67,15.45,3.14h0c1.54.47,2.89.95,3.91,1.37a4.7,4.7,0,0,1,2,1.16,2.59,2.59,0,0,1,.11.5A77.86,77.86,0,0,1,426.11,294.1Z"/><path class="cls-5" d="M392.49,278.1l-26.6,26.6a11.15,11.15,0,0,1-1.93-1.88c-.63-.87-1-4.38-1.14-8.19l16.45-16.45a39.15,39.15,0,0,1,5.16-.63A32.09,32.09,0,0,1,392.49,278.1Z"/><path class="cls-5" d="M423.84,282.06l-21.65,21.65-2.42-2.86,20.16-20.16h0C421.47,281.16,422.82,281.64,423.84,282.06Z"/><path class="cls-5" d="M426.11,294.1l-16.22,16.22-.33-.09c-1.61-.5-3.59-2.33-5.6-4.53l22-22A77.86,77.86,0,0,1,426.11,294.1Z"/><path class="cls-3" d="M387.86,275.09a18.86,18.86,0,0,1,6.6-.93c3.71.15,5.67.77,5.67.93a40.52,40.52,0,0,1-5.67,1.11A62.4,62.4,0,0,1,387.86,275.09Z"/><path class="cls-6" d="M392.78,311.2a6.27,6.27,0,0,1-1.58-.2h0l-24.06-4.91-3.42-.7-3.65-.74h39.25A6.54,6.54,0,0,1,392.78,311.2Z"/><path class="cls-7" d="M391.2,298.31h0a6.77,6.77,0,0,1,1.58-.2,6.54,6.54,0,0,1,6.54,6.55H360.07l5.36-1.1,1.29-.26Z"/><path class="cls-8" d="M475.19,393.09a73.82,73.82,0,0,1-4.78,26.22H331.82a74.14,74.14,0,0,1,41.6-94.94,38.17,38.17,0,0,0,55.4,0A74.09,74.09,0,0,1,475.19,393.09Z"/><path class="cls-9" d="M463.33,352.86c-16.46-9.06-38.28-11.58-62.21-11.58s-45.76,2.52-62.23,11.59a74.38,74.38,0,0,1,34.53-28.5,38.17,38.17,0,0,0,55.4,0A74.31,74.31,0,0,1,463.33,352.86Z"/><line class="cls-10" x1="402.42" y1="364.01" x2="467.07" y2="364.01"/><line class="cls-10" x1="402.42" y1="397.23" x2="473.21" y2="397.23"/><line class="cls-10" x1="400.22" y1="364.01" x2="335.57" y2="364.01"/><line class="cls-10" x1="400.22" y1="397.23" x2="329.43" y2="397.23"/><path class="cls-11" d="M373.42,324.37a38.17,38.17,0,0,0,55.4,0"/><line class="cls-12" x1="401.12" y1="419.31" x2="401.12" y2="338.28"/><line class="cls-12" x1="331.82" y1="419.31" x2="472.12" y2="419.31"/></svg>