<svg id="Layer_1" data-name="Layer 1" xmlns="http://www.w3.org/2000/svg" viewBox="0 0 792 648"><defs><style>.cls-1{fill:#50c2ef;}.cls-2{fill:#99def5;}.cls-3{fill:#88d8f1;}.cls-4{fill:#9edff6;}.cls-5{fill:#ddf8fe;}.cls-6{fill:#d1f6fe;}.cls-7{fill:#b78a76;}.cls-8{fill:#005662;}.cls-9{fill:#006454;}.cls-10{fill:#b2eaf9;}.cls-11{fill:#ab816e;}.cls-12{fill:#fff;}</style></defs><title>WinterSports-Theme-Background</title><rect class="cls-1" x="-0.06" y="0.46" width="792" height="648"/><path class="cls-2" d="M136.66,374.33s59.49-175.16,178-199.11,151.94,86.85,177.78,131,86.34,68.13,86.34,68.13Z"/><path class="cls-2" d="M791.94,213.6V374.28l-46.86,0-6.68,0H690.57l-89.93,0H578.37l-54.49,0H458.42l-3.82,0H412.85l-43,0h-3.88s-.09-.19-.23-.52h0c-.06-.13-.12-.3-.21-.47-.42-.93-1.05-2.36-1.58-3.56s-.94-2.15-.94-2.2l.4-1.09c.42-1.16,1.14-3.08,2.12-5.66.14-.39.31-.79.46-1.21.79-2.05,1.73-4.46,2.81-7.19,1.59-4,3.47-8.6,5.66-13.8q1-2.36,2.06-4.86c.34-.81.7-1.63,1.06-2.48h0a0,0,0,0,0,0,0c2-4.63,4.19-9.62,6.59-14.89,2.12-4.68,4.38-9.59,6.81-14.68,2-4.19,4.08-8.51,6.26-12.92.39-.79.79-1.58,1.19-2.38,0-.09.09-.18.14-.27,1.58-3.19,3.23-6.42,4.92-9.69.17-.33.34-.66.52-1,6.87-13.26,14.53-27.15,22.92-41.06q5.64-9.33,11.68-18.63c16.05-24.62,34.34-48.56,54.54-68.58,26.38-26.18,56-45.67,88.25-51.24,21-3.65,40-4.65,57.22-3.43h.31c1.67.12,3.27.23,4.89.39C726.15,100.5,766.6,158.85,791.94,213.6Z"/><path class="cls-3" d="M638.58,92.27c-11.08,0-39.58,3.92-83.22,36.76-57.22,43.07-156,238.17-156,238.17l-36.36.14c3-8.36,90.61-249.53,218.4-271.65C602.38,92.05,621.36,91.05,638.58,92.27Z"/><path class="cls-4" d="M791.94,356.62v17.71H591.77l-.16-.14c-2.26-2-26.34-25.88,18.36-89.57a132.48,132.48,0,0,0,12.81-23c10.4-23.63,15.53-51,17.78-76.66.5-5.74.85-11.4,1.09-16.91a451.67,451.67,0,0,0-3.07-75.76s42.72,16.85,74.67,79.59a152,152,0,0,1,13,36.8c.14.64.27,1.29.4,1.94,1.21,5.8,2.13,11.55,2.87,17.22.2,1.6.39,3.21.58,4.8.56,4.93,1,9.8,1.45,14.59,0,.36.06.71.1,1.06s0,.61.08.9c.26,3,.51,5.86.78,8.75.06.69.13,1.37.2,2,.22,2.45.46,4.86.75,7.25,0,.28.05.57.09.85.22,2,.48,4,.76,6,.55,3.93,1.19,7.79,2,11.58.5,2.34,1,4.67,1.68,7a83.68,83.68,0,0,0,11.49,25.57,79.88,79.88,0,0,0,14,15.59c1.24,1.08,2.45,2.12,3.65,3.13C776.77,345.15,785,351.59,791.94,356.62Z"/><path class="cls-5" d="M791.94,375.31v233H-.06V415.5a40.71,40.71,0,0,1,.33-5.21,40.2,40.2,0,0,1,17.15-27.94l.07,0a39.54,39.54,0,0,1,8.14-4.3h0a39.59,39.59,0,0,1,12.15-2.63c.78-.05,1.56-.07,2.35-.07h751.8Z"/><path class="cls-6" d="M-.06,410.29s18.33-101,54.82-114.79,46.79,50.07,54.75,75.52a83.78,83.78,0,0,0,26.59,39.27Z"/><polygon class="cls-7" points="222.32 372.7 211.99 372.62 211.81 332.78 222.15 332.86 222.32 372.7"/><polygon class="cls-8" points="230.66 284.05 230.66 284.04 230.66 284.04 230.66 284.05"/><path class="cls-8" d="M256.69,361.83c-.17,0-3.46-.24-8.09-.64-3.48-.3-7.73-.7-12-1.17l-.43,0c-4.38-.5-8.71-1.07-12.15-1.69l-.38-.08c-.5-.09-1-.18-1.42-.28-2.8-.58-4.74-1.21-5.18-1.86-.43.64-2.36,1.24-5.16,1.78-1.35.26-2.9.51-4.58.74l-1.23.17c-1.59.2-3.27.4-5,.58-1.95.21-3.95.4-5.92.57-2.35.21-4.65.4-6.78.56-1.54.11-3,.22-4.3.3l-.28,0c-3.79.26-6.33.39-6.33.39.9-.63,1.8-1.27,2.69-1.92,3-2.23,5.28-4,7.16-5.7a4,4,0,0,0,.31-.27,42.05,42.05,0,0,0,5.15-5.4c1.82-2.29,3.49-4.85,5.78-8.4.73-1.12,1.51-2.34,2.39-3.68q-2.25,1-4.54,1.93-7.89,3.25-16.17,6l2.06-1.57a86.19,86.19,0,0,0,9.46-8.49,88.12,88.12,0,0,0,8-9.61,1.27,1.27,0,0,0,.13-.19,90.2,90.2,0,0,0,5.87-9.33q-5.82,2.91-11.91,5.5h0l-2.68,1.13,1.42-1.27.46-.42a72.2,72.2,0,0,0,15.11-19.76c1-1.85,1.88-3.74,2.72-5.67-1.56.88-3.14,1.76-4.73,2.61q-4.36,2.35-8.92,4.52l1.08-1.09a60.19,60.19,0,0,0,5.76-6.77,63,63,0,0,0,3.78-5.82c.41-.71.81-1.44,1.2-2.17s.89-1.72,1.3-2.59q1.05-2.2,2-4.48c-1.24.77-2.49,1.52-3.75,2.27-1.05.62-2.1,1.23-3.17,1.83l-2.57,1.43.76-.86c.35-.4.7-.8,1-1.21.85-1,1.65-2.08,2.41-3.18a61.29,61.29,0,0,0,9.57-23.94c2.09,10.9,6.51,20.88,13.25,28.55l.06.06.71.81-1-.56q-4.36-2.48-8.54-5.13a69.31,69.31,0,0,0,9,16,61.18,61.18,0,0,0,5.2,6.05l1.09,1.11q-4.42-2.17-8.68-4.52c-1.69-.93-3.37-1.88-5-2.85.51,1.19,1.05,2.35,1.63,3.51.3.63.62,1.24.94,1.86.69,1.31,1.41,2.61,2.17,3.88s1.64,2.64,2.51,3.92a73,73,0,0,0,11.26,13l1.43,1.29q-7.51-3.21-14.65-6.87a91.55,91.55,0,0,0,23.71,28l1.44,1.12.64.49-.53-.19q-10.43-3.65-20.25-8.1c8.06,12.32,8.85,14.6,21,23.79C254.88,360.52,255.78,361.18,256.69,361.83Z"/><polygon class="cls-7" points="245.18 364.58 244.87 368.52 244.87 368.59 244.13 377.98 243.56 385.23 243.42 387.07 243.07 391.44 242.61 397.33 241.83 407.29 231.91 406.71 232.59 398.18 233.16 390.87 233.24 389.86 233.89 381.6 234.01 380 234.5 373.89 234.92 368.42 234.95 368.14 235.07 366.63 235.08 366.45 235.09 366.33 235.27 364.01 245.18 364.58"/><path class="cls-9" d="M273.35,395c.8.74,1.61,1.49,2.43,2.23,0,0-7-.89-14.89-2.17-6.2-1-13-2.27-17.53-3.54l-.29-.08c-2.64-.76-4.44-1.52-4.8-2.24-.47.67-2.38,1.22-5.11,1.67-2,.33-4.39.6-7,.83h-.06c-4.5.39-9.59.66-14.07.83l-6.15.2-1.19,0c-2.95.07-4.84.09-4.84.09l2.15-1.51.6-.43,1.08-.8c2.69-2,4.81-3.67,6.59-5.22a48.21,48.21,0,0,0,8.07-9c.54-.75,1.09-1.55,1.68-2.4l1.45-2.11.74-1.1,2.41-3.53c-1.27.54-2.56,1.07-3.86,1.59-1.6.65-3.22,1.27-4.85,1.88h0c-1.38.52-2.78,1-4.18,1.52s-2.77,1-4.16,1.42q-1.6.54-3.24,1.05l-.27.08.06,0c.69-.51,1.37-1,2-1.55l1.1-.84c.68-.54,1.36-1.08,2-1.64,1.08-.9,2.15-1.83,3.19-2.79.65-.58,1.28-1.18,1.91-1.79h0q2.18-2.1,4.2-4.33c.44-.48.88-1,1.31-1.47h0c1.38-1.58,2.72-3.21,4-4.88,1.44-1.88,2.81-3.81,4.13-5.79l.79-1.21q1.2-1.86,2.31-3.76c-1.34.65-2.69,1.29-4.06,1.92q-5.17,2.39-10.53,4.5c.5-.42,1-.86,1.48-1.29a74.54,74.54,0,0,0,6.3-6.27c.83-.93,1.64-1.89,2.43-2.86q1.51-1.87,2.93-3.84a90.23,90.23,0,0,0,5.24-8.22c.51-.91,1-1.82,1.48-2.75s1-1.94,1.46-2.92c-1.08.6-2.17,1.2-3.27,1.79-.66.36-1.33.71-2,1.06q-4.17,2.18-8.46,4.17l1.13-1.12a64.12,64.12,0,0,0,5.26-5.87c.14-.17.28-.35.41-.53.43-.55.85-1.1,1.26-1.67.55-.75,1.08-1.51,1.61-2.28a80.56,80.56,0,0,0,6.81-12.4q-3.62,2.21-7.37,4.28h0L231,311.12l.81-.89.59-.66c.06-.07.13-.14.19-.22a61.88,61.88,0,0,0,9.7-15.59,81.79,81.79,0,0,0,4.47-13.16.65.65,0,0,0,0-.13v.16c0,.38.07.77.11,1.16l.06.56c0,.22.05.45.08.67s0,.42.08.63,0,.27.05.4l0,.24.09.65c0,.16,0,.32.07.48s.07.45.1.68l0,.09s0,.09,0,.14,0,.19.05.28a1.25,1.25,0,0,0,0,.19c0,.16,0,.32.08.48s.09.55.14.82l0,.14.06.34.06.32,0,.19c0,.12.05.25.07.37l0,.12.12.61c.05.2.09.39.13.59l.09.39.09.39,0,.12c0,.13.07.26.1.39s.07.31.11.46l.21.84a.83.83,0,0,0,0,.15c.06.26.13.51.2.76l.21.75c0,.05,0,.1,0,.15l.12.4c0,.1,0,.19.08.28s.1.35.16.53.08.27.13.41l.08.26c0,.06,0,.12.05.17.1.29.19.59.29.88s.15.42.22.64c0,.07,0,.14.07.21l0,.05,0,.15.11.3,0,0,.09.25c.07.2.14.4.22.59,0,0,0,0,0,0,.06.19.13.36.2.54.18.46.36.92.55,1.37l.17.38.12.3a1,1,0,0,1,.07.15l.18.42a2,2,0,0,1,.1.21l.18.41.2.42.2.42h0l0,.1.43.87.07.13.36.69.15.3a0,0,0,0,1,0,0v0l.15.27,0,.06,0,0a.41.41,0,0,0,0,.09l.15.27.18.33c.41.72.83,1.42,1.26,2.11l.09.14c.1.16.19.31.29.45s.35.54.53.8l.66,1q-4.44-3.17-8.64-6.55a70,70,0,0,0,11.65,24.31c.31.42.63.83.95,1.24q-6.48-4.05-12.51-8.53l.27.88c.06.2.13.39.19.58s.16.52.25.78.15.43.22.65.07.21.11.32.12.36.19.54l.18.52.29.8.21.57c.06.15.11.3.17.44.22.57.44,1.14.67,1.7.09.23.18.46.28.69s.15.37.23.55l.23.54.21.48c.1.23.2.46.31.69s.19.42.28.62.17.37.26.55l.06.14.07.14.09.2c.08.15.15.3.22.45s.24.48.35.72l.26.52.72,1.39c.16.3.32.6.49.9l.38.69.21.36c.09.16.17.32.27.47s.24.43.37.64l.09.16.06.1.15.25.28.46a2.39,2.39,0,0,0,.13.21,1,1,0,0,0,.11.17l.16.27c.07.1.13.2.19.3l.47.73c.13.21.27.42.41.63l.05.07.15.22a.43.43,0,0,0,0,.07c.05.07.1.14.14.21l.15.21.09.13v0l.39.57v0l.43.6.22.31.36.48c.1.15.21.29.32.44s.22.3.34.44l.22.3.47.61.19.23.08.11.06.07,0,0,.07.09.08.09.1.12a1.84,1.84,0,0,0,.17.22l.45.55.27.31c.15.19.31.37.47.56l1.26,1.45q-6.93-3.8-13.46-8,1.86,4.6,4.13,9l.12.23a89.17,89.17,0,0,0,16,21.91l1.85,1.82q-9.94-4.5-19.21-9.85l.15.29.87,1.8C262,382.38,263.09,385.13,273.35,395Z"/><polygon class="cls-7" points="73.49 409.78 61.09 411.47 59.48 402.28 58.02 393.89 58 393.79 57.62 391.61 52.98 365 52.85 364.23 52.78 363.82 53.51 363.72 59.23 362.94 65.18 362.12 68.58 381.65 70.31 391.54 70.4 392.09 72.11 401.9 73.49 409.78"/><path class="cls-8" d="M112.45,390.79s-2.14.16-5.53.37c-2.67.17-6.1.37-9.87.56-6.15.3-13.17.57-19.19.56-2.76,0-5.3,0-7.46-.19-.72,0-1.4-.09-2-.15-2.38-.24-4-.62-4.54-1.17-.39.84-2.58,1.89-5.83,3l-.54.2h0c-1.4.47-3,1-4.65,1.45-12.33,3.6-31,7.46-34.68,8.2l-.64.13.41-.4c.82-.78,1.62-1.57,2.42-2.37,12.63-12.87,13.09-15.71,20.14-31.68q-11.11,7-23.19,13.11c.72-.74,1.44-1.49,2.15-2.24a100.79,100.79,0,0,0,14.44-19.46,102.65,102.65,0,0,0,5.75-11.67h0q1.23-3,2.3-6-7.77,5.46-16.14,10.47l1.45-1.76a86.5,86.5,0,0,0,16.52-33.59c0-.18.09-.36.13-.55l-2,1.55h0Q35.65,324,29,328.55c.36-.49.72-1,1.07-1.49a75.69,75.69,0,0,0,12.31-28.57q-5,4.25-10.24,8.28l.75-1.16c6.36-10.06,9.53-22.43,9.8-35.56,0-.2,0-.41,0-.62.15.38.29.75.43,1.12a78.65,78.65,0,0,0,15.4,25.2,62.41,62.41,0,0,0,5.85,5.55l1.11.91q-4.42-1.66-8.72-3.49c-1.3-.54-2.58-1.1-3.86-1.66.8,1.31,1.62,2.6,2.48,3.87a88.07,88.07,0,0,0,5.44,7.23c.78.93,1.59,1.85,2.4,2.74A79.48,79.48,0,0,0,74.34,321l1.54,1.13c-5.25-1.67-10.39-3.5-15.43-5.45-.84-.32-1.67-.65-2.49-1,.55.86,1.12,1.7,1.7,2.54A97,97,0,0,0,77.75,338.1c.54.44,1.09.89,1.65,1.33q2.92,2.31,6.06,4.37l2,1.3q-5.3-1.39-10.46-3c-.87-.26-1.73-.52-2.59-.8q-3-.91-5.91-1.91c1.68,2.13,3.42,4.2,5.24,6.21l1,1.15q3.64,3.93,7.66,7.55c1.25,1.12,2.52,2.22,3.83,3.29a110.2,110.2,0,0,0,8.92,6.63q3.6,2.42,7.41,4.56l2.82,1.56q-5-1-10-2.07-7-1.59-13.94-3.48l-2.69-.75,1.84,2c5.36,5.92,8.52,9.54,12.4,12.78,1,.86,2.1,1.69,3.28,2.53q.87.61,1.83,1.26c2.42,1.6,5.29,3.3,9,5.32l1.45.79h0l.22.11Z"/><path class="cls-6" d="M245.18,410.29l-174.63-.14s-.91-3.81-.91-3.89c.93-4.82,27.9-143.85,67.26-156.6a39.7,39.7,0,0,1,17.62-2h.09c.52.06,1,.12,1.51.22,31.25,5.56,42.91,55.34,50.41,91C215.39,381,245.18,410.29,245.18,410.29Z"/><path class="cls-10" d="M154.52,247.69c-3.41,0-12.19,2.25-25.63,21.19-17.62,24.83-48,137.3-48,137.3l-11.2.08c.93-4.82,27.9-143.85,67.26-156.6A39.7,39.7,0,0,1,154.52,247.69Z"/><polygon class="cls-11" points="80.43 410.29 68.95 410.15 68.97 401.5 68.98 395.89 68.99 394.44 69.01 383.78 69.03 374.77 69.05 368.59 69.05 367.33 69.06 365.32 69.06 363.5 71.2 363.52 72.97 363.55 80.54 363.64 80.5 379.89 80.5 382.32 80.48 388.02 80.48 390.18 80.48 390.64 80.47 393.58 80.47 396.37 80.45 401.54 80.43 410.29"/><path class="cls-9" d="M118.71,398.77l-2.95-.25-4.73-.44-5-.51c-2.13-.23-4.41-.49-6.71-.77h-.06c-4.06-.49-8.21-1.06-11.81-1.69h0l-.88-.16c-2.39-.43-4.49-.89-6.13-1.36-1.87-.54-3.13-1.11-3.47-1.69-.58,1-3.71,1.81-8,2.55h0c-1.39.24-2.9.46-4.49.68l-1.17.16c-2,.26-4.13.5-6.26.73l-.34,0h0l-2.16.22h0c-9.89,1-19.29,1.49-19.29,1.49,1-.74,1.91-1.49,2.86-2.24C50.9,385,51.73,382.37,60.2,368.13q-7.89,3.8-16.18,7.07c-1.88.74-3.79,1.47-5.71,2.17.74-.61,1.47-1.22,2.19-1.84A95.6,95.6,0,0,0,48,368.47h0a101.82,101.82,0,0,0,13.28-17.55l.54-.9c.65-1.1,1.28-2.22,1.89-3.34s1.21-2.26,1.78-3.4l-3.1,1.66q-5.21,2.76-10.62,5.26l-1.13.52a0,0,0,0,1,0,0L50,351l1.5-1.48a79.05,79.05,0,0,0,7.89-9.12c.31-.41.61-.83.91-1.26s.8-1.12,1.18-1.7c.59-.87,1.17-1.75,1.72-2.65A94.62,94.62,0,0,0,71,319.28q-6.57,4.14-13.55,7.84l-.88.47.67-.74.48-.53a77.37,77.37,0,0,0,14.89-25.53q-4.89,3.36-10,6.46l.82-1c7.08-8.83,11.72-20.4,13.91-33.13h0v0c2.06,12.32,6.39,23.63,13,32.49l.12.16c.21.27.41.54.62.8l.8,1q-5.13-3.21-10-6.7a84.52,84.52,0,0,0,8.1,16.91q1.4,2.2,2.91,4.28c.56.76,1.12,1.51,1.71,2.24s1.35,1.66,2,2.46l1.14,1.3c-1.37-.76-2.73-1.52-4.08-2.31s-2.61-1.52-3.9-2.31c-1-.63-2.09-1.28-3.13-1.94s-2.19-1.39-3.28-2.1c.5,1.29,1,2.58,1.58,3.85.27.63.55,1.27.85,1.9,1.09,2.4,2.28,4.75,3.56,7A86.14,86.14,0,0,0,99.81,347l.47.53h0c.78.87,1.59,1.73,2.4,2.56l1.19,1.2.31.31-.44-.21q-7.68-3.69-14.95-7.87a114.12,114.12,0,0,0,7.63,13.25q1.24,1.84,2.57,3.65c.4.55.8,1.08,1.21,1.61,1.36,1.79,2.79,3.53,4.26,5.21q1.68,1.92,3.45,3.75,2.72,2.81,5.67,5.39l.6.54.44.38h0l.76.65.37.32-.44-.17-1.29-.51h0q-3.54-1.41-7-2.92c-1.44-.62-2.88-1.27-4.31-1.92q-2.48-1.12-4.9-2.31c-1.3-.63-2.6-1.27-3.89-1.93l1.65,2.85c.73,1.27,1.4,2.44,2,3.52.32.55.62,1.08.92,1.58.54.92,1.06,1.78,1.56,2.6s1,1.55,1.43,2.27c.94,1.42,1.88,2.72,2.92,4,.88,1.09,1.82,2.16,2.91,3.28.62.65,1.29,1.32,2,2,1.78,1.71,3.9,3.59,6.52,5.81l.62.51Z"/><path class="cls-5" d="M154.52,247.69s13.16,9.7,23,45.88,1,70,15.44,93.33,18.85,23.39,18.85,23.39H140.1s-8.81-13.27,5.61-51.71S154.52,247.69,154.52,247.69Z"/><path class="cls-6" d="M442.23,385.37s23.2-127.83,69.39-145.31,59.23,63.38,69.31,95.59,33.66,49.72,33.66,49.72Z"/><polygon class="cls-7" points="723.74 337.79 710.65 337.68 710.43 287.24 723.52 287.35 723.74 337.79"/><path class="cls-8" d="M734.3,225.55h0Z"/><path class="cls-8" d="M767.24,324c-.21,0-4.38-.3-10.23-.81-4.41-.38-9.79-.89-15.14-1.48l-.55-.07c-5.54-.62-11-1.35-15.39-2.14l-.47-.09-1.8-.35c-3.55-.74-6-1.54-6.56-2.36-.54.81-3,1.56-6.53,2.25-1.71.33-3.67.64-5.8.94l-1.56.21c-2,.26-4.13.5-6.3.74-2.47.26-5,.5-7.49.72-3,.27-5.89.5-8.59.7-2,.15-3.78.28-5.44.39l-.36,0c-4.8.32-8,.49-8,.49,1.14-.8,2.28-1.62,3.41-2.43,3.78-2.82,6.68-5.12,9.07-7.22l.38-.34a52.85,52.85,0,0,0,6.53-6.84c2.3-2.89,4.41-6.14,7.31-10.63.92-1.41,1.92-3,3-4.65q-2.85,1.25-5.75,2.44-10,4.11-20.47,7.61c.88-.66,1.75-1.32,2.61-2a108.67,108.67,0,0,0,12-10.74,110.87,110.87,0,0,0,10.14-12.17l.16-.23a115.84,115.84,0,0,0,7.43-11.81q-7.36,3.66-15.07,7h0c-1.12.48-2.26,1-3.4,1.42.61-.53,1.21-1.06,1.8-1.6l.58-.53a91.3,91.3,0,0,0,19.14-25c1.24-2.34,2.38-4.74,3.44-7.18-2,1.12-4,2.23-6,3.31q-5.54,3-11.29,5.72l1.37-1.37a77.45,77.45,0,0,0,7.29-8.57,82.2,82.2,0,0,0,4.78-7.37c.53-.91,1-1.83,1.52-2.76s1.13-2.17,1.65-3.28q1.32-2.78,2.46-5.67c-1.56,1-3.14,1.93-4.74,2.88q-2,1.17-4,2.31c-1.08.62-2.16,1.22-3.26,1.82.33-.36.65-.73,1-1.09s.88-1,1.3-1.53c1.07-1.29,2.09-2.64,3-4a77.55,77.55,0,0,0,12.11-30.31c2.65,13.81,8.24,26.43,16.78,36.14l.08.09.89,1-1.25-.71q-5.53-3.14-10.81-6.5a87.65,87.65,0,0,0,11.35,20.29,76.31,76.31,0,0,0,6.59,7.65l1.38,1.4q-5.59-2.75-11-5.71c-2.14-1.18-4.27-2.38-6.36-3.61q1,2.25,2.06,4.44c.39.79.79,1.57,1.2,2.35q1.31,2.5,2.75,4.92t3.17,5a92.57,92.57,0,0,0,14.26,16.44l1.81,1.63q-9.53-4.07-18.55-8.69a116,116,0,0,0,30,35.45l1.81,1.41.82.63-.67-.24q-13.2-4.62-25.64-10.26c10.21,15.6,11.2,18.48,26.58,30.12C765,322.37,766.1,323.2,767.24,324Z"/><polygon class="cls-7" points="752.68 327.5 752.29 332.49 752.28 332.58 751.35 344.46 750.62 353.64 750.44 355.98 750.01 361.5 749.42 368.96 748.43 381.56 735.88 380.84 736.73 370.04 737.46 360.78 737.56 359.51 738.38 349.05 738.54 347.03 739.15 339.29 739.69 332.37 739.72 332.01 739.87 330.1 739.89 329.87 739.9 329.72 740.13 326.78 752.68 327.5"/><path class="cls-9" d="M788.33,366c1,.94,2,1.89,3.08,2.82,0,0-8.81-1.12-18.84-2.75a225.07,225.07,0,0,1-22.19-4.47l-.37-.11c-3.34-.95-5.63-1.92-6.08-2.83-.6.85-3,1.55-6.47,2.11-2.51.41-5.56.76-8.86,1.05h-.08c-5.69.49-12.13.82-17.81,1-2.85.11-5.5.19-7.78.25l-1.51,0c-3.74.09-6.13.12-6.13.12l2.72-1.91.76-.54c.47-.35.93-.68,1.37-1,3.41-2.53,6.09-4.64,8.34-6.6a61.69,61.69,0,0,0,10.22-11.4c.68-.95,1.38-2,2.13-3l1.83-2.67.94-1.39,3-4.47q-2.42,1-4.88,2-3.06,1.23-6.15,2.39h0q-2.64,1-5.31,1.93c-1.74.61-3.5,1.22-5.26,1.8-1.36.45-2.72.89-4.1,1.32l-.34.11.07-.05c.88-.65,1.74-1.31,2.61-2l1.38-1.07c.87-.68,1.72-1.37,2.57-2.07,1.37-1.15,2.72-2.32,4-3.53.82-.74,1.63-1.5,2.42-2.27h0c1.83-1.76,3.6-3.59,5.31-5.47.56-.61,1.11-1.23,1.66-1.86h0c1.74-2,3.43-4.07,5.05-6.18q2.74-3.57,5.23-7.33c.34-.51.67-1,1-1.54q1.51-2.34,2.93-4.75-2.55,1.23-5.13,2.43-6.56,3-13.34,5.7c.63-.54,1.25-1.09,1.87-1.64a93.41,93.41,0,0,0,8-7.94c1.05-1.18,2.08-2.38,3.08-3.62q1.92-2.36,3.7-4.85a109.48,109.48,0,0,0,6.63-10.42c.65-1.14,1.27-2.3,1.88-3.48s1.25-2.45,1.84-3.69c-1.36.76-2.74,1.52-4.13,2.26l-2.54,1.34q-5.26,2.76-10.7,5.28l1.43-1.41a82.67,82.67,0,0,0,6.65-7.43l.53-.67c.54-.7,1.07-1.4,1.59-2.12.69-.94,1.37-1.91,2-2.89a101.15,101.15,0,0,0,8.63-15.7c-3,1.88-6.16,3.68-9.33,5.43h0c-.93.52-1.87,1-2.81,1.53l1-1.13.74-.83.24-.28A78.3,78.3,0,0,0,749,237.85a105.63,105.63,0,0,0,5.67-16.66.94.94,0,0,1,0-.16c0,.06,0,.13,0,.2l.15,1.47c0,.23.05.47.07.71s.07.56.1.85.06.53.1.79l.06.51c0,.1,0,.2,0,.3l.12.83.09.6c0,.29.08.58.13.86v.11l0,.19.06.35a2,2,0,0,0,0,.24c0,.2.07.41.1.61s.12.69.19,1l0,.17c0,.14,0,.29.08.44s.05.27.08.41l0,.23c0,.16.07.31.1.47l0,.15c.05.26.1.51.16.77s.1.5.16.75.07.33.11.49.07.33.11.49l0,.16c0,.17.07.33.11.5s.09.39.14.58l.27,1.06a1.8,1.8,0,0,0,0,.19c.08.32.17.64.25,1l.27,1c0,.07,0,.13,0,.19l.15.51c0,.12.07.23.1.35s.14.45.2.67.11.35.17.52l.1.33.07.22.36,1.1.28.82c0,.09.06.18.1.27a.43.43,0,0,0,0,.05,1.59,1.59,0,0,1,.07.2c0,.12.09.25.14.37s0,0,0,.05.08.22.11.33.19.5.28.74c0,0,0,0,0,0,.09.23.17.46.26.68.23.59.46,1.16.7,1.73l.21.49c0,.13.1.25.16.38s0,.13.08.19l.24.53c0,.09.07.17.12.26s.15.35.23.52l.25.54c.08.18.17.35.25.53h0v0l.06.13.54,1.1.09.16.45.88c.06.13.13.25.2.37v0l.19.35,0,.07,0,0,.06.12c.07.11.13.23.19.34l.24.42c.51.9,1,1.79,1.58,2.66a1.27,1.27,0,0,0,.13.19c.11.19.24.38.36.57.22.34.44.68.67,1l.84,1.24q-5.62-4-11-8.29a89,89,0,0,0,14.75,30.77c.4.53.8,1.05,1.21,1.57q-8.21-5.13-15.84-10.8c.12.37.23.75.35,1.12s.15.49.23.73.21.66.32,1,.18.54.28.81.09.28.14.41.15.46.23.69l.24.66.36,1,.27.72.21.56c.28.72.56,1.44.85,2.15q.17.44.36.87c.09.23.19.47.29.69l.29.69.27.62c.13.28.25.57.38.86s.24.53.37.79.21.47.32.7c0,.06.05.12.08.17s.06.13.09.18a1.92,1.92,0,0,0,.12.25l.27.58.45.91.33.65c.29.59.6,1.18.91,1.76.2.38.4.76.62,1.14s.31.58.48.87l.25.46.35.6c.15.27.31.54.47.81l.12.2.07.12.19.32.35.58.17.27.13.22c.07.11.14.23.22.34l.24.38c.19.31.39.62.59.92s.34.53.52.79a.33.33,0,0,0,.06.1c.06.09.12.19.19.28a.35.35,0,0,0,0,.08l.18.27.18.27.12.16,0,0,.49.72s0,0,0,0c.18.25.36.51.55.76l.28.39c.14.21.29.41.45.62l.4.55c.14.19.28.38.43.56l.28.37.6.77.24.3.1.13.08.1.05.06a.76.76,0,0,0,.08.11l.1.12.13.15c.07.1.15.19.22.28l.57.69.33.4.6.7c.53.61,1.06,1.23,1.6,1.84q-8.79-4.8-17-10.18,2.36,5.84,5.23,11.36l.15.29a112.58,112.58,0,0,0,20.3,27.74c.77.77,1.55,1.53,2.34,2.3q-12.6-5.7-24.32-12.47l.18.37,1.11,2.27C774,350,775.34,353.52,788.33,366Z"/><polygon class="cls-7" points="535.33 384.72 519.63 386.86 517.61 375.23 515.75 364.6 515.73 364.48 515.25 361.71 509.38 328.03 509.21 327.06 509.12 326.54 510.04 326.42 517.29 325.42 524.81 324.39 529.13 349.11 531.3 361.63 531.43 362.33 533.59 374.74 535.33 384.72"/><path class="cls-8" d="M584.66,360.68s-2.72.2-7,.47c-3.37.22-7.72.47-12.5.71-7.77.38-16.67.72-24.28.71-3.5,0-6.72-.07-9.44-.24-.92-.05-1.78-.12-2.58-.2-3-.3-5.09-.77-5.75-1.48-.48,1.07-3.26,2.4-7.37,3.83l-.69.25h0c-1.76.59-3.74,1.21-5.88,1.83-15.61,4.55-39.25,9.44-43.9,10.38l-.81.17.51-.51c1-1,2.06-2,3.08-3,16-16.29,16.56-19.89,25.49-40.1q-14.07,8.83-29.36,16.59c.91-.94,1.82-1.88,2.72-2.83a127.48,127.48,0,0,0,18.29-24.64,135.76,135.76,0,0,0,7.28-14.77h0c1-2.5,2-5,2.92-7.59q-9.86,6.92-20.43,13.25l1.83-2.23a109.35,109.35,0,0,0,20.91-42.52c.06-.22.11-.45.17-.68L495.34,270h0q-7.9,6.14-16.37,11.86c.46-.62.91-1.25,1.36-1.88a96.09,96.09,0,0,0,15.59-36.17q-6.27,5.39-13,10.48l.94-1.47c8.05-12.73,12.06-28.39,12.41-45,0-.26,0-.52,0-.79.18.48.36.95.55,1.42a99.39,99.39,0,0,0,19.49,31.91,78.94,78.94,0,0,0,7.41,7l1.39,1.16q-5.58-2.12-11-4.42c-1.64-.68-3.27-1.39-4.89-2.11,1,1.67,2.06,3.3,3.15,4.91a110.38,110.38,0,0,0,6.88,9.15c1,1.18,2,2.34,3,3.47a99.77,99.77,0,0,0,14.1,12.79l1.94,1.43q-10-3.16-19.53-6.9-1.58-.6-3.15-1.23c.7,1.08,1.42,2.15,2.15,3.22A123.5,123.5,0,0,0,540.72,294c.69.56,1.39,1.13,2.09,1.68q3.72,2.93,7.67,5.54l2.51,1.64q-6.69-1.75-13.23-3.74c-1.11-.33-2.2-.67-3.29-1q-3.76-1.17-7.47-2.43,3.16,4.05,6.62,7.87l1.32,1.45q4.6,5,9.7,9.56,2.37,2.13,4.84,4.17,5.41,4.46,11.3,8.39,4.56,3.06,9.38,5.77l3.56,2q-6.35-1.22-12.59-2.63-8.93-2-17.64-4.4c-1.14-.31-2.28-.64-3.41-1l2.33,2.57c6.78,7.49,10.79,12.07,15.7,16.17,1.3,1.09,2.66,2.14,4.15,3.2.74.53,1.51,1.06,2.32,1.6,3.06,2,6.69,4.18,11.35,6.74l1.83,1h0l.27.15Q582.34,359.49,584.66,360.68Z"/><path class="cls-6" d="M752.68,385.37l-221.07-.18s-1.15-4.82-1.15-4.92c1.18-6.1,35.32-182.11,85.14-198.25,8.19-2.66,15.6-3.39,22.31-2.49H638c.65.08,1.28.16,1.9.28,39.57,7,54.33,70.06,63.82,115.13C715,348.29,752.68,385.37,752.68,385.37Z"/><path class="cls-10" d="M637.91,179.53c-4.32,0-15.43,2.86-32.45,26.82-22.3,31.43-60.83,173.82-60.83,173.82l-14.17.1c1.18-6.1,35.32-182.11,85.14-198.25C623.79,179.36,631.2,178.63,637.91,179.53Z"/><polygon class="cls-11" points="544.12 385.37 529.59 385.19 529.61 374.24 529.63 367.14 529.63 365.31 529.66 351.81 529.69 340.4 529.71 332.58 529.71 330.99 529.72 328.44 529.73 326.13 532.43 326.17 534.67 326.19 544.26 326.31 544.21 346.88 544.21 349.95 544.19 357.18 544.18 359.91 544.18 360.49 544.17 364.21 544.16 367.74 544.15 374.29 544.12 385.37"/><path class="cls-9" d="M592.57,370.78l-3.73-.32c-1.6-.14-3.64-.33-6-.56-1.92-.18-4-.4-6.28-.64-2.71-.29-5.59-.61-8.5-1H568c-5.15-.62-10.4-1.35-15-2.14h0l-1.12-.2c-3-.55-5.69-1.13-7.76-1.73-2.37-.68-4-1.4-4.39-2.13-.74,1.21-4.7,2.29-10.15,3.23h0c-1.75.3-3.67.59-5.67.87l-1.49.19c-2.55.34-5.23.64-7.92.93l-.44,0h0l-2.74.28h0c-12.52,1.22-24.42,1.89-24.42,1.89q1.83-1.41,3.61-2.84c16.19-13.29,17.23-16.64,28-34.68q-10,4.81-20.48,8.95-3.58,1.41-7.22,2.75l2.76-2.32a119,119,0,0,0,9.43-8.95h0a129.73,129.73,0,0,0,16.81-22.22l.68-1.14q1.23-2.1,2.39-4.23c.77-1.42,1.53-2.86,2.25-4.31-1.3.71-2.6,1.42-3.92,2.11q-6.6,3.5-13.44,6.66l-1.44.66h0l-.73.34,1.91-1.88a99.33,99.33,0,0,0,10-11.54c.39-.52.77-1.06,1.15-1.59.51-.71,1-1.43,1.5-2.15.74-1.11,1.47-2.22,2.17-3.36a119.92,119.92,0,0,0,9.84-19.62q-8.32,5.25-17.15,9.94l-1.12.59.85-.94.6-.67a98.11,98.11,0,0,0,18.86-32.32Q528,251,521.49,254.93l1-1.28c9-11.17,14.84-25.83,17.61-41.93v0c2.59,15.59,8.09,29.91,16.48,41.13l.15.2c.26.34.51.68.77,1l1,1.3q-6.5-4.06-12.67-8.47a107.74,107.74,0,0,0,10.26,21.4q1.76,2.79,3.68,5.42,1,1.44,2.16,2.82c.85,1.07,1.72,2.11,2.61,3.13.47.55,1,1.1,1.44,1.64q-2.61-1.44-5.17-2.92c-1.66-1-3.3-1.93-4.93-2.93-1.33-.8-2.66-1.62-4-2.45s-2.78-1.77-4.15-2.67c.63,1.65,1.3,3.27,2,4.88.34.8.7,1.61,1.07,2.41q2.08,4.56,4.51,8.89a108.66,108.66,0,0,0,13.24,18.76l.6.68h0q1.49,1.65,3,3.24c.5.5,1,1,1.5,1.51.13.14.27.27.4.4l-.56-.26q-9.72-4.68-18.93-10a143.1,143.1,0,0,0,9.66,16.77c1.06,1.57,2.14,3.11,3.26,4.63q.75,1,1.53,2,2.58,3.39,5.39,6.59c1.41,1.62,2.87,3.2,4.36,4.74q3.45,3.56,7.18,6.83l.77.68.55.48h0l1,.82.47.41-.56-.22-1.63-.64h0q-4.47-1.78-8.85-3.69-2.74-1.2-5.46-2.44-3.12-1.42-6.2-2.93c-1.65-.79-3.3-1.61-4.92-2.43.73,1.27,1.42,2.46,2.08,3.59.92,1.62,1.78,3.09,2.57,4.47l1.17,2c.68,1.17,1.33,2.25,2,3.29s1.21,1.95,1.82,2.87c1.18,1.79,2.37,3.44,3.69,5.07,1.11,1.37,2.31,2.73,3.68,4.15.79.83,1.64,1.67,2.56,2.56,2.25,2.16,4.93,4.54,8.25,7.35l.79.65Z"/><path class="cls-5" d="M637.91,179.53s16.65,12.29,29.11,58.08,1.3,88.56,19.55,118.14,23.86,29.62,23.86,29.62H619.66s-11.15-16.8,7.09-65.47S637.91,179.53,637.91,179.53Z"/><path class="cls-6" d="M697.39,648.46h94.55v-96c-7.51-8.65-15.77-16.09-24.71-21.39-36.37-21.55-120.46-36.42-149.68-68.85-22.62-25.08-53.65-56.84-113.92-76.87q-8.25-2.75-17.27-5.18c-1.16-.32-2.33-.62-3.51-.93l-3-.76c-1.13-.29-2.28-.56-3.43-.83l-3-.7c-1.32-.3-2.66-.6-4-.88h0c-1.07-.24-2.14-.47-3.23-.69-.13,0-.26-.06-.4-.09l-4.9-1-1-.2h0c-4.78-.9-9.7-1.75-14.77-2.52-10.16-1.54-20.92-2.81-32.31-3.74h-.15c-3.75-.32-7.6-.6-11.5-.84l-1.94-.11q-4.47-.26-9.06-.45c-2.24-.1-4.48-.17-6.79-.23h-.44q-14.06-.44-29.26-.24-10.56.13-21.71.62h0q-13.79.58-28.51,1.69-6.56.49-13,1.23c-1.11.12-2.22.26-3.32.39-1.55.19-3.08.39-4.62.61-1.22.16-2.43.33-3.64.51s-2.38.35-3.56.54l-3.2.52-2.43.41c-.22,0-.43.07-.65.12h0l-2.5.44-2.09.39c-1.47.28-2.93.56-4.38.86h0l-1.67.34-3,.64h0l-.36.08c-1.17.25-2.33.5-3.5.77l-4.18,1c-1,.24-2.06.49-3.08.75Q239,379.14,234,380.54l-2,.56c-1.68.48-3.36,1-5,1.46-.78.23-1.57.46-2.35.71l-2.77.85c-1.16.36-2.31.72-3.47,1.1l-3.45,1.13-2.51.84-2.58.89c-2.2.76-4.39,1.55-6.56,2.34h0l-1.93.71c-1.12.41-2.23.83-3.34,1.26l-1.22.47c-2.92,1.12-5.81,2.28-8.68,3.45l-5.45,2.29q-6.09,2.61-12,5.37c-.8.36-1.6.74-2.39,1.11q-3.32,1.56-6.57,3.16l-3.24,1.61-.72.36h0l-.14.07-.91.46L152,413.13l-3.16,1.66-2.5,1.33c-9.58,5.16-18.77,10.52-27.54,16-1,.59-1.9,1.19-2.85,1.79q-2.85,1.81-5.66,3.64l-2.69,1.77-2.73,1.81L102.17,443l-2.66,1.82-2.63,1.82-1.38,1c-.6.42-1.19.83-1.77,1.25q-7.47,5.28-14.4,10.55l-4.13,3.16-2.91,2.27q-2.3,1.8-4.53,3.58c-1.48,1.19-3,2.38-4.39,3.56l-.86.7-3.41,2.82L57,477.18l-2,1.73q-3,2.59-5.92,5.1l-3.8,3.36c-1.24,1.1-2.45,2.2-3.64,3.27l-1.77,1.61q-1.76,1.61-3.43,3.17l-2.07,1.93q-2,1.92-4,3.77L28.48,503,27,504.39l-2.92,2.87-1.29,1.29-1.33,1.33-2.32,2.35-.22.23-2.7,2.77h0l-2.5,2.61c-.16.18-.33.35-.49.52-.71.74-1.38,1.45-2,2.14l-.94,1-1.12,1.21-1.57,1.72L6.5,525.66l-1,1.12-1.32,1.5-1,1.1-.15.18-1,1.11-.25.29a3.23,3.23,0,0,0,.22,4.38l1.06,1c.22.22-1.24,10.45-3.18,25.83v86.25H697.39Z"/><path class="cls-10" d="M382.89,366.24c-3.1,0-7.18.1-12.22.41l-2.69.19A335.58,335.58,0,0,0,330.09,372h0c-3.6.69-7.36,1.45-11.27,2.31-1.43.31-2.88.64-4.36,1-13.92,3.19-29.68,7.48-47.19,13.24a1,1,0,0,0-.16.06,121.22,121.22,0,0,0-13.05,5.26q-5.56,2.58-11.63,5.89c-1.45.79-2.93,1.61-4.42,2.45q-3,1.68-6,3.5c-2.44,1.45-4.93,3-7.46,4.56h0C147.84,458.36,35.17,562.79-.06,596.08V533.21c.24-.29.88-1.06,1.9-2.25l.25-.29,1-1.11.15-.18,1-1.1,1.32-1.5,1-1.12,1.09-1.21,1.57-1.72,1.12-1.21.94-1,2-2.14c.16-.17.33-.34.49-.52l2.5-2.61h0l2.7-2.77.22-.23,2.32-2.35,1.33-1.33,1.29-1.29L27,504.39,28.48,503l1.9-1.83q1.94-1.85,4-3.77l2.07-1.93q1.68-1.56,3.43-3.17l1.77-1.61c1.19-1.07,2.4-2.17,3.64-3.27l3.8-3.36q2.89-2.5,5.92-5.1l2-1.73,2.08-1.74,3.41-2.82.86-.7c1.44-1.18,2.91-2.36,4.39-3.56l4.53-3.58,2.91-2.27,4.13-3.16q6.93-5.25,14.4-10.55c.58-.42,1.17-.83,1.77-1.25l1.38-1,2.63-1.82,2.66-1.82,2.69-1.82,2.73-1.81,2.69-1.77q2.81-1.83,5.66-3.64c1-.6,1.89-1.2,2.85-1.79,8.77-5.48,18-10.84,27.54-16l2.5-1.33,3.16-1.66,4.63-2.38.93-.46.12-.07h0l.72-.36,3.24-1.61q3.26-1.61,6.57-3.16c.79-.37,1.59-.75,2.39-1.11q5.94-2.76,12-5.37l5.45-2.29c2.87-1.17,5.76-2.33,8.68-3.45l1.22-.47c1.11-.43,2.22-.85,3.34-1.26l1.93-.71h0c2.17-.79,4.36-1.58,6.56-2.34l2.58-.89,2.51-.84,3.45-1.13c1.16-.38,2.31-.74,3.47-1.1l2.77-.85c.78-.25,1.57-.48,2.35-.71,1.67-.5,3.35-1,5-1.46l2-.56q5-1.4,10.16-2.66c1-.26,2.05-.51,3.08-.75l4.18-1c1.17-.27,2.33-.52,3.5-.77l.36-.08h0l3-.64,1.67-.34h0c1.45-.3,2.91-.58,4.38-.86l2.09-.39,2.5-.44h0c.22-.05.43-.09.65-.12l2.43-.41,3.2-.52c1.18-.19,2.37-.37,3.56-.54s2.42-.35,3.64-.51c1.54-.22,3.07-.42,4.62-.61,1.1-.13,2.21-.27,3.32-.39q6.45-.74,13-1.23,14.73-1.11,28.51-1.69h0q11.16-.48,21.71-.62Q368.85,365.79,382.89,366.24Z"/><path class="cls-5" d="M697.39,648.46l58-.17,36.56-.1V629c-1.23-1.16-2.51-2.37-3.84-3.6-32.4-30.28-93.2-82-146.53-99-65.27-20.83-90.17-59.26-128.21-93.68h0a1.42,1.42,0,0,0-.13-.12l-3.36-3c-1.18-1-2.38-2.07-3.59-3.09h0c-1.18-1-2.38-2-3.6-3-1.46-1.19-2.95-2.39-4.46-3.56h0c-.9-.71-1.79-1.4-2.71-2.1q-2.16-1.64-4.38-3.25t-4.4-3.09c-1.17-.8-2.34-1.58-3.52-2.36q-3.15-2.06-6.36-4c-.8-.49-1.6-1-2.4-1.43l-.9-.53c-3.57-2.08-7.18-4-10.8-5.92a317.53,317.53,0,0,0-55.52-21.92l-2.22-.65-1.18-.33-.79-.22-1.7-.48h0l-.19-.05-3.84-1c-12.64-3.33-22.27-5.14-26.61-5.89-1.65-.28-2.54-.41-2.54-.41s0,.2-.15.6a46,46,0,0,1-2.91,7.49c-.16.32-.32.64-.48,1a104.79,104.79,0,0,1-15.09,21.92,167.89,167.89,0,0,1-19,18.38c-11.9,9.95-27.5,20.65-47.92,31.37C210.14,485,124.79,631.1,114.83,648.46Z"/><polygon class="cls-6" points="290.79 236.98 290.79 234.73 286.13 234.73 293.4 227.45 291.81 225.86 284.53 233.13 284.53 228.47 282.27 228.47 282.27 233.13 275 225.86 273.41 227.45 280.68 234.73 276.01 234.73 276.01 236.98 280.68 236.98 273.41 244.26 275 245.85 282.27 238.58 282.27 243.25 284.53 243.25 284.53 238.58 291.81 245.85 293.4 244.26 286.13 236.98 290.79 236.98"/><polygon class="cls-6" points="284.53 245.06 282.27 245.06 282.27 248.53 278.81 248.53 278.81 250.79 282.27 250.79 282.27 254.25 284.53 254.25 284.53 250.79 288 250.79 288 248.53 284.53 248.53 284.53 245.06"/><polygon class="cls-6" points="298.33 234.73 298.33 231.26 296.08 231.26 296.08 234.73 292.61 234.73 292.61 236.98 296.08 236.98 296.08 240.45 298.33 240.45 298.33 236.98 301.8 236.98 301.8 234.73 298.33 234.73"/><polygon class="cls-6" points="282.27 226.65 284.53 226.65 284.53 223.18 288 223.18 288 220.92 284.53 220.92 284.53 217.46 282.27 217.46 282.27 220.92 278.81 220.92 278.81 223.18 282.27 223.18 282.27 226.65"/><polygon class="cls-6" points="274.2 234.73 270.73 234.73 270.73 231.26 268.47 231.26 268.47 234.73 265 234.73 265 236.98 268.47 236.98 268.47 240.45 270.73 240.45 270.73 236.98 274.2 236.98 274.2 234.73"/><polygon class="cls-6" points="99.44 202.4 98.89 201.1 96.21 202.25 98.61 196.28 97.3 195.76 94.9 201.72 93.76 199.04 92.46 199.59 93.6 202.27 87.64 199.87 87.11 201.18 93.08 203.58 90.39 204.72 90.95 206.02 93.63 204.88 91.23 210.84 92.54 211.37 94.94 205.41 96.08 208.09 97.38 207.53 96.23 204.85 102.2 207.25 102.72 205.94 96.76 203.54 99.44 202.4"/><polygon class="cls-6" points="97.82 208.58 96.53 209.13 97.38 211.13 95.38 211.97 95.94 213.27 97.93 212.42 98.78 214.42 100.08 213.86 99.23 211.87 101.22 211.02 100.67 209.72 98.67 210.57 97.82 208.58"/><polygon class="cls-6" points="103.22 199.25 102.38 197.26 101.08 197.81 101.93 199.81 99.94 200.66 100.49 201.96 102.48 201.1 103.33 203.1 104.63 202.55 103.78 200.55 105.77 199.7 105.22 198.41 103.22 199.25"/><polygon class="cls-6" points="92.01 198.55 93.31 197.99 92.46 196 94.45 195.15 93.9 193.85 91.91 194.7 91.06 192.71 89.76 193.26 90.61 195.25 88.62 196.1 89.17 197.4 91.16 196.55 92.01 198.55"/><polygon class="cls-6" points="89.35 205.17 87.36 206.02 86.51 204.03 85.21 204.58 86.06 206.57 84.06 207.42 84.62 208.72 86.61 207.87 87.46 209.86 88.76 209.31 87.91 207.32 89.9 206.47 89.35 205.17"/><polygon class="cls-6" points="738.95 121.24 738.6 119.87 735.78 120.58 739.07 115.06 737.86 114.34 734.57 119.86 733.85 117.03 732.49 117.38 733.2 120.2 727.68 116.91 726.96 118.12 732.48 121.42 729.65 122.13 729.99 123.5 732.82 122.78 729.52 128.3 730.74 129.03 734.03 123.51 734.74 126.33 736.11 125.99 735.4 123.16 740.92 126.46 741.64 125.25 736.12 121.95 738.95 121.24"/><polygon class="cls-6" points="736.39 127.09 735.02 127.43 735.55 129.53 733.45 130.06 733.8 131.43 735.9 130.9 736.43 133 737.79 132.66 737.26 130.56 739.37 130.03 739.02 128.66 736.92 129.19 736.39 127.09"/><polygon class="cls-6" points="743.17 118.72 742.64 116.62 741.28 116.96 741.81 119.06 739.7 119.59 740.05 120.96 742.15 120.43 742.68 122.53 744.05 122.19 743.52 120.08 745.62 119.55 745.27 118.19 743.17 118.72"/><polygon class="cls-6" points="732.21 116.28 733.58 115.93 733.04 113.83 735.15 113.3 734.8 111.93 732.7 112.46 732.17 110.36 730.8 110.71 731.33 112.81 729.23 113.34 729.58 114.71 731.68 114.18 732.21 116.28"/><polygon class="cls-6" points="728.55 122.41 726.45 122.94 725.92 120.83 724.55 121.18 725.08 123.28 722.98 123.81 723.32 125.18 725.42 124.65 725.95 126.75 727.32 126.41 726.79 124.3 728.89 123.77 728.55 122.41"/><polygon class="cls-6" points="680.86 40.89 681.22 39.74 678.84 38.99 683.72 36.44 683.16 35.36 678.28 37.92 679.02 35.53 677.87 35.17 677.12 37.56 674.57 32.68 673.5 33.24 676.05 38.12 673.67 37.37 673.31 38.53 675.69 39.27 670.81 41.83 671.37 42.9 676.25 40.34 675.5 42.73 676.66 43.09 677.4 40.7 679.96 45.59 681.03 45.03 678.48 40.14 680.86 40.89"/><polygon class="cls-6" points="676.37 44.02 675.22 43.66 674.66 45.43 672.89 44.88 672.53 46.03 674.3 46.58 673.74 48.36 674.9 48.72 675.45 46.95 677.23 47.5 677.59 46.35 675.81 45.79 676.37 44.02"/><polygon class="cls-6" points="685.08 40.94 685.63 39.17 684.48 38.81 683.92 40.58 682.15 40.03 681.79 41.18 683.56 41.74 683.01 43.51 684.16 43.87 684.72 42.1 686.49 42.65 686.85 41.5 685.08 40.94"/><polygon class="cls-6" points="678.16 34.24 679.31 34.6 679.87 32.83 681.64 33.39 682 32.23 680.23 31.68 680.78 29.91 679.63 29.54 679.08 31.32 677.3 30.76 676.94 31.92 678.72 32.47 678.16 34.24"/><polygon class="cls-6" points="672.74 37.08 670.97 36.53 671.52 34.75 670.37 34.39 669.81 36.17 668.04 35.61 667.68 36.77 669.45 37.32 668.89 39.09 670.05 39.45 670.6 37.68 672.38 38.23 672.74 37.08"/><polygon class="cls-6" points="45.36 85.08 45.16 84.22 43.39 84.63 45.52 81.23 44.77 80.76 42.64 84.17 42.23 82.39 41.37 82.59 41.78 84.36 38.38 82.23 37.91 82.98 41.31 85.11 39.54 85.52 39.74 86.38 41.51 85.97 39.38 89.37 40.13 89.84 42.26 86.44 42.67 88.21 43.52 88.02 43.12 86.24 46.52 88.37 46.99 87.62 43.58 85.49 45.36 85.08"/><polygon class="cls-6" points="43.68 88.71 42.83 88.9 43.13 90.22 41.81 90.53 42.01 91.39 43.33 91.08 43.63 92.4 44.49 92.2 44.18 90.89 45.5 90.58 45.31 89.72 43.99 90.03 43.68 88.71"/><polygon class="cls-6" points="48.03 83.57 47.73 82.25 46.87 82.44 47.17 83.76 45.85 84.07 46.05 84.92 47.37 84.62 47.67 85.94 48.53 85.74 48.23 84.42 49.55 84.12 49.35 83.26 48.03 83.57"/><polygon class="cls-6" points="41.22 81.9 42.07 81.7 41.77 80.38 43.09 80.08 42.89 79.22 41.57 79.52 41.27 78.2 40.41 78.4 40.71 79.72 39.39 80.02 39.59 80.88 40.91 80.58 41.22 81.9"/><polygon class="cls-6" points="38.85 85.68 37.53 85.98 37.22 84.66 36.37 84.86 36.67 86.18 35.35 86.48 35.55 87.34 36.87 87.04 37.17 88.36 38.03 88.16 37.72 86.84 39.04 86.54 38.85 85.68"/><polygon class="cls-6" points="88.86 33.68 89.32 32.53 86.95 31.58 92.13 29.36 91.64 28.23 86.46 30.45 87.41 28.07 86.26 27.61 85.31 29.99 83.09 24.81 81.96 25.3 84.18 30.47 81.8 29.52 81.34 30.67 83.72 31.62 78.54 33.84 79.03 34.98 84.2 32.76 83.26 35.13 84.4 35.59 85.35 33.22 87.57 38.39 88.71 37.91 86.49 32.73 88.86 33.68"/><polygon class="cls-6" points="84.03 36.51 82.89 36.05 82.18 37.82 80.42 37.11 79.96 38.26 81.72 38.97 81.02 40.73 82.17 41.19 82.87 39.42 84.63 40.13 85.09 38.98 83.33 38.28 84.03 36.51"/><polygon class="cls-6" points="93.16 34.06 93.86 32.3 92.71 31.84 92.01 33.6 90.24 32.9 89.78 34.05 91.55 34.75 90.84 36.52 91.99 36.98 92.7 35.21 94.46 35.92 94.92 34.77 93.16 34.06"/><polygon class="cls-6" points="86.63 26.69 87.78 27.15 88.48 25.39 90.25 26.09 90.71 24.94 88.94 24.24 89.65 22.47 88.5 22.02 87.8 23.78 86.03 23.07 85.57 24.22 87.34 24.93 86.63 26.69"/><polygon class="cls-6" points="80.88 29.16 79.12 28.45 79.82 26.69 78.67 26.23 77.97 27.99 76.2 27.29 75.75 28.43 77.51 29.14 76.81 30.9 77.95 31.36 78.66 29.6 80.42 30.3 80.88 29.16"/><polygon class="cls-12" points="608.82 391.37 608.82 389.96 605.9 389.96 610.45 385.42 609.45 384.42 604.91 388.96 604.91 386.05 603.5 386.05 603.5 388.96 598.95 384.42 597.96 385.42 602.5 389.96 599.58 389.96 599.58 391.37 602.5 391.37 597.96 395.92 598.95 396.91 603.5 392.37 603.5 395.28 604.91 395.28 604.91 392.37 609.45 396.91 610.45 395.92 605.9 391.37 608.82 391.37"/><polygon class="cls-12" points="604.91 396.42 603.5 396.42 603.5 398.58 601.33 398.58 601.33 400 603.5 400 603.5 402.16 604.91 402.16 604.91 400 607.07 400 607.07 398.58 604.91 398.58 604.91 396.42"/><polygon class="cls-12" points="613.53 389.96 613.53 387.79 612.12 387.79 612.12 389.96 609.96 389.96 609.96 391.37 612.12 391.37 612.12 393.54 613.53 393.54 613.53 391.37 615.7 391.37 615.7 389.96 613.53 389.96"/><polygon class="cls-12" points="603.5 384.91 604.91 384.91 604.91 382.74 607.07 382.74 607.07 381.33 604.91 381.33 604.91 379.17 603.5 379.17 603.5 381.33 601.33 381.33 601.33 382.74 603.5 382.74 603.5 384.91"/><polygon class="cls-12" points="598.45 389.96 596.28 389.96 596.28 387.79 594.87 387.79 594.87 389.96 592.71 389.96 592.71 391.37 594.87 391.37 594.87 393.54 596.28 393.54 596.28 391.37 598.45 391.37 598.45 389.96"/><polygon class="cls-12" points="142.06 333.48 142.06 332.07 139.14 332.07 143.69 327.53 142.69 326.53 138.14 331.07 138.14 328.16 136.73 328.16 136.73 331.07 132.19 326.53 131.19 327.53 135.74 332.07 132.82 332.07 132.82 333.48 135.74 333.48 131.19 338.03 132.19 339.02 136.73 334.48 136.73 337.39 138.14 337.39 138.14 334.48 142.69 339.02 143.69 338.03 139.14 333.48 142.06 333.48"/><polygon class="cls-12" points="138.14 338.53 136.73 338.53 136.73 340.7 134.56 340.7 134.56 342.11 136.73 342.11 136.73 344.27 138.14 344.27 138.14 342.11 140.31 342.11 140.31 340.7 138.14 340.7 138.14 338.53"/><polygon class="cls-12" points="146.77 332.07 146.77 329.9 145.36 329.9 145.36 332.07 143.19 332.07 143.19 333.48 145.36 333.48 145.36 335.65 146.77 335.65 146.77 333.48 148.94 333.48 148.94 332.07 146.77 332.07"/><polygon class="cls-12" points="136.73 327.02 138.14 327.02 138.14 324.86 140.31 324.86 140.31 323.45 138.14 323.45 138.14 321.28 136.73 321.28 136.73 323.45 134.56 323.45 134.56 324.86 136.73 324.86 136.73 327.02"/><polygon class="cls-12" points="131.68 332.07 129.52 332.07 129.52 329.9 128.11 329.9 128.11 332.07 125.94 332.07 125.94 333.48 128.11 333.48 128.11 335.65 129.52 335.65 129.52 333.48 131.68 333.48 131.68 332.07"/><polygon class="cls-12" points="346.06 314.71 345.84 313.85 344.07 314.3 346.14 310.85 345.38 310.4 343.32 313.84 342.88 312.07 342.02 312.29 342.46 314.06 339.02 311.99 338.56 312.75 342.01 314.81 340.24 315.26 340.46 316.11 342.23 315.67 340.16 319.11 340.92 319.57 342.98 316.12 343.43 317.89 344.28 317.67 343.84 315.91 347.28 317.97 347.74 317.21 344.29 315.15 346.06 314.71"/><polygon class="cls-12" points="344.45 318.36 343.6 318.57 343.93 319.89 342.61 320.22 342.83 321.07 344.14 320.74 344.47 322.06 345.33 321.84 345 320.53 346.31 320.2 346.1 319.35 344.78 319.67 344.45 318.36"/><polygon class="cls-12" points="348.7 313.13 348.37 311.82 347.51 312.04 347.84 313.35 346.53 313.68 346.74 314.53 348.06 314.2 348.39 315.52 349.24 315.3 348.91 313.99 350.23 313.66 350.01 312.81 348.7 313.13"/><polygon class="cls-12" points="341.85 311.6 342.7 311.39 342.37 310.07 343.69 309.74 343.47 308.89 342.16 309.22 341.83 307.9 340.97 308.12 341.3 309.43 339.99 309.76 340.2 310.62 341.52 310.29 341.85 311.6"/><polygon class="cls-12" points="339.56 315.43 338.24 315.76 337.91 314.44 337.06 314.66 337.39 315.97 336.07 316.3 336.29 317.16 337.6 316.83 337.93 318.14 338.79 317.93 338.46 316.61 339.77 316.28 339.56 315.43"/><polygon class="cls-6" points="487.11 61.08 487.59 59.88 485.1 58.89 490.52 56.56 490.01 55.37 484.59 57.7 485.58 55.21 484.38 54.73 483.39 57.22 481.06 51.8 479.87 52.31 482.2 57.73 479.71 56.74 479.23 57.94 481.72 58.93 476.3 61.27 476.81 62.45 482.23 60.12 481.24 62.61 482.44 63.09 483.43 60.6 485.76 66.02 486.95 65.51 484.62 60.09 487.11 61.08"/><polygon class="cls-6" points="482.06 64.06 480.85 63.58 480.12 65.43 478.27 64.69 477.79 65.89 479.64 66.63 478.9 68.48 480.11 68.95 480.84 67.11 482.69 67.84 483.17 66.64 481.32 65.91 482.06 64.06"/><polygon class="cls-6" points="491.61 61.48 492.34 59.63 491.14 59.15 490.4 61 488.56 60.26 488.08 61.47 489.93 62.2 489.19 64.05 490.39 64.53 491.13 62.68 492.98 63.42 493.45 62.22 491.61 61.48"/><polygon class="cls-6" points="484.76 53.77 485.97 54.24 486.7 52.4 488.55 53.13 489.03 51.93 487.18 51.19 487.92 49.34 486.71 48.87 485.98 50.71 484.13 49.98 483.65 51.18 485.5 51.92 484.76 53.77"/><polygon class="cls-6" points="478.74 56.35 476.89 55.62 477.63 53.77 476.43 53.29 475.69 55.14 473.84 54.4 473.37 55.61 475.21 56.34 474.48 58.19 475.68 58.67 476.42 56.82 478.26 57.56 478.74 56.35"/><polygon class="cls-6" points="273.15 71.94 273.15 70.96 271.14 70.96 274.27 67.83 273.59 67.15 270.46 70.28 270.46 68.27 269.49 68.27 269.49 70.28 266.36 67.15 265.67 67.83 268.8 70.96 266.79 70.96 266.79 71.94 268.8 71.94 265.67 75.06 266.36 75.75 269.49 72.62 269.49 74.63 270.46 74.63 270.46 72.62 273.59 75.75 274.27 75.06 271.14 71.94 273.15 71.94"/><polygon class="cls-6" points="270.46 75.41 269.49 75.41 269.49 76.9 268 76.9 268 77.88 269.49 77.88 269.49 79.37 270.46 79.37 270.46 77.88 271.95 77.88 271.95 76.9 270.46 76.9 270.46 75.41"/><polygon class="cls-6" points="276.4 70.96 276.4 69.47 275.43 69.47 275.43 70.96 273.94 70.96 273.94 71.94 275.43 71.94 275.43 73.43 276.4 73.43 276.4 71.94 277.89 71.94 277.89 70.96 276.4 70.96"/><polygon class="cls-6" points="269.49 67.49 270.46 67.49 270.46 66 271.95 66 271.95 65.02 270.46 65.02 270.46 63.53 269.49 63.53 269.49 65.02 268 65.02 268 66 269.49 66 269.49 67.49"/><polygon class="cls-6" points="266.01 70.96 264.52 70.96 264.52 69.47 263.55 69.47 263.55 70.96 262.06 70.96 262.06 71.94 263.55 71.94 263.55 73.43 264.52 73.43 264.52 71.94 266.01 71.94 266.01 70.96"/></svg>