<svg id="Layer_1" data-name="Layer 1" xmlns="http://www.w3.org/2000/svg" viewBox="0 0 792 648"><defs><style>.cls-1,.cls-13{fill:#50c2ef;}.cls-2{fill:#99def5;}.cls-3{fill:#88d8f1;}.cls-4{fill:#9edff6;}.cls-5{fill:#ddf8fe;}.cls-6{fill:#d1f6fe;}.cls-7{fill:#b78a76;}.cls-8{fill:#005662;}.cls-9{fill:#006454;}.cls-10{fill:#b2eaf9;}.cls-11{fill:#ab816e;}.cls-12,.cls-18{fill:#fff;}.cls-13{font-size:15px;}.cls-13,.cls-18{font-family:Nunito-Black, Nunito;}.cls-14{letter-spacing:-0.02em;}.cls-15,.cls-16,.cls-17{fill:#858996;}.cls-15{letter-spacing:0em;}.cls-16{letter-spacing:-0.01em;}.cls-18{font-size:51.65px;}.cls-19{letter-spacing:0.02em;}.cls-20{letter-spacing:-0.02em;}.cls-21{letter-spacing:0.01em;}.cls-22{fill:#231f20;opacity:0.1;}.cls-23{fill:#683c11;}.cls-24{fill:#d87b00;}.cls-25{fill:#f39200;}.cls-26{fill:#4ac0ae;}.cls-27{fill:#f73c4f;}.cls-28{fill:#de3647;}.cls-29{fill:#e63849;}.cls-30{fill:#cf3242;}.cls-31{fill:#ab2937;}.cls-32{fill:#962430;}.cls-33{fill:#383838;}.cls-34{fill:#2d2d2d;}.cls-35,.cls-36,.cls-37{fill:none;stroke-linecap:round;stroke-miterlimit:10;}.cls-35{stroke:#de3647;stroke-width:3px;}.cls-36,.cls-37{stroke:#c9c9c9;}.cls-36{stroke-width:6px;}.cls-37{stroke-width:5px;}.cls-38{fill:#3d3d3d;}.cls-39{fill:#ff9327;}.cls-40{fill:#ffde00;}.cls-41{fill:#bababa;}.cls-42{fill:#ababab;}.cls-43{fill:#a5a5a5;}.cls-44{fill:#43ad9d;}.cls-45{fill:#e0e2e2;}.cls-46{fill:#ed8924;}.cls-47{fill:#f6cba9;}.cls-48{fill:#7bc0b5;}.cls-49{fill:#e8384a;}.cls-50{fill:#1c1c1c;}.cls-51{fill:#f2f0f0;}.cls-52{fill:#494949;}.cls-53{opacity:0.3;}</style></defs><title>WinterSports-Theme</title><rect class="cls-1" x="-0.06" y="0.46" width="792" height="648"/><path class="cls-2" d="M136.66,374.33s59.49-175.16,178-199.11,151.94,86.85,177.78,131,86.34,68.13,86.34,68.13Z"/><path class="cls-2" d="M791.94,213.6V374.28l-46.86,0-6.68,0H690.57l-89.93,0H578.37l-54.49,0H458.42l-3.82,0H412.85l-43,0h-3.88s-.09-.19-.23-.52h0c-.06-.13-.12-.3-.21-.47-.42-.93-1.05-2.36-1.58-3.56s-.94-2.15-.94-2.2l.4-1.09c.42-1.16,1.14-3.08,2.12-5.66.14-.39.31-.79.46-1.21.79-2.05,1.73-4.46,2.81-7.19,1.59-4,3.47-8.6,5.66-13.8q1-2.36,2.06-4.86c.34-.81.7-1.63,1.06-2.48h0a0,0,0,0,0,0,0c2-4.63,4.19-9.62,6.59-14.89,2.12-4.68,4.38-9.59,6.81-14.68,2-4.19,4.08-8.51,6.26-12.92.39-.79.79-1.58,1.19-2.38,0-.09.09-.18.14-.27,1.58-3.19,3.23-6.42,4.92-9.69.17-.33.34-.66.52-1,6.87-13.26,14.53-27.15,22.92-41.06q5.64-9.33,11.68-18.63c16.05-24.62,34.34-48.56,54.54-68.58,26.38-26.18,56-45.67,88.25-51.24,21-3.65,40-4.65,57.22-3.43h.31c1.67.12,3.27.23,4.89.39C726.15,100.5,766.6,158.85,791.94,213.6Z"/><path class="cls-3" d="M638.58,92.27c-11.08,0-39.58,3.92-83.22,36.76-57.22,43.07-156,238.17-156,238.17l-36.36.14c3-8.36,90.61-249.53,218.4-271.65C602.38,92.05,621.36,91.05,638.58,92.27Z"/><path class="cls-4" d="M791.94,356.62v17.71H591.77l-.16-.14c-2.26-2-26.34-25.88,18.36-89.57a132.48,132.48,0,0,0,12.81-23c10.4-23.63,15.53-51,17.78-76.66.5-5.74.85-11.4,1.09-16.91a451.67,451.67,0,0,0-3.07-75.76s42.72,16.85,74.67,79.59a152,152,0,0,1,13,36.8c.14.64.27,1.29.4,1.94,1.21,5.8,2.13,11.55,2.87,17.22.2,1.6.39,3.21.58,4.8.56,4.93,1,9.8,1.45,14.59,0,.36.06.71.1,1.06s0,.61.08.9c.26,3,.51,5.86.78,8.75.06.69.13,1.37.2,2,.22,2.45.46,4.86.75,7.25,0,.28.05.57.09.85.22,2,.48,4,.76,6,.55,3.93,1.19,7.79,2,11.58.5,2.34,1,4.67,1.68,7a83.68,83.68,0,0,0,11.49,25.57,79.88,79.88,0,0,0,14,15.59c1.24,1.08,2.45,2.12,3.65,3.13C776.77,345.15,785,351.59,791.94,356.62Z"/><path class="cls-5" d="M791.94,375.31v233H-.06V415.5a40.71,40.71,0,0,1,.33-5.21,40.2,40.2,0,0,1,17.15-27.94l.07,0a39.54,39.54,0,0,1,8.14-4.3h0a39.59,39.59,0,0,1,12.15-2.63c.78-.05,1.56-.07,2.35-.07h751.8Z"/><path class="cls-6" d="M-.06,410.29s18.33-101,54.82-114.79,46.79,50.07,54.75,75.52a83.78,83.78,0,0,0,26.59,39.27Z"/><polygon class="cls-7" points="222.32 372.7 211.99 372.62 211.81 332.78 222.15 332.86 222.32 372.7"/><polygon class="cls-8" points="230.66 284.05 230.66 284.04 230.66 284.04 230.66 284.05"/><path class="cls-8" d="M256.69,361.83c-.17,0-3.46-.24-8.09-.64-3.48-.3-7.73-.7-12-1.17l-.43,0c-4.38-.5-8.71-1.07-12.15-1.69l-.38-.08c-.5-.09-1-.18-1.42-.28-2.8-.58-4.74-1.21-5.18-1.86-.43.64-2.36,1.24-5.16,1.78-1.35.26-2.9.51-4.58.74l-1.23.17c-1.59.2-3.27.4-5,.58-1.95.21-3.95.4-5.92.57-2.35.21-4.65.4-6.78.56-1.54.11-3,.22-4.3.3l-.28,0c-3.79.26-6.33.39-6.33.39.9-.63,1.8-1.27,2.69-1.92,3-2.23,5.28-4,7.16-5.7a4,4,0,0,0,.31-.27,42.05,42.05,0,0,0,5.15-5.4c1.82-2.29,3.49-4.85,5.78-8.4.73-1.12,1.51-2.34,2.39-3.68q-2.25,1-4.54,1.93-7.89,3.25-16.17,6l2.06-1.57a86.19,86.19,0,0,0,9.46-8.49,88.12,88.12,0,0,0,8-9.61,1.27,1.27,0,0,0,.13-.19,90.2,90.2,0,0,0,5.87-9.33q-5.82,2.91-11.91,5.5h0l-2.68,1.13,1.42-1.27.46-.42a72.2,72.2,0,0,0,15.11-19.76c1-1.85,1.88-3.74,2.72-5.67-1.56.88-3.14,1.76-4.73,2.61q-4.36,2.35-8.92,4.52l1.08-1.09a60.19,60.19,0,0,0,5.76-6.77,63,63,0,0,0,3.78-5.82c.41-.71.81-1.44,1.2-2.17s.89-1.72,1.3-2.59q1.05-2.2,2-4.48c-1.24.77-2.49,1.52-3.75,2.27-1.05.62-2.1,1.23-3.17,1.83l-2.57,1.43.76-.86c.35-.4.7-.8,1-1.21.85-1,1.65-2.08,2.41-3.18a61.29,61.29,0,0,0,9.57-23.94c2.09,10.9,6.51,20.88,13.25,28.55l.06.06.71.81-1-.56q-4.36-2.48-8.54-5.13a69.31,69.31,0,0,0,9,16,61.18,61.18,0,0,0,5.2,6.05l1.09,1.11q-4.42-2.17-8.68-4.52c-1.69-.93-3.37-1.88-5-2.85.51,1.19,1.05,2.35,1.63,3.51.3.63.62,1.24.94,1.86.69,1.31,1.41,2.61,2.17,3.88s1.64,2.64,2.51,3.92a73,73,0,0,0,11.26,13l1.43,1.29q-7.51-3.21-14.65-6.87a91.55,91.55,0,0,0,23.71,28l1.44,1.12.64.49-.53-.19q-10.43-3.65-20.25-8.1c8.06,12.32,8.85,14.6,21,23.79C254.88,360.52,255.78,361.18,256.69,361.83Z"/><polygon class="cls-7" points="245.18 364.58 244.87 368.52 244.87 368.59 244.13 377.98 243.56 385.23 243.42 387.07 243.07 391.44 242.61 397.33 241.83 407.29 231.91 406.71 232.59 398.18 233.16 390.87 233.24 389.86 233.89 381.6 234.01 380 234.5 373.89 234.92 368.42 234.95 368.14 235.07 366.63 235.08 366.45 235.09 366.33 235.27 364.01 245.18 364.58"/><path class="cls-9" d="M273.35,395c.8.74,1.61,1.49,2.43,2.23,0,0-7-.89-14.89-2.17-6.2-1-13-2.27-17.53-3.54l-.29-.08c-2.64-.76-4.44-1.52-4.8-2.24-.47.67-2.38,1.22-5.11,1.67-2,.33-4.39.6-7,.83h-.06c-4.5.39-9.59.66-14.07.83l-6.15.2-1.19,0c-2.95.07-4.84.09-4.84.09l2.15-1.51.6-.43,1.08-.8c2.69-2,4.81-3.67,6.59-5.22a48.21,48.21,0,0,0,8.07-9c.54-.75,1.09-1.55,1.68-2.4l1.45-2.11.74-1.1,2.41-3.53c-1.27.54-2.56,1.07-3.86,1.59-1.6.65-3.22,1.27-4.85,1.88h0c-1.38.52-2.78,1-4.18,1.52s-2.77,1-4.16,1.42q-1.6.54-3.24,1.05l-.27.08.06,0c.69-.51,1.37-1,2-1.55l1.1-.84c.68-.54,1.36-1.08,2-1.64,1.08-.9,2.15-1.83,3.19-2.79.65-.58,1.28-1.18,1.91-1.79h0q2.18-2.1,4.2-4.33c.44-.48.88-1,1.31-1.47h0c1.38-1.58,2.72-3.21,4-4.88,1.44-1.88,2.81-3.81,4.13-5.79l.79-1.21q1.2-1.86,2.31-3.76c-1.34.65-2.69,1.29-4.06,1.92q-5.17,2.39-10.53,4.5c.5-.42,1-.86,1.48-1.29a74.54,74.54,0,0,0,6.3-6.27c.83-.93,1.64-1.89,2.43-2.86q1.51-1.87,2.93-3.84a90.23,90.23,0,0,0,5.24-8.22c.51-.91,1-1.82,1.48-2.75s1-1.94,1.46-2.92c-1.08.6-2.17,1.2-3.27,1.79-.66.36-1.33.71-2,1.06q-4.17,2.18-8.46,4.17l1.13-1.12a64.12,64.12,0,0,0,5.26-5.87c.14-.17.28-.35.41-.53.43-.55.85-1.1,1.26-1.67.55-.75,1.08-1.51,1.61-2.28a80.56,80.56,0,0,0,6.81-12.4q-3.62,2.21-7.37,4.28h0L231,311.12l.81-.89.59-.66c.06-.07.13-.14.19-.22a61.88,61.88,0,0,0,9.7-15.59,81.79,81.79,0,0,0,4.47-13.16.65.65,0,0,0,0-.13v.16c0,.38.07.77.11,1.16l.06.56c0,.22.05.45.08.67s0,.42.08.63,0,.27.05.4l0,.24.09.65c0,.16,0,.32.07.48s.07.45.1.68l0,.09s0,.09,0,.14,0,.19.05.28a1.25,1.25,0,0,0,0,.19c0,.16,0,.32.08.48s.09.55.14.82l0,.14.06.34.06.32,0,.19c0,.12.05.25.07.37l0,.12.12.61c.05.2.09.39.13.59l.09.39.09.39,0,.12c0,.13.07.26.1.39s.07.31.11.46l.21.84a.83.83,0,0,0,0,.15c.06.26.13.51.2.76l.21.75c0,.05,0,.1,0,.15l.12.4c0,.1,0,.19.08.28s.1.35.16.53.08.27.13.41l.08.26c0,.06,0,.12.05.17.1.29.19.59.29.88s.15.42.22.64c0,.07,0,.14.07.21l0,.05,0,.15.11.3,0,0,.09.25c.07.2.14.4.22.59,0,0,0,0,0,0,.06.19.13.36.2.54.18.46.36.92.55,1.37l.17.38.12.3a1,1,0,0,1,.07.15l.18.42a2,2,0,0,1,.1.21l.18.41.2.42.2.42h0l0,.1.43.87.07.13.36.69.15.3a0,0,0,0,1,0,0v0l.15.27,0,.06,0,0a.41.41,0,0,0,0,.09l.15.27.18.33c.41.72.83,1.42,1.26,2.11l.09.14c.1.16.19.31.29.45s.35.54.53.8l.66,1q-4.44-3.17-8.64-6.55a70,70,0,0,0,11.65,24.31c.31.42.63.83.95,1.24q-6.48-4.05-12.51-8.53l.27.88c.06.2.13.39.19.58s.16.52.25.78.15.43.22.65.07.21.11.32.12.36.19.54l.18.52.29.8.21.57c.06.15.11.3.17.44.22.57.44,1.14.67,1.7.09.23.18.46.28.69s.15.37.23.55l.23.54.21.48c.1.23.2.46.31.69s.19.42.28.62.17.37.26.55l.06.14.07.14.09.2c.08.15.15.3.22.45s.24.48.35.72l.26.52.72,1.39c.16.3.32.6.49.9l.38.69.21.36c.09.16.17.32.27.47s.24.43.37.64l.09.16.06.1.15.25.28.46a2.39,2.39,0,0,0,.13.21,1,1,0,0,0,.11.17l.16.27c.07.1.13.2.19.3l.47.73c.13.21.27.42.41.63l.05.07.15.22a.43.43,0,0,0,0,.07c.05.07.1.14.14.21l.15.21.09.13v0l.39.57v0l.43.6.22.31.36.48c.1.15.21.29.32.44s.22.3.34.44l.22.3.47.61.19.23.08.11.06.07,0,0,.07.09.08.09.1.12a1.84,1.84,0,0,0,.17.22l.45.55.27.31c.15.19.31.37.47.56l1.26,1.45q-6.93-3.8-13.46-8,1.86,4.6,4.13,9l.12.23a89.17,89.17,0,0,0,16,21.91l1.85,1.82q-9.94-4.5-19.21-9.85l.15.29.87,1.8C262,382.38,263.09,385.13,273.35,395Z"/><polygon class="cls-7" points="73.49 409.78 61.09 411.47 59.48 402.28 58.02 393.89 58 393.79 57.62 391.61 52.98 365 52.85 364.23 52.78 363.82 53.51 363.72 59.23 362.94 65.18 362.12 68.58 381.65 70.31 391.54 70.4 392.09 72.11 401.9 73.49 409.78"/><path class="cls-8" d="M112.45,390.79s-2.14.16-5.53.37c-2.67.17-6.1.37-9.87.56-6.15.3-13.17.57-19.19.56-2.76,0-5.3,0-7.46-.19-.72,0-1.4-.09-2-.15-2.38-.24-4-.62-4.54-1.17-.39.84-2.58,1.89-5.83,3l-.54.2h0c-1.4.47-3,1-4.65,1.45-12.33,3.6-31,7.46-34.68,8.2l-.64.13.41-.4c.82-.78,1.62-1.57,2.42-2.37,12.63-12.87,13.09-15.71,20.14-31.68q-11.11,7-23.19,13.11c.72-.74,1.44-1.49,2.15-2.24a100.79,100.79,0,0,0,14.44-19.46,102.65,102.65,0,0,0,5.75-11.67h0q1.23-3,2.3-6-7.77,5.46-16.14,10.47l1.45-1.76a86.5,86.5,0,0,0,16.52-33.59c0-.18.09-.36.13-.55l-2,1.55h0Q35.65,324,29,328.55c.36-.49.72-1,1.07-1.49a75.69,75.69,0,0,0,12.31-28.57q-5,4.25-10.24,8.28l.75-1.16c6.36-10.06,9.53-22.43,9.8-35.56,0-.2,0-.41,0-.62.15.38.29.75.43,1.12a78.65,78.65,0,0,0,15.4,25.2,62.41,62.41,0,0,0,5.85,5.55l1.11.91q-4.42-1.66-8.72-3.49c-1.3-.54-2.58-1.1-3.86-1.66.8,1.31,1.62,2.6,2.48,3.87a88.07,88.07,0,0,0,5.44,7.23c.78.93,1.59,1.85,2.4,2.74A79.48,79.48,0,0,0,74.34,321l1.54,1.13c-5.25-1.67-10.39-3.5-15.43-5.45-.84-.32-1.67-.65-2.49-1,.55.86,1.12,1.7,1.7,2.54A97,97,0,0,0,77.75,338.1c.54.44,1.09.89,1.65,1.33q2.92,2.31,6.06,4.37l2,1.3q-5.3-1.39-10.46-3c-.87-.26-1.73-.52-2.59-.8q-3-.91-5.91-1.91c1.68,2.13,3.42,4.2,5.24,6.21l1,1.15q3.64,3.93,7.66,7.55c1.25,1.12,2.52,2.22,3.83,3.29a110.2,110.2,0,0,0,8.92,6.63q3.6,2.42,7.41,4.56l2.82,1.56q-5-1-10-2.07-7-1.59-13.94-3.48l-2.69-.75,1.84,2c5.36,5.92,8.52,9.54,12.4,12.78,1,.86,2.1,1.69,3.28,2.53q.87.61,1.83,1.26c2.42,1.6,5.29,3.3,9,5.32l1.45.79h0l.22.11Z"/><path class="cls-6" d="M245.18,410.29l-174.63-.14s-.91-3.81-.91-3.89c.93-4.82,27.9-143.85,67.26-156.6a39.7,39.7,0,0,1,17.62-2h.09c.52.06,1,.12,1.51.22,31.25,5.56,42.91,55.34,50.41,91C215.39,381,245.18,410.29,245.18,410.29Z"/><path class="cls-10" d="M154.52,247.69c-3.41,0-12.19,2.25-25.63,21.19-17.62,24.83-48,137.3-48,137.3l-11.2.08c.93-4.82,27.9-143.85,67.26-156.6A39.7,39.7,0,0,1,154.52,247.69Z"/><polygon class="cls-11" points="80.43 410.29 68.95 410.15 68.97 401.5 68.98 395.89 68.99 394.44 69.01 383.78 69.03 374.77 69.05 368.59 69.05 367.33 69.06 365.32 69.06 363.5 71.2 363.52 72.97 363.55 80.54 363.64 80.5 379.89 80.5 382.32 80.48 388.02 80.48 390.18 80.48 390.64 80.47 393.58 80.47 396.37 80.45 401.54 80.43 410.29"/><path class="cls-9" d="M118.71,398.77l-2.95-.25-4.73-.44-5-.51c-2.13-.23-4.41-.49-6.71-.77h-.06c-4.06-.49-8.21-1.06-11.81-1.69h0l-.88-.16c-2.39-.43-4.49-.89-6.13-1.36-1.87-.54-3.13-1.11-3.47-1.69-.58,1-3.71,1.81-8,2.55h0c-1.39.24-2.9.46-4.49.68l-1.17.16c-2,.26-4.13.5-6.26.73l-.34,0h0l-2.16.22h0c-9.89,1-19.29,1.49-19.29,1.49,1-.74,1.91-1.49,2.86-2.24C50.9,385,51.73,382.37,60.2,368.13q-7.89,3.8-16.18,7.07c-1.88.74-3.79,1.47-5.71,2.17.74-.61,1.47-1.22,2.19-1.84A95.6,95.6,0,0,0,48,368.47h0a101.82,101.82,0,0,0,13.28-17.55l.54-.9c.65-1.1,1.28-2.22,1.89-3.34s1.21-2.26,1.78-3.4l-3.1,1.66q-5.21,2.76-10.62,5.26l-1.13.52a0,0,0,0,1,0,0L50,351l1.5-1.48a79.05,79.05,0,0,0,7.89-9.12c.31-.41.61-.83.91-1.26s.8-1.12,1.18-1.7c.59-.87,1.17-1.75,1.72-2.65A94.62,94.62,0,0,0,71,319.28q-6.57,4.14-13.55,7.84l-.88.47.67-.74.48-.53a77.37,77.37,0,0,0,14.89-25.53q-4.89,3.36-10,6.46l.82-1c7.08-8.83,11.72-20.4,13.91-33.13h0v0c2.06,12.32,6.39,23.63,13,32.49l.12.16c.21.27.41.54.62.8l.8,1q-5.13-3.21-10-6.7a84.52,84.52,0,0,0,8.1,16.91q1.4,2.2,2.91,4.28c.56.76,1.12,1.51,1.71,2.24s1.35,1.66,2,2.46l1.14,1.3c-1.37-.76-2.73-1.52-4.08-2.31s-2.61-1.52-3.9-2.31c-1-.63-2.09-1.28-3.13-1.94s-2.19-1.39-3.28-2.1c.5,1.29,1,2.58,1.58,3.85.27.63.55,1.27.85,1.9,1.09,2.4,2.28,4.75,3.56,7A86.14,86.14,0,0,0,99.81,347l.47.53h0c.78.87,1.59,1.73,2.4,2.56l1.19,1.2.31.31-.44-.21q-7.68-3.69-14.95-7.87a114.12,114.12,0,0,0,7.63,13.25q1.24,1.84,2.57,3.65c.4.55.8,1.08,1.21,1.61,1.36,1.79,2.79,3.53,4.26,5.21q1.68,1.92,3.45,3.75,2.72,2.81,5.67,5.39l.6.54.44.38h0l.76.65.37.32-.44-.17-1.29-.51h0q-3.54-1.41-7-2.92c-1.44-.62-2.88-1.27-4.31-1.92q-2.48-1.12-4.9-2.31c-1.3-.63-2.6-1.27-3.89-1.93l1.65,2.85c.73,1.27,1.4,2.44,2,3.52.32.55.62,1.08.92,1.58.54.92,1.06,1.78,1.56,2.6s1,1.55,1.43,2.27c.94,1.42,1.88,2.72,2.92,4,.88,1.09,1.82,2.16,2.91,3.28.62.65,1.29,1.32,2,2,1.78,1.71,3.9,3.59,6.52,5.81l.62.51Z"/><path class="cls-5" d="M154.52,247.69s13.16,9.7,23,45.88,1,70,15.44,93.33,18.85,23.39,18.85,23.39H140.1s-8.81-13.27,5.61-51.71S154.52,247.69,154.52,247.69Z"/><path class="cls-6" d="M442.23,385.37s23.2-127.83,69.39-145.31,59.23,63.38,69.31,95.59,33.66,49.72,33.66,49.72Z"/><polygon class="cls-7" points="723.74 337.79 710.65 337.68 710.43 287.24 723.52 287.35 723.74 337.79"/><path class="cls-8" d="M734.3,225.55h0Z"/><path class="cls-8" d="M767.24,324c-.21,0-4.38-.3-10.23-.81-4.41-.38-9.79-.89-15.14-1.48l-.55-.07c-5.54-.62-11-1.35-15.39-2.14l-.47-.09-1.8-.35c-3.55-.74-6-1.54-6.56-2.36-.54.81-3,1.56-6.53,2.25-1.71.33-3.67.64-5.8.94l-1.56.21c-2,.26-4.13.5-6.3.74-2.47.26-5,.5-7.49.72-3,.27-5.89.5-8.59.7-2,.15-3.78.28-5.44.39l-.36,0c-4.8.32-8,.49-8,.49,1.14-.8,2.28-1.62,3.41-2.43,3.78-2.82,6.68-5.12,9.07-7.22l.38-.34a52.85,52.85,0,0,0,6.53-6.84c2.3-2.89,4.41-6.14,7.31-10.63.92-1.41,1.92-3,3-4.65q-2.85,1.25-5.75,2.44-10,4.11-20.47,7.61c.88-.66,1.75-1.32,2.61-2a108.67,108.67,0,0,0,12-10.74,110.87,110.87,0,0,0,10.14-12.17l.16-.23a115.84,115.84,0,0,0,7.43-11.81q-7.36,3.66-15.07,7h0c-1.12.48-2.26,1-3.4,1.42.61-.53,1.21-1.06,1.8-1.6l.58-.53a91.3,91.3,0,0,0,19.14-25c1.24-2.34,2.38-4.74,3.44-7.18-2,1.12-4,2.23-6,3.31q-5.54,3-11.29,5.72l1.37-1.37a77.45,77.45,0,0,0,7.29-8.57,82.2,82.2,0,0,0,4.78-7.37c.53-.91,1-1.83,1.52-2.76s1.13-2.17,1.65-3.28q1.32-2.78,2.46-5.67c-1.56,1-3.14,1.93-4.74,2.88q-2,1.17-4,2.31c-1.08.62-2.16,1.22-3.26,1.82.33-.36.65-.73,1-1.09s.88-1,1.3-1.53c1.07-1.29,2.09-2.64,3-4a77.55,77.55,0,0,0,12.11-30.31c2.65,13.81,8.24,26.43,16.78,36.14l.08.09.89,1-1.25-.71q-5.53-3.14-10.81-6.5a87.65,87.65,0,0,0,11.35,20.29,76.31,76.31,0,0,0,6.59,7.65l1.38,1.4q-5.59-2.75-11-5.71c-2.14-1.18-4.27-2.38-6.36-3.61q1,2.25,2.06,4.44c.39.79.79,1.57,1.2,2.35q1.31,2.5,2.75,4.92t3.17,5a92.57,92.57,0,0,0,14.26,16.44l1.81,1.63q-9.53-4.07-18.55-8.69a116,116,0,0,0,30,35.45l1.81,1.41.82.63-.67-.24q-13.2-4.62-25.64-10.26c10.21,15.6,11.2,18.48,26.58,30.12C765,322.37,766.1,323.2,767.24,324Z"/><polygon class="cls-7" points="752.68 327.5 752.29 332.49 752.28 332.58 751.35 344.46 750.62 353.64 750.44 355.98 750.01 361.5 749.42 368.96 748.43 381.56 735.88 380.84 736.73 370.04 737.46 360.78 737.56 359.51 738.38 349.05 738.54 347.03 739.15 339.29 739.69 332.37 739.72 332.01 739.87 330.1 739.89 329.87 739.9 329.72 740.13 326.78 752.68 327.5"/><path class="cls-9" d="M788.33,366c1,.94,2,1.89,3.08,2.82,0,0-8.81-1.12-18.84-2.75a225.07,225.07,0,0,1-22.19-4.47l-.37-.11c-3.34-.95-5.63-1.92-6.08-2.83-.6.85-3,1.55-6.47,2.11-2.51.41-5.56.76-8.86,1.05h-.08c-5.69.49-12.13.82-17.81,1-2.85.11-5.5.19-7.78.25l-1.51,0c-3.74.09-6.13.12-6.13.12l2.72-1.91.76-.54c.47-.35.93-.68,1.37-1,3.41-2.53,6.09-4.64,8.34-6.6a61.69,61.69,0,0,0,10.22-11.4c.68-.95,1.38-2,2.13-3l1.83-2.67.94-1.39,3-4.47q-2.42,1-4.88,2-3.06,1.23-6.15,2.39h0q-2.64,1-5.31,1.93c-1.74.61-3.5,1.22-5.26,1.8-1.36.45-2.72.89-4.1,1.32l-.34.11.07-.05c.88-.65,1.74-1.31,2.61-2l1.38-1.07c.87-.68,1.72-1.37,2.57-2.07,1.37-1.15,2.72-2.32,4-3.53.82-.74,1.63-1.5,2.42-2.27h0c1.83-1.76,3.6-3.59,5.31-5.47.56-.61,1.11-1.23,1.66-1.86h0c1.74-2,3.43-4.07,5.05-6.18q2.74-3.57,5.23-7.33c.34-.51.67-1,1-1.54q1.51-2.34,2.93-4.75-2.55,1.23-5.13,2.43-6.56,3-13.34,5.7c.63-.54,1.25-1.09,1.87-1.64a93.41,93.41,0,0,0,8-7.94c1.05-1.18,2.08-2.38,3.08-3.62q1.92-2.36,3.7-4.85a109.48,109.48,0,0,0,6.63-10.42c.65-1.14,1.27-2.3,1.88-3.48s1.25-2.45,1.84-3.69c-1.36.76-2.74,1.52-4.13,2.26l-2.54,1.34q-5.26,2.76-10.7,5.28l1.43-1.41a82.67,82.67,0,0,0,6.65-7.43l.53-.67c.54-.7,1.07-1.4,1.59-2.12.69-.94,1.37-1.91,2-2.89a101.15,101.15,0,0,0,8.63-15.7c-3,1.88-6.16,3.68-9.33,5.43h0c-.93.52-1.87,1-2.81,1.53l1-1.13.74-.83.24-.28A78.3,78.3,0,0,0,749,237.85a105.63,105.63,0,0,0,5.67-16.66.94.94,0,0,1,0-.16c0,.06,0,.13,0,.2l.15,1.47c0,.23.05.47.07.71s.07.56.1.85.06.53.1.79l.06.51c0,.1,0,.2,0,.3l.12.83.09.6c0,.29.08.58.13.86v.11l0,.19.06.35a2,2,0,0,0,0,.24c0,.2.07.41.1.61s.12.69.19,1l0,.17c0,.14,0,.29.08.44s.05.27.08.41l0,.23c0,.16.07.31.1.47l0,.15c.05.26.1.51.16.77s.1.5.16.75.07.33.11.49.07.33.11.49l0,.16c0,.17.07.33.11.5s.09.39.14.58l.27,1.06a1.8,1.8,0,0,0,0,.19c.08.32.17.64.25,1l.27,1c0,.07,0,.13,0,.19l.15.51c0,.12.07.23.1.35s.14.45.2.67.11.35.17.52l.1.33.07.22.36,1.1.28.82c0,.09.06.18.1.27a.43.43,0,0,0,0,.05,1.59,1.59,0,0,1,.07.2c0,.12.09.25.14.37s0,0,0,.05.08.22.11.33.19.5.28.74c0,0,0,0,0,0,.09.23.17.46.26.68.23.59.46,1.16.7,1.73l.21.49c0,.13.1.25.16.38s0,.13.08.19l.24.53c0,.09.07.17.12.26s.15.35.23.52l.25.54c.08.18.17.35.25.53h0v0l.06.13.54,1.1.09.16.45.88c.06.13.13.25.2.37v0l.19.35,0,.07,0,0,.06.12c.07.11.13.23.19.34l.24.42c.51.9,1,1.79,1.58,2.66a1.27,1.27,0,0,0,.13.19c.11.19.24.38.36.57.22.34.44.68.67,1l.84,1.24q-5.62-4-11-8.29a89,89,0,0,0,14.75,30.77c.4.53.8,1.05,1.21,1.57q-8.21-5.13-15.84-10.8c.12.37.23.75.35,1.12s.15.49.23.73.21.66.32,1,.18.54.28.81.09.28.14.41.15.46.23.69l.24.66.36,1,.27.72.21.56c.28.72.56,1.44.85,2.15q.17.44.36.87c.09.23.19.47.29.69l.29.69.27.62c.13.28.25.57.38.86s.24.53.37.79.21.47.32.7c0,.06.05.12.08.17s.06.13.09.18a1.92,1.92,0,0,0,.12.25l.27.58.45.91.33.65c.29.59.6,1.18.91,1.76.2.38.4.76.62,1.14s.31.58.48.87l.25.46.35.6c.15.27.31.54.47.81l.12.2.07.12.19.32.35.58.17.27.13.22c.07.11.14.23.22.34l.24.38c.19.31.39.62.59.92s.34.53.52.79a.33.33,0,0,0,.06.1c.06.09.12.19.19.28a.35.35,0,0,0,0,.08l.18.27.18.27.12.16,0,0,.49.72s0,0,0,0c.18.25.36.51.55.76l.28.39c.14.21.29.41.45.62l.4.55c.14.19.28.38.43.56l.28.37.6.77.24.3.1.13.08.1.05.06a.76.76,0,0,0,.08.11l.1.12.13.15c.07.1.15.19.22.28l.57.69.33.4.6.7c.53.61,1.06,1.23,1.6,1.84q-8.79-4.8-17-10.18,2.36,5.84,5.23,11.36l.15.29a112.58,112.58,0,0,0,20.3,27.74c.77.77,1.55,1.53,2.34,2.3q-12.6-5.7-24.32-12.47l.18.37,1.11,2.27C774,350,775.34,353.52,788.33,366Z"/><polygon class="cls-7" points="535.33 384.72 519.63 386.86 517.61 375.23 515.75 364.6 515.73 364.48 515.25 361.71 509.38 328.03 509.21 327.06 509.12 326.54 510.04 326.42 517.29 325.42 524.81 324.39 529.13 349.11 531.3 361.63 531.43 362.33 533.59 374.74 535.33 384.72"/><path class="cls-8" d="M584.66,360.68s-2.72.2-7,.47c-3.37.22-7.72.47-12.5.71-7.77.38-16.67.72-24.28.71-3.5,0-6.72-.07-9.44-.24-.92-.05-1.78-.12-2.58-.2-3-.3-5.09-.77-5.75-1.48-.48,1.07-3.26,2.4-7.37,3.83l-.69.25h0c-1.76.59-3.74,1.21-5.88,1.83-15.61,4.55-39.25,9.44-43.9,10.38l-.81.17.51-.51c1-1,2.06-2,3.08-3,16-16.29,16.56-19.89,25.49-40.1q-14.07,8.83-29.36,16.59c.91-.94,1.82-1.88,2.72-2.83a127.48,127.48,0,0,0,18.29-24.64,135.76,135.76,0,0,0,7.28-14.77h0c1-2.5,2-5,2.92-7.59q-9.86,6.92-20.43,13.25l1.83-2.23a109.35,109.35,0,0,0,20.91-42.52c.06-.22.11-.45.17-.68L495.34,270h0q-7.9,6.14-16.37,11.86c.46-.62.91-1.25,1.36-1.88a96.09,96.09,0,0,0,15.59-36.17q-6.27,5.39-13,10.48l.94-1.47c8.05-12.73,12.06-28.39,12.41-45,0-.26,0-.52,0-.79.18.48.36.95.55,1.42a99.39,99.39,0,0,0,19.49,31.91,78.94,78.94,0,0,0,7.41,7l1.39,1.16q-5.58-2.12-11-4.42c-1.64-.68-3.27-1.39-4.89-2.11,1,1.67,2.06,3.3,3.15,4.91a110.38,110.38,0,0,0,6.88,9.15c1,1.18,2,2.34,3,3.47a99.77,99.77,0,0,0,14.1,12.79l1.94,1.43q-10-3.16-19.53-6.9-1.58-.6-3.15-1.23c.7,1.08,1.42,2.15,2.15,3.22A123.5,123.5,0,0,0,540.72,294c.69.56,1.39,1.13,2.09,1.68q3.72,2.93,7.67,5.54l2.51,1.64q-6.69-1.75-13.23-3.74c-1.11-.33-2.2-.67-3.29-1q-3.76-1.17-7.47-2.43,3.16,4.05,6.62,7.87l1.32,1.45q4.6,5,9.7,9.56,2.37,2.13,4.84,4.17,5.41,4.46,11.3,8.39,4.56,3.06,9.38,5.77l3.56,2q-6.35-1.22-12.59-2.63-8.93-2-17.64-4.4c-1.14-.31-2.28-.64-3.41-1l2.33,2.57c6.78,7.49,10.79,12.07,15.7,16.17,1.3,1.09,2.66,2.14,4.15,3.2.74.53,1.51,1.06,2.32,1.6,3.06,2,6.69,4.18,11.35,6.74l1.83,1h0l.27.15Q582.34,359.49,584.66,360.68Z"/><path class="cls-6" d="M752.68,385.37l-221.07-.18s-1.15-4.82-1.15-4.92c1.18-6.1,35.32-182.11,85.14-198.25,8.19-2.66,15.6-3.39,22.31-2.49H638c.65.08,1.28.16,1.9.28,39.57,7,54.33,70.06,63.82,115.13C715,348.29,752.68,385.37,752.68,385.37Z"/><path class="cls-10" d="M637.91,179.53c-4.32,0-15.43,2.86-32.45,26.82-22.3,31.43-60.83,173.82-60.83,173.82l-14.17.1c1.18-6.1,35.32-182.11,85.14-198.25C623.79,179.36,631.2,178.63,637.91,179.53Z"/><polygon class="cls-11" points="544.12 385.37 529.59 385.19 529.61 374.24 529.63 367.14 529.63 365.31 529.66 351.81 529.69 340.4 529.71 332.58 529.71 330.99 529.72 328.44 529.73 326.13 532.43 326.17 534.67 326.19 544.26 326.31 544.21 346.88 544.21 349.95 544.19 357.18 544.18 359.91 544.18 360.49 544.17 364.21 544.16 367.74 544.15 374.29 544.12 385.37"/><path class="cls-9" d="M592.57,370.78l-3.73-.32c-1.6-.14-3.64-.33-6-.56-1.92-.18-4-.4-6.28-.64-2.71-.29-5.59-.61-8.5-1H568c-5.15-.62-10.4-1.35-15-2.14h0l-1.12-.2c-3-.55-5.69-1.13-7.76-1.73-2.37-.68-4-1.4-4.39-2.13-.74,1.21-4.7,2.29-10.15,3.23h0c-1.75.3-3.67.59-5.67.87l-1.49.19c-2.55.34-5.23.64-7.92.93l-.44,0h0l-2.74.28h0c-12.52,1.22-24.42,1.89-24.42,1.89q1.83-1.41,3.61-2.84c16.19-13.29,17.23-16.64,28-34.68q-10,4.81-20.48,8.95-3.58,1.41-7.22,2.75l2.76-2.32a119,119,0,0,0,9.43-8.95h0a129.73,129.73,0,0,0,16.81-22.22l.68-1.14q1.23-2.1,2.39-4.23c.77-1.42,1.53-2.86,2.25-4.31-1.3.71-2.6,1.42-3.92,2.11q-6.6,3.5-13.44,6.66l-1.44.66h0l-.73.34,1.91-1.88a99.33,99.33,0,0,0,10-11.54c.39-.52.77-1.06,1.15-1.59.51-.71,1-1.43,1.5-2.15.74-1.11,1.47-2.22,2.17-3.36a119.92,119.92,0,0,0,9.84-19.62q-8.32,5.25-17.15,9.94l-1.12.59.85-.94.6-.67a98.11,98.11,0,0,0,18.86-32.32Q528,251,521.49,254.93l1-1.28c9-11.17,14.84-25.83,17.61-41.93v0c2.59,15.59,8.09,29.91,16.48,41.13l.15.2c.26.34.51.68.77,1l1,1.3q-6.5-4.06-12.67-8.47a107.74,107.74,0,0,0,10.26,21.4q1.76,2.79,3.68,5.42,1,1.44,2.16,2.82c.85,1.07,1.72,2.11,2.61,3.13.47.55,1,1.1,1.44,1.64q-2.61-1.44-5.17-2.92c-1.66-1-3.3-1.93-4.93-2.93-1.33-.8-2.66-1.62-4-2.45s-2.78-1.77-4.15-2.67c.63,1.65,1.3,3.27,2,4.88.34.8.7,1.61,1.07,2.41q2.08,4.56,4.51,8.89a108.66,108.66,0,0,0,13.24,18.76l.6.68h0q1.49,1.65,3,3.24c.5.5,1,1,1.5,1.51.13.14.27.27.4.4l-.56-.26q-9.72-4.68-18.93-10a143.1,143.1,0,0,0,9.66,16.77c1.06,1.57,2.14,3.11,3.26,4.63q.75,1,1.53,2,2.58,3.39,5.39,6.59c1.41,1.62,2.87,3.2,4.36,4.74q3.45,3.56,7.18,6.83l.77.68.55.48h0l1,.82.47.41-.56-.22-1.63-.64h0q-4.47-1.78-8.85-3.69-2.74-1.2-5.46-2.44-3.12-1.42-6.2-2.93c-1.65-.79-3.3-1.61-4.92-2.43.73,1.27,1.42,2.46,2.08,3.59.92,1.62,1.78,3.09,2.57,4.47l1.17,2c.68,1.17,1.33,2.25,2,3.29s1.21,1.95,1.82,2.87c1.18,1.79,2.37,3.44,3.69,5.07,1.11,1.37,2.31,2.73,3.68,4.15.79.83,1.64,1.67,2.56,2.56,2.25,2.16,4.93,4.54,8.25,7.35l.79.65Z"/><path class="cls-5" d="M637.91,179.53s16.65,12.29,29.11,58.08,1.3,88.56,19.55,118.14,23.86,29.62,23.86,29.62H619.66s-11.15-16.8,7.09-65.47S637.91,179.53,637.91,179.53Z"/><path class="cls-6" d="M697.39,648.46h94.55v-96c-7.51-8.65-15.77-16.09-24.71-21.39-36.37-21.55-120.46-36.42-149.68-68.85-22.62-25.08-53.65-56.84-113.92-76.87q-8.25-2.75-17.27-5.18c-1.16-.32-2.33-.62-3.51-.93l-3-.76c-1.13-.29-2.28-.56-3.43-.83l-3-.7c-1.32-.3-2.66-.6-4-.88h0c-1.07-.24-2.14-.47-3.23-.69-.13,0-.26-.06-.4-.09l-4.9-1-1-.2h0c-4.78-.9-9.7-1.75-14.77-2.52-10.16-1.54-20.92-2.81-32.31-3.74h-.15c-3.75-.32-7.6-.6-11.5-.84l-1.94-.11q-4.47-.26-9.06-.45c-2.24-.1-4.48-.17-6.79-.23h-.44q-14.06-.44-29.26-.24-10.56.13-21.71.62h0q-13.79.58-28.51,1.69-6.56.49-13,1.23c-1.11.12-2.22.26-3.32.39-1.55.19-3.08.39-4.62.61-1.22.16-2.43.33-3.64.51s-2.38.35-3.56.54l-3.2.52-2.43.41c-.22,0-.43.07-.65.12h0l-2.5.44-2.09.39c-1.47.28-2.93.56-4.38.86h0l-1.67.34-3,.64h0l-.36.08c-1.17.25-2.33.5-3.5.77l-4.18,1c-1,.24-2.06.49-3.08.75Q239,379.14,234,380.54l-2,.56c-1.68.48-3.36,1-5,1.46-.78.23-1.57.46-2.35.71l-2.77.85c-1.16.36-2.31.72-3.47,1.1l-3.45,1.13-2.51.84-2.58.89c-2.2.76-4.39,1.55-6.56,2.34h0l-1.93.71c-1.12.41-2.23.83-3.34,1.26l-1.22.47c-2.92,1.12-5.81,2.28-8.68,3.45l-5.45,2.29q-6.09,2.61-12,5.37c-.8.36-1.6.74-2.39,1.11q-3.32,1.56-6.57,3.16l-3.24,1.61-.72.36h0l-.14.07-.91.46L152,413.13l-3.16,1.66-2.5,1.33c-9.58,5.16-18.77,10.52-27.54,16-1,.59-1.9,1.19-2.85,1.79q-2.85,1.81-5.66,3.64l-2.69,1.77-2.73,1.81L102.17,443l-2.66,1.82-2.63,1.82-1.38,1c-.6.42-1.19.83-1.77,1.25q-7.47,5.28-14.4,10.55l-4.13,3.16-2.91,2.27q-2.3,1.8-4.53,3.58c-1.48,1.19-3,2.38-4.39,3.56l-.86.7-3.41,2.82L57,477.18l-2,1.73q-3,2.59-5.92,5.1l-3.8,3.36c-1.24,1.1-2.45,2.2-3.64,3.27l-1.77,1.61q-1.76,1.61-3.43,3.17l-2.07,1.93q-2,1.92-4,3.77L28.48,503,27,504.39l-2.92,2.87-1.29,1.29-1.33,1.33-2.32,2.35-.22.23-2.7,2.77h0l-2.5,2.61c-.16.18-.33.35-.49.52-.71.74-1.38,1.45-2,2.14l-.94,1-1.12,1.21-1.57,1.72L6.5,525.66l-1,1.12-1.32,1.5-1,1.1-.15.18-1,1.11-.25.29a3.23,3.23,0,0,0,.22,4.38l1.06,1c.22.22-1.24,10.45-3.18,25.83v86.25H697.39Z"/><path class="cls-10" d="M382.89,366.24c-3.1,0-7.18.1-12.22.41l-2.69.19A335.58,335.58,0,0,0,330.09,372h0c-3.6.69-7.36,1.45-11.27,2.31-1.43.31-2.88.64-4.36,1-13.92,3.19-29.68,7.48-47.19,13.24a1,1,0,0,0-.16.06,121.22,121.22,0,0,0-13.05,5.26q-5.56,2.58-11.63,5.89c-1.45.79-2.93,1.61-4.42,2.45q-3,1.68-6,3.5c-2.44,1.45-4.93,3-7.46,4.56h0C147.84,458.36,35.17,562.79-.06,596.08V533.21c.24-.29.88-1.06,1.9-2.25l.25-.29,1-1.11.15-.18,1-1.1,1.32-1.5,1-1.12,1.09-1.21,1.57-1.72,1.12-1.21.94-1,2-2.14c.16-.17.33-.34.49-.52l2.5-2.61h0l2.7-2.77.22-.23,2.32-2.35,1.33-1.33,1.29-1.29L27,504.39,28.48,503l1.9-1.83q1.94-1.85,4-3.77l2.07-1.93q1.68-1.56,3.43-3.17l1.77-1.61c1.19-1.07,2.4-2.17,3.64-3.27l3.8-3.36q2.89-2.5,5.92-5.1l2-1.73,2.08-1.74,3.41-2.82.86-.7c1.44-1.18,2.91-2.36,4.39-3.56l4.53-3.58,2.91-2.27,4.13-3.16q6.93-5.25,14.4-10.55c.58-.42,1.17-.83,1.77-1.25l1.38-1,2.63-1.82,2.66-1.82,2.69-1.82,2.73-1.81,2.69-1.77q2.81-1.83,5.66-3.64c1-.6,1.89-1.2,2.85-1.79,8.77-5.48,18-10.84,27.54-16l2.5-1.33,3.16-1.66,4.63-2.38.93-.46.12-.07h0l.72-.36,3.24-1.61q3.26-1.61,6.57-3.16c.79-.37,1.59-.75,2.39-1.11q5.94-2.76,12-5.37l5.45-2.29c2.87-1.17,5.76-2.33,8.68-3.45l1.22-.47c1.11-.43,2.22-.85,3.34-1.26l1.93-.71h0c2.17-.79,4.36-1.58,6.56-2.34l2.58-.89,2.51-.84,3.45-1.13c1.16-.38,2.31-.74,3.47-1.1l2.77-.85c.78-.25,1.57-.48,2.35-.71,1.67-.5,3.35-1,5-1.46l2-.56q5-1.4,10.16-2.66c1-.26,2.05-.51,3.08-.75l4.18-1c1.17-.27,2.33-.52,3.5-.77l.36-.08h0l3-.64,1.67-.34h0c1.45-.3,2.91-.58,4.38-.86l2.09-.39,2.5-.44h0c.22-.05.43-.09.65-.12l2.43-.41,3.2-.52c1.18-.19,2.37-.37,3.56-.54s2.42-.35,3.64-.51c1.54-.22,3.07-.42,4.62-.61,1.1-.13,2.21-.27,3.32-.39q6.45-.74,13-1.23,14.73-1.11,28.51-1.69h0q11.16-.48,21.71-.62Q368.85,365.79,382.89,366.24Z"/><path class="cls-5" d="M697.39,648.46l58-.17,36.56-.1V629c-1.23-1.16-2.51-2.37-3.84-3.6-32.4-30.28-93.2-82-146.53-99-65.27-20.83-90.17-59.26-128.21-93.68h0a1.42,1.42,0,0,0-.13-.12l-3.36-3c-1.18-1-2.38-2.07-3.59-3.09h0c-1.18-1-2.38-2-3.6-3-1.46-1.19-2.95-2.39-4.46-3.56h0c-.9-.71-1.79-1.4-2.71-2.1q-2.16-1.64-4.38-3.25t-4.4-3.09c-1.17-.8-2.34-1.58-3.52-2.36q-3.15-2.06-6.36-4c-.8-.49-1.6-1-2.4-1.43l-.9-.53c-3.57-2.08-7.18-4-10.8-5.92a317.53,317.53,0,0,0-55.52-21.92l-2.22-.65-1.18-.33-.79-.22-1.7-.48h0l-.19-.05-3.84-1c-12.64-3.33-22.27-5.14-26.61-5.89-1.65-.28-2.54-.41-2.54-.41s0,.2-.15.6a46,46,0,0,1-2.91,7.49c-.16.32-.32.64-.48,1a104.79,104.79,0,0,1-15.09,21.92,167.89,167.89,0,0,1-19,18.38c-11.9,9.95-27.5,20.65-47.92,31.37C210.14,485,124.79,631.1,114.83,648.46Z"/><polygon class="cls-6" points="290.79 236.98 290.79 234.73 286.13 234.73 293.4 227.45 291.81 225.86 284.53 233.13 284.53 228.47 282.27 228.47 282.27 233.13 275 225.86 273.41 227.45 280.68 234.73 276.01 234.73 276.01 236.98 280.68 236.98 273.41 244.26 275 245.85 282.27 238.58 282.27 243.25 284.53 243.25 284.53 238.58 291.81 245.85 293.4 244.26 286.13 236.98 290.79 236.98"/><polygon class="cls-6" points="284.53 245.06 282.27 245.06 282.27 248.53 278.81 248.53 278.81 250.79 282.27 250.79 282.27 254.25 284.53 254.25 284.53 250.79 288 250.79 288 248.53 284.53 248.53 284.53 245.06"/><polygon class="cls-6" points="298.33 234.73 298.33 231.26 296.08 231.26 296.08 234.73 292.61 234.73 292.61 236.98 296.08 236.98 296.08 240.45 298.33 240.45 298.33 236.98 301.8 236.98 301.8 234.73 298.33 234.73"/><polygon class="cls-6" points="282.27 226.65 284.53 226.65 284.53 223.18 288 223.18 288 220.92 284.53 220.92 284.53 217.46 282.27 217.46 282.27 220.92 278.81 220.92 278.81 223.18 282.27 223.18 282.27 226.65"/><polygon class="cls-6" points="274.2 234.73 270.73 234.73 270.73 231.26 268.47 231.26 268.47 234.73 265 234.73 265 236.98 268.47 236.98 268.47 240.45 270.73 240.45 270.73 236.98 274.2 236.98 274.2 234.73"/><polygon class="cls-6" points="99.44 202.4 98.89 201.1 96.21 202.25 98.61 196.28 97.3 195.76 94.9 201.72 93.76 199.04 92.46 199.59 93.6 202.27 87.64 199.87 87.11 201.18 93.08 203.58 90.39 204.72 90.95 206.02 93.63 204.88 91.23 210.84 92.54 211.37 94.94 205.41 96.08 208.09 97.38 207.53 96.23 204.85 102.2 207.25 102.72 205.94 96.76 203.54 99.44 202.4"/><polygon class="cls-6" points="97.82 208.58 96.53 209.13 97.38 211.13 95.38 211.97 95.94 213.27 97.93 212.42 98.78 214.42 100.08 213.86 99.23 211.87 101.22 211.02 100.67 209.72 98.67 210.57 97.82 208.58"/><polygon class="cls-6" points="103.22 199.25 102.38 197.26 101.08 197.81 101.93 199.81 99.94 200.66 100.49 201.96 102.48 201.1 103.33 203.1 104.63 202.55 103.78 200.55 105.77 199.7 105.22 198.41 103.22 199.25"/><polygon class="cls-6" points="92.01 198.55 93.31 197.99 92.46 196 94.45 195.15 93.9 193.85 91.91 194.7 91.06 192.71 89.76 193.26 90.61 195.25 88.62 196.1 89.17 197.4 91.16 196.55 92.01 198.55"/><polygon class="cls-6" points="89.35 205.17 87.36 206.02 86.51 204.03 85.21 204.58 86.06 206.57 84.06 207.42 84.62 208.72 86.61 207.87 87.46 209.86 88.76 209.31 87.91 207.32 89.9 206.47 89.35 205.17"/><polygon class="cls-6" points="738.95 121.24 738.6 119.87 735.78 120.58 739.07 115.06 737.86 114.34 734.57 119.86 733.85 117.03 732.49 117.38 733.2 120.2 727.68 116.91 726.96 118.12 732.48 121.42 729.65 122.13 729.99 123.5 732.82 122.78 729.52 128.3 730.74 129.03 734.03 123.51 734.74 126.33 736.11 125.99 735.4 123.16 740.92 126.46 741.64 125.25 736.12 121.95 738.95 121.24"/><polygon class="cls-6" points="736.39 127.09 735.02 127.43 735.55 129.53 733.45 130.06 733.8 131.43 735.9 130.9 736.43 133 737.79 132.66 737.26 130.56 739.37 130.03 739.02 128.66 736.92 129.19 736.39 127.09"/><polygon class="cls-6" points="743.17 118.72 742.64 116.62 741.28 116.96 741.81 119.06 739.7 119.59 740.05 120.96 742.15 120.43 742.68 122.53 744.05 122.19 743.52 120.08 745.62 119.55 745.27 118.19 743.17 118.72"/><polygon class="cls-6" points="732.21 116.28 733.58 115.93 733.04 113.83 735.15 113.3 734.8 111.93 732.7 112.46 732.17 110.36 730.8 110.71 731.33 112.81 729.23 113.34 729.58 114.71 731.68 114.18 732.21 116.28"/><polygon class="cls-6" points="728.55 122.41 726.45 122.94 725.92 120.83 724.55 121.18 725.08 123.28 722.98 123.81 723.32 125.18 725.42 124.65 725.95 126.75 727.32 126.41 726.79 124.3 728.89 123.77 728.55 122.41"/><polygon class="cls-6" points="680.86 40.89 681.22 39.74 678.84 38.99 683.72 36.44 683.16 35.36 678.28 37.92 679.02 35.53 677.87 35.17 677.12 37.56 674.57 32.68 673.5 33.24 676.05 38.12 673.67 37.37 673.31 38.53 675.69 39.27 670.81 41.83 671.37 42.9 676.25 40.34 675.5 42.73 676.66 43.09 677.4 40.7 679.96 45.59 681.03 45.03 678.48 40.14 680.86 40.89"/><polygon class="cls-6" points="676.37 44.02 675.22 43.66 674.66 45.43 672.89 44.88 672.53 46.03 674.3 46.58 673.74 48.36 674.9 48.72 675.45 46.95 677.23 47.5 677.59 46.35 675.81 45.79 676.37 44.02"/><polygon class="cls-6" points="685.08 40.94 685.63 39.17 684.48 38.81 683.92 40.58 682.15 40.03 681.79 41.18 683.56 41.74 683.01 43.51 684.16 43.87 684.72 42.1 686.49 42.65 686.85 41.5 685.08 40.94"/><polygon class="cls-6" points="678.16 34.24 679.31 34.6 679.87 32.83 681.64 33.39 682 32.23 680.23 31.68 680.78 29.91 679.63 29.54 679.08 31.32 677.3 30.76 676.94 31.92 678.72 32.47 678.16 34.24"/><polygon class="cls-6" points="672.74 37.08 670.97 36.53 671.52 34.75 670.37 34.39 669.81 36.17 668.04 35.61 667.68 36.77 669.45 37.32 668.89 39.09 670.05 39.45 670.6 37.68 672.38 38.23 672.74 37.08"/><polygon class="cls-6" points="45.36 85.08 45.16 84.22 43.39 84.63 45.52 81.23 44.77 80.76 42.64 84.17 42.23 82.39 41.37 82.59 41.78 84.36 38.38 82.23 37.91 82.98 41.31 85.11 39.54 85.52 39.74 86.38 41.51 85.97 39.38 89.37 40.13 89.84 42.26 86.44 42.67 88.21 43.52 88.02 43.12 86.24 46.52 88.37 46.99 87.62 43.58 85.49 45.36 85.08"/><polygon class="cls-6" points="43.68 88.71 42.83 88.9 43.13 90.22 41.81 90.53 42.01 91.39 43.33 91.08 43.63 92.4 44.49 92.2 44.18 90.89 45.5 90.58 45.31 89.72 43.99 90.03 43.68 88.71"/><polygon class="cls-6" points="48.03 83.57 47.73 82.25 46.87 82.44 47.17 83.76 45.85 84.07 46.05 84.92 47.37 84.62 47.67 85.94 48.53 85.74 48.23 84.42 49.55 84.12 49.35 83.26 48.03 83.57"/><polygon class="cls-6" points="41.22 81.9 42.07 81.7 41.77 80.38 43.09 80.08 42.89 79.22 41.57 79.52 41.27 78.2 40.41 78.4 40.71 79.72 39.39 80.02 39.59 80.88 40.91 80.58 41.22 81.9"/><polygon class="cls-6" points="38.85 85.68 37.53 85.98 37.22 84.66 36.37 84.86 36.67 86.18 35.35 86.48 35.55 87.34 36.87 87.04 37.17 88.36 38.03 88.16 37.72 86.84 39.04 86.54 38.85 85.68"/><polygon class="cls-6" points="88.86 33.68 89.32 32.53 86.95 31.58 92.13 29.36 91.64 28.23 86.46 30.45 87.41 28.07 86.26 27.61 85.31 29.99 83.09 24.81 81.96 25.3 84.18 30.47 81.8 29.52 81.34 30.67 83.72 31.62 78.54 33.84 79.03 34.98 84.2 32.76 83.26 35.13 84.4 35.59 85.35 33.22 87.57 38.39 88.71 37.91 86.49 32.73 88.86 33.68"/><polygon class="cls-6" points="84.03 36.51 82.89 36.05 82.18 37.82 80.42 37.11 79.96 38.26 81.72 38.97 81.02 40.73 82.17 41.19 82.87 39.42 84.63 40.13 85.09 38.98 83.33 38.28 84.03 36.51"/><polygon class="cls-6" points="93.16 34.06 93.86 32.3 92.71 31.84 92.01 33.6 90.24 32.9 89.78 34.05 91.55 34.75 90.84 36.52 91.99 36.98 92.7 35.21 94.46 35.92 94.92 34.77 93.16 34.06"/><polygon class="cls-6" points="86.63 26.69 87.78 27.15 88.48 25.39 90.25 26.09 90.71 24.94 88.94 24.24 89.65 22.47 88.5 22.02 87.8 23.78 86.03 23.07 85.57 24.22 87.34 24.93 86.63 26.69"/><polygon class="cls-6" points="80.88 29.16 79.12 28.45 79.82 26.69 78.67 26.23 77.97 27.99 76.2 27.29 75.75 28.43 77.51 29.14 76.81 30.9 77.95 31.36 78.66 29.6 80.42 30.3 80.88 29.16"/><polygon class="cls-12" points="608.82 391.37 608.82 389.96 605.9 389.96 610.45 385.42 609.45 384.42 604.91 388.96 604.91 386.05 603.5 386.05 603.5 388.96 598.95 384.42 597.96 385.42 602.5 389.96 599.58 389.96 599.58 391.37 602.5 391.37 597.96 395.92 598.95 396.91 603.5 392.37 603.5 395.28 604.91 395.28 604.91 392.37 609.45 396.91 610.45 395.92 605.9 391.37 608.82 391.37"/><polygon class="cls-12" points="604.91 396.42 603.5 396.42 603.5 398.58 601.33 398.58 601.33 400 603.5 400 603.5 402.16 604.91 402.16 604.91 400 607.07 400 607.07 398.58 604.91 398.58 604.91 396.42"/><polygon class="cls-12" points="613.53 389.96 613.53 387.79 612.12 387.79 612.12 389.96 609.96 389.96 609.96 391.37 612.12 391.37 612.12 393.54 613.53 393.54 613.53 391.37 615.7 391.37 615.7 389.96 613.53 389.96"/><polygon class="cls-12" points="603.5 384.91 604.91 384.91 604.91 382.74 607.07 382.74 607.07 381.33 604.91 381.33 604.91 379.17 603.5 379.17 603.5 381.33 601.33 381.33 601.33 382.74 603.5 382.74 603.5 384.91"/><polygon class="cls-12" points="598.45 389.96 596.28 389.96 596.28 387.79 594.87 387.79 594.87 389.96 592.71 389.96 592.71 391.37 594.87 391.37 594.87 393.54 596.28 393.54 596.28 391.37 598.45 391.37 598.45 389.96"/><polygon class="cls-12" points="142.06 333.48 142.06 332.07 139.14 332.07 143.69 327.53 142.69 326.53 138.14 331.07 138.14 328.16 136.73 328.16 136.73 331.07 132.19 326.53 131.19 327.53 135.74 332.07 132.82 332.07 132.82 333.48 135.74 333.48 131.19 338.03 132.19 339.02 136.73 334.48 136.73 337.39 138.14 337.39 138.14 334.48 142.69 339.02 143.69 338.03 139.14 333.48 142.06 333.48"/><polygon class="cls-12" points="138.14 338.53 136.73 338.53 136.73 340.7 134.56 340.7 134.56 342.11 136.73 342.11 136.73 344.27 138.14 344.27 138.14 342.11 140.31 342.11 140.31 340.7 138.14 340.7 138.14 338.53"/><polygon class="cls-12" points="146.77 332.07 146.77 329.9 145.36 329.9 145.36 332.07 143.19 332.07 143.19 333.48 145.36 333.48 145.36 335.65 146.77 335.65 146.77 333.48 148.94 333.48 148.94 332.07 146.77 332.07"/><polygon class="cls-12" points="136.73 327.02 138.14 327.02 138.14 324.86 140.31 324.86 140.31 323.45 138.14 323.45 138.14 321.28 136.73 321.28 136.73 323.45 134.56 323.45 134.56 324.86 136.73 324.86 136.73 327.02"/><polygon class="cls-12" points="131.68 332.07 129.52 332.07 129.52 329.9 128.11 329.9 128.11 332.07 125.94 332.07 125.94 333.48 128.11 333.48 128.11 335.65 129.52 335.65 129.52 333.48 131.68 333.48 131.68 332.07"/><polygon class="cls-12" points="346.06 314.71 345.84 313.85 344.07 314.3 346.14 310.85 345.38 310.4 343.32 313.84 342.88 312.07 342.02 312.29 342.46 314.06 339.02 311.99 338.56 312.75 342.01 314.81 340.24 315.26 340.46 316.11 342.23 315.67 340.16 319.11 340.92 319.57 342.98 316.12 343.43 317.89 344.28 317.67 343.84 315.91 347.28 317.97 347.74 317.21 344.29 315.15 346.06 314.71"/><polygon class="cls-12" points="344.45 318.36 343.6 318.57 343.93 319.89 342.61 320.22 342.83 321.07 344.14 320.74 344.47 322.06 345.33 321.84 345 320.53 346.31 320.2 346.1 319.35 344.78 319.67 344.45 318.36"/><polygon class="cls-12" points="348.7 313.13 348.37 311.82 347.51 312.04 347.84 313.35 346.53 313.68 346.74 314.53 348.06 314.2 348.39 315.52 349.24 315.3 348.91 313.99 350.23 313.66 350.01 312.81 348.7 313.13"/><polygon class="cls-12" points="341.85 311.6 342.7 311.39 342.37 310.07 343.69 309.74 343.47 308.89 342.16 309.22 341.83 307.9 340.97 308.12 341.3 309.43 339.99 309.76 340.2 310.62 341.52 310.29 341.85 311.6"/><polygon class="cls-12" points="339.56 315.43 338.24 315.76 337.91 314.44 337.06 314.66 337.39 315.97 336.07 316.3 336.29 317.16 337.6 316.83 337.93 318.14 338.79 317.93 338.46 316.61 339.77 316.28 339.56 315.43"/><polygon class="cls-6" points="487.11 61.08 487.59 59.88 485.1 58.89 490.52 56.56 490.01 55.37 484.59 57.7 485.58 55.21 484.38 54.73 483.39 57.22 481.06 51.8 479.87 52.31 482.2 57.73 479.71 56.74 479.23 57.94 481.72 58.93 476.3 61.27 476.81 62.45 482.23 60.12 481.24 62.61 482.44 63.09 483.43 60.6 485.76 66.02 486.95 65.51 484.62 60.09 487.11 61.08"/><polygon class="cls-6" points="482.06 64.06 480.85 63.58 480.12 65.43 478.27 64.69 477.79 65.89 479.64 66.63 478.9 68.48 480.11 68.95 480.84 67.11 482.69 67.84 483.17 66.64 481.32 65.91 482.06 64.06"/><polygon class="cls-6" points="491.61 61.48 492.34 59.63 491.14 59.15 490.4 61 488.56 60.26 488.08 61.47 489.93 62.2 489.19 64.05 490.39 64.53 491.13 62.68 492.98 63.42 493.45 62.22 491.61 61.48"/><polygon class="cls-6" points="484.76 53.77 485.97 54.24 486.7 52.4 488.55 53.13 489.03 51.93 487.18 51.19 487.92 49.34 486.71 48.87 485.98 50.71 484.13 49.98 483.65 51.18 485.5 51.92 484.76 53.77"/><polygon class="cls-6" points="478.74 56.35 476.89 55.62 477.63 53.77 476.43 53.29 475.69 55.14 473.84 54.4 473.37 55.61 475.21 56.34 474.48 58.19 475.68 58.67 476.42 56.82 478.26 57.56 478.74 56.35"/><polygon class="cls-6" points="273.15 71.94 273.15 70.96 271.14 70.96 274.27 67.83 273.59 67.15 270.46 70.28 270.46 68.27 269.49 68.27 269.49 70.28 266.36 67.15 265.67 67.83 268.8 70.96 266.79 70.96 266.79 71.94 268.8 71.94 265.67 75.06 266.36 75.75 269.49 72.62 269.49 74.63 270.46 74.63 270.46 72.62 273.59 75.75 274.27 75.06 271.14 71.94 273.15 71.94"/><polygon class="cls-6" points="270.46 75.41 269.49 75.41 269.49 76.9 268 76.9 268 77.88 269.49 77.88 269.49 79.37 270.46 79.37 270.46 77.88 271.95 77.88 271.95 76.9 270.46 76.9 270.46 75.41"/><polygon class="cls-6" points="276.4 70.96 276.4 69.47 275.43 69.47 275.43 70.96 273.94 70.96 273.94 71.94 275.43 71.94 275.43 73.43 276.4 73.43 276.4 71.94 277.89 71.94 277.89 70.96 276.4 70.96"/><polygon class="cls-6" points="269.49 67.49 270.46 67.49 270.46 66 271.95 66 271.95 65.02 270.46 65.02 270.46 63.53 269.49 63.53 269.49 65.02 268 65.02 268 66 269.49 66 269.49 67.49"/><polygon class="cls-6" points="266.01 70.96 264.52 70.96 264.52 69.47 263.55 69.47 263.55 70.96 262.06 70.96 262.06 71.94 263.55 71.94 263.55 73.43 264.52 73.43 264.52 71.94 266.01 71.94 266.01 70.96"/><rect class="cls-12" x="420.2" y="165.95" width="184" height="79.91" rx="24.67" ry="24.67"/><polygon class="cls-12" points="458.36 259.95 462.14 242.53 481.69 242.53 458.36 259.95"/><text class="cls-13" transform="translate(435.96 210)"><tspan class="cls-14">W</tspan><tspan x="16.5" y="0">OOHOO! </tspan><tspan class="cls-15" x="84.27" y="0">THAN</tspan><tspan class="cls-16" x="128.16" y="0">K</tspan><tspan class="cls-17" x="138.45" y="0">S!</tspan></text><text class="cls-18" transform="translate(73.89 125.98)">L<tspan class="cls-19" x="29.54" y="0">E</tspan><tspan x="61.2" y="0">T IT SN</tspan><tspan class="cls-20" x="245.54" y="0">O</tspan><tspan class="cls-21" x="285.56" y="0">W</tspan><tspan x="344.08" y="0">!</tspan></text><ellipse class="cls-22" cx="401.12" cy="465.47" rx="53.66" ry="10.36"/><circle class="cls-12" cx="401.12" cy="393.09" r="74.07"/><polygon class="cls-23" points="473.95 332.17 458.73 347.39 444.36 361.76 448.61 366 462.38 352.23 464.39 350.22 470.39 344.22 496.71 317.9 492.47 313.65 479.95 326.17 479.95 314.15 479.95 310.13 475.63 310.13 473.95 310.13 473.95 332.17"/><polygon class="cls-23" points="357.87 361.76 344.7 348.59 328.29 332.17 328.29 310.13 322.29 310.13 322.29 326.17 309.77 313.65 305.53 317.9 331.85 344.22 337.85 350.22 341.13 353.5 353.63 366 357.87 361.76"/><path d="M397.12,373.66a4,4,0,0,0,4,4,4,4,0,0,0,0-8A4,4,0,0,0,397.12,373.66Z"/><path d="M397.12,390.66a4,4,0,0,0,4,4,4,4,0,0,0,0-8A4,4,0,0,0,397.12,390.66Z"/><path d="M397.12,356.66a4,4,0,0,0,4,4,4,4,0,0,0,0-8A4,4,0,0,0,397.12,356.66Z"/><circle class="cls-22" cx="401.12" cy="300.11" r="38.17"/><circle class="cls-12" cx="401.12" cy="298.11" r="38.17"/><path d="M408.06,297.13a3.84,3.84,0,1,1,3.83-3.84A3.84,3.84,0,0,1,408.06,297.13Z"/><path d="M381.05,297.13a3.84,3.84,0,1,1,3.84-3.84A3.83,3.83,0,0,1,381.05,297.13Z"/><path d="M381.64,315.83a3,3,0,0,1-2.12-5.12,3.1,3.1,0,0,1,4.24,0,3,3,0,0,1-2.12,5.12Z"/><path d="M402.78,321.89a2.86,2.86,0,0,1-.77.1,3,3,0,0,1-1.67-5.49,3.67,3.67,0,0,1,.48-.25l.15-.06.36-.11.17,0A3.56,3.56,0,0,1,402,316l.24,0,.23,0c.1,0,.2,0,.3.06l.14,0a3.08,3.08,0,0,1,.67.29h0a3,3,0,0,1,.13,5.06l-.15.09a2.92,2.92,0,0,1-.73.31Z"/><path d="M386.71,322a2.92,2.92,0,0,1-1.66-.51,3,3,0,1,1,1.66.51Z"/><path d="M394.37,324.32a3,3,0,1,1,3-3A3,3,0,0,1,394.37,324.32Z"/><path d="M409.2,310.66a3,3,0,0,1,0,4.25,3,3,0,0,1-4.24-4.25A3.12,3.12,0,0,1,409.2,310.66Z"/><path class="cls-24" d="M392.78,311.2a6.27,6.27,0,0,1-1.58-.2h0l-24.06-4.91-3.42-.7-3.65-.74h39.25A6.54,6.54,0,0,1,392.78,311.2Z"/><path class="cls-25" d="M391.2,298.31h0a6.77,6.77,0,0,1,1.58-.2,6.54,6.54,0,0,1,6.54,6.55H360.07l5.36-1.1,1.29-.26Z"/><path class="cls-26" d="M431.83,262.37l-31.46.37h-.71l-31.45-.37s.4-1.38,1.15-3.58l.72-2.06a99.46,99.46,0,0,1,8.64-18.44l.53-.82c.44-.67.88-1.31,1.34-1.93l.58-.78a24,24,0,0,1,5.56-5.45c9.1-6.06,12.32-7.12,13.16-7.31v0h.25v0c.85.19,4.06,1.25,13.16,7.31a19.34,19.34,0,0,1,3.23,2.74c.23.23.44.46.66.7a42.71,42.71,0,0,1,4.72,6.51l.51.85A104.79,104.79,0,0,1,430,256.73c.27.74.51,1.43.72,2.06C431.43,261,431.83,262.37,431.83,262.37Z"/><path class="cls-27" d="M438.23,268.53v7a6.15,6.15,0,0,1-6.11,6.15H368.21a6.15,6.15,0,0,1-6.16-6.15v-7a6.16,6.16,0,0,1,6.16-6.16h63.87A6.15,6.15,0,0,1,438.23,268.53Z"/><path class="cls-12" d="M430.67,258.79H369.36l.72-2.06H430C430.22,257.47,430.46,258.16,430.67,258.79Z"/><path class="cls-12" d="M414.06,235.89h0l-.68.68h0l-.68-.68h0l-3.29-3.28-4,4h0l-4-4-4,4-4-4-3.28,3.28h0l-.69.68h0l-.68-.68h0l-3.28-3.28-4,4h0l-1-1,.58-.78.45.46,3.3-3.29h0l.68-.68h0l.68.67h0l3.28,3.28,3.28-3.28h0l.68-.68h0l.68.68h0l3.29,3.29,3.3-3.29h0l.68-.68h0l.68.68h0l3.29,3.29,3.29-3.29h0l.68-.68h0l.68.68h0l3.29,3.28,3.15-3.16c.23.23.44.46.66.7Z"/><path class="cls-12" d="M422.42,240.11l-1.08,1.08h0l-4-4-3.28,3.28h0l-.68.68h0l-.68-.68h0l-3.29-3.28-4,4h0l-4-4-4,4-4-4-3.28,3.28h0l-.69.68h0l-.68-.68h0l-3.28-3.28-4,4h0l-2.9-2.9.53-.82,2.37,2.36,3.3-3.29h0l.68-.68h0l.68.68h0l3.28,3.28,3.28-3.28h0l.68-.68h0l.68.68h0l3.29,3.29,3.3-3.29h0l.68-.68h0l.68.68h0l3.29,3.29,3.29-3.29h0l.68-.68h0l.68.68h0l3.29,3.28,3.28-3.28h0l.68-.68h0l.68.68h0l3.3,3.3.59-.58Z"/><path class="cls-27" d="M410,220a9.93,9.93,0,1,1-7.55-9.66A9.94,9.94,0,0,1,410,220Z"/><path class="cls-28" d="M410,220a9.94,9.94,0,0,1-7.55,9.65,10,10,0,0,1,0-19.31A10,10,0,0,1,410,220Z"/><rect class="cls-28" x="368.21" y="266.76" width="1.15" height="14.95"/><rect class="cls-28" x="373.44" y="266.76" width="1.15" height="14.95"/><rect class="cls-28" x="378.67" y="266.76" width="1.15" height="14.95"/><rect class="cls-28" x="383.9" y="266.76" width="1.15" height="14.95"/><rect class="cls-28" x="389.13" y="266.76" width="1.15" height="14.95"/><rect class="cls-28" x="394.36" y="266.76" width="1.15" height="14.95"/><rect class="cls-28" x="399.59" y="266.76" width="1.15" height="14.95"/><rect class="cls-28" x="404.82" y="266.76" width="1.15" height="14.95"/><rect class="cls-28" x="410.05" y="266.76" width="1.15" height="14.95"/><rect class="cls-28" x="415.28" y="266.76" width="1.15" height="14.95"/><rect class="cls-28" x="420.51" y="266.76" width="1.15" height="14.95"/><rect class="cls-28" x="425.74" y="266.76" width="1.15" height="14.95"/><rect class="cls-28" x="430.97" y="266.76" width="1.15" height="14.95"/><path class="cls-26" d="M334.22,311.6c-.18,3.15-1.22,14.82-.75,17.27a7.37,7.37,0,0,0,1.86,3.76l-14.81,9.5a115.35,115.35,0,0,0-11.89-10.8c-4.29-3.26-11.33-12.84-15-18.41-.37-.56-.72-1.08-1-1.56a16.41,16.41,0,0,1-1.4-2.46c0-.11-.07-.28-.11-.5s-.13-.88-.2-1.51c-.49-4.53-.74-14.86,3.47-17.08s12.86,1.8,16.62,4.14c.53.33,1,.62,1.27.86a2.94,2.94,0,0,1,.39.34,22.75,22.75,0,0,1,1.72,2.19l1,1.44c2.68,3.73,6.37,8.94,7.94,9.62,2.31,1,.11-9.15,4.93-9.21S334.4,308.46,334.22,311.6Z"/><path class="cls-12" d="M312.26,294.81l-1.36,3.5-.16,0-.05.15-5.85-.4-2.14,5.46h0l-5.85-.4-2.14,5.46h-.09l0,.08-3.48-.24c-.06-.37-.13-.88-.2-1.51l2.77.2,1.59-4.09.58-1.45h0l1.56.12,4.31.28,1.57-4,.56-1.46h0l1.57.11,4.44.3L311,294C311.52,294.28,312,294.57,312.26,294.81Z"/><polygon class="cls-12" points="292.61 311.36 296.59 311.63 298.19 307.56 298.76 306.1 298.76 306.1 300.32 306.2 304.63 306.49 306.2 302.48 306.76 301.03 306.77 301.02 308.33 301.13 312.77 301.43 314.37 297.34 315.4 298.78 313.81 302.86 313.66 302.84 313.61 302.99 307.76 302.58 305.62 308.05 305.6 308.04 305.6 308.06 299.75 307.66 297.61 313.12 297.53 313.11 297.5 313.19 293.62 312.92 292.61 311.36"/><path class="cls-29" d="M321,345.08l16.84-10.81A.92.92,0,0,0,338,333l-1.91-3a.94.94,0,0,0-1.25-.37l-16.83,10.81a.92.92,0,0,0-.18,1.28l1.91,3A.92.92,0,0,0,321,345.08Z"/><path class="cls-26" d="M510.84,315.6c-4.6,5.38-13.24,14.54-18.18,17.41a122.81,122.81,0,0,0-13.91,9.83l-14.34-11.92a7.82,7.82,0,0,0,2.44-3.71c.81-2.52,1.23-14.93,1.45-18.26s2.81-13,7.87-12.29,1.43,11.08,4,10.33c1.75-.51,6.31-5.51,9.6-9.09l1.28-1.39a25.51,25.51,0,0,1,2.09-2.08,4,4,0,0,1,.46-.31c.36-.21.85-.46,1.44-.73,4.26-2,13.86-5.1,18-2.21s2.54,13.72,1.44,18.42c-.15.65-.3,1.18-.41,1.56a4.83,4.83,0,0,1-.18.52,18.6,18.6,0,0,1-1.79,2.4h0C511.73,314.55,511.3,315.05,510.84,315.6Z"/><path class="cls-12" d="M514.07,311.16l-3.69-.19v-.09h-.09l-1.54-6-6.21-.34v0h0l-1.55-6-6.2-.33,0-.16h-.16l-1-3.86c.36-.21.85-.46,1.44-.73l.82,3.23,4.72.26,1.65.09h0l.41,1.6,1.13,4.43,4.56.25,1.65.09h0l.41,1.61,1.15,4.5,2.94.15C514.33,310.25,514.18,310.78,514.07,311.16Z"/><path class="cls-12" d="M510.84,315.6l-4.12-.23v-.08h-.09l-1.54-6-6.21-.34v0h0l-1.55-6-6.2-.33,0-.17h-.16l-1.15-4.49,1.28-1.39,1.15,4.52,4.71.25,1.66.1h0L499,303l1.14,4.43,4.56.25,1.65.08h0l.41,1.61,1.15,4.5,4.22.23C511.73,314.55,511.3,315.05,510.84,315.6Z"/><path class="cls-30" d="M461,332.56l16.31,13.55a1,1,0,0,0,1.36-.23l2.39-2.88a1,1,0,0,0,0-1.38l-16.31-13.55a1,1,0,0,0-1.36.24L461,331.19A1,1,0,0,0,461,332.56Z"/><path class="cls-31" d="M429.84,303.11c-2,2.76-15.11,11.33-19.17,10.9-3.4-.37-13.19-8.14-16.31-10.68-3.13,2.54-12.92,10.31-16.32,10.68s-12.49-5.21-17-8.8l-.07,0-.08-.06a13.43,13.43,0,0,1-2.07-2c-2-2.76-1.88-19.89-1.16-21.05s13.76-5.8,20.45-7.55h0c6.12-1.59,14.67-1.85,16.07-1.88h.2c1.39,0,9.94.29,16.06,1.88,6.68,1.75,19.75,6.39,20.48,7.56S431.87,300.35,429.84,303.11Z"/><path class="cls-32" d="M360.94,305.1a13.43,13.43,0,0,1-2.07-2c-2-2.76-1.88-19.89-1.16-21.05s13.76-5.8,20.45-7.55c-.74.25-16.54,5.62-18.71,10.16S358.35,302.91,360.94,305.1Z"/><path class="cls-32" d="M427.65,305.1a13.43,13.43,0,0,0,2.07-2c2-2.76,1.88-19.89,1.16-21.05s-13.77-5.8-20.45-7.55c.74.25,16.54,5.62,18.71,10.16S430.23,302.91,427.65,305.1Z"/><path class="cls-33" d="M426.05,284.77s.59-.22.88,1.45a35.08,35.08,0,0,1,0,5.66s1.16,1,1.16,1.44-.07,4.08-.43,4.37a5.71,5.71,0,0,1-1.09.58,13.1,13.1,0,0,1-.52,3.27c-.35.44-1.35.29-1.08-.22C426.19,299,426.13,286.22,426.05,284.77Z"/><path class="cls-33" d="M363,284.77s-.88-.22-1.17,1.45a35.08,35.08,0,0,0,0,5.66s-1.16,1-1.16,1.44.07,4.08.44,4.37a5.45,5.45,0,0,0,1.08.58,13.1,13.1,0,0,0,.52,3.27c.36.44,1.35.29,1.08-.22C362.56,299,362.91,286.22,363,284.77Z"/><path class="cls-10" d="M426.11,294.1c-.14,4-.5,7.81-1.16,8.72-1.41,2-10.31,8.55-15.06,7.5l-.33-.09c-1.61-.5-3.59-2.33-5.6-4.53-.59-.64-1.18-1.31-1.77-2l-2.42-2.86c-2.24-2.63-4.19-4.82-5.31-5-2.76.44-10.46,12.93-15.11,14.38-3.63,1.14-10.11-2.79-13.46-5.53a11.15,11.15,0,0,1-1.93-1.88c-.63-.87-1-4.38-1.14-8.19-.21-5.06-.07-10.67.27-11.41.45-1,9.07-3.79,16.18-5a39.15,39.15,0,0,1,5.16-.63,32.09,32.09,0,0,1,8.06.55,9.75,9.75,0,0,1,2,.62s2.9-1.46,10-1.17c4.21.17,10.72,1.67,15.45,3.14h0c1.54.47,2.89.95,3.91,1.37a4.7,4.7,0,0,1,2,1.16,2.59,2.59,0,0,1,.11.5A77.86,77.86,0,0,1,426.11,294.1Z"/><path class="cls-5" d="M392.49,278.1l-26.6,26.6a11.15,11.15,0,0,1-1.93-1.88c-.63-.87-1-4.38-1.14-8.19l16.45-16.45a39.15,39.15,0,0,1,5.16-.63A32.09,32.09,0,0,1,392.49,278.1Z"/><path class="cls-5" d="M423.84,282.06l-21.65,21.65-2.42-2.86,20.16-20.16h0C421.47,281.16,422.82,281.64,423.84,282.06Z"/><path class="cls-5" d="M426.11,294.1l-16.22,16.22-.33-.09c-1.61-.5-3.59-2.33-5.6-4.53l22-22A77.86,77.86,0,0,1,426.11,294.1Z"/><path class="cls-33" d="M387.86,275.09a18.86,18.86,0,0,1,6.6-.93c3.71.15,5.67.77,5.67.93a40.52,40.52,0,0,1-5.67,1.11A62.4,62.4,0,0,1,387.86,275.09Z"/><path class="cls-24" d="M392.78,311.2a6.27,6.27,0,0,1-1.58-.2h0l-24.06-4.91-3.42-.7-3.65-.74h39.25A6.54,6.54,0,0,1,392.78,311.2Z"/><path class="cls-25" d="M391.2,298.31h0a6.77,6.77,0,0,1,1.58-.2,6.54,6.54,0,0,1,6.54,6.55H360.07l5.36-1.1,1.29-.26Z"/><path class="cls-27" d="M475.19,393.09a73.82,73.82,0,0,1-4.78,26.22H331.82a74.14,74.14,0,0,1,41.6-94.94,38.17,38.17,0,0,0,55.4,0A74.09,74.09,0,0,1,475.19,393.09Z"/><path class="cls-34" d="M463.33,352.86c-16.46-9.06-38.28-11.58-62.21-11.58s-45.76,2.52-62.23,11.59a74.38,74.38,0,0,1,34.53-28.5,38.17,38.17,0,0,0,55.4,0A74.31,74.31,0,0,1,463.33,352.86Z"/><line class="cls-35" x1="402.42" y1="364.01" x2="467.07" y2="364.01"/><line class="cls-35" x1="402.42" y1="397.23" x2="473.21" y2="397.23"/><line class="cls-35" x1="400.22" y1="364.01" x2="335.57" y2="364.01"/><line class="cls-35" x1="400.22" y1="397.23" x2="329.43" y2="397.23"/><path class="cls-36" d="M373.42,324.37a38.17,38.17,0,0,0,55.4,0"/><line class="cls-37" x1="401.12" y1="419.31" x2="401.12" y2="338.28"/><line class="cls-37" x1="331.82" y1="419.31" x2="472.12" y2="419.31"/><path class="cls-38" d="M524,419.61l-4.65,5.7-3.54,4.36c-.78.94-1.57,1.9-2.39,2.91-1.14,1.4-2.34,2.84-3.57,4.36-6.15,7.49-13.35,16.25-20.68,25.11L480,473c-12.1,14.47-23.5,27.86-30,34.79a36,36,0,0,1-5,4.85c-6.45,3.73-24.42-1.69-24.77-2.71,0,0,0,0,0-.06,0-.83,4.19-3.77,9.58-7.77,2.22-1.64,4.64-3.46,7.06-5.39,3.25-2.61,15.76-15.18,30-29.69l9.33-9.56c7-7.16,13.95-14.37,20.11-20.75,1.45-1.49,2.85-2.95,4.2-4.36l2.81-2.89,4.19-4.36,8.63-9a2.61,2.61,0,0,1,1.88-.81H522A2.61,2.61,0,0,1,524,419.61Z"/><path class="cls-39" d="M450.09,507.83a36,36,0,0,1-5,4.85c-6.45,3.73-24.42-1.69-24.76-2.71,0,0,0,0,0-.06-.62-3.73,4.43-9.45,6.46-10.46,1-.49,1.79.89,3.11,2.7a14.41,14.41,0,0,0,7.06,5.68A22,22,0,0,0,450.09,507.83Z"/><path class="cls-40" d="M519.39,425.3l-3.55,4.37-12.46-.17,4.18-4.36Z"/><path class="cls-39" d="M513.46,432.58c-1.15,1.39-2.34,2.85-3.59,4.35l-13.5-.18,4.2-4.35Z"/><path class="cls-41" d="M489.2,462.05,480,473l-13.11-6,9.33-9.56Z"/><path class="cls-42" d="M478.67,475.92l-13.19-6.14a2.1,2.1,0,0,1-1-2.77h0a2.09,2.09,0,0,1,2.78-1l13.18,6.14a2.1,2.1,0,0,1,1,2.77h0A2.08,2.08,0,0,1,478.67,475.92Z"/><path class="cls-42" d="M488.38,464.49l-13.26-6a2.09,2.09,0,0,1-1.05-2.76h0a2.09,2.09,0,0,1,2.76-1l13.26,6a2.09,2.09,0,0,1,1.05,2.76h0A2.08,2.08,0,0,1,488.38,464.49Z"/><path class="cls-38" d="M510.66,415.78c-1.43,1.39-3.22,3.11-5.3,5.09-1.25,1.22-2.6,2.51-4.05,3.91l-2.71,2.6-4.08,3.9c-9.09,8.7-20.22,19.29-31,29.48l-2.17,2c-14,13.19-27.32,25.44-34.68,31.66a36.82,36.82,0,0,1-5.55,4.2c-6.85,2.93-24-4.62-24.26-5.67,0,0,0,0,0-.06.1-.83,4.61-3.23,10.44-6.56,2.4-1.36,5-2.88,7.66-4.51,3.42-2.11,16.55-12.43,31.75-24.59l0,0h0l2.92-2.33h0c10.6-8.49,21.94-17.66,31.51-25.43l4.69-3.82c1.09-.87,2.14-1.72,3.14-2.54l4.68-3.82,9.66-7.88a2.65,2.65,0,0,1,2-.57l3.89.48A2.6,2.6,0,0,1,510.66,415.78Z"/><path class="cls-39" d="M426.63,494.46a35.59,35.59,0,0,1-5.55,4.2c-6.85,2.93-24-4.62-24.26-5.67,0,0,0,0,0-.06-.15-3.78,5.54-8.85,7.68-9.61,1-.36,1.67,1.1,2.76,3.06a14.46,14.46,0,0,0,6.32,6.49A22.09,22.09,0,0,0,426.63,494.46Z"/><path class="cls-40" d="M505.37,420.88l-4.05,3.9L489,423.11l4.68-3.82Z"/><path class="cls-39" d="M498.6,427.38c-1.31,1.25-2.66,2.55-4.08,3.89l-13.38-1.8,4.69-3.82Z"/><path class="cls-41" d="M475.15,450.22,464.71,460l-12.28-7.57,10.45-8.32Z"/><path class="cls-42" d="M463,462.68,450.66,455a2.09,2.09,0,0,1-.65-2.88h0a2.09,2.09,0,0,1,2.87-.66l12.32,7.74a2.08,2.08,0,0,1,.66,2.87h0A2.09,2.09,0,0,1,463,462.68Z"/><path class="cls-42" d="M474,452.54,461.62,445a2.08,2.08,0,0,1-.7-2.87h0a2.1,2.1,0,0,1,2.87-.7L476.21,449a2.09,2.09,0,0,1,.7,2.87h0A2.09,2.09,0,0,1,474,452.54Z"/><path class="cls-38" d="M483.68,298.27S494,284.13,502.59,288s-18.84,16.49-18.84,16.49l1.72-2.76s14.72-6.18,14.4-11c-.4-6-14.42,8.48-14.42,8.48Z"/><rect class="cls-38" x="482.66" y="291.99" width="3.5" height="142.16" transform="matrix(1, -0.01, 0.01, 1, -4.08, 5.51)"/><path class="cls-39" d="M483.74,303.69h0A3.75,3.75,0,0,1,480,300l-.14-12.45a3.74,3.74,0,0,1,3.71-3.8h0a3.75,3.75,0,0,1,3.79,3.71l.15,12.45A3.76,3.76,0,0,1,483.74,303.69Z"/><path class="cls-39" d="M492.85,432.88a.53.53,0,0,0-.1-.12l-2.29-2-3.56-3.17-1.75,0-1.69,0h-.06l-.31.28,0,0,0,0h0l-1.68,1.56-3.7,3.44a.56.56,0,0,0,.39,1l5.42-.07,3.5,0,5-.06h.43A.55.55,0,0,0,492.85,432.88Zm-10-.38c-.25.37-3.63.48-3.63,0s1.91-1.9,3.15-2.92l1.06-.84c0,.07-.05.46-.11,1A14.75,14.75,0,0,1,482.83,432.5Zm1,.39c-.31-.27.29-1.84.78-3,.3-.67.55-1.18.55-1.18l.4,1.31c.34,1.12.77,2.58.77,2.8S484.34,433.31,483.83,432.89Zm3.28-.59a2,2,0,0,1-.17-.49v-.06c-.08-.41-.16-1-.23-1.54-.1-.78-.17-1.48-.17-1.48l.37.28c.43.32,1.21.9,1.94,1.49a8.55,8.55,0,0,1,1.89,1.75C490.74,432.69,487.36,432.67,487.11,432.3Z"/><polygon class="cls-41" points="483.47 434.16 485.27 438.35 486.98 434.12 483.47 434.16"/><path class="cls-38" d="M488.13,289.45s-8.88-15.11-17.78-12.09,17.07,18.31,17.07,18.31L486,292.75s-14-7.63-13.21-12.37c1-5.94,13.49,9.88,13.49,9.88Z"/><rect class="cls-38" x="409.77" y="352.09" width="142.16" height="3.5" transform="translate(75.3 791.96) rotate(-83.56)"/><path class="cls-39" d="M487.52,294.84h0a3.75,3.75,0,0,0,4.15-3.31l1.4-12.38a3.75,3.75,0,0,0-3.31-4.15h0a3.75,3.75,0,0,0-4.15,3.31l-1.4,12.37A3.77,3.77,0,0,0,487.52,294.84Z"/><path class="cls-39" d="M480.52,424l-5.16-5.89-3.48-.4-1.2.87h0l-1,.69-4.18,3a.55.55,0,0,0,.26,1l2.82.32,2.57.29,1.74.2,1.74.19,5.39.61A.55.55,0,0,0,480.52,424Zm-9.12-2.09a1.81,1.81,0,0,1-.21.5,4.4,4.4,0,0,1-2.08.08c-.82-.1-1.55-.28-1.53-.48a10.48,10.48,0,0,1,2.48-1.82l1.48-.91.17-.1.41-.25s0,.13-.07.35c-.13.61-.42,1.88-.64,2.61Zm3,1.43c-.55.37-2.53.07-2.49-.29s1.59-4,1.59-4S474.94,423,474.39,423.37Zm1-.29a25.07,25.07,0,0,1-.2-3.77s3.86,3.74,3.81,4.17S475.64,423.48,475.43,423.08Z"/><polygon class="cls-41" points="474.62 424.67 472.41 428.66 471.14 424.28 474.62 424.67"/><path class="cls-42" d="M150.94,630.25s-.54,2.85.06,4.28a16.33,16.33,0,0,0,3-3.67Z"/><path class="cls-42" d="M73.85,614.87s-.54,2.85.05,4.28a16.05,16.05,0,0,0,3-3.67Z"/><rect class="cls-43" x="108.49" y="501.85" width="8.33" height="103.64" transform="translate(110.5 -11.34) rotate(11.28)"/><rect class="cls-43" x="150.28" y="510.19" width="8.33" height="103.64" transform="translate(112.94 -19.36) rotate(11.28)"/><polygon class="cls-39" points="186.24 575.62 83.79 555.18 78.92 575.98 182.92 596.72 186.24 575.62"/><polygon class="cls-39" points="87.09 541.08 188.48 561.3 191.79 540.2 91.96 520.28 87.09 541.08"/><polygon class="cls-39" points="194.04 525.88 195.8 514.66 98.36 492.96 100.91 506.51 194.04 525.88"/><polygon class="cls-39" points="75.62 590.08 70 614.1 176.85 635.42 180.68 611.03 75.62 590.08"/><path class="cls-43" d="M199.87,473.82c-7.94-11.16-28.88-19.06-39.58-21.2s-38-3.33-45.8,4.17c-6.41,6.2-14.43,47.15-14.43,47.15l47.3,9.44.44.09,47.3,9.43S205,481,199.87,473.82ZM190,514.71l-81.94-16.35c3.53-16.31,8.33-33.33,11-36.5,4.49-4.21,26.89-4.91,39.83-2.33,10.79,2.16,29,9.68,35.31,18.29C195.52,481.71,193.65,497.65,190,514.71Z"/><path class="cls-44" d="M132.67,468.13s-19.5,16.07-25.4,39.25,5.59,46.22,5.59,46.22L165.1,564S189,521.68,185.35,499.8s-13.68-23.88-13.68-23.88Z"/><rect class="cls-45" x="144.9" y="471.65" width="3.89" height="69.97" transform="translate(101.96 -18.94) rotate(11.28)"/><path class="cls-27" d="M137,446.39s-8.94.6-11,9.51,2.48,11.41,2.48,11.41l53.23,10.61s5.81-2.47,5.92-13.58c.05-5-7.78-12.07-7.78-12.07Z"/><path class="cls-38" d="M123.06,373.53s2.59-4.93,1.24-9.52a21.57,21.57,0,0,0-5.36-8.56l.46,4.44-.76-7.42a25.81,25.81,0,0,0-4.48,12.79c-.19,2.79,5,8.42,5,8.42Z"/><path class="cls-38" d="M140.18,415.12s2.9-6.21-.44-11.53-5.18-5.08-5.18-5.08a12.32,12.32,0,0,0-1.1-6.24,12.75,12.75,0,0,0-5.23-5.73s.27-5.48-2.09-8.81-3.08-4.2-3.08-4.2l-3.93.15a56,56,0,0,0,0,8.29,7.79,7.79,0,0,0,2.19,4.75,15.13,15.13,0,0,0,.26,8.39,12.11,12.11,0,0,0,3.35,5.35s1.85,8.27,3.26,11.06a18,18,0,0,0,6.81,7Z"/><path class="cls-26" d="M119.27,377l5.63-.51a2.66,2.66,0,0,0,2.4-2.89h0a2.65,2.65,0,0,0-2.88-2.4l-5.63.51a2.66,2.66,0,0,0-2.4,2.89h0A2.65,2.65,0,0,0,119.27,377Z"/><path class="cls-38" d="M228.35,400.3s1.13-5.45,5.08-8.14A21.68,21.68,0,0,1,243,389l-3.17,3.14,5.31-5.25a25.82,25.82,0,0,1-4.67,12.72c-1.63,2.29-9.18,3.36-9.18,3.36Z"/><path class="cls-38" d="M188.71,421.57s1.71-6.64,7.67-8.64,7.22-.63,7.22-.63a12.31,12.31,0,0,1,4.82-4.12,12.8,12.8,0,0,1,7.67-1.11s3.27-4.4,7.21-5.48,5-1.29,5-1.29l2.94,2.62a55.88,55.88,0,0,1-5.27,6.4,7.86,7.86,0,0,1-4.71,2.28,15.13,15.13,0,0,1-5.52,6.31,12.23,12.23,0,0,1-6,2s-6.69,5.21-9.54,6.47a18,18,0,0,1-9.68,1.06Z"/><path class="cls-34" d="M159.39,603.26s-3.18,4.1-4.4,4.06a8.35,8.35,0,0,0-6.73,4,72.25,72.25,0,0,0-4.4,7.71s24,11.75,25.07,11.75,5-6.57,5.58-8.5,4.36-10.55,4.36-10.55S174,603.92,159.39,603.26Z"/><path class="cls-34" d="M93.12,579.75s.3,5.17,1.32,5.83a8.36,8.36,0,0,1,3.29,7.09,72.33,72.33,0,0,1-.75,8.85S70.51,597.57,69.67,597s-.39-8.25.22-10.17,2.4-11.16,2.4-11.16S80.72,572,93.12,579.75Z"/><rect class="cls-46" x="117.18" y="547.34" width="50.5" height="2.11" transform="translate(110.04 -17.27) rotate(11.28)"/><path class="cls-27" d="M183.43,620.63a33.43,33.43,0,0,0-8.19-7.36,31.65,31.65,0,0,0-12.73-4.85c-11.17-1.6-12.89-.09-13.15.45l7.52-31.46s-7.87,3-23-4.34-20.78-21.73-20.78-21.73L102.5,589.41s-11.17-4.48-22.86-10.08c-2.19-1.05-4-1.94-5.54-2.69-6.59-3.25-7.45-3.93-7.45-3.93s6.85-9.18,10.18-17.05c1.23-2.89,4-10.26,7.3-18.57h0c2.43-6.23,5.11-13,7.52-18.74,3.15-7.55,5.87-13.44,7-14.33,0,0,6.08-7.83,18.88-1.51s23.7,42.41,28.82,45.69,9-1.21,12.51-4.79,13-15,23.18-11.71c7.54,2.44,9.59,12.93,9.15,24.14A91,91,0,0,1,190,567.44c-.62,3.73-1.35,9-2.1,14.84C185.75,599.23,183.43,620.63,183.43,620.63Z"/><path class="cls-33" d="M183.43,620.63a33.43,33.43,0,0,0-8.19-7.36s2.26-17.62,4.95-24.81c2.62-7,7.5-6.22,7.73-6.18C185.75,599.23,183.43,620.63,183.43,620.63Z"/><path class="cls-33" d="M85.25,552.61a87.34,87.34,0,0,1-11.15,24c-6.59-3.25-7.45-3.93-7.45-3.93s6.85-9.18,10.18-17.05c1.23-2.89,4-10.26,7.3-18.57h0S89,539.16,85.25,552.61Z"/><path class="cls-28" d="M191.23,555.83c-2-1.23-4-4.58-6.81-6-12.25-6.2-13.32,2.56-34,5.74s-21.09-25.08-34.1-35.2-24.66-2-24.66-2c3.15-7.55,5.87-13.44,7-14.33,0,0,6.08-7.83,18.88-1.51s23.7,42.41,28.82,45.69,9-1.21,12.51-4.79,13-15,23.18-11.71C189.62,534.13,191.67,544.62,191.23,555.83Z"/><path class="cls-47" d="M193.92,416.76l-27.63-5.52-.52-.1-27.63-5.51s-6.16,28.18-3.08,36.76,13.17,16.71,17.14,18.12l3.48,1.23,0,.07.27,0,.25.09,0-.08,3.67.2c4.22.23,16.65-3.42,22.79-10.16S193.92,416.76,193.92,416.76Z"/><path class="cls-47" d="M136.87,414.82s-3.21-2.58-3.86-.77-1.4,12.59,1.44,12.87S136.87,414.82,136.87,414.82Z"/><path class="cls-47" d="M191.31,425.74s3.95-1.15,3.86.77-3.54,12.16-6.27,11.33S191.31,425.74,191.31,425.74Z"/><path class="cls-38" d="M140.36,416.71l-1.48,5a76.82,76.82,0,0,0,9.35,1.87A114.09,114.09,0,0,1,160,426.08l2.16-5,.52,5.55s8.38,1.52,13,2.59,11,2.2,11,2.2,1.61-4.06,1-5.23S140.36,416.71,140.36,416.71Z"/><path class="cls-26" d="M192.55,415.06l-26.12-4.89h0l-.29-.06-.3-.06h0l-26-5.5s.56-1.08,1.55-2.78l.93-1.58a83.35,83.35,0,0,1,10.21-13.85l.58-.6c.46-.47.94-.93,1.42-1.37l.61-.55a20.41,20.41,0,0,1,5.51-3.6c8.54-3.51,11.37-3.86,12.1-3.88v0l.11,0h.1v0c.67.29,3.16,1.7,9.7,8.22a16.78,16.78,0,0,1,2.22,2.81c.15.22.29.45.43.69a35.74,35.74,0,0,1,2.83,6.17c.1.26.19.52.28.79a88,88,0,0,1,3.49,15c.11.66.19,1.27.26,1.82C192.44,413.85,192.55,415.06,192.55,415.06Z"/><path class="cls-27" d="M196.83,421.21,195.67,427a5.2,5.2,0,0,1-6.07,4.09l-52.94-10.57a5.19,5.19,0,0,1-4.08-6.11l1.16-5.82a5.19,5.19,0,0,1,6.11-4.08l52.9,10.55A5.19,5.19,0,0,1,196.83,421.21Z"/><path class="cls-12" d="M192.18,411.9,141.4,401.77l.93-1.58,49.59,9.89C192,410.74,192.11,411.35,192.18,411.9Z"/><path class="cls-12" d="M182.2,390.19h0l-.68.45h0l-.45-.68h0l-2.18-3.26-4,2.64h0l-2.63-3.95L168.37,388l-2.63-3.94-3.26,2.17h0l-.68.45h0l-.45-.67h0l-2.18-3.26-3.94,2.63h0l-.68-1,.61-.55.3.45,3.27-2.18h0l.68-.45h0l.45.67h0l2.18,3.26,3.26-2.18h0L166,383h0l.45.67h0l2.19,3.27,3.27-2.19h0l.68-.45h0l.45.68h0l2.19,3.27,3.27-2.18h0l.67-.45h0l.45.68h0l2.17,3.26,3.14-2.09c.15.22.29.45.43.69Z"/><path class="cls-12" d="M188.43,395.07l-1.07.72v0h0l-2.63-3.95L181.44,394h0l-.68.45h0l-.46-.68h0l-2.17-3.26-3.95,2.63h0l-2.64-4-3.94,2.63L165,387.9l-3.27,2.18h0l-.68.45h0l-.45-.67h0l-2.18-3.26-3.94,2.63h0l-1.92-2.88.58-.6,1.57,2.36,3.27-2.19h0l.67-.45h0l.45.67h0l2.17,3.26,3.26-2.18h0l.68-.45h0l.46.67h0l2.18,3.27,3.27-2.18h0l.68-.45h0l.46.68h0l2.18,3.27,3.28-2.18h0l.68-.45h0l.45.68h0l2.18,3.26,3.26-2.17h0l.67-.45h0l.45.68h0l2.19,3.28.58-.38C188.25,394.54,188.34,394.8,188.43,395.07Z"/><path class="cls-27" d="M181.45,376.32a8.4,8.4,0,1,1-6.6-9.89,8.66,8.66,0,0,1,1.94.64A8.42,8.42,0,0,1,181.45,376.32Z"/><path class="cls-28" d="M181.45,376.32a8.42,8.42,0,0,1-7.85,6.75,8.41,8.41,0,0,1,3.19-16A8.42,8.42,0,0,1,181.45,376.32Z"/><rect class="cls-28" x="132.06" y="413.98" width="12.63" height="0.98" transform="translate(-295.16 469.07) rotate(-78.72)"/><rect class="cls-28" x="136.39" y="414.84" width="12.63" height="0.98" transform="translate(-292.52 474.02) rotate(-78.72)"/><rect class="cls-28" x="140.72" y="415.71" width="12.63" height="0.98" transform="translate(-289.89 478.96) rotate(-78.72)"/><rect class="cls-28" x="145.05" y="416.57" width="12.63" height="0.98" transform="translate(-287.25 483.9) rotate(-78.72)"/><rect class="cls-28" x="149.38" y="417.44" width="12.63" height="0.98" transform="translate(-284.61 488.85) rotate(-78.72)"/><rect class="cls-28" x="153.71" y="418.3" width="12.63" height="0.98" transform="translate(-281.98 493.79) rotate(-78.72)"/><rect class="cls-28" x="158.05" y="419.17" width="12.63" height="0.98" transform="translate(-279.34 498.73) rotate(-78.72)"/><rect class="cls-28" x="162.38" y="420.03" width="12.63" height="0.98" transform="translate(-276.7 503.68) rotate(-78.72)"/><rect class="cls-28" x="166.71" y="420.89" width="12.63" height="0.98" transform="translate(-274.07 508.62) rotate(-78.72)"/><rect class="cls-28" x="171.04" y="421.76" width="12.63" height="0.98" transform="translate(-271.43 513.56) rotate(-78.72)"/><rect class="cls-28" x="175.38" y="422.62" width="12.63" height="0.98" transform="translate(-268.79 518.51) rotate(-78.72)"/><rect class="cls-28" x="179.7" y="423.49" width="12.63" height="0.98" transform="translate(-266.16 523.45) rotate(-78.72)"/><rect class="cls-28" x="184.04" y="424.35" width="12.63" height="0.98" transform="translate(-263.52 528.39) rotate(-78.72)"/><path class="cls-26" d="M229,405.42l-4-4a2.65,2.65,0,0,1,0-3.75h0a2.64,2.64,0,0,1,3.75,0l4,4a2.66,2.66,0,0,1,0,3.76h0A2.66,2.66,0,0,1,229,405.42Z"/><path class="cls-38" d="M153.82,431.64a1.16,1.16,0,0,1-.88-.78c0-.08-.86-2.39-4.66-3.05-3.48-.63-5.18,1.05-5.25,1.12a1.17,1.17,0,0,1-1.71-1.61c.11-.11,2.58-2.69,7.38-1.82l.21,0c5,1,6.21,4.44,6.26,4.59a1.18,1.18,0,0,1-.75,1.48A1.22,1.22,0,0,1,153.82,431.64Z"/><path class="cls-38" d="M180.84,437a1.19,1.19,0,0,1-.89-.78c0-.09-.87-2.39-4.66-3.05-3.48-.63-5.17,1.05-5.24,1.12a1.19,1.19,0,0,1-1.66,0,1.18,1.18,0,0,1,0-1.65c.1-.11,2.57-2.69,7.37-1.82l.21,0c5,1,6.22,4.44,6.26,4.59a1.17,1.17,0,0,1-.75,1.48A1.19,1.19,0,0,1,180.84,437Z"/><path class="cls-38" d="M157.66,452.92c-7.27-1.45-10.19-6.39-10.31-6.61a.78.78,0,0,1,.28-1.07.77.77,0,0,1,1.07.29,14.44,14.44,0,0,0,10.14,6c7.24,1.07,9.87-1.85,9.9-1.88a.79.79,0,0,1,1.1-.08.77.77,0,0,1,.09,1.09c-.12.15-3.13,3.63-11.32,2.42Z"/><path class="cls-26" d="M132.68,468.08s-10.21-4.06-17.63,0c-5.31,2.87-11.85,7.82-15.34,18.82-5.27,16.65,5.59,60.51,9.13,61.56s22.78-2,26-5.92-7-33.72-6.76-43.73c.36-14.51,12.29-29.15,12.29-29.15Z"/><path class="cls-26" d="M180.39,477.6s8.17,2.17,12.79,6.95,5.69,12.19,6.29,22.21c1,17.55-28.38,53.73-32.05,53.35s-20.25-10.64-21.75-15.46,19-28.59,23-37.78c6.16-14.05-2.32-32.06-2.32-32.06Z"/><path class="cls-47" d="M118.14,551.52a63.71,63.71,0,0,1-1.84,9.2c-1.3,4.53,4,13.63,11.28,10.45s10.57-8.11,9-12.21-7.74-9-7.74-9Z"/><path class="cls-47" d="M150.5,554.48a63.43,63.43,0,0,1-8,4.95c-4.2,2.15-7.18,12.27.08,15.38S155.76,577,157.68,573s1.26-11.78,1.26-11.78Z"/><path class="cls-48" d="M112.92,548.56s-1,5.23,4,6.11,16.15-3.15,16.82-5.45-2.49-4.54-2.49-4.54Z"/><path class="cls-48" d="M149.2,548.22s-5.43,2.16-3.07,6.2,13.12,9.75,15.66,9,2.6-4.26,2.6-4.26Z"/><path class="cls-41" d="M174,575.79a4.06,4.06,0,0,0-4.82,3.49c-.83,7-2.91,21.19-7.07,33.39-5.77,17-11.14,21.86-11.14,21.86l10.36,2.07s7-8.33,11.94-27.82a118.93,118.93,0,0,0,4-28.84,4,4,0,0,0-3.25-4.15Z"/><path class="cls-41" d="M96.73,560.37a4.05,4.05,0,0,0-4.81,3.49c-.84,7-2.91,21.19-7.07,33.39-5.77,17-11.15,21.86-11.15,21.86l10.37,2.07s7-8.33,11.94-27.82a119.47,119.47,0,0,0,4-28.84,4.07,4.07,0,0,0-3.26-4.15Z"/><rect class="cls-11" x="85.44" y="593.15" width="10.91" height="2.87" transform="translate(118.09 -6.29) rotate(11.28)"/><rect class="cls-11" x="161.13" y="609.8" width="11.77" height="2.87" transform="translate(122.81 -20.86) rotate(11.28)"/><path class="cls-11" d="M161.2,610.4c0-.33-2.59-33-7.71-40.46s-22.17-9.29-31.08-3.58c-9.4,6-27.21,28.82-27.39,29L93.17,594c.74-1,18.24-23.35,28-29.59,10.18-6.52,28.44-4.26,34.28,4.23,5.48,8,8,40.24,8.12,41.61Z"/><path class="cls-49" d="M724,462.5a28.68,28.68,0,0,0,15.83,2.15s-1.58-3.49-6.89-4.45C725.62,458.88,724,462.5,724,462.5Z"/><path class="cls-34" d="M689.8,454.49s.09,1.12-.84,1.12-3-2.34-4.86-2.06-3.45,2.9-3.54,4l-.1,1.12,17.28,5.13a8.83,8.83,0,0,0,.65-2.05v-.56s1.12-.56,1.12-1.4a21.49,21.49,0,0,1,1-3.69Z"/><path class="cls-34" d="M727.51,460.41s-1.08,2.16-1.64,2.26a3.88,3.88,0,0,0-2.71,2.42,35.17,35.17,0,0,0-1.3,3.92s12,3.18,12.51,3.09,1.68-3.46,1.77-4.39,1-5.21,1-5.21S734.23,459.39,727.51,460.41Z"/><path class="cls-39" d="M732.35,417.44c.14.63,1.93,9.38.18,13.4-1.82,4.18-4.54,5.08-4.54,5.08H704s-2.73-.9-4.54-5.08c-1.75-4,0-12.77.17-13.4h0a.16.16,0,0,0,0,0l-.09-.46v0c-.11-.57-.33-1.74-.81-4.22a22.07,22.07,0,0,1-.23-4.94,53.3,53.3,0,0,1,1.26-9.08,7.8,7.8,0,0,1,.24-.87c.26-.69,3.08-2.12,5.94-3.41l1.72-.76h0c2.43-1.05,4.49-1.86,4.49-1.86h7.72s11.6,4.59,12.14,6,2.18,10.17,1.27,14.89c-.47,2.48-.7,3.65-.8,4.22l-.1.5Z"/><path class="cls-47" d="M723.27,378.34a1.81,1.81,0,0,0-1.81-1.71H710.93a1.82,1.82,0,0,0-1.81,1.71c-.15,2.54-.28,7.15.65,8.46,1.32,1.84,4,4.38,5.26,4.82a5.39,5.39,0,0,0,2.33,0c1.32-.44,3.95-3,5.26-4.82C723.56,385.49,723.43,380.88,723.27,378.34Z"/><path class="cls-33" d="M723.36,384.6a7.25,7.25,0,0,1-2.92.83,13.26,13.26,0,0,0-3.76.29,1.74,1.74,0,0,1-1.06,0,13.26,13.26,0,0,0-3.76-.29,7.25,7.25,0,0,1-2.92-.83s-.71,3.51,3.18,7.55c2.87,3,3.76,3.15,4,3,.27.12,1.16-.06,4-3C724.07,388.11,723.36,384.6,723.36,384.6Zm-3.84,3.18c-1.32,2.46-5.64,1.79-6.53-.12-.33-.7,2.39-.42,3-.42h.23C716.92,387.24,719.89,387.1,719.52,387.78Z"/><path class="cls-47" d="M723,378.48s.25-1.64,1.07-.82.69,4.33-.19,4.74-1.58-.64-1.58-.64Z"/><path class="cls-47" d="M709.32,378.8s-.28-1.74-1.1-.93-.65,4.43.22,4.84,1.58-.63,1.58-.63Z"/><path class="cls-50" d="M723.3,377.78a1.23,1.23,0,0,0-1.22-1.15h-11.7a1.23,1.23,0,0,0-1.22,1.15c-.06,1.13-.14,3-.09,5l.44-.71s-.13-3.24.31-3.85,5.25-.78,6.41-.83,6,.29,6.41.83.31,3.85.31,3.85l.44.71C723.44,380.75,723.36,378.91,723.3,377.78Z"/><circle class="cls-50" cx="712.38" cy="381.84" r="0.98"/><path class="cls-50" d="M720.63,381.84a1,1,0,1,1-1-1A1,1,0,0,1,720.63,381.84Z"/><circle class="cls-27" cx="716.71" cy="366.46" r="3.22"/><path class="cls-46" d="M709.74,388.78a6,6,0,0,0-2,3c-.82,2.2,8.46,3.43,8.46,3.43Z"/><path class="cls-46" d="M722.5,388.57a6.71,6.71,0,0,1,2.33,3.18c.82,2.2-8.46,3.43-8.46,3.43Z"/><path class="cls-46" d="M732.35,417.4v0H699.6l-.08-.5v0h32.94Z"/><rect class="cls-51" x="715.25" y="395.18" width="1.46" height="40.74"/><rect class="cls-46" x="703.97" y="435.92" width="24.09" height="1"/><path class="cls-39" d="M706.72,394.19v12s-1.18.56-8.25,1.53c-.92.13-1.94.26-3.07.4-9.8,1.22-23.72,2.09-23.72,2.09l-1.7-5a41.18,41.18,0,0,1,6.42-3c.5-.2,1-.39,1.57-.59,4.73-1.72,23.76-6.25,27.94-7.23Z"/><path class="cls-39" d="M760.71,424.57l-3.89,3.56s-11.77-7.47-19.78-13.26c-1.45-1.05-2.67-1.95-3.69-2.73-4.64-3.51-5.3-4.42-5.3-4.42l3-5.44,1.41-2.58.23-.41,1.16-2.11,0,.05c.66.6,7.58,6.84,13.53,12.41h0c3.51,3.3,6.69,6.37,8,7.9A45.49,45.49,0,0,1,760.71,424.57Z"/><path class="cls-39" d="M734.07,400.41a47,47,0,0,1-.76,5l-2.26-3.09-6.17-8.42h0s.61.12,1.52.33h0c2.4.55,6.87,1.74,7.5,3l0,.06A8.26,8.26,0,0,1,734.07,400.41Z"/><path class="cls-27" d="M724,462.5v.08A.45.45,0,0,1,724,462.5Z"/><path class="cls-27" d="M739.85,464.65a14.83,14.83,0,0,0-4.2-2.49,14.09,14.09,0,0,0-6-1c-5,.28-5.61,1.08-5.67,1.34l.54-14.33s-3.17,2-10.38.1a19.81,19.81,0,0,1-10.92-7.64L702,458.09s-5.25-1-10.82-2.4c-1-.26-1.91-.49-2.64-.69a29.92,29.92,0,0,1-3.58-1.06,44.73,44.73,0,0,0,3-8.3c.28-1.36.87-4.81,1.56-8.71h0c.52-2.92,1.1-6.08,1.65-8.8.71-3.56,1.38-6.35,1.81-6.84,0,0,2-3.94,8.08-2.3s14,16.39,16.5,17.37,3.82-1.31,5-3.17,4.37-7.64,9.07-7.1c3.49.41,5.29,4.79,6.07,9.7a39.29,39.29,0,0,1,.48,5.16c.06,1.67.2,4,.38,6.63C739,455.14,739.85,464.65,739.85,464.65Z"/><path class="cls-33" d="M739.85,464.65a14.83,14.83,0,0,0-4.2-2.49s-.54-7.86,0-11.22,2.72-3.35,2.83-3.36C739,455.14,739.85,464.65,739.85,464.65Z"/><path class="cls-33" d="M691.26,443.59A38.89,38.89,0,0,1,688.49,455a29.92,29.92,0,0,1-3.58-1.06,44.73,44.73,0,0,0,3-8.3c.28-1.36.87-4.81,1.56-8.71h0S691.71,437.41,691.26,443.59Z"/><path class="cls-27" d="M758.71,476.82a3,3,0,0,1-.07.71h0c-.36,1.5-1.93,3.18-4.33,4.43-4.47,2.33-11.85-.38-17.45-2.24s-65.7-16.8-68-17.59S655.15,451,654.74,450.6l0,0,.25.16c6.53,3.61,78.2,20.46,83.33,21.38s14.38.83,18.2,2.24C758,474.93,758.68,475.8,758.71,476.82Z"/><path class="cls-33" d="M670,405.24s-2.42.67-3.51,1-3.45.18-5.45,0-3.63,2.27-3.26,4.45,3.54,3.78,5.26,3.12,2.63-1.61,2.73-1.18-.91.87.36,1.33,1.36-1.82,2.9-2.63a14.81,14.81,0,0,1,2.67-1.13Z"/><path class="cls-33" d="M756.82,428.13s2.62,1.48,2.89,2.38,2.39,5.23,4.48,5.41,5.85-1.65,5.81-4.56c0-1.76-1.66-3.66-3.93-4.39s-5-1.78-5.36-2.4Z"/><rect class="cls-27" x="707.63" y="375.65" width="16.99" height="4.31" rx="2.16" ry="2.16"/><path class="cls-33" d="M708.57,375.65s2.95-7.36,7.8-7.48,7.32,7.48,7.32,7.48Z"/><path class="cls-28" d="M758.71,476.82s0,.25-.07.71h0c-.36,1.5-1.93,3.18-4.33,4.43-4.47,2.33-11.85-.38-17.45-2.24s-65.7-16.8-68-17.59S655.15,451,654.74,450.6l0,0,.25.16c2,1.26,14.06,8.76,20.26,11.63,6.78,3.15,65.08,17.8,72.81,18.22S758.71,476.82,758.71,476.82Z"/><path class="cls-12" d="M670,457.21l3.81.91,10,2.45,6.69,1.67L698,464.1l16.2,4.11,8.22,2.1c2.72.69,5.38,1.4,8,2s5.12,1.05,7.53,1.44,4.7.67,6.82.89,4.06.36,5.79.51a39.72,39.72,0,0,1,4.47.54c.31.07.6.16.86.24l.75.22,1.17.36,1,.31-3.81-.9a39.56,39.56,0,0,0-4.45-.41c-1.72-.11-3.68-.23-5.81-.42s-4.43-.42-6.86-.77-5-.81-7.58-1.39-5.28-1.28-8-1.95-5.48-1.36-8.23-2.08l-16.18-4.2c-2.58-.66-5.07-1.34-7.43-2L683.7,461c-4.12-1.1-7.55-2.06-10-2.71Z"/><path class="cls-28" d="M737.62,435.79c-1-.36-2.15-1.64-3.48-2-5.86-1.63-5.57,2.27-14.29,5.45s-11.34-9.08-17.88-12.35a9.32,9.32,0,0,0-10.9,1.25c.71-3.56,1.38-6.35,1.81-6.84,0,0,2-3.94,8.08-2.3s14,16.39,16.5,17.37,3.82-1.31,5-3.17,4.37-7.64,9.07-7.1C735,426.5,736.84,430.88,737.62,435.79Z"/><path class="cls-52" d="M707.63,393.62a5.1,5.1,0,0,1-.91,1.09,19.49,19.49,0,0,1-6.48,3.76l-.51.19c-6.19,2.2-16.91,2.77-19.91,3.55a7.3,7.3,0,0,1-3.42,0c.5-.2,1-.39,1.57-.59,4.73-1.72,23.76-6.25,27.94-7.23Z"/><path class="cls-52" d="M747.43,409.64c-2.39-.26-8.15-4.91-11.87-8l-1.49-1.23-1.38-1.12-.39-.32c-1.91-1.56-3.77-3.06-4.87-4-.61-.49-1-.8-1-.83,2.4.55,6.87,1.74,7.5,3C734.56,397.83,741.48,404.07,747.43,409.64Z"/><g class="cls-53"><path class="cls-12" d="M756.55,474.4c-3.82-1.41-13-1.31-18.2-2.24-.52-.1-1.73-.36-3.48-.74a15.85,15.85,0,0,0,1.27-3.71c.05-.45.29-1.67.52-2.82a30.22,30.22,0,0,0,3.19-.24s-.85-9.51-1.37-17.07c-.18-2.59-.32-5-.38-6.63a39.29,39.29,0,0,0-.48-5.16c-.64-4-2-7.69-4.35-9.11a44.12,44.12,0,0,0-.92-9.24v0l.1-.5c.1-.57.33-1.74.8-4.22,0-.17.06-.36.09-.55h0c1,.78,2.24,1.68,3.69,2.73,8,5.79,19.78,13.26,19.78,13.26l3.89-3.56a45.49,45.49,0,0,0-5.25-7c-1.34-1.53-4.52-4.6-8-7.9h0c-5.95-5.57-12.87-11.81-13.53-12.41-.63-1.3-5.1-2.49-7.5-3h0c-.91-.21-1.52-.33-1.52-.33h0l-1.23-.54c.88-.45,1.41-1,1.18-1.57a6.83,6.83,0,0,0-2.21-3.09,7.22,7.22,0,0,0,.74-4.06l-.13.07c.07-.6.12-1.26.14-1.94l0,0v-.29a1,1,0,0,0,.5-.08c.68-.32.91-2.51.59-3.86a2,2,0,0,0,.14-.74h0a2.15,2.15,0,0,0-2.16-2.15h1.23s-1.63-5-4.82-6.82a3.21,3.21,0,1,0-5.38-2.37,3.18,3.18,0,0,0,.88,2.2c-3.65,1.65-5.8,7-5.8,7h1.22a2.16,2.16,0,0,0-2.16,2.15h0a2.2,2.2,0,0,0,.2.9c-.33,1.36-.08,3.69.61,4a1,1,0,0,0,.59.08c0,.68.07,1.34.14,1.93l-.23-.12a7.28,7.28,0,0,0,.81,4.19h0a6,6,0,0,0-2,3c-.21.54.2,1,.93,1.44l-1,.42h0c-.56.24-1.14.49-1.72.76-4.18,1-23.21,5.51-27.94,7.23-.55.2-1.07.39-1.57.59a41.18,41.18,0,0,0-6.42,3l.85,2.49-.85-2.49s-2.42.67-3.51,1-3.45.18-5.45,0-3.63,2.27-3.26,4.45,3.54,3.78,5.26,3.12,2.63-1.61,2.73-1.18-.91.87.36,1.33,1.36-1.82,2.9-2.63a14.81,14.81,0,0,1,2.67-1.13h0s13.92-.87,23.72-2.09c1.13-.14,2.15-.27,3.07-.4a22.07,22.07,0,0,0,.23,4.94c.48,2.48.7,3.65.81,4.22v0l.08.5h0c0,.13-.12.58-.23,1.24-4.86-.61-6.49,2.61-6.49,2.61-.43.49-1.1,3.28-1.81,6.84-.55,2.72-1.13,5.88-1.65,8.8h0c-.69,3.9-1.28,7.35-1.56,8.71a43.51,43.51,0,0,1-2.8,8,2.6,2.6,0,0,0-1-.06c-1.86.28-3.45,2.9-3.54,4l-.06.7c-12.75-3.29-23.17-6.22-25.48-7.49l-.25-.16,0,0c.41.38,11.79,10.74,14.08,11.53s62.44,15.72,68,17.59,13,4.57,17.45,2.24c2.4-1.25,4-2.93,4.33-4.43h0c.05-.46.07-.71.07-.71C758.68,475.8,758,474.93,756.55,474.4ZM688.49,455l1.11.3a.75.75,0,0,1-.64.31,5,5,0,0,1-1.83-1Zm9.9,6.77v-.56s1.12-.56,1.12-1.4a10.31,10.31,0,0,1,.48-2.1c1.22.25,2,.38,2,.38l1.31-17.47a19.81,19.81,0,0,0,10.92,7.64c7.21,1.86,10.38-.1,10.38-.1L724,462.49a.44.44,0,0,1,.09-.16,1.57,1.57,0,0,0-.09.17s.37.19,1,.46a4.23,4.23,0,0,0-1.9,2.13,34.9,34.9,0,0,0-1.15,3.36c-6.93-1.63-15.34-3.65-23.84-5.74A3.61,3.61,0,0,0,698.39,461.77Z"/><path class="cls-12" d="M766.07,427c-2.27-.72-5-1.78-5.36-2.4l-3.89,3.56s2.62,1.48,2.89,2.38,2.39,5.23,4.48,5.41,5.85-1.65,5.81-4.56C770,429.6,768.34,427.7,766.07,427Z"/></g></svg>