<svg id="Layer_1" data-name="Layer 1" xmlns="http://www.w3.org/2000/svg" viewBox="0 0 792 648"><defs><style>.cls-1{fill:#4ac0ae;}.cls-2{fill:#f73c4f;}.cls-3{fill:#fff;}.cls-4{fill:#de3647;}.cls-5{fill:#e63849;}.cls-6{fill:#cf3242;}</style></defs><title>WinterSports-Theme-Accessories</title><path class="cls-1" d="M431.83,262.37l-31.46.37h-.71l-31.45-.37s.4-1.38,1.15-3.58l.72-2.06a99.46,99.46,0,0,1,8.64-18.44l.53-.82c.44-.67.88-1.31,1.34-1.93l.58-.78a24,24,0,0,1,5.56-5.45c9.1-6.06,12.32-7.12,13.16-7.31v0h.25v0c.85.19,4.06,1.25,13.16,7.31a19.34,19.34,0,0,1,3.23,2.74c.23.23.44.46.66.7a42.71,42.71,0,0,1,4.72,6.51l.51.85A104.79,104.79,0,0,1,430,256.73c.27.74.51,1.43.72,2.06C431.43,261,431.83,262.37,431.83,262.37Z"/><path class="cls-2" d="M438.23,268.53v7a6.15,6.15,0,0,1-6.11,6.15H368.21a6.15,6.15,0,0,1-6.16-6.15v-7a6.16,6.16,0,0,1,6.16-6.16h63.87A6.15,6.15,0,0,1,438.23,268.53Z"/><path class="cls-3" d="M430.67,258.79H369.36l.72-2.06H430C430.22,257.47,430.46,258.16,430.67,258.79Z"/><path class="cls-3" d="M414.06,235.89h0l-.68.68h0l-.68-.68h0l-3.29-3.28-4,4h0l-4-4-4,4-4-4-3.28,3.28h0l-.69.68h0l-.68-.68h0l-3.28-3.28-4,4h0l-1-1,.58-.78.45.46,3.3-3.29h0l.68-.68h0l.68.67h0l3.28,3.28,3.28-3.28h0l.68-.68h0l.68.68h0l3.29,3.29,3.3-3.29h0l.68-.68h0l.68.68h0l3.29,3.29,3.29-3.29h0l.68-.68h0l.68.68h0l3.29,3.28,3.15-3.16c.23.23.44.46.66.7Z"/><path class="cls-3" d="M422.42,240.11l-1.08,1.08h0l-4-4-3.28,3.28h0l-.68.68h0l-.68-.68h0l-3.29-3.28-4,4h0l-4-4-4,4-4-4-3.28,3.28h0l-.69.68h0l-.68-.68h0l-3.28-3.28-4,4h0l-2.9-2.9.53-.82,2.37,2.36,3.3-3.29h0l.68-.68h0l.68.68h0l3.28,3.28,3.28-3.28h0l.68-.68h0l.68.68h0l3.29,3.29,3.3-3.29h0l.68-.68h0l.68.68h0l3.29,3.29,3.29-3.29h0l.68-.68h0l.68.68h0l3.29,3.28,3.28-3.28h0l.68-.68h0l.68.68h0l3.3,3.3.59-.58Z"/><path class="cls-2" d="M410,220a9.93,9.93,0,1,1-7.55-9.66A9.94,9.94,0,0,1,410,220Z"/><path class="cls-4" d="M410,220a9.94,9.94,0,0,1-7.55,9.65,10,10,0,0,1,0-19.31A10,10,0,0,1,410,220Z"/><rect class="cls-4" x="368.21" y="266.76" width="1.15" height="14.95"/><rect class="cls-4" x="373.44" y="266.76" width="1.15" height="14.95"/><rect class="cls-4" x="378.67" y="266.76" width="1.15" height="14.95"/><rect class="cls-4" x="383.9" y="266.76" width="1.15" height="14.95"/><rect class="cls-4" x="389.13" y="266.76" width="1.15" height="14.95"/><rect class="cls-4" x="394.36" y="266.76" width="1.15" height="14.95"/><rect class="cls-4" x="399.59" y="266.76" width="1.15" height="14.95"/><rect class="cls-4" x="404.82" y="266.76" width="1.15" height="14.95"/><rect class="cls-4" x="410.05" y="266.76" width="1.15" height="14.95"/><rect class="cls-4" x="415.28" y="266.76" width="1.15" height="14.95"/><rect class="cls-4" x="420.51" y="266.76" width="1.15" height="14.95"/><rect class="cls-4" x="425.74" y="266.76" width="1.15" height="14.95"/><rect class="cls-4" x="430.97" y="266.76" width="1.15" height="14.95"/><path class="cls-1" d="M334.22,311.6c-.18,3.15-1.22,14.82-.75,17.27a7.37,7.37,0,0,0,1.86,3.76l-14.81,9.5a115.35,115.35,0,0,0-11.89-10.8c-4.29-3.26-11.33-12.84-15-18.41-.37-.56-.72-1.08-1-1.56a16.41,16.41,0,0,1-1.4-2.46c0-.11-.07-.28-.11-.5s-.13-.88-.2-1.51c-.49-4.53-.74-14.86,3.47-17.08s12.86,1.8,16.62,4.14c.53.33,1,.62,1.27.86a2.94,2.94,0,0,1,.39.34,22.75,22.75,0,0,1,1.72,2.19l1,1.44c2.68,3.73,6.37,8.94,7.94,9.62,2.31,1,.11-9.15,4.93-9.21S334.4,308.46,334.22,311.6Z"/><path class="cls-3" d="M312.26,294.81l-1.36,3.5-.16,0-.05.15-5.85-.4-2.14,5.46h0l-5.85-.4-2.14,5.46h-.09l0,.08-3.48-.24c-.06-.37-.13-.88-.2-1.51l2.77.2,1.59-4.09.58-1.45h0l1.56.12,4.31.28,1.57-4,.56-1.46h0l1.57.11,4.44.3L311,294C311.52,294.28,312,294.57,312.26,294.81Z"/><polygon class="cls-3" points="292.61 311.36 296.59 311.63 298.19 307.56 298.76 306.1 298.76 306.1 300.32 306.2 304.63 306.49 306.2 302.48 306.76 301.03 306.77 301.02 308.33 301.13 312.77 301.43 314.37 297.34 315.4 298.78 313.81 302.86 313.66 302.84 313.61 302.99 307.76 302.58 305.62 308.05 305.6 308.04 305.6 308.06 299.75 307.66 297.61 313.12 297.53 313.11 297.5 313.19 293.62 312.92 292.61 311.36"/><path class="cls-5" d="M321,345.08l16.84-10.81A.92.92,0,0,0,338,333l-1.91-3a.94.94,0,0,0-1.25-.37l-16.83,10.81a.92.92,0,0,0-.18,1.28l1.91,3A.92.92,0,0,0,321,345.08Z"/><path class="cls-1" d="M510.84,315.6c-4.6,5.38-13.24,14.54-18.18,17.41a122.81,122.81,0,0,0-13.91,9.83l-14.34-11.92a7.82,7.82,0,0,0,2.44-3.71c.81-2.52,1.23-14.93,1.45-18.26s2.81-13,7.87-12.29,1.43,11.08,4,10.33c1.75-.51,6.31-5.51,9.6-9.09l1.28-1.39a25.51,25.51,0,0,1,2.09-2.08,4,4,0,0,1,.46-.31c.36-.21.85-.46,1.44-.73,4.26-2,13.86-5.1,18-2.21s2.54,13.72,1.44,18.42c-.15.65-.3,1.18-.41,1.56a4.83,4.83,0,0,1-.18.52,18.6,18.6,0,0,1-1.79,2.4h0C511.73,314.55,511.3,315.05,510.84,315.6Z"/><path class="cls-3" d="M514.07,311.16l-3.69-.19v-.09h-.09l-1.54-6-6.21-.34v0h0l-1.55-6-6.2-.33,0-.16h-.16l-1-3.86c.36-.21.85-.46,1.44-.73l.82,3.23,4.72.26,1.65.09h0l.41,1.6,1.13,4.43,4.56.25,1.65.09h0l.41,1.61,1.15,4.5,2.94.15C514.33,310.25,514.18,310.78,514.07,311.16Z"/><path class="cls-3" d="M510.84,315.6l-4.12-.23v-.08h-.09l-1.54-6-6.21-.34v0h0l-1.55-6-6.2-.33,0-.17h-.16l-1.15-4.49,1.28-1.39,1.15,4.52,4.71.25,1.66.1h0L499,303l1.14,4.43,4.56.25,1.65.08h0l.41,1.61,1.15,4.5,4.22.23C511.73,314.55,511.3,315.05,510.84,315.6Z"/><path class="cls-6" d="M461,332.56l16.31,13.55a1,1,0,0,0,1.36-.23l2.39-2.88a1,1,0,0,0,0-1.38l-16.31-13.55a1,1,0,0,0-1.36.24L461,331.19A1,1,0,0,0,461,332.56Z"/></svg>